<?xml version="1.0" encoding="UTF-8"?>
<svg width="103px" height="230px" viewBox="0 0 103 230" version="1.1" xmlns="http://www.w3.org/2000/svg" xmlns:xlink="http://www.w3.org/1999/xlink">
    <title>编组 13</title>
    <defs>
        <path d="M54.1045498,25.8824836 C55.995377,24.2673515 57.6649372,22.6589716 59.1132304,21.0595677 L58.7712723,19.2136247 C57.8862043,20.2173444 57.0212514,21.1515119 56.1361833,21.989943 L56.1361833,17.5005925 L58.8316179,16.1697101 L58.8316179,14.0276076 L56.1361833,15.301727 L56.1361833,13.1486712 L58.0873561,12.2665944 L58.0873561,10.1762491 L53.1993665,12.2862686 C53.5413246,11.3874839 53.8832828,10.4233028 54.2051257,9.42594898 L58.4695446,7.68239675 L58.4695446,5.46549037 L54.9292723,6.83608347 C55.0901938,6.19542624 55.2310001,5.54099745 55.3919215,4.83459091 L53.3804032,5.08478114 C52.8372932,7.97677849 51.9119948,10.9116437 50.6045079,13.8887684 L52.3142985,14.425329 L52.9982147,12.7977784 L52.9982147,14.5672688 L54.0844346,14.0762158 L54.0844346,16.2715791 L51.389,17.5456986 L51.389,19.8445348 L54.0844346,18.5136523 L54.0844346,22.8576691 C54.0844346,23.2780578 53.802822,23.7341247 53.2395969,24.2744327 L54.1045498,25.8824836 Z M65.7892582,19.7041179 C67.1201074,18.8879098 68.0005154,17.9389641 68.4100074,16.8522943 C68.8194995,15.7531616 69.0447201,13.0629834 69.106144,8.76948865 L65.4616645,10.42626 L65.4616645,8.06674937 L65.4616645,5.99700315 L65.4616645,3.63749247 L69.413263,2.11779254 L69.413263,0.132402126 L58.8893167,3.95502847 L58.8893167,6.1650763 L63.3732549,4.44064995 L63.3732549,11.3756459 L61.4691168,12.2412624 L61.4691168,6.61677462 L59.4011818,7.44163499 L59.4011818,15.4464351 L66.935836,11.8555303 C66.935836,14.240314 66.8129883,15.7509681 66.5877677,16.3787704 C66.3830217,17.0186793 66.0144788,17.4806573 65.4616645,17.7738591 C64.5403073,18.2625288 63.6189502,18.7090169 62.697593,19.1121431 L63.2913565,20.956381 C64.1922391,20.5439823 65.0112232,20.1337134 65.7892582,19.7041179 Z" id="path-1"></path>
    </defs>
    <g id="页面-1" stroke="none" stroke-width="1" fill="none" fill-rule="evenodd">
        <g id="贴纸备份" transform="translate(-1915.000000, -411.000000)">
            <g id="编组-13" transform="translate(1915.188439, 411.000000)">
                <path d="M28.4370465,0 L72.5480555,0 C79.9679046,-7.95315393e-15 85.9828806,6.01497608 85.9828806,13.4348251 L85.9828806,26.5640278 C85.9828806,29.674599 84.4654384,32.5895848 81.9174109,34.3737397 L81.9174109,34.3737397 L81.9174109,34.3737397 L99.5116418,76.9493659 C100.632294,79.6611902 101.209016,82.5668356 101.209016,85.5010906 L101.209016,209.135444 C101.209016,220.265218 92.1865516,229.287682 81.0567781,229.287682 L20.1522377,229.287682 C9.02246412,229.287682 1.97435548e-14,220.265218 0,209.135444 L0,85.4560713 C2.80659382e-14,82.550979 0.565317161,79.6736466 1.66443215,76.9845003 L19.061136,34.4209086 L19.061136,34.4209086 C16.5044683,32.4852687 15.0022214,29.4637023 15.0022214,26.2569514 L15.0022214,13.4348251 C15.0022214,6.01497608 21.0171974,4.91571783e-15 28.4370465,0 Z" id="矩形" fill="#FFFFFF"></path>
                <g id="编组" transform="translate(10.747860, 10.747860)">
                    <path d="M20.6000652,0 L59.1132304,0 C62.08117,-5.45201661e-16 64.4871605,2.40599043 64.4871605,5.37393004 L64.4871605,10.8445464 C64.4871605,12.9649785 63.240286,14.8871655 61.3040651,15.7516196 L56.4627401,17.9131001 L56.4627401,17.9131001 L23.027655,17.9131001 L18.3574109,15.768427 C16.4491751,14.8921255 15.2261351,12.984645 15.2261351,10.8848191 L15.2261351,5.37393004 C15.2261351,2.40599043 17.6321255,5.45201661e-16 20.6000652,0 Z" id="矩形" fill="#F4F4F4"></path>
                    <polygon id="矩形备份" fill="#F4F4F4" points="22.8392027 20.6000652 56.4262654 20.6000652 77.9219856 67.621953 1.79131001 67.621953"></polygon>
                    <rect id="矩形备份-2" fill="#F4F4F4" x="1.79131001" y="70.308918" width="76.1306756" height="117.778633"></rect>
                    <g id="编组-7" transform="translate(6.045671, 103.000326)" fill-rule="nonzero">
                        <g id="编组-2">
                            <path d="M21.1829584,2.77460446 L30.0390165,39.8267363 L19.7715322,45.5365069 L18.9282293,39.7788665 L13.2399137,42.6092432 L11.4496863,50.1428089 L-2.74967371,58.0216301 L15.3366623,3.3935993 L21.1829584,2.77460446 Z M17.0690154,27.3773132 L16.0029432,31.8584544 L17.5534714,31.0847786 L17.0690154,27.3773132 Z" id="形状" stroke="#FFFFFF" stroke-width="3.13479252" fill="#F42E2E"></path>
                            <path d="M43.1030564,5.39862825 C46.2507978,6.56161738 48.000618,9.32536179 48.7540175,12.6698474 C49.7692264,17.1765551 48.9255263,22.6636756 48.0690509,25.3883155 C47.2422517,27.9736893 45.3737394,31.1337453 41.6772267,33.5837658 L41.3014529,33.8263535 L28.4370465,40.6603645 L28.4370465,7.72298379 C38.0861565,3.36822772 42.7065242,5.22308012 43.1030564,5.39862825 Z M40.1934829,13.1076083 C39.7495849,12.8488751 39.0800358,12.8608698 38.3945749,12.9428101 C37.7366177,13.0214625 37.0472008,13.2017905 36.4143278,13.4622896 L36.4143278,13.4622896 L36.4143278,27.1797318 L36.7004337,27.0363739 C37.3496107,26.7046262 37.8698478,26.3919737 38.258678,26.0945808 C39.3140583,25.1935819 39.7208599,24.7218275 40.7633135,22.351127 C41.2026718,21.3476802 41.8466125,18.3191743 41.5760371,15.8193215 C41.4982141,15.1003133 41.3488359,14.4240999 41.0517739,13.8860184 C40.8849699,13.5838789 40.6696696,13.3271265 40.1934829,13.1076083 Z" id="形状" stroke="#FFFFFF" stroke-width="3.13479252" fill="#3ABD4F"></path>
                            <g id="钙">
                                <use fill="#3ABD4F" xlink:href="#path-1"></use>
                                <path stroke="#FFFFFF" stroke-width="2.23913752" d="M56.838156,3.52651457 L56.495,5.029 L59.5891133,3.83151559 L59.5891133,8.43418104 L59.206,8.591 L59.206,12.505 L59.9511866,12.2600458 L59.9511866,16.8655226 L59.514,17.081 L60.3141897,21.3961019 C58.645199,23.2862211 56.6734994,25.1896334 54.3977031,27.1013887 L53.7694908,27.6229797 L52.0612916,24.4472331 C51.9335896,23.5364437 52.9648658,23.2709819 52.9648658,22.8576691 L52.9648658,22.8576691 L52.9648658,20.3150487 L50.2694313,21.6459311 L50.2694313,16.8365668 L51.878,16.075 L51.878,15.461 L49.0610234,14.5777999 C50.6338521,11.2376258 51.7179819,7.95229072 52.3091275,4.72139551 L52.4207822,4.07594221 L56.838156,3.52651457 Z M58.863,17.402 L57.2557521,18.1964051 L57.2557521,19.229069 C57.613867,18.8347934 57.9736647,18.4274806 58.3381218,18.0090961 L58.863,17.402 Z M70.5328318,-1.46539773 L70.5328318,2.8867378 L66.5812333,4.40643774 L66.5812333,8.68748264 L70.2398169,7.02429952 C70.2269777,12.559992 69.9412247,15.9491548 69.4576599,17.2470835 C68.9726816,18.5340713 67.9597859,19.6862886 66.3745767,20.6584954 C65.2100827,21.3028081 64.0074796,21.8828293 62.6069373,22.4837447 L62.6069373,22.4837447 L61.3174827,18.4786804 C62.5240631,17.9903867 63.7305458,17.4247182 64.9370839,16.7847942 C65.2312778,16.6287596 65.4138496,16.3738868 65.5214514,16.0375905 C65.6769228,15.6022096 65.7572819,14.8122808 65.7931725,13.6403209 L65.7931725,13.6403209 L58.281613,17.2202192 L58.281,7.598 L57.7697479,7.79514577 L57.7697479,3.17055337 L70.5328318,-1.46539773 Z"></path>
                                <use stroke="#3ABD4F" stroke-width="0.671741255" xlink:href="#path-1"></use>
                            </g>
                            <path d="M66.726298,5.95415967 C66.726298,6.81980872 67.4280452,7.52155593 68.2936943,7.52155593 C69.1593433,7.52155593 69.8610905,6.81980872 69.8610905,5.95415967 C69.8610905,5.08851062 69.1593433,4.38676341 68.2936943,4.38676341 C67.4280452,4.38676341 66.726298,5.08851062 66.726298,5.95415967 Z" id="路径" fill="#F42E2E"></path>
                        </g>
                    </g>
                    <polygon id="矩形" fill="#3ABD4F" points="59.0317166 143.528715 62.0241092 143.528715 57.4034342 156.067885 54.4110417 156.067885"></polygon>
                    <polygon id="矩形备份-7" fill="#A0D350" points="65.0773879 143.528715 68.0697805 143.528715 63.4491055 156.067885 60.456713 156.067885"></polygon>
                    <polygon id="矩形备份-9" fill="#FFC946" points="70.8991455 143.528715 73.8915381 143.528715 69.2708631 156.067885 66.2784705 156.067885"></polygon>
                    <rect id="矩形备份-6" fill="#3ABD4F" x="1.79131001" y="81.0567781" width="76.1306756" height="13.4348251"></rect>
                    <polygon id="矩形备份-8" fill="#3ABD4F" points="1.79131001 163.904866 77.9219856 163.904866 77.9219856 177.339691 1.79131001 177.339691"></polygon>
                    <rect id="矩形备份-3" fill="#F4F4F4" x="0" y="70.308918" width="79.7132956" height="10.7478601" rx="2.68696502"></rect>
                    <rect id="矩形备份-4" fill="#F4F4F4" x="0" y="177.339691" width="79.7132956" height="10.7478601" rx="2.68696502"></rect>
                    <path d="M1.79131001,190.774516 L77.9219856,190.774516 C77.9219856,200.172992 70.3030159,207.791962 60.9045405,207.791962 L18.8087551,207.791962 C9.41027972,207.791962 1.79131001,200.172992 1.79131001,190.774516 L1.79131001,190.774516 L1.79131001,190.774516 Z" id="矩形备份-5" fill="#F4F4F4"></path>
                </g>
            </g>
        </g>
    </g>
</svg>