<?xml version="1.0" encoding="UTF-8"?>
<svg width="305px" height="305px" viewBox="0 0 305 305" version="1.1" xmlns="http://www.w3.org/2000/svg" xmlns:xlink="http://www.w3.org/1999/xlink">
    <title>编组 5</title>
    <defs>
        <path d="M8.42788912,1.14010651 L45.2975552,6.12775473 C48.9833358,6.6263591 51.7329241,9.77295054 51.7329241,13.4923033 L51.7329241,18.3105015 C51.7329241,22.4148769 48.4056705,25.7421305 44.3012951,25.7421305 L7.43162901,25.7421305 C3.32725364,25.7421305 1.39081944e-15,22.4148769 0,18.3105015 L0,8.50465507 C-2.27899786e-15,4.4002797 3.32725364,1.07302606 7.43162901,1.07302606 C7.76484403,1.07302606 8.09768182,1.09543678 8.42788912,1.14010651 Z" id="path-1"></path>
        <path d="M8.42788912,1.14010651 L45.2975552,6.12775473 C48.9833358,6.6263591 51.7329241,9.77295054 51.7329241,13.4923033 L51.7329241,18.3105015 C51.7329241,22.4148769 48.4056705,25.7421305 44.3012951,25.7421305 L7.43162901,25.7421305 C3.32725364,25.7421305 5.02641016e-16,22.4148769 0,18.3105015 L0,8.50465507 C-4.98988509e-15,4.4002797 3.32725364,1.07302606 7.43162901,1.07302606 C7.76484403,1.07302606 8.09768182,1.09543678 8.42788912,1.14010651 Z" id="path-3"></path>
    </defs>
    <g id="页面-1" stroke="none" stroke-width="1" fill="none" fill-rule="evenodd">
        <g id="贴纸备份-3" transform="translate(-295.000000, -567.000000)">
            <g id="编组-5" transform="translate(295.000000, 567.000000)">
                <g id="编组-11">
                    <circle id="椭圆形备份-5" fill="#0012FF" cx="152.199762" cy="152.199762" r="133.455949"></circle>
                    <circle id="椭圆形备份-7" stroke="#0012FF" stroke-width="9.51248514" cx="152.199762" cy="152.199762" r="147.44352"></circle>
                    <g id="编组-6" transform="translate(87.721045, 168.694318)">
                        <rect id="矩形" stroke="#000000" stroke-width="0.594530321" fill="#FF4700" x="22.7898409" y="0.297265161" width="23.3975504" height="45.1403736" rx="11.6987752"></rect>
                        <g id="矩形" transform="translate(0.000000, 24.741833)">
                            <mask id="mask-2" fill="white">
                                <use xlink:href="#path-1"></use>
                            </mask>
                            <path stroke="#000000" stroke-width="0.594530321" d="M7.43162901,0.775760899 C7.77817263,0.775760899 8.12432393,0.799068048 8.46773953,0.845524564 L8.46773953,0.845524564 L45.3374056,5.83317278 C47.2540115,6.09244706 48.9272074,7.04019797 50.1212519,8.40664617 C51.3152963,9.77309437 52.0301893,11.5582399 52.0301893,13.4923033 L52.0301893,13.4923033 L52.0301893,18.3105015 C52.0301893,20.4447767 51.1651033,22.3770002 49.7664486,23.775655 C48.3677938,25.1743097 46.4355703,26.0393957 44.3012951,26.0393957 L44.3012951,26.0393957 L7.43162901,26.0393957 C5.29735382,26.0393957 3.36513028,25.1743097 1.96647553,23.775655 C0.567820787,22.3770002 -0.297265161,20.4447767 -0.297265161,18.3105015 L-0.297265161,18.3105015 L-0.297265161,8.50465507 C-0.297265161,6.37037988 0.567820787,4.43815634 1.96647553,3.03950159 C3.36513028,1.64084685 5.29735382,0.775760899 7.43162901,0.775760899 Z"></path>
                            <rect fill="#2FE242" mask="url(#mask-2)" x="-4.49851514" y="18.7438131" width="62.2294594" height="15.744803"></rect>
                        </g>
                    </g>
                    <g id="编组-6备份" transform="translate(190.678479, 194.194318) scale(-1, 1) translate(-190.678479, -194.194318) translate(164.678479, 168.694318)">
                        <rect id="矩形" stroke="#000000" stroke-width="0.594530321" fill="#FF4700" x="22.7898409" y="0.297265161" width="23.3975504" height="45.1403736" rx="11.6987752"></rect>
                        <g id="矩形" transform="translate(0.000000, 24.741833)">
                            <mask id="mask-4" fill="white">
                                <use xlink:href="#path-3"></use>
                            </mask>
                            <path stroke="#000000" stroke-width="0.594530321" d="M7.43162901,0.775760899 C7.77817263,0.775760899 8.12432393,0.799068048 8.46773953,0.845524564 L8.46773953,0.845524564 L45.3374056,5.83317278 C47.2540115,6.09244706 48.9272074,7.04019797 50.1212519,8.40664617 C51.3152963,9.77309437 52.0301893,11.5582399 52.0301893,13.4923033 L52.0301893,13.4923033 L52.0301893,18.3105015 C52.0301893,20.4447767 51.1651033,22.3770002 49.7664486,23.775655 C48.3677938,25.1743097 46.4355703,26.0393957 44.3012951,26.0393957 L44.3012951,26.0393957 L7.43162901,26.0393957 C5.29735382,26.0393957 3.36513028,25.1743097 1.96647553,23.775655 C0.567820787,22.3770002 -0.297265161,20.4447767 -0.297265161,18.3105015 L-0.297265161,18.3105015 L-0.297265161,8.50465507 C-0.297265161,6.37037988 0.567820787,4.43815634 1.96647553,3.03950159 C3.36513028,1.64084685 5.29735382,0.775760899 7.43162901,0.775760899 Z"></path>
                            <rect fill="#2FE242" mask="url(#mask-4)" x="-4.49851514" y="18.7438131" width="62.2294594" height="15.744803"></rect>
                        </g>
                    </g>
                    <g id="编组-10备份" transform="translate(86.971293, 71.226490)" fill="#FF4700" stroke="#000000" stroke-width="0.594530321">
                        <rect id="矩形" x="-0.297265161" y="-0.297265161" width="131.801222" height="120.554934" rx="21.7003567"></rect>
                    </g>
                    <g id="编组-11备份" transform="translate(206.169075, 136.217581) scale(-1, 1) translate(-206.169075, -136.217581) translate(167.169075, 98.217581)" fill="#2FE242" stroke="#000000" stroke-width="0.594530321">
                        <path d="M62.9557822,13.7928106 C66.813895,13.7928106 70.3067607,15.3566198 72.8350981,17.8849572 C75.3634355,20.4132946 76.9272447,23.9061603 76.9272447,27.7642731 L76.9272447,27.7642731 L76.9272447,44.5352999 C76.9272447,53.0246039 73.4862744,60.7102262 67.9229781,66.2735225 C62.3596818,71.8368188 54.6740594,75.2777892 46.1847554,75.2777892 L46.1847554,75.2777892 L42.2860423,75.2777892 C33.7967383,75.2777892 26.111116,71.8368188 20.5478197,66.2735225 C14.9845233,60.7102262 11.543553,53.0246039 11.543553,44.5352999 L11.543553,44.5352999 L11.543553,27.7642731 C11.543553,23.9061603 13.1073622,20.4132946 15.6356996,17.8849572 C18.1640371,15.3566198 21.6569027,13.7928106 25.5150156,13.7928106 L25.5150156,13.7928106 Z" id="矩形"></path>
                        <rect id="矩形" x="11.543553" y="0.297265161" width="21.8980454" height="41.691512" rx="10.9490227"></rect>
                        <rect id="矩形备份-5" x="33.2863762" y="0.297265161" width="21.8980454" height="41.691512" rx="10.9490227"></rect>
                        <rect id="矩形备份-7" x="55.0291993" y="0.297265161" width="21.8980454" height="41.691512" rx="10.9490227"></rect>
                        <path d="M23.6576208,15.5922166 C26.2351686,15.5922166 28.5687001,16.6369743 30.2578446,18.3261189 C31.9469892,20.0152634 32.9917469,22.3487949 32.9917469,24.9263011 L32.9917469,24.9263011 L32.9907235,32.2361952 L40.3021268,32.2367226 C42.8796746,32.2367226 45.2132061,33.2814803 46.9023507,34.9706249 C48.5914952,36.6597694 49.6362529,38.993301 49.6362529,41.5708487 L49.6362529,41.5708487 L49.6362529,46.600048 C49.6362529,49.1775958 48.5914952,51.5111273 46.9023507,53.2002719 C45.2132061,54.8894164 42.8796746,55.9341741 40.3021268,55.9341741 L40.3021268,55.9341741 L19.078273,55.9341741 C16.3899566,55.9341741 13.9670915,54.7976791 12.2638842,52.9789683 C10.4308058,51.2613937 9.29429544,48.8385246 9.29429544,46.1501965 L9.29429544,46.1501965 L9.29429544,24.9263427 C9.29429544,22.3487949 10.3390531,20.0152634 12.0281977,18.3261189 C13.7173422,16.6369743 16.0508737,15.5922166 18.6284215,15.5922166 L18.6284215,15.5922166 Z" id="形状结合" transform="translate(29.465274, 35.763195) rotate(-315.000000) translate(-29.465274, -35.763195) "></path>
                    </g>
                    <g id="编组-11备份-2" transform="translate(59.230449, 98.217581)" fill="#2FE242" stroke="#000000" stroke-width="0.594530321">
                        <path d="M62.9557822,13.7928106 C66.813895,13.7928106 70.3067607,15.3566198 72.8350981,17.8849572 C75.3634355,20.4132946 76.9272447,23.9061603 76.9272447,27.7642731 L76.9272447,27.7642731 L76.9272447,44.5352999 C76.9272447,53.0246039 73.4862744,60.7102262 67.9229781,66.2735225 C62.3596818,71.8368188 54.6740594,75.2777892 46.1847554,75.2777892 L46.1847554,75.2777892 L42.2860423,75.2777892 C33.7967383,75.2777892 26.111116,71.8368188 20.5478197,66.2735225 C14.9845233,60.7102262 11.543553,53.0246039 11.543553,44.5352999 L11.543553,44.5352999 L11.543553,27.7642731 C11.543553,23.9061603 13.1073622,20.4132946 15.6356996,17.8849572 C18.1640371,15.3566198 21.6569027,13.7928106 25.5150156,13.7928106 L25.5150156,13.7928106 Z" id="矩形"></path>
                        <rect id="矩形" x="11.543553" y="0.297265161" width="21.8980454" height="41.691512" rx="10.9490227"></rect>
                        <rect id="矩形备份-5" x="33.2863762" y="0.297265161" width="21.8980454" height="41.691512" rx="10.9490227"></rect>
                        <rect id="矩形备份-7" x="55.0291993" y="0.297265161" width="21.8980454" height="41.691512" rx="10.9490227"></rect>
                        <path d="M23.6576208,15.5922166 C26.2351686,15.5922166 28.5687001,16.6369743 30.2578446,18.3261189 C31.9469892,20.0152634 32.9917469,22.3487949 32.9917469,24.9263011 L32.9917469,24.9263011 L32.9907235,32.2361952 L40.3021268,32.2367226 C42.8796746,32.2367226 45.2132061,33.2814803 46.9023507,34.9706249 C48.5914952,36.6597694 49.6362529,38.993301 49.6362529,41.5708487 L49.6362529,41.5708487 L49.6362529,46.600048 C49.6362529,49.1775958 48.5914952,51.5111273 46.9023507,53.2002719 C45.2132061,54.8894164 42.8796746,55.9341741 40.3021268,55.9341741 L40.3021268,55.9341741 L19.078273,55.9341741 C16.3899566,55.9341741 13.9670915,54.7976791 12.2638842,52.9789683 C10.4308058,51.2613937 9.29429544,48.8385246 9.29429544,46.1501965 L9.29429544,46.1501965 L9.29429544,24.9263427 C9.29429544,22.3487949 10.3390531,20.0152634 12.0281977,18.3261189 C13.7173422,16.6369743 16.0508737,15.5922166 18.6284215,15.5922166 L18.6284215,15.5922166 Z" id="形状结合" transform="translate(29.465274, 35.763195) rotate(-315.000000) translate(-29.465274, -35.763195) "></path>
                    </g>
                    <g id="编组-3" transform="translate(101.216591, 47.234409)">
                        <circle id="椭圆形" stroke="#000000" stroke-width="0.594530321" fill="#FFFFFF" cx="23.9920807" cy="23.9920807" r="23.6948156"></circle>
                        <circle id="椭圆形" fill="#000000" cx="23.9920807" cy="23.9920807" r="9.7467828"></circle>
                    </g>
                    <g id="编组-3备份" transform="translate(155.198772, 47.234409)">
                        <circle id="椭圆形" stroke="#000000" stroke-width="0.594530321" fill="#FFFFFF" cx="23.9920807" cy="23.9920807" r="23.6948156"></circle>
                        <circle id="椭圆形" fill="#000000" cx="23.9920807" cy="23.9920807" r="9.7467828"></circle>
                    </g>
                </g>
                <text id="#cheer-up#" font-family="FZPTYJW--GB1-0, FZPangTouYu-M24S" font-size="14.863258" font-weight="normal" fill="#2AFF41">
                    <tspan x="93.7190654" y="248.346146">#cheer up#</tspan>
                </text>
            </g>
        </g>
    </g>
</svg>