<?xml version="1.0" encoding="UTF-8"?>
<svg width="306px" height="305px" viewBox="0 0 306 305" version="1.1" xmlns="http://www.w3.org/2000/svg" xmlns:xlink="http://www.w3.org/1999/xlink">
    <title>编组 10</title>
    <g id="页面-1" stroke="none" stroke-width="1" fill="none" fill-rule="evenodd">
        <g id="贴纸备份-3" transform="translate(-1626.000000, -567.000000)">
            <g id="编组-10" transform="translate(1626.747919, 567.000000)">
                <g id="编组-2备份">
                    <ellipse id="椭圆形备份" fill="#FF4700" cx="152.24486" cy="151.824886" rx="131.251789" ry="131.581568"></ellipse>
                    <circle id="椭圆形备份-2" stroke="#FF4700" stroke-width="9.51248514" cx="152.199762" cy="152.199762" r="147.44352"></circle>
                    <circle id="椭圆形备份-6" stroke="#000000" stroke-width="0.594530321" fill="#2FE242" cx="152.199762" cy="133.455949" r="76.7720225"></circle>
                    <g id="编组-3备份-3" transform="translate(107.214611, 72.725995)">
                        <rect id="矩形" stroke="#000000" stroke-width="0.594530321" fill="#FFFFFF" x="0.297265161" y="0.297265161" width="41.391611" height="45.8901261" rx="20.6958055"></rect>
                        <circle id="椭圆形" fill="#000000" cx="20.9930706" cy="22.4925757" r="9.7467828"></circle>
                    </g>
                    <g id="编组-3备份-4" transform="translate(155.198772, 72.725995)">
                        <rect id="矩形" stroke="#000000" stroke-width="0.594530321" fill="#FFFFFF" x="0.297265161" y="0.297265161" width="41.391611" height="45.8901261" rx="20.6958055"></rect>
                        <circle id="椭圆形" fill="#000000" cx="20.9930706" cy="22.4925757" r="9.7467828"></circle>
                    </g>
                    <text id="#look-here#" font-family="FZPTYJW--GB1-0, FZPangTouYu-M24S" font-size="14.863258" font-weight="normal" fill="#2AFF41">
                        <tspan x="90.7200553" y="254.344166">#look here#</tspan>
                    </text>
                </g>
                <g id="编组-7备份" transform="translate(61.479707, 116.711146)" fill="#0012FF" stroke="#000000" stroke-width="0.594530321">
                    <path d="M30.5453954,1.07437697 C32.6244559,0.491188703 34.9191173,0.684935668 36.9480593,1.77671794 L36.9480593,1.77671794 L41.5544228,4.43152772 C43.5746967,5.59793339 44.9442525,7.45858706 45.5357024,9.53816058 C46.1289811,11.6241648 45.9394085,13.93046 44.8425309,15.9695602 L44.8425309,15.9695602 L40.3323885,23.7893554 L81.052348,23.7898409 C83.3868587,23.7898409 85.5046394,24.717787 87.0569444,26.2249653 C88.6138813,27.7366409 89.6020324,29.8309874 89.6692356,32.1478171 L89.6692356,32.1478171 L89.6730376,37.0671966 C89.6730376,39.4017073 88.7450915,41.5194881 87.2379132,43.071793 C85.7262376,44.6287299 83.631891,45.6168811 81.3152423,45.6840841 L81.3152423,45.6840841 L58.1827301,45.68788 L58.1834269,89.1735326 L21.9976219,89.1735326 C16.0701934,89.1735326 10.6978282,86.7970153 6.78138827,82.9448248 C2.85832117,79.0861159 0.396069701,73.7467479 0.300212211,67.8369075 L0.300212211,67.8369075 L0.297265161,45.4901976 C0.297265161,41.1161432 1.59131365,37.0443101 3.81762582,33.6367878 C6.13178054,30.0948165 9.45299393,27.2704847 13.3748299,25.570459 L13.3748299,25.570459 L25.439449,5.0114007 C26.6142385,3.00946472 28.472681,1.65578514 30.5453954,1.07437697 Z" id="形状结合"></path>
                    <path d="M50.462445,57.3787539 C52.8429827,57.3787539 54.9981551,58.3436574 56.5581931,59.9036954 C58.1182311,61.4637334 59.0831347,63.6189058 59.0831347,65.9994435 L59.0831347,65.9994435 L59.0831347,90.4495762 C59.0831347,92.8301139 58.1182311,94.9852863 56.5581931,96.5453243 C54.9981551,98.1053623 52.8429827,99.0702659 50.462445,99.0702659 L50.462445,99.0702659 L45.805779,99.0702659 C43.4252412,99.0702659 41.2700688,98.1053623 39.7100308,96.5453243 C38.1499929,94.9852863 37.1850893,92.8301139 37.1850893,90.4495762 L37.1850893,90.4495762 L37.1850893,65.9994435 C37.1850893,63.6189058 38.1499929,61.4637334 39.7100308,59.9036954 C41.2700688,58.3436574 43.4252412,57.3787539 45.805779,57.3787539 L45.805779,57.3787539 Z" id="矩形" transform="translate(48.134112, 78.224510) scale(-1, 1) rotate(-90.000000) translate(-48.134112, -78.224510) "></path>
                    <path d="M50.462445,35.6359307 C52.8429827,35.6359307 54.9981551,36.6008343 56.5581931,38.1608723 C58.1182311,39.7209102 59.0831347,41.8760827 59.0831347,44.2566204 L59.0831347,44.2566204 L59.0831347,68.706753 C59.0831347,71.0872908 58.1182311,73.2424632 56.5581931,74.8025012 C54.9981551,76.3625391 52.8429827,77.3274427 50.462445,77.3274427 L50.462445,77.3274427 L45.805779,77.3274427 C43.4252412,77.3274427 41.2700688,76.3625391 39.7100308,74.8025012 C38.1499929,73.2424632 37.1850893,71.0872908 37.1850893,68.706753 L37.1850893,68.706753 L37.1850893,44.2566204 C37.1850893,41.8760827 38.1499929,39.7209102 39.7100308,38.1608723 C41.2700688,36.6008343 43.4252412,35.6359307 45.805779,35.6359307 L45.805779,35.6359307 Z" id="矩形备份-5" transform="translate(48.134112, 56.481687) scale(-1, 1) rotate(-90.000000) translate(-48.134112, -56.481687) "></path>
                </g>
                <g id="编组-7备份-2" transform="translate(153.699267, 116.711146)" fill="#0012FF" stroke="#000000" stroke-width="0.594530321">
                    <path d="M30.5453954,1.07437697 C32.6244559,0.491188703 34.9191173,0.684935668 36.9480593,1.77671794 L36.9480593,1.77671794 L41.5544228,4.43152772 C43.5746967,5.59793339 44.9442525,7.45858706 45.5357024,9.53816058 C46.1289811,11.6241648 45.9394085,13.93046 44.8425309,15.9695602 L44.8425309,15.9695602 L40.3323885,23.7893554 L81.052348,23.7898409 C83.3868587,23.7898409 85.5046394,24.717787 87.0569444,26.2249653 C88.6138813,27.7366409 89.6020324,29.8309874 89.6692356,32.1478171 L89.6692356,32.1478171 L89.6730376,37.0671966 C89.6730376,39.4017073 88.7450915,41.5194881 87.2379132,43.071793 C85.7262376,44.6287299 83.631891,45.6168811 81.3152423,45.6840841 L81.3152423,45.6840841 L58.1827301,45.68788 L58.1834269,89.1735326 L21.9976219,89.1735326 C16.0701934,89.1735326 10.6978282,86.7970153 6.78138827,82.9448248 C2.85832117,79.0861159 0.396069701,73.7467479 0.300212211,67.8369075 L0.300212211,67.8369075 L0.297265161,45.4901976 C0.297265161,41.1161432 1.59131365,37.0443101 3.81762582,33.6367878 C6.13178054,30.0948165 9.45299393,27.2704847 13.3748299,25.570459 L13.3748299,25.570459 L25.439449,5.0114007 C26.6142385,3.00946472 28.472681,1.65578514 30.5453954,1.07437697 Z" id="形状结合"></path>
                    <path d="M50.462445,57.3787539 C52.8429827,57.3787539 54.9981551,58.3436574 56.5581931,59.9036954 C58.1182311,61.4637334 59.0831347,63.6189058 59.0831347,65.9994435 L59.0831347,65.9994435 L59.0831347,90.4495762 C59.0831347,92.8301139 58.1182311,94.9852863 56.5581931,96.5453243 C54.9981551,98.1053623 52.8429827,99.0702659 50.462445,99.0702659 L50.462445,99.0702659 L45.805779,99.0702659 C43.4252412,99.0702659 41.2700688,98.1053623 39.7100308,96.5453243 C38.1499929,94.9852863 37.1850893,92.8301139 37.1850893,90.4495762 L37.1850893,90.4495762 L37.1850893,65.9994435 C37.1850893,63.6189058 38.1499929,61.4637334 39.7100308,59.9036954 C41.2700688,58.3436574 43.4252412,57.3787539 45.805779,57.3787539 L45.805779,57.3787539 Z" id="矩形" transform="translate(48.134112, 78.224510) scale(-1, 1) rotate(-90.000000) translate(-48.134112, -78.224510) "></path>
                    <path d="M50.462445,35.6359307 C52.8429827,35.6359307 54.9981551,36.6008343 56.5581931,38.1608723 C58.1182311,39.7209102 59.0831347,41.8760827 59.0831347,44.2566204 L59.0831347,44.2566204 L59.0831347,68.706753 C59.0831347,71.0872908 58.1182311,73.2424632 56.5581931,74.8025012 C54.9981551,76.3625391 52.8429827,77.3274427 50.462445,77.3274427 L50.462445,77.3274427 L45.805779,77.3274427 C43.4252412,77.3274427 41.2700688,76.3625391 39.7100308,74.8025012 C38.1499929,73.2424632 37.1850893,71.0872908 37.1850893,68.706753 L37.1850893,68.706753 L37.1850893,44.2566204 C37.1850893,41.8760827 38.1499929,39.7209102 39.7100308,38.1608723 C41.2700688,36.6008343 43.4252412,35.6359307 45.805779,35.6359307 L45.805779,35.6359307 Z" id="矩形备份-5" transform="translate(48.134112, 56.481687) scale(-1, 1) rotate(-90.000000) translate(-48.134112, -56.481687) "></path>
                </g>
            </g>
        </g>
    </g>
</svg>