<?xml version="1.0" encoding="UTF-8"?>
<svg width="261px" height="228px" viewBox="0 0 261 228" version="1.1" xmlns="http://www.w3.org/2000/svg" xmlns:xlink="http://www.w3.org/1999/xlink">
    <title>编组 3备份 14</title>
    <defs>
        <path d="M29.5890411,0.547945205 L185.254186,0.547945205 C197.359057,0.5368539 207.171994,10.3497909 207.171994,22.4546621 C207.171994,22.4583602 207.171993,22.4620582 207.1609,22.4657506 L207.100367,153.249301 C207.086466,163.016532 206.065909,166.557844 204.153107,170.128408 C202.240306,173.698973 199.436394,176.501466 195.864861,178.41246 C192.293329,180.323454 188.751501,181.342219 178.984264,181.351176 L35.8589625,181.351176 C26.0917254,181.342219 22.5498978,180.323454 18.9783654,178.41246 C15.406833,176.501466 12.6029212,173.698973 10.6901194,170.128408 C8.77731759,166.557844 7.7567606,163.016532 7.74285959,153.249301 L7.68232699,22.4657506 C7.66510858,10.3608866 17.4730773,0.542983816 29.577947,0.536856707 C29.581645,0.536854836 29.5853431,0.5368539 29.5890411,0.547945205 Z" id="path-1"></path>
        <filter x="-6.0%" y="-6.6%" width="112.0%" height="113.3%" filterUnits="objectBoundingBox" id="filter-2">
            <feOffset dx="-24" dy="-4" in="SourceAlpha" result="shadowOffsetInner1"></feOffset>
            <feComposite in="shadowOffsetInner1" in2="SourceAlpha" operator="arithmetic" k2="-1" k3="1" result="shadowInnerInner1"></feComposite>
            <feColorMatrix values="0 0 0 0 1   0 0 0 0 0.690196078   0 0 0 0 0.37254902  0 0 0 1 0" type="matrix" in="shadowInnerInner1"></feColorMatrix>
        </filter>
        <path d="M13.1506849,0 L190.733638,0 C197.99656,-0.010719937 203.884323,5.87704226 203.884323,13.139965 C203.884323,13.1435398 203.884321,13.1471145 203.873598,13.1506806 L203.812034,95.3618836 C203.798596,101.221178 203.185055,103.345396 202.036425,105.487284 C200.887795,107.629173 199.205174,109.310423 197.062349,110.457305 C194.919525,111.604188 192.794808,112.215996 186.935504,112.224657 L16.9488187,112.224657 C11.0895149,112.215996 8.9647981,111.604188 6.82197357,110.457305 C4.67914904,109.310423 2.99652725,107.629173 1.8478975,105.487284 C0.699267744,103.345396 0.0857270525,101.221178 0.0722885567,95.3618836 L0.0107243063,13.1506806 C-0.005918498,5.88776898 5.8770403,-0.00479269342 13.1399606,-0.0107155642 C13.1435354,-0.0107184794 13.1471102,-0.010719937 13.1506849,0 Z" id="path-3"></path>
        <circle id="path-5" cx="45.1993912" cy="45.1993912" r="45.1993912"></circle>
    </defs>
    <g id="页面-1" stroke="none" stroke-width="1" fill="none" fill-rule="evenodd">
        <g id="贴纸" transform="translate(-954.000000, -824.000000)">
            <g id="编组-3备份-14" transform="translate(976.986301, 846.575342)">
                <g id="编组-12" transform="translate(0.523592, 0.012177)">
                    <path d="M29.5787276,-10.4220474 L185.250088,-10.4109592 C194.328821,-10.4176708 202.548055,-6.74176282 208.49835,-0.794478233 C214.449464,5.15362379 218.130898,13.37414 218.130893,22.464619 L218.130893,22.464619 L218.115672,39.2174021 C219.588135,40.587254 220.888701,42.1395781 221.981172,43.8387852 C224.396501,47.5955385 225.802131,52.066234 225.802127,56.8756273 L225.802127,56.8756273 L225.729832,139.105049 C225.713298,146.599402 224.785159,149.989671 223.46743,152.790155 L223.293386,153.15238 C223.234664,153.272199 223.175248,153.391192 223.115181,153.509648 L222.933071,153.863693 C222.841084,154.040198 222.747728,154.216145 222.65315,154.392507 C221.404769,156.720406 219.82475,158.762224 217.93928,160.491795 L217.811,160.606 L217.791904,160.865343 C217.298745,167.114232 216.151036,170.601694 214.613305,173.74769 L214.391005,174.195056 L214.391005,174.195056 L214.163569,174.639345 C214.048596,174.860981 213.931762,175.082051 213.813163,175.303436 C210.864156,180.808251 206.541306,185.128913 201.034999,188.075134 C200.964332,188.112945 200.893701,188.150579 200.823075,188.188035 L200.399142,188.410586 C195.943542,190.724207 191.273733,192.299251 178.98919,192.31008 L178.98919,192.31008 L35.8540369,192.31008 C23.5694935,192.299251 18.899685,190.724207 14.4440843,188.410586 L14.0201522,188.188035 L14.0201522,188.188035 L13.808228,188.075134 C8.30192104,185.128913 3.979071,180.808251 1.03006409,175.303436 C-0.906977342,171.687624 -2.37307229,168.155987 -2.94904491,160.866752 L-2.969,160.605 L-3.096053,160.491795 C-4.86368112,158.870322 -6.3628466,156.974414 -7.57197208,154.82563 L-7.80992358,154.392507 C-7.87297723,154.274929 -7.93548746,154.157536 -7.99741135,154.040038 L-8.18138113,153.686946 C-8.27244361,153.509954 -8.3620903,153.332079 -8.45017638,153.152345 L-8.62422484,152.79011 C-9.94198554,149.989542 -10.8701323,146.59914 -10.8866063,139.104312 L-10.8866063,139.104312 L-10.9481713,56.892128 C-10.9572807,52.0900655 -9.55776196,47.6162532 -7.14596891,43.8551645 C-6.05163736,42.148601 -4.74728971,40.5895971 -3.26950561,39.2142099 L-3.26950561,39.2142099 L-3.27657406,22.4753191 C-3.28786037,13.3966209 0.383882911,5.175557 6.32813825,-0.777731591 C12.2732272,-6.73185511 20.491879,-10.4174497 29.5787276,-10.4220474 L29.5787276,-10.4220474 Z" id="形状结合" stroke="#FFFFFF" stroke-width="21.9178082"></path>
                    <g id="矩形">
                        <use fill="#FFFFFF" fill-rule="evenodd" xlink:href="#path-1"></use>
                        <use fill="black" fill-opacity="1" filter="url(#filter-2)" xlink:href="#path-1"></use>
                        <path stroke="#363636" stroke-width="5.47945205" d="M29.5777518,3.27658273 L185.256696,3.28767008 C190.551192,3.28281891 195.344498,5.42621326 198.814408,8.8943672 C202.285455,12.3636575 204.432268,17.1584724 204.432268,22.4531618 L204.432268,22.4531618 L204.360644,153.245402 C204.347845,162.238044 203.504708,165.53697 201.738094,168.834651 C200.084343,171.921654 197.660166,174.344604 194.572327,175.996792 C191.273752,177.761737 187.974399,178.603204 178.984264,178.61145 L178.984264,178.61145 L35.861475,178.611451 C26.8688274,178.603204 23.5694749,177.761737 20.2708997,175.996792 C17.1830609,174.344604 14.7588837,171.921654 13.1051332,168.834651 C11.3385188,165.53697 10.4953814,162.238044 10.4825853,153.248033 L10.4825853,153.248033 L10.4220502,22.4618535 C10.4145192,17.1673602 12.555487,12.3729703 16.0218841,8.90130545 C19.4894171,5.42850303 24.2831447,3.27926315 29.5777518,3.27658273 L29.5777518,3.27658273 Z" stroke-linejoin="square"></path>
                    </g>
                    <g id="矩形" transform="translate(5.479452, 43.726027)">
                        <mask id="mask-4" fill="white">
                            <use xlink:href="#path-3"></use>
                        </mask>
                        <path stroke="#000000" stroke-width="5.47945205" d="M13.1401259,-2.75044159 L190.729594,-2.73972304 C195.118241,-2.7462006 199.091504,-0.970917536 201.967886,1.90311954 C204.844533,4.77742149 206.624049,8.7508467 206.624048,13.1423737 L206.624048,13.1423737 L206.551753,95.3681672 C206.53654,102.001259 205.745706,104.367579 204.45088,106.782083 C203.043241,109.406955 200.981198,111.467318 198.355179,112.872816 C195.939619,114.165672 193.572656,114.954576 186.935504,114.964383 L186.935504,114.964383 L16.9447693,114.96438 C10.3116669,114.954576 7.94470341,114.165672 5.52914397,112.872816 C2.90312478,111.467318 0.841081409,109.406955 -0.566557773,106.782083 C-1.86138308,104.367579 -2.65221704,102.001259 -2.6674367,95.3639352 L-2.6674367,95.3639352 L-2.72899453,13.1569586 C-2.739051,8.76831835 -0.967008698,4.7936088 1.90468175,1.9148842 C4.77663685,-0.964105695 8.74860956,-2.74686138 13.1401259,-2.75044159 L13.1401259,-2.75044159 Z"></path>
                        <rect fill="#FF7C7C" mask="url(#mask-4)" x="183.062405" y="-5.7716895" width="20.8219178" height="118.453577"></rect>
                    </g>
                    <path d="M154.179604,12.5540335 L172.882801,12.5540335 C174.076223,12.5540335 175.166742,12.8489369 176.090356,13.374744 C177.013971,13.9005511 177.770682,14.6572618 178.296489,15.5808765 C178.822296,16.5044911 179.117199,17.5950096 179.117199,18.7884323 C179.117199,19.9818549 178.822296,21.0723734 178.296489,21.9959881 C177.770682,22.9196027 177.013971,23.6763134 176.090356,24.2021205 C175.166742,24.7279276 174.076223,25.0228311 172.882801,25.0228311 L154.179604,25.0228311 C152.986182,25.0228311 151.895663,24.7279276 150.972048,24.2021205 C150.048434,23.6763134 149.291723,22.9196027 148.765916,21.9959881 C148.240109,21.0723734 147.945205,19.9818549 147.945205,18.7884323 C147.945205,17.5950096 148.240109,16.5044911 148.765916,15.5808765 C149.291723,14.6572618 150.048434,13.9005511 150.972048,13.374744 C151.895663,12.8489369 152.986182,12.5540335 154.179604,12.5540335 Z" id="矩形" fill="#363636"></path>
                    <path d="M31.0502283,127.890411 C32.4848797,127.890411 33.8289856,128.278083 34.9835039,128.954384 C36.1380222,129.630685 37.1029529,130.595616 37.779254,131.750134 C38.4555552,132.904652 38.8432268,134.248758 38.8432268,135.683409 C38.8432268,137.118061 38.4555552,138.462167 37.779254,139.616685 C37.1029529,140.771203 36.1380222,141.736134 34.9835039,142.412435 C33.8289856,143.088736 32.4848797,143.476408 31.0502283,143.476408 C29.6155769,143.476408 28.2714711,143.088736 27.1169528,142.412435 C25.9624345,141.736134 24.9975037,140.771203 24.3212026,139.616685 C23.6449014,138.462167 23.2572298,137.118061 23.2572298,135.683409 C23.2572298,134.248758 23.6449014,132.904652 24.3212026,131.750134 C24.9975037,130.595616 25.9624345,129.630685 27.1169528,128.954384 C28.2714711,128.278083 29.6155769,127.890411 31.0502283,127.890411 Z" id="矩形备份-3" fill="#363636"></path>
                    <g id="编组-16" transform="translate(62.222222, 36.395738)">
                        <g id="椭圆形">
                            <use fill="#363636" fill-rule="evenodd" xlink:href="#path-5"></use>
                            <circle stroke="#363636" stroke-width="7.67123288" cx="45.1993912" cy="45.1993912" r="49.0350076"></circle>
                            <circle stroke="#FFFFFF" stroke-width="7.67123288" stroke-linejoin="square" cx="45.1993912" cy="45.1993912" r="41.3637747"></circle>
                        </g>
                        <path d="M24.9375951,14.0273973 C30.1023402,14.0273973 34.2891933,18.2142504 34.2891933,23.3789954 C34.2891933,28.5437405 30.1023402,32.7305936 24.9375951,32.7305936 C19.7728501,32.7305936 15.585997,28.5437405 15.585997,23.3789954 C15.585997,18.2142504 19.7728501,14.0273973 24.9375951,14.0273973 Z" id="矩形备份-4" fill="#FFFFFF"></path>
                    </g>
                </g>
            </g>
        </g>
    </g>
</svg>