<?xml version="1.0" encoding="UTF-8"?>
<svg width="282px" height="216px" viewBox="0 0 282 216" version="1.1" xmlns="http://www.w3.org/2000/svg" xmlns:xlink="http://www.w3.org/1999/xlink">
    <title>编组 3备份 9</title>
    <defs>
        <path d="M16.0854783,39.8875552 L101.301118,39.8875552 C107.073798,39.8875552 111.753479,44.5672362 111.753479,50.3399154 C111.753479,51.9466882 111.383044,53.5318304 110.670955,54.9721939 L62.1697869,153.076829 C55.4211944,166.727391 40.1122502,173.876813 25.3132562,170.289178 C10.6250943,166.728411 0.53923687,153.233084 1.28467951,138.137871 L5.64583967,49.8243777 C5.92067913,44.2588785 10.5131971,39.8875552 16.0854783,39.8875552 Z" id="path-1"></path>
        <filter x="-6.1%" y="-6.2%" width="107.9%" height="108.6%" filterUnits="objectBoundingBox" id="filter-2">
            <feOffset dx="-17" dy="-3" in="SourceAlpha" result="shadowOffsetInner1"></feOffset>
            <feComposite in="shadowOffsetInner1" in2="SourceAlpha" operator="arithmetic" k2="-1" k3="1" result="shadowInnerInner1"></feComposite>
            <feColorMatrix values="0 0 0 0 0.968627451   0 0 0 0 0.725490196   0 0 0 0 0.937254902  0 0 0 1 0" type="matrix" in="shadowInnerInner1"></feColorMatrix>
        </filter>
        <path d="M138.705069,39.8875552 L223.920709,39.8875552 C229.693388,39.8875552 234.373069,44.5672362 234.373069,50.3399154 C234.373069,51.9466882 234.002635,53.5318304 233.290545,54.9721939 L184.789377,153.076829 C178.040785,166.727391 162.731841,173.876813 147.932847,170.289178 C133.244685,166.728411 123.158827,153.233084 123.90427,138.137871 L128.26543,49.8243777 C128.54027,44.2588785 133.132787,39.8875552 138.705069,39.8875552 Z" id="path-3"></path>
        <filter x="-6.1%" y="-6.2%" width="107.9%" height="108.6%" filterUnits="objectBoundingBox" id="filter-4">
            <feOffset dx="17" dy="-3" in="SourceAlpha" result="shadowOffsetInner1"></feOffset>
            <feComposite in="shadowOffsetInner1" in2="SourceAlpha" operator="arithmetic" k2="-1" k3="1" result="shadowInnerInner1"></feComposite>
            <feColorMatrix values="0 0 0 0 0.968627451   0 0 0 0 0.725490196   0 0 0 0 0.937254902  0 0 0 1 0" type="matrix" in="shadowInnerInner1"></feColorMatrix>
        </filter>
        <circle id="path-5" cx="59.8313328" cy="52.1606491" r="52.1606491"></circle>
        <filter x="-6.9%" y="-6.9%" width="113.9%" height="113.9%" filterUnits="objectBoundingBox" id="filter-6">
            <feOffset dx="-7" dy="-9" in="SourceAlpha" result="shadowOffsetInner1"></feOffset>
            <feComposite in="shadowOffsetInner1" in2="SourceAlpha" operator="arithmetic" k2="-1" k3="1" result="shadowInnerInner1"></feComposite>
            <feColorMatrix values="0 0 0 0 0.968627451   0 0 0 0 0.725490196   0 0 0 0 0.937254902  0 0 0 1 0" type="matrix" in="shadowInnerInner1"></feColorMatrix>
        </filter>
        <circle id="path-7" cx="180.916786" cy="52.1606491" r="52.1606491"></circle>
        <filter x="-6.9%" y="-6.9%" width="113.9%" height="113.9%" filterUnits="objectBoundingBox" id="filter-8">
            <feOffset dx="-7" dy="-9" in="SourceAlpha" result="shadowOffsetInner1"></feOffset>
            <feComposite in="shadowOffsetInner1" in2="SourceAlpha" operator="arithmetic" k2="-1" k3="1" result="shadowInnerInner1"></feComposite>
            <feColorMatrix values="0 0 0 0 0.968627451   0 0 0 0 0.725490196   0 0 0 0 0.937254902  0 0 0 1 0" type="matrix" in="shadowInnerInner1"></feColorMatrix>
        </filter>
    </defs>
    <g id="页面-1" stroke="none" stroke-width="1" fill="none" fill-rule="evenodd">
        <g id="贴纸" transform="translate(-2114.000000, -827.000000)">
            <g id="编组-11" transform="translate(2134.794521, 849.315068)">
                <path d="M180.653458,-10.4054831 C197.789528,-10.4054831 213.320488,-3.53869615 224.642682,7.59059948 C235.997625,18.7520865 243.118089,34.2010434 243.383213,51.311689 L243.383213,51.311689 L243.387815,51.8793738 L249.212458,136.864513 C249.905571,146.977452 246.903621,156.603996 241.265476,164.298992 C235.62733,171.993988 227.35299,177.757436 217.501322,180.144185 C207.770078,182.501758 197.873304,181.367765 189.269746,177.423558 C180.632053,173.463702 173.298335,166.670875 168.743639,157.735366 L168.743639,157.735366 L144.588377,108.914374 L96.5066318,108.914374 L72.5872808,157.267355 C68.1000032,166.33806 60.769537,173.248674 52.1020343,177.295908 C43.4345316,181.343143 33.4299924,182.526997 23.5945688,180.144185 C13.7429005,177.757436 5.46856003,171.993988 -0.169585212,164.298992 C-5.80773045,156.603996 -8.80968048,146.977452 -8.11656798,136.864513 L-8.11656798,136.864513 L-2.29192458,51.8793738 L-2.28732258,51.311689 C-2.02219811,34.2010434 5.09826504,18.7520865 16.4532085,7.59059948 C27.7754026,-3.53869615 43.3063624,-10.4054831 60.4424321,-10.4054831 C74.3487086,-10.4054831 87.1972948,-5.88226577 97.5981288,1.769658 L97.5981288,1.769658 L143.497762,1.769658 C153.898596,-5.88226577 166.747182,-10.4054831 180.653458,-10.4054831 Z" id="形状结合" stroke="#FFFFFF" stroke-width="21.9068566"></path>
                <g id="矩形">
                    <use fill="#7EF0D9" fill-rule="evenodd" xlink:href="#path-1"></use>
                    <use fill="black" fill-opacity="1" filter="url(#filter-2)" xlink:href="#path-1"></use>
                    <path stroke="#363636" stroke-width="5.47945205" d="M101.301118,42.6272812 C103.430904,42.6272812 105.359062,43.4905472 106.754774,44.8862595 C108.150487,46.2819717 109.013753,48.2101303 109.013753,50.3399154 C109.013753,51.5255281 108.740415,52.6951799 108.214975,53.7580017 L108.214975,53.7580017 L59.7138073,151.862636 C56.6234564,158.113573 51.573105,162.875992 45.601133,165.66496 C39.6291611,168.453927 32.7355686,169.269443 25.9587357,167.626575 C19.25372,166.001117 13.5991598,162.108139 9.70592559,156.898818 C5.81269136,151.689497 3.68078306,145.163832 4.02107102,138.273001 L4.02107102,138.273001 L8.38223117,49.9595081 C8.48363106,47.9061604 9.38151791,46.0731037 10.7680173,44.7533839 C12.1545166,43.4336641 14.0296284,42.6272812 16.0854783,42.6272812 L16.0854783,42.6272812 Z" stroke-linejoin="square"></path>
                </g>
                <g id="矩形备份-9" transform="translate(181.683855, 108.156640) scale(-1, 1) translate(-181.683855, -108.156640) ">
                    <use fill="#7EF0D9" fill-rule="evenodd" xlink:href="#path-3"></use>
                    <use fill="black" fill-opacity="1" filter="url(#filter-4)" xlink:href="#path-3"></use>
                    <path stroke="#363636" stroke-width="5.47945205" d="M223.920709,42.6272812 C226.050494,42.6272812 227.978653,43.4905472 229.374365,44.8862595 C230.770077,46.2819717 231.633343,48.2101303 231.633343,50.3399154 C231.633343,51.5255281 231.360005,52.6951799 230.834565,53.7580017 L230.834565,53.7580017 L182.333398,151.862636 C179.243047,158.113573 174.192695,162.875992 168.220723,165.66496 C162.248751,168.453927 155.355159,169.269443 148.578326,167.626575 C141.87331,166.001117 136.21875,162.108139 132.325516,156.898818 C128.432282,151.689497 126.300373,145.163832 126.640661,138.273001 L126.640661,138.273001 L131.001822,49.9595081 C131.103221,47.9061604 132.001108,46.0731037 133.387608,44.7533839 C134.774107,43.4336641 136.649219,42.6272812 138.705069,42.6272812 L138.705069,42.6272812 Z" stroke-linejoin="square"></path>
                </g>
                <polygon id="矩形" fill="#363636" points="59.7199842 7.77379233 182.450923 7.77379233 182.450923 98.1847512 59.7199842 98.1847512"></polygon>
                <g id="椭圆形">
                    <use fill="#7DE5FF" fill-rule="evenodd" xlink:href="#path-5"></use>
                    <use fill="black" fill-opacity="1" filter="url(#filter-6)" xlink:href="#path-5"></use>
                    <use stroke="#363636" stroke-width="5.47945205" xlink:href="#path-5"></use>
                </g>
                <g id="椭圆形备份-7">
                    <use fill="#7DE5FF" fill-rule="evenodd" xlink:href="#path-7"></use>
                    <use fill="black" fill-opacity="1" filter="url(#filter-8)" xlink:href="#path-7"></use>
                    <use stroke="#363636" stroke-width="5.47945205" xlink:href="#path-7"></use>
                </g>
                <path d="M59.8313328,27.6144613 C63.6021958,27.6144613 66.6590842,30.6713497 66.6590842,34.4422127 L66.6582817,43.7984613 L76.0156324,43.7987609 C79.7864954,43.7987609 82.8433839,46.8556494 82.8433839,50.6265124 C82.8433839,54.3973753 79.7864954,57.4542638 76.0156324,57.4542638 L66.6582817,57.4534613 L66.6590842,66.810812 C66.6590842,70.581675 63.6021958,73.6385634 59.8313328,73.6385634 C56.0604698,73.6385634 53.0035814,70.581675 53.0035814,66.810812 L53.0032817,57.4534613 L43.6470331,57.4542638 C39.8761701,57.4542638 36.8192817,54.3973753 36.8192817,50.6265124 C36.8192817,46.8556494 39.8761701,43.7987609 43.6470331,43.7987609 L53.0032817,43.7984613 L53.0035814,34.4422127 C53.0035814,30.6713497 56.0604698,27.6144613 59.8313328,27.6144613 Z" id="形状结合" fill="#363636"></path>
                <path d="M193.381647,34.2022249 C194.769508,34.2022249 196.063119,34.5705956 197.171106,35.2159631 C198.279094,35.8613306 199.201458,36.7836951 199.846826,37.8916827 C200.492193,38.9996704 200.860564,40.2932812 200.860564,41.6811415 L200.860564,64.6255101 C200.860564,66.0133704 200.492193,67.3069812 199.846826,68.4149689 C199.201458,69.5229565 198.279094,70.445321 197.171106,71.0906885 C196.063119,71.7360561 194.769508,72.1044267 193.381647,72.1044267 C191.993787,72.1044267 190.700176,71.7360561 189.592189,71.0906885 C188.484201,70.445321 187.561837,69.5229565 186.916469,68.4149689 C186.271101,67.3069812 185.902731,66.0133704 185.902731,64.6255101 L185.902731,41.6811415 C185.902731,40.2932812 186.271101,38.9996704 186.916469,37.8916827 C187.561837,36.7836951 188.484201,35.8613306 189.592189,35.2159631 C190.700176,34.5705956 191.993787,34.2022249 193.381647,34.2022249 Z M168.451925,29.148598 C169.839786,29.148598 171.133397,29.5169687 172.241384,30.1623362 C173.349372,30.8077037 174.271736,31.7300682 174.917104,32.8380558 C175.562471,33.9460435 175.930842,35.2396543 175.930842,36.6275146 L175.930842,59.5718832 C175.930842,60.9597435 175.562471,62.2533543 174.917104,63.361342 C174.271736,64.4693296 173.349372,65.3916941 172.241384,66.0370616 C171.133397,66.6824292 169.839786,67.0507998 168.451925,67.0507998 C167.064065,67.0507998 165.770454,66.6824292 164.662467,66.0370616 C163.554479,65.3916941 162.632115,64.4693296 161.986747,63.361342 C161.341379,62.2533543 160.973009,60.9597435 160.973009,59.5718832 L160.973009,36.6275146 C160.973009,35.2396543 161.341379,33.9460435 161.986747,32.8380558 C162.632115,31.7300682 163.554479,30.8077037 164.662467,30.1623362 C165.770454,29.5169687 167.064065,29.148598 168.451925,29.148598 Z" id="形状结合" fill="#363636" transform="translate(180.916786, 50.626512) rotate(45.000000) translate(-180.916786, -50.626512) "></path>
            </g>
        </g>
    </g>
</svg>