<?xml version="1.0" encoding="UTF-8"?>
<svg width="281px" height="239px" viewBox="0 0 281 239" version="1.1" xmlns="http://www.w3.org/2000/svg" xmlns:xlink="http://www.w3.org/1999/xlink">
    <title>编组 3备份 4</title>
    <defs>
        <path d="M117.670084,0 L235.340168,140.175796 C206.486157,175.622549 167.262796,193.345925 117.670084,193.345925 C68.0773719,193.345925 28.8540106,175.622549 0,140.175796 L117.670084,0 Z" id="path-1"></path>
        <path d="M117.670084,0 L224.642888,127.432542 C198.411969,159.656863 162.754368,175.769023 117.670084,175.769023 C72.5858003,175.769023 36.9281991,159.656863 10.6972804,127.432542 L117.670084,0 Z" id="path-3"></path>
        <path d="M117.670084,0 L224.642888,127.432542 C218.229933,135.259579 211.477838,141.994927 204.386602,147.638586 L117.670084,0 Z" id="path-5"></path>
    </defs>
    <g id="页面-1" stroke="none" stroke-width="1" fill="none" fill-rule="evenodd">
        <g id="贴纸" transform="translate(-1725.000000, -814.000000)">
            <g id="编组-8" transform="translate(1747.397260, 836.164384)">
                <mask id="mask-2" fill="white">
                    <use xlink:href="#path-1"></use>
                </mask>
                <g id="mask" stroke-linejoin="round">
                    <path stroke="#FFFFFF" stroke-width="21.9178082" d="M117.670084,-17.0448943 L249.407311,139.888542 C218.009707,182.673171 174.176985,204.30483 117.670084,204.30483 C61.1631831,204.30483 17.3304609,182.673171 -14.0671432,139.888542 L-14.0671432,139.888542 L117.670084,-17.0448943 Z" fill="#7EF0D9" fill-rule="evenodd"></path>
                    <path stroke="#363636" stroke-width="5.47945205" d="M117.670084,-4.26122357 L238.884622,140.136943 C209.3807,177.401067 168.993341,196.085652 117.670084,196.085652 C66.3468268,196.085652 25.9594677,177.401067 -3.54445394,140.136943 L-3.54445394,140.136943 L117.670084,-4.26122357 Z"></path>
                </g>
                <mask id="mask-4" fill="white">
                    <use xlink:href="#path-3"></use>
                </mask>
                <path stroke="#363636" stroke-width="5.47945205" d="M117.670084,-4.26122357 L228.186359,127.392518 C201.30603,161.434826 164.484841,178.508749 117.670084,178.508749 C70.8553272,178.508749 34.0341378,161.434826 7.15380883,127.392518 L7.15380883,127.392518 L117.670084,-4.26122357 Z"></path>
                <path d="M117.670084,127.066356 C120.985767,127.066356 123.67366,130.853528 123.67366,135.525241 C123.67366,140.196953 120.985767,143.984125 117.670084,143.984125 C114.354401,143.984125 111.666508,140.196953 111.666508,135.525241 C111.666508,130.853528 114.354401,127.066356 117.670084,127.066356 Z M165.69869,112.565412 C169.014373,112.565412 171.702265,116.352583 171.702265,121.024296 C171.702265,125.696009 169.014373,129.48318 165.69869,129.48318 C162.383006,129.48318 159.695114,125.696009 159.695114,121.024296 C159.695114,116.352583 162.383006,112.565412 165.69869,112.565412 Z M69.6414783,112.565412 C72.9571616,112.565412 75.645054,116.352583 75.645054,121.024296 C75.645054,125.696009 72.9571616,129.48318 69.6414783,129.48318 C66.3257949,129.48318 63.6379025,125.696009 63.6379025,121.024296 C63.6379025,116.352583 66.3257949,112.565412 69.6414783,112.565412 Z M139.282957,81.146699 C142.59864,81.146699 145.286532,84.9338705 145.286532,89.6055833 C145.286532,94.277296 142.59864,98.0644675 139.282957,98.0644675 C135.967273,98.0644675 133.279381,94.277296 133.279381,89.6055833 C133.279381,84.9338705 135.967273,81.146699 139.282957,81.146699 Z M96.0572114,81.146699 C99.3728947,81.146699 102.060787,84.9338705 102.060787,89.6055833 C102.060787,94.277296 99.3728947,98.0644675 96.0572114,98.0644675 C92.7415281,98.0644675 90.0536357,94.277296 90.0536357,89.6055833 C90.0536357,84.9338705 92.7415281,81.146699 96.0572114,81.146699 Z" id="形状结合" fill="#363636" mask="url(#mask-4)"></path>
                <mask id="mask-6" fill="white">
                    <use xlink:href="#path-5"></use>
                </mask>
                <use id="mask备份-2" fill="#F7B9EF" xlink:href="#path-5"></use>
            </g>
        </g>
    </g>
</svg>