<?xml version="1.0" encoding="UTF-8"?>
<svg width="249px" height="253px" viewBox="0 0 249 253" version="1.1" xmlns="http://www.w3.org/2000/svg" xmlns:xlink="http://www.w3.org/1999/xlink">
    <title>编组 3备份 12</title>
    <defs>
        <path d="M158.197869,0 C173.118244,0 185.213597,12.0953534 185.213597,27.0157281 C185.213597,32.6162745 183.5094,37.8187842 180.591288,42.1329738 C194.379045,59.4371707 202.61796,81.3591742 202.61796,105.205479 C202.61796,161.156884 157.260385,206.51446 101.30898,206.51446 C45.3575754,206.51446 0,161.156884 0,105.205479 C0,81.3591742 8.23891534,59.4371707 22.0254784,42.1307366 C19.1085607,37.8187842 17.4043633,32.6162745 17.4043633,27.0157281 C17.4043633,12.0953534 29.4997167,0 44.4200913,0 C53.0486587,0 60.7324267,4.04516743 65.6784285,10.3425357 C76.7614453,6.17480057 88.7691499,3.89649924 101.30898,3.89649924 C113.848811,3.89649924 125.856515,6.17480057 136.940741,10.3400503 C141.885534,4.04516743 149.569302,0 158.197869,0 Z" id="path-1"></path>
        <circle id="path-2" cx="101.30898" cy="105.205479" r="101.30898"></circle>
    </defs>
    <g id="页面-1" stroke="none" stroke-width="1" fill="none" fill-rule="evenodd">
        <g id="贴纸" transform="translate(-1351.000000, -815.000000)">
            <g id="编组-3备份-12" transform="translate(1373.698630, 837.260274)">
                <g id="编组-15" transform="translate(0.060883, 0.523592)">
                    <g id="编组-2">
                        <g id="形状结合">
                            <path stroke="#FFFFFF" stroke-width="21.9178082" d="M158.197869,-10.9589041 C168.684274,-10.9589041 178.177932,-6.70844862 185.049989,0.163608139 C191.922046,7.0356649 196.172501,16.5293229 196.172501,27.0157281 C196.172501,31.9882805 195.215655,36.7370488 193.478288,41.0917549 C206.146726,59.267997 213.576865,81.3687389 213.576865,105.205479 C213.576865,136.2074 201.010854,164.274371 180.694363,184.590862 C160.377871,204.907353 132.3109,217.473364 101.30898,217.473364 C70.30706,217.473364 42.2400889,204.907353 21.9235979,184.590862 C1.60710687,164.274371 -10.9589041,136.2074 -10.9589041,105.205479 C-10.9589041,81.3675564 -3.52803581,59.2657655 9.13941664,41.0868011 C7.40214723,36.7358757 6.44545916,31.9876893 6.44545916,27.0157281 C6.44545916,16.5293229 10.6959146,7.0356649 17.5679714,0.163608139 C24.4400282,-6.70844862 33.9336862,-10.9589041 44.4200913,-10.9589041 C53.6276198,-10.9589041 62.07068,-7.68269031 68.6454825,-2.23233502 C78.9806199,-5.37263754 89.9474504,-7.06240487 101.30898,-7.06240487 C112.671465,-7.06240487 123.639187,-5.37235557 133.977179,-2.2346213 C140.549953,-7.68352473 148.99173,-10.9589041 158.197869,-10.9589041 Z" fill="#363636" fill-rule="evenodd"></path>
                            <path stroke="#363636" stroke-width="5.47945205" d="M158.197869,-2.73972603 C166.414611,-2.73972603 173.853474,0.590766615 179.238152,5.9754447 C184.622831,11.3601228 187.953323,18.7989863 187.953323,27.0157281 C187.953323,32.4633102 186.488866,37.5687028 183.936031,41.9635236 C197.372546,59.4889195 205.357686,81.4145983 205.357686,105.205479 C205.357686,133.937736 193.711638,159.949913 174.882526,178.779025 C156.053414,197.608138 130.041237,209.254186 101.30898,209.254186 C72.5767234,209.254186 46.5645468,197.608138 27.7354345,178.779025 C8.90632211,159.949913 -2.73972603,133.937736 -2.73972603,105.205479 C-2.73972603,81.4117244 5.247341,59.4836113 18.682978,41.9573306 C16.1287938,37.5675124 14.6646372,32.4626865 14.6646372,27.0157281 C14.6646372,18.7989863 17.9951299,11.3601228 23.379808,5.9754447 C28.764486,0.590766615 36.2033496,-2.73972603 44.4200913,-2.73972603 C53.2002578,-2.73972603 61.0925435,1.06290381 66.5395988,7.11121384 C77.4113645,3.25506054 89.1151262,1.15677321 101.30898,1.15677321 C113.503406,1.15677321 125.207694,3.25525642 136.081294,7.10857717 C141.526456,1.06248246 149.418255,-2.73972603 158.197869,-2.73972603 Z"></path>
                        </g>
                        <circle id="椭圆形" stroke="#B86B37" stroke-width="7.67123288" fill="#363636" cx="158.197869" cy="27.0157281" r="23.1801116"></circle>
                        <circle id="椭圆形备份-6" stroke="#B86B37" stroke-width="7.67123288" fill="#363636" cx="44.4200913" cy="27.0157281" r="23.1801116"></circle>
                        <mask id="mask-3" fill="white">
                            <use xlink:href="#path-2"></use>
                        </mask>
                        <use id="椭圆形" fill="#FFFFFF" xlink:href="#path-2"></use>
                        <path d="M134.917472,3.89649924 L202.61796,18.228413 L202.61796,209.510536 L0,209.510536 L0,18.228413 L67.7004888,3.89649924 C85.9137913,13.2559168 96.096661,25.829718 98.249098,41.6179028 C103.365699,79.1483142 53.8071201,103.539663 58.0952179,132.094892 C61.4059971,154.141977 91.7761649,150.830579 94.8168861,139.912298 C95.9277492,135.923535 94.2148935,133.342058 91.5932293,131.206694 C87.0387172,127.497013 115.605018,127.488647 111.048908,131.187035 C108.413613,133.326217 106.6868,135.911287 107.801074,139.912298 C110.841796,150.830579 141.211963,154.141977 144.522743,132.094892 C148.81084,103.539663 99.2522612,79.1483142 104.368862,41.6179028 C106.487668,26.0764084 116.387915,13.6496329 134.069605,4.33757622 L134.917472,3.89649924 Z M121.570776,155.85997 L81.0471842,155.85997 C81.0471842,165.185204 90.1186993,172.7448 101.30898,172.7448 C112.499261,172.7448 121.570776,165.185204 121.570776,155.85997 Z" id="形状结合" fill="#B86B37" mask="url(#mask-3)"></path>
                        <path d="M138.728853,7.4056028 C178.064481,22.4652139 205.994926,60.5735941 205.994926,105.205479 C205.994926,163.021931 159.125432,209.891426 101.30898,209.891426 C81.316395,209.891426 62.6327761,204.287075 46.7434419,194.563692 C58.3645262,199.011654 70.9798173,201.449011 84.1643836,201.449011 C141.980835,201.449011 188.85033,154.579516 188.85033,96.7630644 C188.85033,59.1823709 169.047968,26.2267667 139.308472,7.76147868 Z" id="形状结合" fill="#FFB05F" mask="url(#mask-3)"></path>
                        <path d="M105.984779,117.154744 L122.609843,129.623541 C124.905285,131.345123 125.370491,134.601564 123.648909,136.897007 C122.667748,138.205222 121.127912,138.97514 119.492643,138.97514 L83.1253171,138.97514 C80.2560143,138.97514 77.9299848,136.64911 77.9299848,133.779807 C77.9299848,132.144538 78.6999027,130.604703 80.0081177,129.623541 L96.6331811,117.154744 C99.404025,115.076611 103.213935,115.076611 105.984779,117.154744 Z" id="三角形" fill="#363636" mask="url(#mask-3)" transform="translate(101.308980, 126.311517) scale(1, -1) translate(-101.308980, -126.311517) "></path>
                    </g>
                    <g id="编组-13" transform="translate(0.000000, 29.223744)">
                        <path d="M101.308847,3.83561644 C142.362952,3.83704431 183.891004,13.8835916 198.458674,19.1431526 L198.674,19.221 L197.255284,56.4162843 C172.787984,69.8906198 149.538358,75.6618394 132.880693,73.3460299 L132.356859,73.2702104 C127.681324,72.5665135 123.539389,70.1920055 119.873548,66.2621728 C115.840209,61.9383775 112.401662,55.8125216 109.468954,47.9480237 C108.950532,46.5539491 108.108438,44.6616182 106.579426,43.3163505 C105.316101,42.2048415 103.635068,41.3757162 101.30898,41.3757162 C98.9623673,41.3757162 97.2871517,42.2023676 96.0305176,43.3069333 C94.5163517,44.6378662 93.6819562,46.5150658 93.1840254,47.8539455 C90.217695,55.8087665 86.7789835,61.9370566 82.7444125,66.2621728 C79.0785715,70.1920055 74.936636,72.5665135 70.2611018,73.2702104 C53.5689335,75.7824852 30.087527,70.0324549 5.36267662,56.4162843 L5.36267662,56.4162843 L3.93808111,19.0788713 C19.4345239,13.5444988 60.1638714,3.83419065 101.308847,3.83561644 Z" id="路径" stroke="#FFB05F" stroke-width="7.67123288" fill="#363636"></path>
                        <path d="M151.454287,8.32277995 L159.896702,8.32277995 L155.334185,38.5263098 C155.022338,40.5907138 153.248155,42.1170187 151.16033,42.1170187 L150.570568,42.1170187 C148.564976,42.1170187 146.939122,40.4911651 146.939122,38.485573 C146.939122,38.3040058 146.952739,38.1226942 146.979859,37.9431638 L151.454287,8.32277995 L151.454287,8.32277995 Z" id="矩形" fill="#FFB05F" transform="translate(153.123031, 25.219899) scale(-1, 1) rotate(-38.000000) translate(-153.123031, -25.219899) "></path>
                        <path d="M41.6563484,27.6731546 L50.0987635,27.6731546 L43.7234116,66.39194 C43.3876488,68.4310947 41.6249022,69.9273274 39.5582893,69.9273274 L38.9200748,69.9273274 C36.9412424,69.9273274 35.3370818,68.3231668 35.3370818,66.3443344 C35.3370818,66.1493191 35.3530032,65.9546293 35.3846874,65.7622051 L41.6563484,27.6731546 L41.6563484,27.6731546 Z" id="矩形备份-8" fill="#FFB05F" transform="translate(42.398815, 48.800241) scale(1, -1) rotate(-44.000000) translate(-42.398815, -48.800241) "></path>
                    </g>
                </g>
            </g>
        </g>
    </g>
</svg>