<?xml version="1.0" encoding="UTF-8"?>
<svg width="207px" height="231px" viewBox="0 0 207 231" version="1.1" xmlns="http://www.w3.org/2000/svg" xmlns:xlink="http://www.w3.org/1999/xlink">
    <title>编组 3</title>
    <g id="页面-1" stroke="none" stroke-width="1" fill="none" fill-rule="evenodd">
        <g id="贴纸备份" transform="translate(-526.000000, -810.000000)">
            <g id="编组-3" transform="translate(526.828904, 810.974735)">
                <path d="M103.479838,2.84217094e-14 C135.238717,2.84217094e-14 159.451582,18.2036299 175.240166,38.5737587 C182.513632,47.9220558 188.508817,58.1947187 193.067941,69.1213944 C197.05042,78.8051411 199.059325,87.2645639 199.059325,93.6834469 C199.059325,100.892209 198.21388,106.793557 197.020759,111.51711 C205.475569,116.953818 209.900439,134.187892 201.487685,154.329952 C193.4103,173.669058 182.570292,177.491751 177.795434,177.562592 C176.240943,189.97243 170.732063,197.271301 164.165225,202.723002 C156.382491,209.185153 147.046675,212.299793 140.349366,215.821957 C126.816185,222.965253 122.641914,229.287682 103.000326,229.287682 C83.3587373,229.287682 79.1844667,222.965253 65.6512852,215.821957 C58.9539769,212.299793 49.6181602,209.185153 41.8354261,202.723002 C35.2689425,197.271595 29.7603023,189.969066 28.2045563,177.563263 C23.4288392,177.491215 12.5897848,173.667702 4.51296692,154.329952 C-3.93190932,134.110985 0.559059744,116.822253 9.07727345,111.453566 C7.83053143,106.774135 6.9413263,101.020606 6.9413263,94.3132431 C6.9413263,88.0505495 9.01080188,79.7876232 12.9327105,70.0635696 C17.4137347,58.9867687 23.3548717,48.5560625 30.5989654,39.0473655 C46.3925974,18.4202798 70.6660317,2.84217094e-14 103.474791,2.84217094e-14 L103.474791,2.84217094e-14 Z" id="形状结合" fill="#FFFFFF" fill-rule="nonzero"></path>
                <g id="超级马里奥" transform="translate(10.747860, 11.419601)">
                    <path d="M92.6774256,0 C63.2919004,0 41.5511326,16.5149437 27.4053929,35.0084283 C20.9171408,43.5335755 15.5958963,52.8853621 11.5824178,62.8164134 C8.0697173,71.5346414 6.21616879,78.9428765 6.21616879,84.5577767 C6.21616879,93.6418992 8.0335505,100.774584 10.0272454,105.589937 C10.099579,105.770626 10.2397253,105.856453 10.3120589,106.014555 C7.4187149,106.985757 5.03170608,109.221779 3.39063752,112.081177 C1.19802526,115.893708 5.50222197,108.586632 5.50222197,114.725529 C5.50222197,124.23427 8.92902629,133.607494 13.5538559,140.839558 C18.1786854,148.076139 23.8839982,153.971107 31.3569633,153.971107 L31.7774023,153.971107 C34.2683907,162.314406 36.4399386,162.005455 41.6479578,166.292293 C49.3334029,172.607362 58.1761855,175.588725 61.9917829,177.585334 C71.2278795,182.418756 77.8328414,189.01841 95.3330519,189.01841 C112.851346,189.01841 119.438224,182.400687 128.674321,177.585334 C132.508002,175.588725 141.332701,172.607362 149.018146,166.292293 C154.226165,162.000937 158.819349,155.86204 161.310337,147.514224 L156.025718,158.130847 C163.498683,158.130847 169.203996,152.240397 173.828825,145.003816 C178.453655,137.771752 178.342179,136.555456 178.342179,127.046716 C178.342179,120.903301 183.306906,115.893708 181.114294,112.081177 C179.527475,109.330192 177.248967,107.179997 174.477686,106.154589 C174.527415,106.014555 174.563582,105.888073 174.613312,105.729971 C176.543714,100.914618 178.288763,93.804519 178.288763,83.9931246 C178.288763,78.2381907 176.489464,70.6537841 172.922514,61.9716939 C168.839084,52.1752393 163.469431,42.9651485 156.954871,34.5838099 C142.813652,16.3207034 121.127135,0 92.6819464,0 L92.6774256,0 Z" id="路径" fill="#FFD4A9"></path>
                    <path d="M92.6774256,0 C63.2919004,0 41.5511326,16.5149437 27.4053929,35.0084283 C20.9171408,43.5335755 15.5958963,52.8853621 11.5824178,62.8164134 C8.0697173,71.5346414 6.21616879,78.9428765 6.21616879,84.5577767 C6.21616879,93.6418992 8.0335505,100.774584 10.0272454,105.589937 C10.099579,105.770626 10.2397253,105.856453 10.3120589,106.014555 C7.4187149,106.985757 177.248967,107.179997 174.477686,106.154589 C174.527415,106.014555 174.563582,105.888073 174.613312,105.729971 C176.543714,100.914618 178.288763,93.804519 178.288763,83.9931246 C178.288763,78.2381907 176.489464,70.6537841 172.922514,61.9716939 C168.839084,52.1752393 163.469431,42.9651485 156.954871,34.5838099 C142.813652,16.3207034 121.127135,0 92.6819464,0 L92.6774256,0 Z" id="路径备份" fill="#FDCDC8"></path>
                    <path d="M92.7308418,0 C63.3453167,0 41.6045489,16.5149437 27.4588091,35.0084283 C20.970557,43.5335755 15.6493126,52.8853621 11.635834,62.8164134 C8.12313356,71.5346414 6.26958505,78.9428765 6.26958505,84.5577767 C6.26958505,93.5639781 8.05592246,100.652076 10.0293975,105.465511 C10.0865596,105.465511 54.5846933,143.33751 96.832443,143.33751 C136.847391,143.33751 174.733539,105.463709 174.772351,105.463709 C176.66032,100.653882 178.342179,93.6252433 178.342179,83.9931246 C178.342179,78.2381907 176.542881,70.6537841 172.97593,61.9716939 C168.8925,52.1752393 163.522847,42.9651485 157.008288,34.5838099 C142.867069,16.3207034 121.180551,0 92.7353627,0 L92.7308418,0 Z" id="形状备份-2" fill="#F42E2E" fill-rule="nonzero"></path>
                    <ellipse id="椭圆形" fill="#FFFFFF" cx="92.3644226" cy="35.6022865" rx="32.3555371" ry="23.5109439"></ellipse>
                    <path d="M101.362993,19.4804964 L92.1811469,28.7949969 L83.4152187,19.6205301 C83.4152187,19.6205301 70.7884846,43.0332635 70.9828811,43.6159845 C71.1772777,44.2032226 78.614076,48.2732347 78.614076,48.2732347 L84.4052848,28.9395479 L92.6015859,38.2540484 L99.9479672,29.2196153 L106.019469,48.5578194 L113.650664,43.6159845 L101.362993,19.4804964 Z" id="路径" fill="#F42E2E"></path>
                    <path d="M176.560217,101.583123 C169.805451,97.4464202 163.68422,96.747937 158.196524,99.4876733 C149.964981,103.597278 145.297997,119.590493 153.177181,138.420458 C161.056365,157.250424 171.864304,159.661063 175.430005,159.182151 C178.995705,158.703239 182.144055,155.831283 184.370072,129.87653 C185.127239,115.778128 182.523954,106.346992 176.560217,101.583123 Z" id="路径-9备份" fill="#FFB484" transform="translate(166.812291, 128.542964) scale(-1, 1) translate(-166.812291, -128.542964) "></path>
                    <path d="M168.943668,112.595287 C167.396844,110.833975 163.143137,108.776707 158.0163,111.357037 C152.889463,113.937366 150.340994,123.236267 155.029525,134.363338 C159.718056,145.490409 166.149352,146.914913 168.271132,146.631912 C170.392912,146.348912 172.266347,144.651805 173.590945,129.314529 C173.590945,122.09462 172.803686,117.04587 168.943668,112.595287 Z" id="路径-9备份-2" fill="#FF9D84" transform="translate(163.076174, 128.401508) scale(-1, 1) translate(-163.076174, -128.401508) "></path>
                    <path d="M27.4336585,101.583123 C20.6788922,97.4464202 14.5576612,96.747937 9.06996566,99.4876733 C0.838422291,103.597278 -3.8285613,119.590493 4.0506225,138.420458 C11.9298063,157.250424 22.7377456,159.661063 26.303446,159.182151 C29.8691463,158.703239 33.0174961,155.831283 35.2435137,129.87653 C36.0006804,115.778128 33.3973953,106.346992 27.4336585,101.583123 Z" id="路径-9" fill="#FFB484"></path>
                    <path d="M27.1301254,112.595287 C25.5833012,110.833975 21.3295941,108.776707 16.202757,111.357037 C11.07592,113.937366 8.52745135,123.236267 13.2159824,134.363338 C17.9045135,145.490409 24.3358089,146.914913 26.4575892,146.631912 C28.5793695,146.348912 30.4528042,144.651805 31.7774023,129.314529 C31.7774023,122.09462 30.9901433,117.04587 27.1301254,112.595287 Z" id="路径-9备份-3" fill="#FF9D84"></path>
                    <path d="M92.4763794,41.2001303 C122.132988,41.2001303 140.249274,50.1779133 151.10039,59.3213764 C156.520766,63.8931079 160.065257,68.5010819 162.272791,72.1046211 C163.386922,73.9012132 164.091674,75.5424803 164.537327,76.6349326 C164.760153,77.17857 164.962251,77.6652549 165.024435,77.9293073 C164.917335,80.5527589 164.312408,83.1320029 163.241826,85.5298756 C156.707319,80.1970518 132.657638,61.9101258 92.4763794,61.9101258 C52.2951207,61.9101258 28.2454403,80.1918743 21.7109333,85.5350531 C20.639074,83.1339684 20.0341194,80.55109 19.9283239,77.9241298 C19.9905079,77.6652549 20.1874241,77.17857 20.4154323,76.6297551 C21.0413083,75.060317 21.7988506,73.5465495 22.679968,72.1046211 C24.8875017,68.5010819 28.4319924,63.8931079 33.8523686,59.3213764 C44.7034849,50.1779133 62.8197707,41.2001303 92.4763794,41.2001303 Z" id="路径" fill="#FF6060"></path>
                    <path d="M92.2524657,69.8610905 C102.555351,69.8610905 111.906564,71.3745752 120.213006,73.6134888 C108.534334,77.1205983 103.082908,88.450858 103.082908,88.450858 C101.976431,91.0363078 103.086347,94.0422999 105.599632,95.2669223 C108.112918,96.4915448 111.136159,95.4994728 112.454809,93.0174067 C112.454809,93.0174067 117.347645,83.0701589 127.324686,83.0701589 C133.748473,83.0701589 140.580858,88.4560769 140.580858,88.4560769 C141.915268,89.6146756 143.751374,90.0217508 145.447833,89.5363919 C147.147361,89.0481753 148.48177,87.7174448 148.985571,86.0084068 C153.950817,89.0249384 156.4593,90.8202444 158.357472,92.3650426 C156.4593,97.3647611 154.318038,104.274602 154.318038,111.121815 C154.318038,115.975404 155.750718,123.151409 157.064439,131.183316 C158.378161,139.220442 159.650505,147.800335 159.650505,152.549545 C159.650505,167.84096 154.012882,175.95115 147.046022,181.738925 C140.073989,187.531918 131.710653,190.324036 125.710981,193.481479 C113.587506,199.885085 109.848055,205.552824 92.2524657,205.552824 C74.656876,205.552824 70.9174253,199.885085 58.7939502,193.481479 C52.7942782,190.324036 44.4309423,187.531918 37.4589097,181.738925 C30.4920492,175.95115 24.8544264,167.835741 24.8544264,152.549545 C24.8544264,147.800335 26.1267707,139.215223 27.4404919,131.183316 C28.7542132,123.14619 30.1868935,115.975404 30.1868935,111.121815 C30.1868935,104.274602 28.0456313,97.3647611 26.1474592,92.3702615 C28.2059673,90.7784931 31.2161476,88.7170226 35.6848688,86.0031879 C36.207254,87.6575833 37.5209753,88.9257791 39.1553687,89.411138 C40.8104506,89.9017158 42.5896637,89.5520486 43.9240735,88.4560769 C43.9240735,88.4560769 50.7512864,83.0701589 57.1802453,83.0701589 C67.1624581,83.0701589 72.0501219,93.0226256 72.0501219,93.0226256 C73.3687722,95.5046918 76.3920137,96.4967637 78.9052993,95.2721412 C81.4185848,94.0475188 82.5284999,91.0415267 81.4220233,88.4560769 C81.4220233,88.4560769 75.9705973,77.1205983 64.2919254,73.6134888 C73.4089521,71.1321325 82.8096203,69.8705313 92.2524657,69.8610905 Z" id="路径" fill="#FFD4A9"></path>
                    <path d="M58.0160669,146.712521 C41.0753609,142.449914 39.2056673,135.611981 39.2056673,135.611981 C39.2056673,135.611981 35.8116063,138.098502 35.8116063,149.48519 C35.8116063,162.899576 46.7633731,163.516272 46.7633731,163.516272 C46.7633731,163.516272 47.9966802,176.619843 59.5552341,176.619843 C64.5476612,176.619843 67.3398684,174.483606 67.7246602,174.310931 C68.3807796,174.962163 73.6593339,182.633869 81.6018314,182.633869 C87.7683668,182.633869 92.0849416,178.933689 92.0849416,178.933689 C92.0849416,178.933689 96.9195053,182.480928 103.490565,182.480928 C110.949607,182.480928 116.751083,174.463872 116.751083,174.463872 C116.751083,174.463872 119.582756,176.619843 125.226369,176.619843 C130.874916,176.619843 136.597461,172.574313 138.023164,163.363332 C142.630799,163.363332 148.664137,157.581184 148.664137,149.948946 C148.664137,138.52279 145.270076,135.764922 145.270076,135.764922 C141.491223,141.122783 135.364154,144.477613 126.459676,146.712521 C106.110275,149.948946 79.9944117,149.948946 58.0160669,146.712521 Z" id="路径" fill="#692918"></path>
                    <ellipse id="椭圆形" fill="#1E2427" fill-rule="nonzero" cx="117.55472" cy="115.539496" rx="7.38915381" ry="10.9717738"></ellipse>
                    <ellipse id="椭圆形备份-21" fill="#1E2427" fill-rule="nonzero" cx="66.9502117" cy="115.539496" rx="7.38915381" ry="10.9717738"></ellipse>
                    <path d="M92.2524657,115.539496 C110.202288,115.539496 123.600391,127.370203 123.600391,140.617836 C123.600391,153.865469 110.202288,165.696176 92.2524657,165.696176 C74.3026437,165.696176 60.9045405,153.865469 60.9045405,140.617836 C60.9045405,127.370203 74.3026437,115.539496 92.2524657,115.539496 Z" id="路径" fill="#FF9D84"></path>
                    <path d="M107.189316,91.2385865 C117.102863,75.9838377 129.355543,73.7841083 143.947354,84.6393981" id="路径-2" stroke="#692918" stroke-width="10.7478601" stroke-linecap="round"></path>
                    <path d="M40.5283891,91.2385865 C50.441936,75.9838377 62.6946154,73.7841083 77.2864271,84.6393981" id="路径-2备份" stroke="#692918" stroke-width="10.7478601" stroke-linecap="round" transform="translate(58.907408, 84.554164) scale(-1, 1) translate(-58.907408, -84.554164) "></path>
                </g>
            </g>
        </g>
    </g>
</svg>