<?xml version="1.0" encoding="UTF-8"?>
<svg width="262px" height="251px" viewBox="0 0 262 251" version="1.1" xmlns="http://www.w3.org/2000/svg" xmlns:xlink="http://www.w3.org/1999/xlink">
    <title>编组 3备份 11</title>
    <defs>
        <path d="M25.1909701,0.533444197 C25.1958065,0.533441413 25.200643,0.533440021 25.2054795,0.547945205 L189.881279,0.547945205 C203.80188,0.533440021 215.086758,11.8183176 215.086758,25.7389195 C215.086758,25.7437559 215.086757,25.7485924 215.072249,25.7534205 L215.021254,127.214659 C215.003073,138.446526 213.828913,142.518789 211.628783,146.624744 C209.428652,150.7307 206.204036,153.953461 202.096814,156.151228 C198.134792,158.271298 194.204673,159.436675 183.849472,159.526939 L183.832437,192.081225 C183.826015,196.476445 183.366725,198.070017 182.505934,199.676756 C181.645142,201.283496 180.383373,202.54461 178.776186,203.404566 C177.169,204.264523 175.57519,204.722985 171.179967,204.727123 L43.9067912,204.727123 C39.5115683,204.722985 37.9177583,204.264523 36.3105718,203.404566 C34.7033853,202.54461 33.441616,201.283496 32.5808243,199.676756 C31.7200326,198.070017 31.2607426,196.476445 31.2543211,192.081225 L31.2372858,159.526939 C20.8820854,159.436675 16.9519656,158.271298 12.9899438,156.151228 C8.88272237,153.953461 5.65810554,150.7307 3.45797511,146.624744 C1.25784468,142.518789 0.0836847903,138.446526 0.0655041867,127.214659 L0.014509358,25.7534205 C-0.00800912102,11.8328292 11.2703705,0.541457494 25.1909701,0.533444197 Z" id="path-1"></path>
        <filter x="-15.8%" y="-16.6%" width="131.5%" height="133.2%" filterUnits="objectBoundingBox" id="filter-2">
            <feOffset dx="-24" dy="20" in="SourceAlpha" result="shadowOffsetInner1"></feOffset>
            <feComposite in="shadowOffsetInner1" in2="SourceAlpha" operator="arithmetic" k2="-1" k3="1" result="shadowInnerInner1"></feComposite>
            <feColorMatrix values="0 0 0 0 0.968627451   0 0 0 0 0.725490196   0 0 0 0 0.937254902  0 0 0 1 0" type="matrix" in="shadowInnerInner1"></feColorMatrix>
        </filter>
        <path d="M41.0350076,28.6027397 L174.05175,28.6027397 C179.498942,28.5976162 183.914764,33.0134378 183.914764,38.4606299 C183.914764,38.4623382 183.914764,38.4640465 183.909639,38.4657521 L183.832437,192.081225 C183.826015,196.476445 183.366725,198.070017 182.505934,199.676756 C181.645142,201.283496 180.383373,202.54461 178.776186,203.404566 C177.169,204.264523 175.57519,204.722985 171.179967,204.727123 L43.9067912,204.727123 C39.5115683,204.722985 37.9177583,204.264523 36.3105718,203.404566 C34.7033853,202.54461 33.441616,201.283496 32.5808243,199.676756 C31.7200326,198.070017 31.2607426,196.476445 31.2543211,192.081225 L31.1771188,38.4657521 C31.1691648,33.0185634 35.5826914,28.6004479 41.0298827,28.5976175 C41.031591,28.5976166 41.0332993,28.5976162 41.0350076,28.6027397 Z" id="path-3"></path>
        <filter x="-9.6%" y="-8.4%" width="119.3%" height="116.7%" filterUnits="objectBoundingBox" id="filter-4">
            <feOffset dx="-24" dy="20" in="SourceAlpha" result="shadowOffsetInner1"></feOffset>
            <feComposite in="shadowOffsetInner1" in2="SourceAlpha" operator="arithmetic" k2="-1" k3="1" result="shadowInnerInner1"></feComposite>
            <feColorMatrix values="0 0 0 0 0.968627451   0 0 0 0 0.725490196   0 0 0 0 0.937254902  0 0 0 1 0" type="matrix" in="shadowInnerInner1"></feColorMatrix>
        </filter>
        <path d="M25.2054795,0.547945205 L189.881279,0.547945205 C203.80188,0.533440021 215.086758,11.8183176 215.086758,25.7389195 C215.086758,25.7437559 215.086757,25.7485924 215.072249,25.7534205 L215.021254,127.214659 C215.003073,138.446526 213.828913,142.518789 211.628783,146.624744 C209.428652,150.7307 206.204036,153.953461 202.096814,156.151228 C197.989593,158.348994 193.916655,159.52081 182.684779,159.532525 L32.4019792,159.532525 C21.1701035,159.52081 17.0971652,158.348994 12.9899438,156.151228 C8.88272237,153.953461 5.65810554,150.7307 3.45797511,146.624744 C1.25784468,142.518789 0.0836847903,138.446526 0.0655041867,127.214659 L0.014509358,25.7534205 C-0.00800912102,11.8328292 11.2703705,0.541457494 25.1909701,0.533444197 C25.1958065,0.533441413 25.200643,0.533440021 25.2054795,0.547945205 Z" id="path-5"></path>
        <filter x="-6.8%" y="-9.3%" width="113.7%" height="118.6%" filterUnits="objectBoundingBox" id="filter-6">
            <feOffset dx="-24" dy="-4" in="SourceAlpha" result="shadowOffsetInner1"></feOffset>
            <feComposite in="shadowOffsetInner1" in2="SourceAlpha" operator="arithmetic" k2="-1" k3="1" result="shadowInnerInner1"></feComposite>
            <feColorMatrix values="0 0 0 0 0.611764706   0 0 0 0 0.619607843   0 0 0 0 1  0 0 0 1 0" type="matrix" in="shadowInnerInner1"></feColorMatrix>
        </filter>
        <circle id="path-7" cx="45.1993912" cy="45.1993912" r="45.1993912"></circle>
    </defs>
    <g id="页面-1" stroke="none" stroke-width="1" fill="none" fill-rule="evenodd">
        <g id="贴纸" transform="translate(-1345.000000, -421.000000)">
            <g id="编组-3备份-11" transform="translate(1367.123288, 443.835616)">
                <g id="编组-12" transform="translate(0.401826, 0.146119)">
                    <g id="形状结合">
                        <use fill="#FFFFFF" fill-rule="evenodd" xlink:href="#path-1"></use>
                        <use fill="black" fill-opacity="1" filter="url(#filter-2)" xlink:href="#path-1"></use>
                        <path stroke="#FFFFFF" stroke-width="21.9178082" d="M25.191935,-10.4254599 L189.876595,-10.4109594 C199.863108,-10.419544 208.90419,-6.37674944 215.449533,0.164826864 C221.99594,6.70746626 226.045662,15.7501697 226.04566,25.7459936 L226.04566,25.7459936 L225.980152,127.226973 C225.959985,139.945577 224.474476,145.348577 222.194121,150.036087 L221.974563,150.480565 C221.752644,150.923301 221.523709,151.361449 221.288337,151.800708 C218.052038,157.840394 213.308764,162.580938 207.267217,165.813759 C203.892922,167.619338 200.581127,169.041095 194.80299,169.823369 L194.80299,169.823369 L194.791337,192.091887 C194.781999,198.824398 193.838317,201.578531 192.598929,204.024619 L192.428149,204.356612 L192.428149,204.356612 L192.254062,204.686854 L192.254062,204.686854 L192.165892,204.851965 C190.268902,208.392854 187.488249,211.172063 183.946375,213.067212 C181.246754,214.511698 178.682503,215.679525 171.184913,215.686027 L171.184913,215.686027 L43.9018446,215.686027 C37.1693154,215.680189 34.4146885,214.737938 31.9679546,213.49982 L31.6358729,213.329212 L31.6358729,213.329212 L31.30554,213.155297 L31.30554,213.155297 L31.1403831,213.067212 C27.5985088,211.172063 24.8178556,208.392854 22.920866,204.851965 C22.8913581,204.796886 22.8619655,204.741864 22.8326956,204.686854 L22.6586093,204.356612 C21.3361606,201.820687 20.3051839,199.130421 20.295421,192.091887 L20.295421,192.091887 L20.2837682,169.823369 C14.5056306,169.041095 11.1938357,167.619338 7.81954125,165.813759 C1.77799352,162.580938 -2.96528045,157.840394 -6.20157857,151.800708 C-8.986869,146.602708 -10.870736,141.560451 -10.8933955,127.226176 L-10.8933955,127.226176 L-10.9443906,25.764502 C-10.9587481,15.7779603 -6.92115407,6.73451781 -0.383327107,0.185390725 C6.15554281,-6.36478112 15.1959136,-10.4197081 25.191935,-10.4254599 L25.191935,-10.4254599 Z"></path>
                        <use stroke="#363636" stroke-width="5.47945205" xlink:href="#path-1"></use>
                    </g>
                    <g id="矩形备份-2">
                        <use fill="#FFFFFF" fill-rule="evenodd" xlink:href="#path-3"></use>
                        <use fill="black" fill-opacity="1" filter="url(#filter-4)" xlink:href="#path-3"></use>
                        <use stroke="#363636" stroke-width="5.47945205" xlink:href="#path-3"></use>
                    </g>
                    <g id="矩形">
                        <use fill="#7DE5FF" fill-rule="evenodd" xlink:href="#path-5"></use>
                        <use fill="black" fill-opacity="1" filter="url(#filter-6)" xlink:href="#path-5"></use>
                        <use stroke="#363636" stroke-width="5.47945205" xlink:href="#path-5"></use>
                    </g>
                    <path d="M25.9224788,19.2511416 L27.0699109,19.2511416 C28.9215218,19.2511416 30.0838413,19.5404975 31.0998174,20.0838475 C32.1157935,20.6271974 32.9131374,21.4245414 33.4564874,22.4405175 C33.9998374,23.4564936 34.2891933,24.6188131 34.2891933,26.470424 L34.2891933,38.528054 C34.2891933,40.3796649 33.9998374,41.5419843 33.4564874,42.5579604 C32.9131374,43.5739365 32.1157935,44.3712805 31.0998174,44.9146305 C30.0838413,45.4579804 28.9215218,45.7473364 27.0699109,45.7473364 L25.9224788,45.7473364 C24.0708679,45.7473364 22.9085484,45.4579804 21.8925723,44.9146305 C20.8765962,44.3712805 20.0792522,43.5739365 19.5359022,42.5579604 C18.9925523,41.5419843 18.7031963,40.3796649 18.7031963,38.528054 L18.7031963,26.470424 C18.7031963,24.6188131 18.9925523,23.4564936 19.5359022,22.4405175 C20.0792522,21.4245414 20.8765962,20.6271974 21.8925723,20.0838475 C22.9085484,19.5404975 24.0708679,19.2511416 25.9224788,19.2511416 Z" id="矩形" fill="#363636"></path>
                    <polygon id="矩形备份-3" fill="#F7B9EF" points="87.281583 4.34252801 127.805175 4.34252801 127.805175 155.698505 87.281583 155.698505"></polygon>
                    <g id="编组-16" transform="translate(62.343988, 28.602740)">
                        <g id="椭圆形">
                            <use fill="#363636" fill-rule="evenodd" xlink:href="#path-7"></use>
                            <circle stroke="#363636" stroke-width="7.67123288" cx="45.1993912" cy="45.1993912" r="49.0350076"></circle>
                            <circle stroke="#FFFFFF" stroke-width="7.67123288" stroke-linejoin="square" cx="45.1993912" cy="45.1993912" r="41.3637747"></circle>
                        </g>
                        <path d="M24.9375951,14.0273973 C30.1023402,14.0273973 34.2891933,18.2142504 34.2891933,23.3789954 C34.2891933,28.5437405 30.1023402,32.7305936 24.9375951,32.7305936 C19.7728501,32.7305936 15.585997,28.5437405 15.585997,23.3789954 C15.585997,18.2142504 19.7728501,14.0273973 24.9375951,14.0273973 Z" id="矩形备份-4" fill="#FFFFFF"></path>
                    </g>
                </g>
            </g>
        </g>
    </g>
</svg>