<?xml version="1.0" encoding="UTF-8"?>
<svg width="270px" height="234px" viewBox="0 0 270 234" version="1.1" xmlns="http://www.w3.org/2000/svg" xmlns:xlink="http://www.w3.org/1999/xlink">
    <title>编组 3备份 2</title>
    <defs>
        <path d="M150.2289,0 C171.97081,0 189.596111,17.625301 189.596111,39.3672117 C189.596111,49.6820318 185.629091,59.0703046 179.137514,66.0895657 C182.044673,65.334024 185.094847,64.9332744 188.238621,64.9332744 C208.231183,64.9332744 224.438356,81.1404478 224.438356,101.133009 C224.438356,121.125571 208.231183,137.332744 188.238621,137.332744 C183.939929,137.332744 179.81624,136.583466 175.991032,135.208387 C177.866668,139.986324 179.163185,144.784187 179.75746,149.453483 C182.088946,167.77227 171.803078,182.301273 157.534577,186.47306 C144.273841,190.350198 133.354579,187.262719 120.114597,179.349292 L114.18468,175.703885 L112.220899,174.528694 L110.42351,175.602397 C110.108224,175.793661 109.776194,175.995929 109.438135,176.202481 L104.323759,179.349292 C91.0837773,187.262719 80.1645149,190.350198 66.9037796,186.47306 C52.6352782,182.301273 42.3494106,167.77227 44.680896,149.453483 C45.2751709,144.784187 46.5716886,139.986324 48.4458094,135.206519 C44.6221159,136.583466 40.498427,137.332744 36.1997349,137.332744 C16.2071734,137.332744 0,121.125571 0,101.133009 C0,81.1404478 16.2071734,64.9332744 36.1997349,64.9332744 C39.343509,64.9332744 42.3936831,65.334024 45.3019587,66.0872247 C38.8092653,59.0703046 34.8422448,49.6820318 34.8422448,39.3672117 C34.8422448,17.625301 52.4675458,0 74.2094565,0 C92.3941646,0 107.699109,12.3297367 112.220429,29.0853513 C116.739248,12.3297367 132.044192,0 150.2289,0 Z" id="path-1"></path>
        <path d="M112.219178,96.3817941 L112.219178,159.857876 C103.604024,159.857876 89.1930378,178.375267 70.8402682,173.009333 C64.9977651,171.301118 56.9213694,164.382646 58.5960445,151.224505 C61.5461049,128.045493 89.7900456,96.3817941 112.219178,96.3817941 Z M165.842312,151.224505 C167.516987,164.382646 159.440591,171.301118 153.598088,173.009333 C135.446997,178.316301 121.151533,160.261968 112.505291,159.864529 L112.219178,159.857876 L112.219178,96.3817941 C134.648311,96.3817941 162.892251,128.045493 165.842312,151.224505 Z M36.1997349,78.9606717 C48.4451788,78.9606717 58.3720725,88.8875654 58.3720725,101.133009 C58.3720725,113.378453 48.4451788,123.305347 36.1997349,123.305347 C23.9542909,123.305347 14.0273973,113.378453 14.0273973,101.133009 C14.0273973,88.8875654 23.9542909,78.9606717 36.1997349,78.9606717 Z M188.238621,78.9606717 C200.484065,78.9606717 210.410959,88.8875654 210.410959,101.133009 C210.410959,113.378453 200.484065,123.305347 188.238621,123.305347 C175.993177,123.305347 166.066284,113.378453 166.066284,101.133009 C166.066284,88.8875654 175.993177,78.9606717 188.238621,78.9606717 Z M74.2094565,14.0273973 C88.2042495,14.0273973 99.5492709,25.3724186 99.5492709,39.3672117 C99.5492709,53.3620047 88.2042495,64.7070261 74.2094565,64.7070261 C60.2146634,64.7070261 48.8696421,53.3620047 48.8696421,39.3672117 C48.8696421,25.3724186 60.2146634,14.0273973 74.2094565,14.0273973 Z M150.2289,14.0273973 C164.223693,14.0273973 175.568714,25.3724186 175.568714,39.3672117 C175.568714,53.3620047 164.223693,64.7070261 150.2289,64.7070261 C136.234107,64.7070261 124.889085,53.3620047 124.889085,39.3672117 C124.889085,25.3724186 136.234107,14.0273973 150.2289,14.0273973 Z" id="path-2"></path>
        <filter x="-1.5%" y="-1.9%" width="103.1%" height="103.8%" filterUnits="objectBoundingBox" id="filter-3">
            <feOffset dx="-6" dy="6" in="SourceAlpha" result="shadowOffsetInner1"></feOffset>
            <feComposite in="shadowOffsetInner1" in2="SourceAlpha" operator="arithmetic" k2="-1" k3="1" result="shadowInnerInner1"></feComposite>
            <feColorMatrix values="0 0 0 0 1   0 0 0 0 0.690196078   0 0 0 0 0.37254902  0 0 0 1 0" type="matrix" in="shadowInnerInner1"></feColorMatrix>
        </filter>
    </defs>
    <g id="页面-1" stroke="none" stroke-width="1" fill="none" fill-rule="evenodd">
        <g id="贴纸" transform="translate(-560.000000, -430.000000)">
            <g id="编组-3备份-2" transform="translate(582.465753, 452.054795)">
                <g id="编组-6" transform="translate(0.109589, 0.267884)">
                    <g id="路径" fill-rule="nonzero">
                        <path stroke="#FFFFFF" stroke-width="21.9178082" d="M150.2289,-10.9589041 C164.126073,-10.9589041 176.707602,-5.32596173 185.814837,3.78127393 C194.922073,12.8885096 200.555015,25.4700385 200.555015,39.3672117 C200.555015,44.6846509 199.730236,49.8094009 198.201722,54.6206161 L198.077,55.002 L198.471595,55.0876575 C207.19293,57.0172133 215.00678,61.3613505 221.175979,67.3829021 L221.584815,67.7868159 C230.11885,76.320851 235.39726,88.1105107 235.39726,101.133009 C235.39726,114.155508 230.11885,125.945168 221.584815,134.479203 C213.592623,142.471394 202.745095,147.60825 190.70367,148.22833 L190.648,148.23 L190.706491,148.712136 C191.984836,159.823111 189.603271,169.805876 184.9129,177.841529 L184.63975,178.302958 C179.139146,187.466035 170.575986,194.077755 160.609958,196.991596 C144.350611,201.745461 130.836344,198.53664 114.432321,188.720193 L114.432321,188.720193 L112.218,187.359 L110.007915,188.719069 C93.79834,198.419522 80.4105535,201.668295 64.4079533,197.158 L63.8283979,196.991596 C53.8623704,194.077755 45.2992099,187.466035 39.7986065,178.302958 C34.8361397,170.036325 32.3354755,159.65294 33.8096863,148.069873 L33.789,148.23 L33.7346863,148.22833 C21.8973528,147.61876 11.2137888,142.644227 3.26237678,134.883116 L2.85354145,134.479203 C-5.68049365,125.945168 -10.9589041,114.155508 -10.9589041,101.133009 C-10.9589041,88.1105107 -5.68049365,76.320851 2.85354145,67.7868159 C9.08474169,61.5556156 17.0516189,57.0600923 25.9667615,55.0876575 L26.36,55.002 L26.2370958,54.6216746 C24.7694217,50.0027406 23.9504612,45.0946335 23.8872926,40.004428 L23.8833407,39.3672117 C23.8833407,25.4700385 29.5162831,12.8885096 38.6235187,3.78127393 C47.7307544,-5.32596173 60.3122833,-10.9589041 74.2094565,-10.9589041 C85.7038398,-10.9589041 96.2969871,-7.10339804 104.770465,-0.619636255 C107.485115,1.45756732 109.98145,3.80525157 112.220003,6.38224884 C114.457756,3.804981 116.953543,1.45770475 119.66761,-0.61919017 C128.140843,-7.10319144 138.734223,-10.9589041 150.2289,-10.9589041 Z" fill="#FFFFFF" fill-rule="evenodd"></path>
                        <path stroke="#363636" stroke-width="5.47945205" d="M150.2289,-2.73972603 C161.856409,-2.73972603 172.383144,1.97325351 180.003001,9.59311049 C187.622858,17.2129675 192.335837,27.7397019 192.335837,39.3672117 C192.335837,47.8196839 189.845233,55.6903978 185.559326,62.2844195 C186.44461,62.2241567 187.338042,62.1935484 188.238621,62.1935484 C198.991457,62.1935484 208.726322,66.551996 215.772978,73.5986524 C222.819635,80.6453088 227.178082,90.3801741 227.178082,101.133009 C227.178082,111.885844 222.819635,121.62071 215.772978,128.667366 C208.726322,135.714023 198.991457,140.07247 188.238621,140.07247 C185.52271,140.07247 182.871801,139.794167 180.313232,139.265336 C181.331248,142.575172 182.063366,145.871252 182.475263,149.107581 C183.690952,158.659412 181.691922,167.244217 177.592798,174.072667 C173.175778,181.430678 166.311897,186.761197 158.303422,189.102694 C144.293077,193.199001 132.725146,190.080967 118.694265,181.692163 L118.694265,181.692163 L112.763793,178.046415 L112.219647,177.72078 C111.526017,178.138025 111.199294,178.337066 110.873854,178.535892 L110.873854,178.535892 L105.744554,181.691886 C91.7134642,190.080898 80.1454336,193.199046 66.1349342,189.102694 C58.1264594,186.761197 51.2625786,181.430678 46.8455581,174.072667 C42.7464339,167.244217 40.7474041,158.659412 41.9630936,149.107581 C42.3749971,145.871201 43.1071382,142.575059 44.1238217,139.26471 C41.5655418,139.794271 38.9151275,140.07247 36.1997349,140.07247 C25.4468997,140.07247 15.7120344,135.714023 8.66537801,128.667366 C1.61872159,121.62071 -2.73972603,111.885844 -2.73972603,101.133009 C-2.73972603,90.3801741 1.61872159,80.6453088 8.66537801,73.5986524 C15.7120344,66.551996 25.4468997,62.1935484 36.1997349,62.1935484 C37.1007157,62.1935484 37.9945431,62.2241836 38.8801055,62.2835274 C34.59286,55.6895383 32.1025188,47.8192345 32.1025188,39.3672117 C32.1025188,27.7397019 36.8154983,17.2129675 44.4353553,9.59311049 C52.0552123,1.97325351 62.5819467,-2.73972603 74.2094565,-2.73972603 C83.8248274,-2.73972603 92.6871353,0.483733925 99.7757597,5.90782907 C105.043733,9.93879298 109.331109,15.1861089 112.220595,21.2286413 C115.108641,15.185588 119.395276,9.93879021 124.662523,5.90811644 C131.750898,0.483855229 140.613352,-2.73972603 150.2289,-2.73972603 Z"></path>
                    </g>
                    <g id="形状">
                        <use fill="#FF7C7C" fill-rule="evenodd" xlink:href="#path-2"></use>
                        <use fill="black" fill-opacity="1" filter="url(#filter-3)" xlink:href="#path-2"></use>
                    </g>
                </g>
            </g>
        </g>
    </g>
</svg>