<?xml version="1.0" encoding="UTF-8"?>
<svg width="237px" height="169px" viewBox="0 0 237 169" version="1.1" xmlns="http://www.w3.org/2000/svg" xmlns:xlink="http://www.w3.org/1999/xlink">
    <title>编组4</title>
    <g id="页面-1" stroke="none" stroke-width="1" fill="none" fill-rule="evenodd">
        <g id="贴纸备份" transform="translate(-850.000000, -850.000000)">
            <g id="编组4" transform="translate(850.778334, 850.492945)">
                <polygon id="路径" fill="#FFFFFF" points="4.06984425e-13 54.6939856 229.959423 0 184.425602 167.039659 119.476457 127.328407 70.4181249 157.175035 61.2460075 90.4320721"></polygon>
                <g id="编组-12" transform="translate(28.660960, 15.226135)">
                    <polygon id="路径-5" fill="#019A77" transform="translate(118.989282, 60.334225) rotate(-10.000000) translate(-118.989282, -60.334225) " points="46.1675172 57.7655125 43.2284286 108.210492 150.932931 61.9248321 194.750135 12.4579577"></polygon>
                    <polygon id="路径-4" fill="#48D389" transform="translate(96.609162, 38.668857) rotate(-10.000000) translate(-96.609162, -38.668857) " points="2.5703443 27.3208923 190.647979 16.0150791 42.0653612 61.322634"></polygon>
                    <polygon id="路径-6" fill="#48D389" transform="translate(101.743175, 88.486874) rotate(-10.000000) translate(-101.743175, -88.486874) " points="47.8550777 111.632949 155.631273 65.3407998 70.8807983 78.3240735"></polygon>
                    <polygon id="路径-6备份" fill="#019A77" transform="translate(111.833135, 79.409960) rotate(-10.000000) translate(-111.833135, -79.409960) " points="80.0845289 95.3691223 154.208372 63.4507979 69.4578979 76.4341813"></polygon>
                    <polygon id="路径-8" fill="#48D389" transform="translate(132.675932, 71.655158) rotate(-10.000000) translate(-132.675932, -71.655158) " points="68.4279396 72.6969449 196.923925 10.2532862 138.918245 133.05703"></polygon>
                </g>
            </g>
        </g>
    </g>
</svg>