<?xml version="1.0" encoding="UTF-8"?>
<svg width="235px" height="259px" viewBox="0 0 235 259" version="1.1" xmlns="http://www.w3.org/2000/svg" xmlns:xlink="http://www.w3.org/1999/xlink">
    <title>编组 3备份 6</title>
    <defs>
        <path d="M124.912829,32.5921611 C127.752308,15.9877748 140.480696,1.72879496 150.616659,2.35888535 C165.415017,3.27880813 170.839811,40.2612659 165.254366,57.4162385 C165.06627,57.9939519 164.873199,58.540128 164.675407,59.0562046 C179.545576,75.5901374 188.584124,97.4132297 188.584124,121.334027 C188.584124,172.981478 146.448914,214.850009 94.4724988,214.850009 C42.4960836,214.850009 0.360873918,172.981478 0.360873918,121.334027 C0.360873918,97.468359 9.35780863,75.6907381 24.1653095,59.167366 C23.9537814,58.6208699 23.746013,58.0367455 23.5439837,57.4162385 C17.9585389,40.2612659 23.3833321,3.27880813 38.1816904,2.35888535 C48.3713054,1.72545974 61.1808627,16.1391442 63.9297772,32.856029 C73.5057075,29.5896243 83.7808982,27.8180452 94.4724988,27.8180452 C105.112596,27.8180452 115.340285,29.5725972 124.878528,32.8064163 Z" id="path-1"></path>
        <path d="M145.040459,63.4298068 C152.801039,63.431526 163.832019,72.9844916 167.593683,55.3396578 C171.355348,37.694824 162.094553,1.48200527 147.281103,2.11397157 C136.600788,2.56961152 124.788183,19.732718 124.791869,37.5314403 C124.796063,55.3301627 137.279879,63.4280877 145.040459,63.4298068 Z" id="path-2"></path>
        <filter x="-17.2%" y="-11.7%" width="134.4%" height="123.5%" filterUnits="objectBoundingBox" id="filter-3">
            <feOffset dx="15" dy="-8" in="SourceAlpha" result="shadowOffsetInner1"></feOffset>
            <feComposite in="shadowOffsetInner1" in2="SourceAlpha" operator="arithmetic" k2="-1" k3="1" result="shadowInnerInner1"></feComposite>
            <feColorMatrix values="0 0 0 0 1   0 0 0 0 0.690196078   0 0 0 0 0.37254902  0 0 0 1 0" type="matrix" in="shadowInnerInner1"></feColorMatrix>
        </filter>
        <path d="M40.6142792,63.4298068 C48.3748591,63.431526 59.4058396,72.9844916 63.1675039,55.3396578 C66.9291682,37.694824 57.668373,1.48200527 42.8549236,2.11397157 C32.1746083,2.56961152 20.362003,19.732718 20.3656892,37.5314403 C20.3698834,55.3301627 32.8536993,63.4280877 40.6142792,63.4298068 Z" id="path-4"></path>
        <filter x="-17.2%" y="-11.7%" width="134.4%" height="123.5%" filterUnits="objectBoundingBox" id="filter-5">
            <feOffset dx="15" dy="-8" in="SourceAlpha" result="shadowOffsetInner1"></feOffset>
            <feComposite in="shadowOffsetInner1" in2="SourceAlpha" operator="arithmetic" k2="-1" k3="1" result="shadowInnerInner1"></feComposite>
            <feColorMatrix values="0 0 0 0 1   0 0 0 0 0.690196078   0 0 0 0 0.37254902  0 0 0 1 0" type="matrix" in="shadowInnerInner1"></feColorMatrix>
        </filter>
        <ellipse id="path-6" cx="94.4724988" cy="121.334027" rx="94.1116249" ry="93.5159817"></ellipse>
        <circle id="path-8" cx="105.69306" cy="105.205479" r="105.205479"></circle>
    </defs>
    <g id="页面-1" stroke="none" stroke-width="1" fill="none" fill-rule="evenodd">
        <g id="贴纸" transform="translate(-577.000000, -809.000000)">
            <g id="编组-3备份-6" transform="translate(599.452055, 829.589041)">
                <g id="编组-2" transform="translate(0.267884, 0.401826)">
                    <g id="形状结合" stroke-linejoin="round">
                        <path stroke="#FFFFFF" stroke-width="21.9178082" d="M126.434657,4.22294151 C134.090248,-4.83342078 143.495195,-9.06387039 151.296594,-8.57890545 C157.39292,-8.19993446 163.011804,-5.1468589 167.535648,0.721027439 C170.862902,5.03681569 173.612695,11.0900923 175.456531,18.0253853 C178.722621,30.3102503 179.155211,45.3225763 176.886422,56.1931931 L176.83,56.456 L177.149967,56.8584381 C191.025514,74.4217491 199.358534,96.5137823 199.540002,120.532687 L199.543028,121.334027 C199.543028,150.191889 187.776927,176.320967 168.743943,195.233488 C149.736223,214.120907 123.478926,225.808913 94.4724988,225.808913 C65.466072,225.808913 39.2087747,214.120907 20.2010546,195.233488 C1.16807119,176.320967 -10.5980302,150.191889 -10.5980302,121.334027 C-10.5980302,97.0619022 -2.27355873,74.7210816 11.6961219,56.9799093 L11.998,56.597 L11.9119279,56.1931931 C9.68594606,45.5276823 10.060366,30.8752787 13.1599704,18.7236218 L13.3418181,18.0253853 C15.1856551,11.0900923 17.9354479,5.03681569 21.262702,0.721027439 C25.7865451,-5.1468589 31.4054299,-8.19993446 37.5017553,-8.57890545 C45.3279449,-9.06541145 54.76876,-4.79574367 62.4284824,4.27676161 C65.9939689,8.49987755 69.139676,13.6748269 71.4412174,19.3798814 C78.8524527,17.7300432 86.5601293,16.8591411 94.4724988,16.8591411 C102.345945,16.8591411 110.016708,17.7214959 117.394938,19.3546802 C119.714235,13.6211387 122.869364,8.44058892 126.434657,4.22294151 Z" fill="#FFFFFF" fill-rule="evenodd"></path>
                        <path stroke="#363636" stroke-width="5.47945205" d="M132.711622,9.52903201 C138.265543,2.95888979 144.97708,-0.736707121 150.786643,-0.375562353 C154.700807,-0.132242896 158.169592,2.03388042 161.02634,5.73937393 C163.790014,9.32414086 165.985436,14.3904338 167.513287,20.1371992 C170.858903,32.7211875 171.023241,48.5473776 167.859488,58.2644339 C182.458846,75.3179393 191.32385,97.2973593 191.32385,121.334027 C191.32385,147.916286 180.481973,171.982802 162.950586,189.403231 C145.425515,206.817384 121.215261,217.589735 94.4724988,217.589735 C67.7297364,217.589735 43.5194824,206.817384 25.9944116,189.403231 C8.46302505,171.982802 -2.37885211,147.916286 -2.37885211,121.334027 C-2.37885211,97.3544045 6.44412913,75.4222632 21.0393757,58.5690483 C17.775109,48.5473776 17.939447,32.7211875 21.2850624,20.1371992 C22.812914,14.3904338 25.008336,9.32414086 27.7720097,5.73937393 C30.6287575,2.03388042 34.0975427,-0.132242896 38.0117066,-0.375562353 C43.8447139,-0.73816449 50.5869525,2.99194425 56.1482712,9.57900976 C60.5629835,14.8079853 64.217709,21.7515651 66.010835,29.3046883 C75.00905,26.5567903 84.5670199,25.0783192 94.4724988,25.0783192 C104.333328,25.0783192 113.849774,26.5434915 122.813012,29.2641736 C124.645952,21.6729265 128.307864,14.7385611 132.711622,9.52903201 Z"></path>
                    </g>
                    <g id="椭圆形" transform="translate(146.612265, 34.059528) rotate(6.000000) translate(-146.612265, -34.059528) ">
                        <use fill="#FFFFFF" fill-rule="evenodd" xlink:href="#path-2"></use>
                        <use fill="black" fill-opacity="1" filter="url(#filter-3)" xlink:href="#path-2"></use>
                    </g>
                    <g id="椭圆形备份-18" transform="translate(42.186085, 34.059528) scale(-1, 1) rotate(6.000000) translate(-42.186085, -34.059528) ">
                        <use fill="#FFFFFF" fill-rule="evenodd" xlink:href="#path-4"></use>
                        <use fill="black" fill-opacity="1" filter="url(#filter-5)" xlink:href="#path-4"></use>
                    </g>
                    <mask id="mask-7" fill="white">
                        <use xlink:href="#path-6"></use>
                    </mask>
                    <use id="椭圆形" fill="#FFFFFF" xlink:href="#path-6"></use>
                    <circle id="椭圆形" fill="#FFB05F" mask="url(#mask-7)" cx="-14.8066971" cy="64.6818874" r="105.205479"></circle>
                    <circle id="椭圆形备份-17" fill="#FFB05F" mask="url(#mask-7)" cx="203.39726" cy="64.6818874" r="105.205479"></circle>
                    <path d="M97.9254664,129.998164 L108.072021,137.803206 C109.436588,138.852872 109.691865,140.809996 108.642198,142.174563 C108.052124,142.941659 107.139225,143.391172 106.171431,143.391172 L83.9777317,143.391172 C82.25615,143.391172 80.8605323,141.995554 80.8605323,140.273973 C80.8605323,139.306179 81.3100451,138.39328 82.0771417,137.803206 L92.2236964,129.998164 C93.9044206,128.705299 96.2447423,128.705299 97.9254664,129.998164 Z" id="三角形" fill="#363636" mask="url(#mask-7)" transform="translate(95.074581, 135.598174) scale(1, -1) translate(-95.074581, -135.598174) "></path>
                    <path d="M74.8127854,153.682586 C81.0509285,153.662472 85.5757328,152.583638 88.3871983,150.446084 C91.1986638,148.30853 93.4277915,145.43736 95.0745814,141.832572 C96.9747811,145.564896 99.2467411,148.436067 101.890461,150.446084 C104.534182,152.456101 109.016154,153.534935 115.336377,153.682586 L112.629084,164.103643 C110.552039,172.098717 103.33505,177.680365 95.0745814,177.680365 C86.8141129,177.680365 79.5971242,172.098717 77.5200785,164.103643 L74.8127854,153.682586 L74.8127854,153.682586 Z" id="矩形" fill="#363636" mask="url(#mask-7)"></path>
                    <path d="M95.1261156,145.101772 C96.8306172,147.84457 98.7754242,150.035648 100.947144,151.686804 C103.416835,153.564507 106.109476,154.699221 109.022774,155.097378 L109.022774,155.097378 L108.307035,168.264849 C108.115998,171.779358 106.567733,174.912537 104.187303,177.167088 C101.806873,179.42164 98.5942784,180.797565 95.0745814,180.797565 C91.5548845,180.797565 88.3422896,179.42164 85.9618597,177.167088 C83.5814298,174.912537 82.0331649,171.779358 81.842128,168.264849 L81.842128,168.264849 L81.1288854,155.143316 C83.981521,154.81666 86.7181068,153.673015 89.3305158,151.686804 C91.6208656,149.945454 93.5552978,147.752613 95.1261156,145.101772 Z" id="矩形备份" stroke="#363636" stroke-width="3.11719939" fill="#FF7C7C" mask="url(#mask-7)"></path>
                    <rect id="矩形" fill="#363636" mask="url(#mask-7)" x="92.7366819" y="148.066971" width="4.67579909" height="17.1445967" rx="2.33789954"></rect>
                    <path d="M95.0745814,140.273973 C95.0745814,148.02109 102.913461,154.30137 109.101979,154.30137 C115.290497,154.30137 118.453577,152.696889 124.687976,144.949772 M65.4611872,144.949772 C71.695586,152.696889 74.8586663,154.30137 81.0471842,154.30137 C87.2357021,154.30137 95.0745814,148.02109 95.0745814,140.273973" id="形状结合" stroke="#363636" stroke-width="5.47945205" stroke-linecap="round" stroke-linejoin="round" mask="url(#mask-7)"></path>
                    <g id="编组" mask="url(#mask-7)">
                        <g transform="translate(21.425715, 67.312258)">
                            <ellipse id="椭圆形备份-2" fill="#FFFFFF" cx="26.2968422" cy="26.1304065" rx="26.2968422" ry="26.1304065"></ellipse>
                            <path d="M26.2968422,12.1941897 C28.6865333,12.1941897 30.9366326,12.7880709 32.9058179,13.8354056 C31.1093745,14.3792017 29.8030878,16.0384899 29.8030878,18.0009467 C29.8030878,20.4061842 31.7653373,22.3560144 34.1858948,22.3560144 C36.2163445,22.3560144 37.924308,20.984026 38.4220952,19.1221211 C39.6297367,21.1804928 40.3218247,23.5751383 40.3218247,26.1304065 C40.3218247,33.8271665 34.0426261,40.0666232 26.2968422,40.0666232 C18.5510582,40.0666232 12.2718597,33.8271665 12.2718597,26.1304065 C12.2718597,18.4336465 18.5510582,12.1941897 26.2968422,12.1941897 Z" id="形状结合" fill="#363636"></path>
                        </g>
                    </g>
                    <g id="编组备份" mask="url(#mask-7)">
                        <g transform="translate(114.925598, 67.312258)">
                            <ellipse id="椭圆形备份-2" fill="#FFFFFF" cx="26.2968422" cy="26.1304065" rx="26.2968422" ry="26.1304065"></ellipse>
                            <path d="M26.2968422,12.1941897 C28.6865333,12.1941897 30.9366326,12.7880709 32.9058179,13.8354056 C31.1093745,14.3792017 29.8030878,16.0384899 29.8030878,18.0009467 C29.8030878,20.4061842 31.7653373,22.3560144 34.1858948,22.3560144 C36.2163445,22.3560144 37.924308,20.984026 38.4220952,19.1221211 C39.6297367,21.1804928 40.3218247,23.5751383 40.3218247,26.1304065 C40.3218247,33.8271665 34.0426261,40.0666232 26.2968422,40.0666232 C18.5510582,40.0666232 12.2718597,33.8271665 12.2718597,26.1304065 C12.2718597,18.4336465 18.5510582,12.1941897 26.2968422,12.1941897 Z" id="形状结合" fill="#363636"></path>
                        </g>
                    </g>
                    <path d="M119.666236,31.206579 C159.409302,42.1521691 188.584124,78.3575895 188.584124,121.334027 C188.584124,172.981478 146.448914,214.850009 94.4724988,214.850009 C79.7184919,214.850009 65.7574528,211.476397 53.3280218,205.46314 C61.3477271,207.671838 69.7979367,208.852359 78.525628,208.852359 C130.502043,208.852359 172.637253,166.983828 172.637253,115.336377 C172.637253,78.6666876 151.396894,46.9265509 120.474555,31.6011926 Z" id="形状结合" fill="#F7B9EF" mask="url(#mask-7)"></path>
                    <g id="形状结合" mask="url(#mask-7)">
                        <g transform="translate(97.704200, -40.523592)">
                            <mask id="mask-9" fill="white">
                                <use xlink:href="#path-8"></use>
                            </mask>
                            <g id="蒙版" stroke="none" fill="none"></g>
                            <path d="M21.9620358,71.7301711 C61.7051024,82.6757612 90.8799238,118.881182 90.8799238,161.857619 C90.8799238,213.50507 48.7447141,255.373601 -3.23170114,255.373601 C-17.9857081,255.373601 -31.9467472,251.999989 -44.3761782,245.986732 C-36.3564729,248.19543 -27.9062633,249.375951 -19.178572,249.375951 C32.7978432,249.375951 74.9330529,207.50742 74.9330529,155.85997 C74.9330529,119.19028 53.6926937,87.450143 22.7703546,72.1247847 Z" id="形状结合" stroke="none" fill="#FF7C7C" fill-rule="evenodd" mask="url(#mask-9)"></path>
                        </g>
                    </g>
                </g>
            </g>
        </g>
    </g>
</svg>