<?xml version="1.0" encoding="UTF-8"?>
<svg width="416px" height="417px" viewBox="0 0 416 417" version="1.1" xmlns="http://www.w3.org/2000/svg" xmlns:xlink="http://www.w3.org/1999/xlink">
    <title>编组 5</title>
    <g id="页面-1" stroke="none" stroke-width="1" fill="none" fill-rule="evenodd">
        <g id="贴纸备份" transform="translate(-1084.000000, -718.000000)">
            <g id="编组-5" transform="translate(1292.018130, 926.489066) rotate(-4.000000) translate(-1292.018130, -926.489066) translate(1097.518130, 731.989066)">
                <g id="编组" transform="translate(194.086240, 194.612502) rotate(-44.000000) translate(-194.086240, -194.612502) translate(56.586240, 57.612502)" fill="#FFFFFF" fill-rule="nonzero">
                    <path d="M148.271023,0.199181781 L150.95433,75.4374715 L197.666961,75.5786509 L197.666717,75.5749487 C198.296151,75.5411071 198.924359,75.5376182 199.550896,75.5660037 C206.0036,75.8530687 210.984279,78.7236524 216.25368,84.7962338 L216.417363,84.9855302 L274.300334,149.464834 C233.781472,150.921701 209.1698,151.824488 200.465318,152.173194 C200.640435,156.897137 200.695437,194.80301 200.638333,194.574871 L200.641043,194.574251 C200.687888,195.284222 200.6964,195.992706 200.664398,196.699066 C200.377333,203.15177 196.064591,210.468312 191.154542,215.053255 L125.397243,273.997384 C124.750407,232.810301 124.347937,208.574114 124.189835,201.288821 C114.264665,201.359149 76.9554318,200.786094 77.1304582,200.750792 L76.4287444,200.762581 L75.6489201,200.743605 C69.196216,200.45654 63.152339,195.913611 58.5860617,190.966999 L0.0603716022,125.532823 L72.8462998,124.223241 L73.2437213,76.8826025 L73.2632054,76.1031587 C73.5530505,69.6545278 76.8563056,64.4704424 81.8753212,59.7999908 L148.271023,0.199181781 Z" id="形状"></path>
                </g>
                <g id="编组备份" transform="translate(194.615922, 195.515034) rotate(-44.000000) translate(-194.615922, -195.515034) translate(82.115922, 83.015034)">
                    <path d="M112.449793,0.170951961 C84.3674071,25.5468326 70.326214,38.2347729 70.326214,38.2347729 C65.3979586,42.7622376 62.1469154,47.7863086 61.8642563,54.0513295 C60.711807,79.0138535 112.449793,106.753898 112.449793,106.753898 L112.449793,0.170951961 Z" id="路径" fill="#FFC22D" fill-rule="nonzero"></path>
                    <path d="M224.638455,112.449793 C199.536275,84.7857345 186.985186,70.9537051 186.985186,70.9537051 C181.859978,64.9685333 177.035558,62.1436691 170.76658,61.8637211 C145.791698,60.7279371 118.055509,112.449793 118.055509,112.449793 L224.638455,112.449793 Z" id="路径" fill="#F42E2E" fill-rule="nonzero"></path>
                    <path d="M112.2176,122.750156 C95.295949,91.0581818 104.601016,61.873369 104.601016,61.873369 L169.65362,61.8482171 C169.65362,61.8482171 163.754393,61.6401976 145.758519,79.5874442 C140.158446,85.1723853 112.2176,122.69754 112.2176,122.69754 L112.2176,122.750156 Z" id="路径" fill="#FF745C" fill-rule="nonzero"></path>
                    <path d="M112.359613,224.638455 C140.314576,199.056029 154.292058,186.264817 154.292058,186.264817 C159.105647,181.817217 162.665738,177.035558 162.945686,170.76658 C164.08147,145.791698 112.359613,118.055509 112.359613,118.055509 L112.359613,224.638455 Z" id="路径" fill="#0085C9" fill-rule="nonzero"></path>
                    <path d="M102.252388,112.160885 C113.951737,108.090389 126.014663,105.142172 138.276854,103.356394 C153.535513,101.329964 163.129175,104.544302 163.129175,104.544302 L162.940161,170.865154 C162.940161,170.865154 164.637503,163.46801 145.4151,145.701805 C139.627333,140.356221 102.305004,112.160885 102.305004,112.160885 L102.252388,112.160885 Z" id="路径" fill="#13B6FF" fill-rule="nonzero"></path>
                    <path d="M0.170951961,112.359613 C25.6303452,140.341879 38.3600418,154.333012 38.3600418,154.333012 C42.7849535,159.184576 47.7738489,162.665738 54.042827,162.945686 C79.0177087,164.08147 106.753898,112.359613 106.753898,112.359613 L0.170951961,112.359613 Z" id="路径" fill="#2BB341" fill-rule="nonzero"></path>
                    <path d="M112.648521,102.252388 C116.719018,113.951737 119.667235,126.014663 121.453012,138.276854 C123.479443,153.535513 120.265105,163.129175 120.265105,163.129175 L53.8379051,162.931772 C53.8379051,162.931772 61.3413962,164.637503 79.1076019,145.4151 C84.4531859,139.627333 112.648521,102.305004 112.648521,102.305004 L112.648521,102.252388 Z" id="路径" fill="#55D96A" fill-rule="nonzero"></path>
                    <path d="M121.494316,112.598181 C109.786361,116.673217 98.7767758,119.682784 86.5046319,121.472812 C71.2415777,123.463344 61.6802392,120.250555 61.6802392,120.250555 L61.8703716,53.9552682 C61.8703716,53.9552682 60.9082228,61.9803811 79.399417,79.1478045 C85.1672276,84.5027019 121.494316,112.615642 121.494316,112.615642 L121.494316,112.598181 Z" id="路径" fill="#FFDA7E" fill-rule="nonzero"></path>
                    <circle id="椭圆形" fill="#FFFFFF" cx="110.955073" cy="111.004811" r="11.1956876"></circle>
                </g>
            </g>
        </g>
    </g>
</svg>