<?xml version="1.0" encoding="UTF-8"?>
<svg width="230px" height="231px" viewBox="0 0 230 231" version="1.1" xmlns="http://www.w3.org/2000/svg" xmlns:xlink="http://www.w3.org/1999/xlink">
    <title>编组9</title>
    <defs>
        <circle id="path-1" cx="103.895981" cy="103.895981" r="103.895981"></circle>
    </defs>
    <g id="页面-1" stroke="none" stroke-width="1" fill="none" fill-rule="evenodd">
        <g id="贴纸备份" transform="translate(-170.000000, -411.000000)">
            <g id="编组9" transform="translate(170.000000, 411.223914)">
                <circle id="椭圆形" fill="#FFFFFF" cx="114.643841" cy="114.643841" r="114.643841"></circle>
                <g id="编组-5" transform="translate(10.747860, 10.747860)">
                    <mask id="mask-2" fill="white">
                        <use xlink:href="#path-1"></use>
                    </mask>
                    <use id="蒙版" fill="#000000" xlink:href="#path-1"></use>
                    <g mask="url(#mask-2)">
                        <g transform="translate(-18.242977, -4.244292)">
                            <g id="编组-4" stroke-width="1" fill="none" fill-rule="evenodd">
                                <rect id="矩形备份-8" fill="#FFFFFF" opacity="0" x="0" y="151.522963" width="54.0615061" height="18.2429774"></rect>
                                <rect id="矩形备份-91" fill="#FFFFFF" opacity="0.2" x="54.0615061" y="151.522963" width="34.706152" height="18.2429774"></rect>
                                <rect id="矩形备份-96" fill="#FFFFFF" opacity="0.400000006" x="88.7676581" y="151.522963" width="34.706152" height="18.2429774"></rect>
                                <rect id="矩形备份-97" fill="#FFFFFF" opacity="0.600000024" x="123.47381" y="151.522963" width="34.706152" height="18.2429774"></rect>
                                <rect id="矩形备份-98" fill="#FFFFFF" opacity="0.800000012" x="158.179962" y="151.522963" width="34.706152" height="18.2429774"></rect>
                                <rect id="矩形备份-99" fill="#FFFFFF" x="192.886114" y="151.522963" width="34.706152" height="18.2429774"></rect>
                                <rect id="矩形" fill="#FFFFFF" x="57.8435867" y="0.0714414325" width="129.035693" height="26.1979089"></rect>
                                <rect id="矩形备份-5" fill="#000000" x="23.5823854" y="26.2693504" width="58.7334881" height="22.2475334"></rect>
                                <rect id="矩形备份-100" fill="#FFFFFF" x="16.2406994" y="169.765941" width="58.7334881" height="22.2475334"></rect>
                                <rect id="矩形备份-18" fill="#DFEC10" x="0" y="66.7598611" width="40.712986" height="32.9263494"></rect>
                                <rect id="矩形备份-19" fill="#43F5E5" x="40.712986" y="66.7598611" width="40.712986" height="32.9263494"></rect>
                                <rect id="矩形备份-20" fill="#1EF317" x="81.4259721" y="66.7598611" width="40.712986" height="32.9263494"></rect>
                                <rect id="矩形备份-21" fill="#D811E3" x="122.138958" y="66.7598611" width="40.712986" height="32.9263494"></rect>
                                <rect id="矩形备份-22" fill="#F61111" x="162.851944" y="66.7598611" width="40.712986" height="32.9263494"></rect>
                                <rect id="矩形备份-23" fill="#3534EA" x="203.56493" y="66.7598611" width="40.712986" height="32.9263494"></rect>
                                <rect id="矩形备份-8" fill="#000000" x="22.4700087" y="48.5168837" width="19.8003047" height="18.2429774"></rect>
                                <rect id="矩形备份-10" fill="#000000" x="62.2930934" y="48.5168837" width="20.02278" height="18.2429774"></rect>
                                <rect id="矩形备份-12" fill="#000000" x="102.116178" y="48.5168837" width="19.8003047" height="18.2429774"></rect>
                                <rect id="矩形备份-14" fill="#000000" x="141.716787" y="48.5168837" width="20.02278" height="18.2429774"></rect>
                                <rect id="矩形备份-16" fill="#000000" x="181.539872" y="48.5168837" width="19.8003047" height="18.2429774"></rect>
                                <rect id="矩形备份-6" fill="#FFFFFF" x="82.3158734" y="24.9344984" width="79.4236941" height="23.5823854"></rect>
                                <rect id="矩形备份-101" fill="#000000" x="82.3158734" y="169.765941" width="79.4236941" height="22.2475334"></rect>
                                <text id="TRENDY" font-family="PingFangSC-Regular, PingFang SC" font-size="19.1328787" font-weight="normal" line-spacing="19.1328787" fill="#FFFFFF">
                                    <tspan x="83.8732008" y="191.323268">TRENDY</tspan>
                                </text>
                                <rect id="矩形备份-103" fill="#F61111" x="111.015191" y="192.013474" width="22.692484" height="29.366744"></rect>
                                <rect id="矩形备份-104" fill="#DFEC10" x="34.2612014" y="192.013474" width="76.7539901" height="29.366744"></rect>
                                <rect id="矩形备份-105" fill="#DFEC10" x="133.707675" y="192.013474" width="76.7539901" height="29.366744"></rect>
                                <rect id="矩形备份-9" fill="#FFFFFF" opacity="0.800000012" x="42.2703134" y="48.5168837" width="20.02278" height="18.2429774"></rect>
                                <rect id="矩形备份-11" fill="#FFFFFF" opacity="0.800000012" x="82.3158734" y="48.5168837" width="19.8003047" height="18.2429774"></rect>
                                <rect id="矩形备份-13" fill="#FFFFFF" opacity="0.800000012" x="121.916483" y="48.5168837" width="19.8003047" height="18.2429774"></rect>
                                <rect id="矩形备份-15" fill="#FFFFFF" opacity="0.800000012" x="161.739568" y="48.5168837" width="19.8003047" height="18.2429774"></rect>
                                <rect id="矩形备份-17" fill="#FFFFFF" opacity="0.800000012" x="201.340177" y="48.5168837" width="19.8003047" height="18.2429774"></rect>
                                <rect id="矩形备份-7" fill="#000000" x="161.739568" y="26.2693504" width="58.7334881" height="22.2475334"></rect>
                                <rect id="矩形备份-102" fill="#FFFFFF" x="169.74868" y="169.765941" width="58.7334881" height="22.2475334"></rect>
                                <rect id="矩形" stroke="#FFFFFF" stroke-width="1.334852" fill="#000000" x="113.684895" y="83.2230358" width="17.7980267" height="53.3940801"></rect>
                                <rect id="矩形" fill="#FFFFFF" x="0" y="107.472847" width="244.277916" height="1.334852"></rect>
                                <rect id="矩形备份-29" fill="#FFFFFF" x="0" y="117.484237" width="244.277916" height="1"></rect>
                                <rect id="矩形" fill="#FFFFFF" x="24.4722867" y="99.6862105" width="1.334852" height="17.7980267"></rect>
                                <rect id="矩形备份-27" fill="#FFFFFF" x="79.2012187" y="99.6862105" width="1.334852" height="17.7980267"></rect>
                                <rect id="矩形备份-30" fill="#FFFFFF" x="149.058473" y="99.6862105" width="1.334852" height="17.7980267"></rect>
                                <rect id="矩形备份-25" fill="#FFFFFF" x="42.715264" y="99.6862105" width="1.334852" height="17.7980267"></rect>
                                <rect id="矩形备份-28" fill="#FFFFFF" x="97.4441961" y="99.6862105" width="1.334852" height="17.7980267"></rect>
                                <rect id="矩形备份-31" fill="#FFFFFF" x="167.301451" y="99.6862105" width="1.334852" height="17.7980267"></rect>
                                <rect id="矩形备份-26" fill="#FFFFFF" x="60.9582414" y="99.6862105" width="1.334852" height="17.7980267"></rect>
                                <rect id="矩形备份-32" fill="#FFFFFF" x="185.544428" y="99.6862105" width="1.334852" height="17.7980267"></rect>
                                <rect id="矩形备份-33" fill="#FFFFFF" x="203.787406" y="99.6862105" width="1.334852" height="17.7980267"></rect>
                                <rect id="矩形备份-34" fill="#FFFFFF" x="222.030383" y="99.6862105" width="1.334852" height="17.7980267"></rect>
                                <rect id="矩形" fill="#FFFFFF" x="120.359155" y="83.2230358" width="4.44950667" height="53.3940801"></rect>
                            </g>
                            <rect id="矩形" fill="#000000" fill-rule="evenodd" x="88.3227074" y="14.9231084" width="67.6325014" height="22.2475334"></rect>
                            <text id="BAIDU" fill="none" font-family="PingFangSC-Regular, PingFang SC" font-size="19.1328787" font-weight="normal" line-spacing="19.1328787">
                                <tspan x="93.4396401" y="36.4804357" fill="#FFFFFF">BAIDU</tspan>
                            </text>
                            <g id="编组-3" stroke-width="1" fill="none" fill-rule="evenodd" transform="translate(16.908125, 117.706712)">
                                <rect id="矩形备份-35" fill="#FFFFFF" x="0" y="0" width="1.334852" height="33.8162507"></rect>
                                <rect id="矩形备份-54" fill="#FFFFFF" x="96.1093441" y="18.9104034" width="1.334852" height="14.9058473"></rect>
                                <rect id="矩形备份-51" fill="#FFFFFF" x="56.9536854" y="0" width="1.334852" height="33.8162507"></rect>
                                <rect id="矩形备份-62" fill="#FFFFFF" x="153.063029" y="0" width="1.334852" height="33.8162507"></rect>
                                <rect id="矩形备份-43" fill="#FFFFFF" x="28.4768427" y="0" width="1.334852" height="33.8162507"></rect>
                                <rect id="矩形备份-64" fill="#FFFFFF" x="124.586187" y="0" width="1.334852" height="33.8162507"></rect>
                                <rect id="矩形备份-52" fill="#FFFFFF" x="85.4305281" y="0" width="1.334852" height="33.8162507"></rect>
                                <rect id="矩形备份-66" fill="#FFFFFF" x="181.539872" y="0" width="1.334852" height="33.8162507"></rect>
                                <rect id="矩形备份-90" fill="#FFFFFF" x="202.897504" y="0" width="1.334852" height="33.8162507"></rect>
                                <rect id="矩形备份-39" fill="#FFFFFF" x="14.2384213" y="0" width="1.334852" height="33.8162507"></rect>
                                <rect id="矩形备份-67" fill="#FFFFFF" x="110.347765" y="18.9104034" width="1.334852" height="14.9058473"></rect>
                                <rect id="矩形备份-53" fill="#FFFFFF" x="71.1921067" y="0" width="1.334852" height="33.8162507"></rect>
                                <rect id="矩形备份-68" fill="#FFFFFF" x="167.301451" y="0" width="1.334852" height="33.8162507"></rect>
                                <rect id="矩形备份-44" fill="#FFFFFF" x="42.715264" y="0" width="1.334852" height="33.8162507"></rect>
                                <rect id="矩形备份-69" fill="#FFFFFF" x="138.824608" y="0" width="1.334852" height="33.8162507"></rect>
                                <rect id="矩形备份-37" fill="#FFFFFF" x="7.11921067" y="0" width="1.334852" height="33.8162507"></rect>
                                <rect id="矩形备份-70" fill="#FFFFFF" x="103.228555" y="18.9104034" width="1.334852" height="14.9058473"></rect>
                                <rect id="矩形备份-55" fill="#FFFFFF" x="64.0728961" y="0" width="1.334852" height="33.8162507"></rect>
                                <rect id="矩形备份-71" fill="#FFFFFF" x="160.18224" y="0" width="1.334852" height="33.8162507"></rect>
                                <rect id="矩形备份-45" fill="#FFFFFF" x="35.5960534" y="0" width="1.334852" height="33.8162507"></rect>
                                <rect id="矩形备份-72" fill="#FFFFFF" x="131.705397" y="0" width="1.334852" height="33.8162507"></rect>
                                <rect id="矩形备份-56" fill="#FFFFFF" x="92.5497388" y="0" width="1.334852" height="33.8162507"></rect>
                                <rect id="矩形备份-73" fill="#FFFFFF" x="188.659083" y="0" width="1.334852" height="33.8162507"></rect>
                                <rect id="矩形备份-40" fill="#FFFFFF" x="21.357632" y="0" width="1.334852" height="33.8162507"></rect>
                                <rect id="矩形备份-74" fill="#FFFFFF" x="117.466976" y="0" width="1.334852" height="33.8162507"></rect>
                                <rect id="矩形备份-57" fill="#FFFFFF" x="78.3113174" y="0" width="1.334852" height="33.8162507"></rect>
                                <rect id="矩形备份-75" fill="#FFFFFF" x="174.420662" y="0" width="1.334852" height="33.8162507"></rect>
                                <rect id="矩形备份-92" fill="#FFFFFF" x="195.778294" y="0" width="1.334852" height="33.8162507"></rect>
                                <rect id="矩形备份-46" fill="#FFFFFF" x="49.8344747" y="0" width="1.334852" height="33.8162507"></rect>
                                <rect id="矩形备份-76" fill="#FFFFFF" x="145.943819" y="0" width="1.334852" height="33.8162507"></rect>
                                <rect id="矩形备份-36" fill="#FFFFFF" x="3.55960534" y="0" width="1.334852" height="33.8162507"></rect>
                                <rect id="矩形备份-77" fill="#FFFFFF" x="99.6689494" y="18.9104034" width="1.334852" height="14.9058473"></rect>
                                <rect id="矩形备份-59" fill="#FFFFFF" x="60.5132907" y="0" width="1.334852" height="33.8162507"></rect>
                                <rect id="矩形备份-78" fill="#FFFFFF" x="156.622635" y="0" width="1.334852" height="33.8162507"></rect>
                                <rect id="矩形备份-47" fill="#FFFFFF" x="32.036448" y="0" width="1.334852" height="33.8162507"></rect>
                                <rect id="矩形备份-79" fill="#FFFFFF" x="128.145792" y="0" width="1.334852" height="33.8162507"></rect>
                                <rect id="矩形备份-60" fill="#FFFFFF" x="88.9901334" y="0" width="1.334852" height="33.8162507"></rect>
                                <rect id="矩形备份-80" fill="#FFFFFF" x="185.099478" y="0" width="1.334852" height="33.8162507"></rect>
                                <rect id="矩形备份-93" fill="#FFFFFF" x="206.45711" y="0" width="1.334852" height="33.8162507"></rect>
                                <rect id="矩形备份-41" fill="#FFFFFF" x="17.7980267" y="0" width="1.334852" height="33.8162507"></rect>
                                <rect id="矩形备份-81" fill="#FFFFFF" x="113.907371" y="18.9104034" width="1.334852" height="14.9058473"></rect>
                                <rect id="矩形备份-61" fill="#FFFFFF" x="74.7517121" y="0" width="1.334852" height="33.8162507"></rect>
                                <rect id="矩形备份-82" fill="#FFFFFF" x="170.861056" y="0" width="1.334852" height="33.8162507"></rect>
                                <rect id="矩形备份-94" fill="#FFFFFF" x="192.218688" y="0" width="1.334852" height="33.8162507"></rect>
                                <rect id="矩形备份-48" fill="#FFFFFF" x="46.2748694" y="0" width="1.334852" height="33.8162507"></rect>
                                <rect id="矩形备份-83" fill="#FFFFFF" x="142.384213" y="0" width="1.334852" height="33.8162507"></rect>
                                <rect id="矩形备份-38" fill="#FFFFFF" x="10.678816" y="0" width="1.334852" height="33.8162507"></rect>
                                <rect id="矩形备份-84" fill="#FFFFFF" x="106.78816" y="18.9104034" width="1.334852" height="14.9058473"></rect>
                                <rect id="矩形备份-63" fill="#FFFFFF" x="67.6325014" y="0" width="1.334852" height="33.8162507"></rect>
                                <rect id="矩形备份-85" fill="#FFFFFF" x="163.741846" y="0" width="1.334852" height="33.8162507"></rect>
                                <rect id="矩形备份-49" fill="#FFFFFF" x="39.1556587" y="0" width="1.334852" height="33.8162507"></rect>
                                <rect id="矩形备份-86" fill="#FFFFFF" x="135.265003" y="0" width="1.334852" height="33.8162507"></rect>
                                <rect id="矩形备份-42" fill="#FFFFFF" x="24.9172374" y="0" width="1.334852" height="33.8162507"></rect>
                                <rect id="矩形备份-87" fill="#FFFFFF" x="121.026581" y="0" width="1.334852" height="33.8162507"></rect>
                                <rect id="矩形备份-65" fill="#FFFFFF" x="81.8709228" y="0" width="1.334852" height="33.8162507"></rect>
                                <rect id="矩形备份-88" fill="#FFFFFF" x="177.980267" y="0" width="1.334852" height="33.8162507"></rect>
                                <rect id="矩形备份-95" fill="#FFFFFF" x="199.337899" y="0" width="1.334852" height="33.8162507"></rect>
                                <rect id="矩形备份-50" fill="#FFFFFF" x="53.3940801" y="0" width="1.334852" height="33.8162507"></rect>
                                <rect id="矩形备份-89" fill="#FFFFFF" x="149.503424" y="0" width="1.334852" height="33.8162507"></rect>
                            </g>
                        </g>
                    </g>
                </g>
            </g>
        </g>
    </g>
</svg>