<?xml version="1.0" encoding="UTF-8"?>
<svg width="202px" height="244px" viewBox="0 0 202 244" version="1.1" xmlns="http://www.w3.org/2000/svg" xmlns:xlink="http://www.w3.org/1999/xlink">
    <title>编组8</title>
    <g id="页面-1" stroke="none" stroke-width="1" fill="none" fill-rule="evenodd">
        <g id="贴纸备份" transform="translate(-2171.000000, -811.000000)">
            <g id="编组8" transform="translate(2171.800120, 811.646476)">
                <rect id="矩形" fill="#FFFFFF" x="77.6980718" y="127.183011" width="45.6784053" height="104.119895"></rect>
                <path d="M136.075387,121.605879 C160.890121,121.605879 182.332071,136.024098 192.456138,156.927756 C182.265832,177.650454 160.921432,191.91357 136.240529,191.91357 C111.42588,191.91357 89.9839918,177.49545 79.8598824,156.591908 C90.0496713,135.869271 111.394245,121.605879 136.075387,121.605879 Z" id="形状结合备份-14" fill="#FFFFFF" transform="translate(136.158010, 156.759725) scale(-1, 1) rotate(45.000000) translate(-136.158010, -156.759725) "></path>
                <path d="M66.3273472,140.318168 C91.6206067,140.318168 113.498942,154.970406 123.971577,176.267049 C113.498259,197.56448 91.6202117,212.21626 66.3273472,212.21626 C41.0344828,212.21626 19.1564359,197.56448 8.6836084,176.268378 C19.1557526,154.970406 41.0340878,140.318168 66.3273472,140.318168 Z" id="形状结合" fill="#FFFFFF" transform="translate(66.327593, 176.267214) rotate(45.000000) translate(-66.327593, -176.267214) "></path>
                <path d="M112.18079,114.867755 L112.18079,220.107218 L88.8044566,220.107218 L88.8044801,204.991577 C73.8760503,208.252747 57.6536806,204.081918 46.0503017,192.478539 C33.1563011,179.584539 29.4402198,160.986879 34.9002852,144.799536 C51.1707866,139.162612 69.9471715,142.838098 82.9358388,155.826765 C85.1670855,158.058012 87.1235023,160.460053 88.8050983,162.990844 L88.8044566,114.867755 L112.18079,114.867755 Z" id="形状结合" fill="#32B647"></path>
                <rect id="矩形备份-3" fill="#FFFFFF" x="0" y="0" width="200.850635" height="128.526493" rx="61.5762817"></rect>
                <g id="编组-13" transform="translate(104.791636, 125.391701)"></g>
                <path d="M136.153895,131.421722 C154.010378,131.421722 169.452481,141.76217 176.822421,156.783494 C169.452481,171.806091 154.010378,182.146539 136.153895,182.146539 C118.297413,182.146539 102.85531,171.806091 95.4853702,156.784767 C102.85531,141.76217 118.297413,131.421722 136.153895,131.421722 Z" id="形状结合备份-14" fill="#32B647" transform="translate(136.153895, 156.784130) scale(-1, 1) rotate(45.000000) translate(-136.153895, -156.784130) "></path>
                <path d="M164.800521,127.827043 L164.799597,127.826014 C148.953512,122.413397 130.705884,126.026865 118.066341,138.666419 C105.426841,151.30593 101.813359,169.553495 107.225893,185.399558 L107.226817,185.400586" id="路径" fill="#4BCD60"></path>
                <rect id="矩形" fill="#F42E2E" x="11.1956876" y="11.1956876" width="178.45926" height="106.135118" rx="50.8284216"></rect>
                <rect id="矩形备份-2" fill="#FFBD1A" x="26.6457364" y="26.6457364" width="147.559162" height="75.2350206" rx="36.945769"></rect>
                <rect id="矩形备份" fill="#FFD4A9" x="42.0957853" y="42.0957853" width="116.882978" height="44.3349228" rx="21.2718064"></rect>
                <rect id="矩形" fill="#1E2427" x="70.9806593" y="51.7240766" width="11.6435151" height="24.8544264" rx="5.59784379"></rect>
                <circle id="椭圆形" fill="#FFFFFF" cx="76.9143737" cy="57.6577911" r="3.6945769"></circle>
                <rect id="矩形备份-58" fill="#1E2427" x="118.226461" y="51.7240766" width="11.6435151" height="24.8544264" rx="5.59784379"></rect>
                <circle id="椭圆形" fill="#FFFFFF" cx="123.936262" cy="57.6577911" r="3.6945769"></circle>
            </g>
        </g>
    </g>
</svg>