<?xml version="1.0" encoding="UTF-8"?>
<svg width="224px" height="231px" viewBox="0 0 224 231" version="1.1" xmlns="http://www.w3.org/2000/svg" xmlns:xlink="http://www.w3.org/1999/xlink">
    <title>编组 14</title>
    <defs>
        <path d="M88.4136361,0.136615477 C115.619749,0.136615477 137.674661,20.0834331 137.674661,44.6890796 C137.674661,46.2617163 137.584568,47.8153218 137.408795,49.3459048 C148.083623,59.1575016 155.183563,72.1562211 156.802454,86.6178049 C161.045789,93.9083477 163.907959,101.959743 165.074373,110.486544 C172.292323,122.056286 176.41174,135.421317 176.41174,149.657385 C176.41174,193.711434 136.963522,229.424297 88.3016792,229.424297 C39.6398361,229.424297 0.191617926,193.711434 0.191617926,149.657385 C0.191617926,135.421317 4.31103568,122.056286 11.5295973,110.485954 C12.6953989,101.959743 15.5575692,93.9083477 19.800803,86.6170167 C21.4299945,72.0651083 28.6094172,58.9937672 39.3967678,49.1589369 C39.2355864,47.6900274 39.1526107,46.1983173 39.1526107,44.6890796 C39.1526107,20.0834331 61.207523,0.136615477 88.4136361,0.136615477 Z" id="path-1"></path>
        <path d="M71.8034356,2.84217094e-14 C93.9813887,2.84217094e-14 111.960172,17.9787832 111.960172,40.1567362 C111.960172,41.5751654 111.88663,42.9764181 111.743152,44.3568893 C120.441355,53.1693738 126.244252,64.8483862 127.607772,77.8492336 C131.102528,84.4851897 133.448048,91.8213084 134.379622,99.5921071 C140.254417,110.001748 143.606871,122.024818 143.606871,134.830896 C143.606871,174.486838 111.459378,206.634331 71.8034356,206.634331 C32.1474932,206.634331 0,174.486838 0,134.830896 C0,122.024818 3.35245409,110.001748 9.22761194,99.5914353 C10.1588702,91.8209176 12.504579,84.4844519 15.9996425,77.8474429 C17.3628655,64.8482781 23.1653007,53.17003 31.8634235,44.3565751 C31.7202765,42.9770954 31.6466994,41.5755082 31.6466994,40.1567362 C31.6466994,17.9787832 49.6254826,2.84217094e-14 71.8034356,2.84217094e-14 Z" id="path-3"></path>
    </defs>
    <g id="页面-1" stroke="none" stroke-width="1" fill="none" fill-rule="evenodd">
        <g id="贴纸备份" transform="translate(-2167.000000, -411.000000)">
            <g id="编组-14" transform="translate(2167.832173, 411.000000)">
                <g id="蒙版-2" transform="translate(11.227983, 0.087298)">
                    <mask id="mask-2" fill="white">
                        <use xlink:href="#path-1"></use>
                    </mask>
                    <use id="蒙版" fill="#FFFFFF" xlink:href="#path-1"></use>
                </g>
                <g id="编组-9" transform="translate(144.600483, 46.706706)">
                    <path d="M18.1634229,66.1005817 C14.4653296,66.1005817 11.4674327,63.3338389 11.4674327,59.9208886 L11.4674327,42.142404 C11.4674327,38.7294537 12.6037521,30.709721 16.3018453,30.709721 L22.2448623,30.709721 C28.1725823,30.110741 29.8634883,24.2864681 30.8205188,17.2636429 C31.3402334,13.4499033 76.2028882,24.5616509 73.6604631,27.6202258 L73.4631275,27.854717 C73.2308587,28.12738 72.9914873,28.3968733 72.7455485,28.663358 L72.533148,28.8910404 C72.46182,28.9666915 72.3899684,29.0421007 72.3176057,29.1172718 L72.0989966,29.3420747 L71.8773955,29.5654717 C71.8402169,29.6025886 71.8029166,29.6396479 71.7654965,29.67665 L71.539548,29.8979804 C71.1021396,30.3224772 70.6805445,30.7373816 70.2669126,31.1562902 L70.0607239,31.3661411 L69.8635141,31.5689018 L69.5691982,31.8755891 L69.373704,32.0822343 L69.1785568,32.2910209 L68.9835628,32.5022847 L68.788528,32.7163614 L68.5932586,32.9335868 L68.3975608,33.1542966 L68.2012407,33.3788266 L68.0041045,33.6075126 L67.8059583,33.8406903 L67.6066082,34.0786955 C67.5732721,34.118784 67.5398778,34.1590876 67.5064211,34.1996133 L67.3049018,34.4454893 L67.1016941,34.6970322 L66.896604,34.9545778 L66.6894377,35.2184618 L66.4800013,35.48902 C66.4448954,35.5346878 66.4096867,35.5806478 66.3743713,35.6269068 L66.1611665,35.9081058 C66.1254082,35.9555891 66.0895351,36.0033855 66.0535432,36.0515019 L65.8361336,36.3440972 L65.6156786,36.6447098 L65.3919843,36.9536753 L65.1648569,37.2713296 L64.9341024,37.5980085 L64.6995271,37.9340476 C64.6773997,37.9801573 64.6468864,38.0376104 64.6089723,38.1061722 L64.2352044,38.7645666 L64.0945141,39.0168288 C63.7459693,39.6484 63.29732,40.5142358 62.8537901,41.5892677 C60.5554437,47.1600205 58.9671276,58.3634893 71.5853964,71.680919 L72.0685305,72.1837452 L71.7928991,71.8961153 C75.8439472,75.0460124 74.2330277,77.280011 74.2330277,82.5460067 C74.2330277,92.0296072 67.1492948,96.0589995 56.8550571,96.0589995 C47.7397743,96.0589995 37.907253,98.1192477 36.2889844,90.1543842 C31.1877382,69.9551789 21.7945199,68.1862053 19.275105,68.0604164 L19.1266928,68.0545423 L18.9967869,68.0520367 L18.9384036,68.0517623 L18.1634229,66.1005817 Z" id="形状结合备份-13" fill="#FFFFFF"></path>
                    <circle id="椭圆形" fill="#FFFFFF" cx="53.5631875" cy="76.8936846" r="22.6152889"></circle>
                    <circle id="椭圆形" fill="#FFFFFF" cx="51.9957912" cy="22.7065567" r="22.6152889"></circle>
                    <rect id="矩形" fill="#E7E7E7" x="-8.27321506e-14" y="42.4786093" width="34.8379632" height="13.8288098"></rect>
                    <path d="M51.3261595,10.3000326 C58.5229787,10.3000326 64.3571534,16.1342073 64.3571534,23.3310265 C64.3571534,27.2212358 62.5455594,30.366009 59.9493395,33.1009612 C58.3184209,34.8190299 57.0019634,36.3300386 55.1674027,39.199291 C54.6517514,40.3656661 47.622078,51.0966546 59.5811061,64.7971877 L59.7989509,65.0430326 L59.7267886,64.9610128 C62.558568,67.3513736 64.3571534,70.9272081 64.3571534,74.9231247 C64.3571534,82.1199438 58.5229787,87.9541185 51.3261595,87.9541185 C44.9574869,87.9541185 39.6558997,83.3853821 38.5201099,77.346621 C34.8062696,61.3685933 27.8326699,60.5768822 26.4288512,60.5626458 L23.9344785,60.5624375 C20.4095059,60.5624375 17.5519509,57.7048826 17.5519509,54.1799099 L17.5519509,44.0742412 C17.5519509,40.5492685 20.4095059,37.6917136 23.9344785,37.6917136 L26.3880252,37.6917136 C32.7826321,36.9903239 36.8706185,28.2392451 38.1575772,21.6395864 C39.1816166,15.0012348 44.1293404,10.3000326 51.3261595,10.3000326 Z M51.0602209,67.7427811 C47.2415005,67.7427811 44.145816,70.8384656 44.145816,74.657186 C44.145816,78.4759064 47.2415005,81.5715909 51.0602209,81.5715909 C54.8789413,81.5715909 57.9746258,78.4759064 57.9746258,74.657186 C57.9746258,70.8384656 54.8789413,67.7427811 51.0602209,67.7427811 Z M51.0602209,16.6825602 C47.2415005,16.6825602 44.145816,19.7782447 44.145816,23.5969651 C44.145816,27.4156855 47.2415005,30.51137 51.0602209,30.51137 C54.8789413,30.51137 57.9746258,27.4156855 57.9746258,23.5969651 C57.9746258,19.7782447 54.8789413,16.6825602 51.0602209,16.6825602 Z" id="形状结合备份-12" fill="#E7E7E7"></path>
                </g>
                <g id="编组-3" transform="translate(19.091229, 3.110134)">
                    <g id="编组" transform="translate(0.000000, 8.284809)">
                        <g id="形状结合-+-形状结合-蒙版" transform="translate(8.706372, 0.000000)">
                            <mask id="mask-4" fill="white">
                                <use xlink:href="#path-3"></use>
                            </mask>
                            <use id="蒙版" fill="#019A77" xlink:href="#path-3"></use>
                            <path d="M22.8759547,54.9375143 C25.9825405,57.8488612 27.9235583,61.9890069 27.9235583,66.5825017 C27.9235583,75.1010955 21.2481338,82.0605603 12.8429847,82.5151961 C13.4107935,81.2336965 14.0205304,79.9763227 14.6699492,78.7430979 C15.5630953,70.2264037 18.3617773,62.2767142 22.6319044,55.3282189 Z" id="形状结合" fill="#48D389" mask="url(#mask-4)"></path>
                            <path d="M127.831686,78.7448887 C128.474118,79.9647595 129.077714,81.2082906 129.640831,82.4738327 C121.49521,81.7545131 115.109411,74.914249 115.109411,66.5825017 C115.109411,62.1546955 116.912928,58.1481233 119.825434,55.2573132 C124.120726,62.2237236 126.935369,70.1987131 127.831686,78.7448887 Z" id="形状结合" fill="#48D389" mask="url(#mask-4)"></path>
                        </g>
                        <path d="M61.1085504,4.99039334 C62.9300248,9.15936617 63.9404761,13.7637708 63.9404761,18.6041791 C63.9404761,36.0218821 50.8566973,50.3837048 33.9812297,52.3975573 C35.9279875,49.5141266 38.1354895,46.8231587 40.5697956,44.3565751 C40.4266486,42.9770954 40.3530715,41.5755082 40.3530715,40.1567362 C40.3530715,25.0757282 48.6664608,11.9364162 60.9604881,5.07155183 Z" id="形状结合" fill="#48D389"></path>
                        <path d="M124.251757,4.99039334 C126.073231,9.15936617 127.083682,13.7637708 127.083682,18.6041791 C127.083682,36.0218821 113.999904,50.3837048 97.124436,52.3975573 C99.0711939,49.5141266 101.278696,46.8231587 103.713002,44.3565751 C103.569855,42.9770954 103.496278,41.5755082 103.496278,40.1567362 C103.496278,25.0757282 111.809667,11.9364162 124.103694,5.07155183 Z" id="形状结合备份-8" fill="#48D389" transform="translate(112.104059, 28.694100) scale(-1, 1) translate(-112.104059, -28.694100) "></path>
                        <path d="M80.5098077,2.1275092 C87.1191314,2.1275092 92.477047,7.48542473 92.477047,14.0947485 C92.477047,14.7048399 92.4313937,15.3042684 92.3433171,15.8898042 L92.3375153,15.9253024 C91.9871587,34.3682755 98.8816536,42.2965595 105.810593,47.428848 C116.275906,55.1805395 123.059992,67.6195985 123.059992,81.6431657 C123.059992,86.7087236 122.174817,91.5675378 120.550709,96.0733678 C134.430682,107.584641 143.271329,124.962242 143.271329,144.404687 C143.271329,179.066918 115.172039,207.166209 80.5098077,207.166209 C45.8475765,207.166209 17.7482862,179.066918 17.7482862,144.404687 C17.7482862,124.962242 26.5889338,107.584641 40.4696028,96.0725101 C38.8447981,91.5675378 37.9596236,86.7087236 37.9596236,81.6431657 C37.9596236,67.6092894 44.7536876,55.1622517 55.2321081,47.4117601 C60.706667,43.3624359 69.8002549,34.4459525 68.6801364,15.9116226 C68.5893794,15.3193726 68.5425684,14.7125272 68.5425684,14.0947485 C68.5425684,7.48542473 73.9004839,2.1275092 80.5098077,2.1275092 Z" id="形状结合" fill="#48D389"></path>
                        <path d="M134.789341,106.020053 L135.334333,107.467523 C135.67853,108.365975 136.289596,108.635744 137.167531,108.276831 C138.045466,107.917917 139.902167,107.198165 142.737634,106.117572 C143.583409,105.730524 143.853286,105.195466 143.547267,104.512396 C143.241247,103.829327 142.971369,103.298835 142.737634,102.92092 C140.990853,99.8215485 140.117463,96.1963381 140.117463,92.0452885 C140.117463,90.7080638 139.950992,88.4679072 137.686618,87.7718959 C135.422243,87.0758846 132.774414,85.9109097 129.992836,83.2660667 C129.320393,82.4514997 127.587571,82.452149 127.587571,84.6015384 C127.587571,86.7509278 126.950513,91.3497966 129.154506,96.0219024 C130.367851,98.3973007 132.500554,100.239523 133.41277,102.697508 C134.020915,104.336164 134.479771,105.443679 134.789341,106.020053 Z" id="路径-2" fill="#FFD671"></path>
                        <path d="M25.3014832,106.020053 L25.8464757,107.467523 C26.1906723,108.365975 26.8017382,108.635744 27.6796734,108.276831 C28.5576085,107.917917 30.4143096,107.198165 33.2497766,106.117572 C34.0955515,105.730524 34.365429,105.195466 34.0594091,104.512396 C33.7533892,103.829327 33.4835117,103.298835 33.2497766,102.92092 C31.502996,99.8215485 30.6296056,96.1963381 30.6296056,92.0452885 C30.6296056,90.7080638 30.4631343,88.4679072 28.1987602,87.7718959 C25.934386,87.0758846 23.2865564,85.9109097 20.5049784,83.2660667 C19.8325354,82.4514997 18.0997139,82.452149 18.0997139,84.6015384 C18.0997139,86.7509278 17.4626558,91.3497966 19.6666484,96.0219024 C20.8799935,98.3973007 23.0126968,100.239523 23.9249131,102.697508 C24.5330573,104.336164 24.991914,105.443679 25.3014832,106.020053 Z" id="路径-2备份" fill="#FFD671" transform="translate(26.097797, 95.597145) scale(-1, 1) translate(-26.097797, -95.597145) "></path>
                        <circle id="椭圆形备份-12" fill="#FFD671" cx="45.4059058" cy="120.20427" r="14.3606871"></circle>
                        <circle id="椭圆形备份-17" fill="#FFD671" cx="115.347771" cy="120.20427" r="14.3606871"></circle>
                        <path d="M104.136783,102.508798 C132.478258,114.749308 152.313243,142.951023 152.313243,175.785448 C152.313243,185.545141 150.560794,194.895527 147.353401,203.539103 C117.89911,194.584833 96.4661267,167.210835 96.4661267,134.830896 C96.4661267,123.330672 99.1697309,112.46191 103.976018,102.825529 Z" id="形状结合备份-6" fill="#019A77" transform="translate(124.389685, 153.023950) scale(-1, 1) translate(-124.389685, -153.023950) "></path>
                        <path d="M16.3770281,102.508798 C44.718503,114.749308 64.5534887,142.951023 64.5534887,175.785448 C64.5534887,185.545141 62.8010398,194.895527 59.5936459,203.539103 C30.1393549,194.584833 8.70637205,167.210835 8.70637205,134.830896 C8.70637205,123.330672 11.4099762,112.46191 16.2162629,102.825529 Z" id="形状结合备份-7" fill="#019A77"></path>
                        <path d="M106.272728,105.862396 C133.469833,118.573638 152.313243,146.17571 152.313243,178.178896 C152.313243,186.731682 150.967419,194.970134 148.475991,202.694033 C120.368471,192.954975 100.189268,166.249488 100.189268,134.830896 C100.189268,124.91691 102.198486,115.472203 105.831938,106.881758 Z" id="形状结合备份-2" fill="#48D389" transform="translate(126.251256, 154.277714) scale(-1, 1) translate(-126.251256, -154.277714) "></path>
                        <path d="M14.7898321,105.862396 C41.9869374,118.573638 60.8303476,146.17571 60.8303476,178.178896 C60.8303476,186.731682 59.4845234,194.970134 56.9930949,202.694033 C28.8855748,192.954975 8.70637205,166.249488 8.70637205,134.830896 C8.70637205,124.91691 10.7155904,115.472203 14.349042,106.881758 Z" id="形状结合备份-10" fill="#48D389"></path>
                        <path d="M56.3093969,72.8671609 C56.3093969,84.0368034 60.1350041,94.3129276 66.5474236,102.456739 C55.4662235,97.2187965 47.7993601,85.9383247 47.7993601,72.8671609 C47.7993601,59.7967825 55.4653021,48.5168809 66.546287,43.2783551 C60.1345314,51.4226639 56.3093969,61.6982083 56.3093969,72.8671609 Z" id="形状结合" fill="#019A77" transform="translate(57.172997, 72.867046) rotate(4.000000) translate(-57.172997, -72.867046) "></path>
                        <path d="M102.583557,72.8671609 C102.583557,84.0368034 106.409164,94.3129276 112.821584,102.456739 C101.740384,97.2187965 94.0735201,85.9383247 94.0735201,72.8671609 C94.0735201,59.7967825 101.739462,48.5168809 112.820447,43.2783551 C106.408691,51.4226639 102.583557,61.6982083 102.583557,72.8671609 Z" id="形状结合备份" fill="#019A77" transform="translate(103.447157, 72.867046) scale(-1, 1) rotate(4.000000) translate(-103.447157, -72.867046) "></path>
                        <g id="雨滴" transform="translate(69.872262, 34.040147)" fill="#FFFFFF" fill-rule="nonzero">
                            <path d="M10.637546,0 C10.637546,0 0,27.9148566 0,41.86943 C0,52.3796965 4.76259158,60.899951 10.637546,60.899951 C16.5125005,60.899951 21.275092,52.3796965 21.275092,41.86943 C21.275092,27.9205663 10.637546,0 10.637546,0 Z" id="路径"></path>
                        </g>
                        <g id="雨滴备份" transform="translate(82.748286, 106.875212) scale(1, -1) translate(-82.748286, -106.875212) translate(17.748286, 7.875212)" fill-rule="nonzero">
                            <path d="M62.7615215,174.494451 C62.7615215,174.494451 56.6449326,184.977759 56.6449326,190.218342 C56.6449326,194.165429 59.3834227,197.365175 62.7615215,197.365175 C66.1396203,197.365175 68.8781105,194.165429 68.8781105,190.218342 C68.8781105,184.979904 62.7615215,174.494451 62.7615215,174.494451 Z" id="路径" fill="#FFD671"></path>
                            <path d="M16.2222577,40.457126 C16.2222577,40.457126 26.4768365,61.601868 22.3742101,81.7153722 C22.3742101,85.6624592 24.5173763,88.8622054 27.1611058,88.8622054 C29.8048353,88.8622054 31.9480015,85.6624592 31.9480015,81.7153722 C30.9273689,55.9019988 16.2222577,40.457126 16.2222577,40.457126 Z" id="路径备份-2" fill="#FFFFFF" transform="translate(24.085130, 64.659666) rotate(52.000000) translate(-24.085130, -64.659666) "></path>
                            <path d="M97.3335461,40.457126 C97.3335461,40.457126 107.588125,61.601868 103.485499,81.7153722 C103.485499,85.6624592 105.628665,88.8622054 108.272394,88.8622054 C110.916124,88.8622054 113.05929,85.6624592 113.05929,81.7153722 C112.038657,55.9019988 97.3335461,40.457126 97.3335461,40.457126 Z" id="路径备份-3" fill="#FFFFFF" transform="translate(105.196418, 64.659666) scale(-1, 1) rotate(52.000000) translate(-105.196418, -64.659666) "></path>
                            <path d="M62.7615215,59.0770766 C62.7615215,59.0770766 57.1768099,81.6283799 57.1768099,92.9017253 C57.1768099,101.392552 59.6771704,108.275727 62.7615215,108.275727 C65.8458726,108.275727 68.3462332,101.392552 68.3462332,92.9017253 C68.3462332,81.6329926 62.7615215,59.0770766 62.7615215,59.0770766 Z" id="路径备份" fill="#FFFFFF"></path>
                            <path d="M45.3703551,0.648751843 C45.3703406,0.648751843 45.1002592,0.531769648 44.5253746,0.584003052 C41.1381986,10.6315374 39.8844087,22.2996467 42.3900597,38.6562724 C44.0141346,47.9737713 45.9846124,57.0564645 47.8177501,62.624897 C49.6467925,67.4174621 46.382129,69.1664362 45.9241102,72.2805172 C45.2487848,77.1032428 47.8940526,79.9038732 50.3927782,79.8813512 C52.9686706,79.9399932 56.0052887,77.7702774 56.0052887,71.2209426 C55.3894557,61.6205879 50.1273039,61.6344378 44.5506674,38.4291834 C39.9160411,16.8126492 45.3703551,0.648751843 45.3703551,0.648751843 Z" id="路径备份-2" fill="#019A77" transform="translate(48.537515, 40.226539) scale(-1, 1) rotate(6.000000) translate(-48.537515, -40.226539) "></path>
                            <path d="M73.1787253,0.648751843 C73.1787108,0.648751843 72.9086294,0.531769648 72.3337448,0.584003052 C68.9465688,10.6315374 67.6927789,22.2996467 70.1984299,38.6562724 C71.8225048,47.9737713 73.7929827,57.0564645 75.6261203,62.624897 C77.4551628,67.4174621 74.1904992,69.1664362 73.7324804,72.2805172 C73.057155,77.1032428 75.7024228,79.9038732 78.2011484,79.8813512 C80.7770408,79.9399932 83.813659,77.7702774 83.813659,71.2209426 C83.1978259,61.6205879 77.9356741,61.6344378 72.3590376,38.4291834 C67.7244113,16.8126492 73.1787253,0.648751843 73.1787253,0.648751843 Z" id="路径备份-4" fill="#019A77" transform="translate(76.345885, 40.226539) rotate(6.000000) translate(-76.345885, -40.226539) "></path>
                        </g>
                        <path d="M9.83258267,115.767325 C1.60510567,115.024047 -1.45907548,119.212751 0.640039236,128.333434 C4.44394882,143.145242 17.9161546,176.237203 47.928018,186.75944 C38.2459459,182.884631 12.4919692,162.089994 5.47679844,128.333434 C3.92548965,122.053585 5.37741772,117.864882 9.83258267,115.767325 Z" id="路径-3" fill="#FFD671"></path>
                        <path d="M122.717302,115.767325 C114.489825,115.024047 111.425644,119.212751 113.524759,128.333434 C117.328668,143.145242 130.800874,176.237203 160.812738,186.75944 C151.130666,182.884631 125.376689,162.089994 118.361518,128.333434 C116.810209,122.053585 118.262137,117.864882 122.717302,115.767325 Z" id="路径-3备份" fill="#FFD671" transform="translate(136.848729, 151.221377) scale(-1, 1) translate(-136.848729, -151.221377) "></path>
                    </g>
                    <g id="编组-2备份" transform="translate(2.852319, 0.024659)">
                        <circle id="椭圆形备份-13" fill="#FFFFFF" cx="27.5918312" cy="27.4537646" r="27.4294346"></circle>
                        <circle id="椭圆形备份" fill="#D7FFF2" cx="27.5918312" cy="27.4537646" r="19.3685395"></circle>
                        <path d="M27.703788,14.9139232 C29.3687936,14.9139232 30.9566258,15.2443412 32.4052908,15.8431832 C30.4747256,16.3166756 29.0424029,18.0583299 29.0424029,20.134521 C29.0424029,22.5741996 31.0201532,24.5519499 33.4598318,24.5519499 C35.8498853,24.5519499 37.7966113,22.6538396 37.8748186,20.2828103 C39.2273034,22.2593768 40.0190444,24.6518177 40.0190444,27.2291796 C40.0190444,34.0307078 34.5053163,39.5444359 27.703788,39.5444359 C20.9022598,39.5444359 15.3885317,34.0307078 15.3885317,27.2291796 C15.3885317,20.4276513 20.9022598,14.9139232 27.703788,14.9139232 Z" id="形状结合备份-5" fill="#1E2427"></path>
                    </g>
                    <g id="编组-2备份-2" transform="translate(102.717852, 0.024659)">
                        <circle id="椭圆形备份-13" fill="#FFFFFF" cx="27.5918312" cy="27.4537646" r="27.4294346"></circle>
                        <circle id="椭圆形备份" fill="#D7FFF2" cx="27.5918312" cy="27.4537646" r="19.3685395"></circle>
                        <path d="M27.703788,14.9139232 C29.3687936,14.9139232 30.9566258,15.2443412 32.4052908,15.8431832 C30.4747256,16.3166756 29.0424029,18.0583299 29.0424029,20.134521 C29.0424029,22.5741996 31.0201532,24.5519499 33.4598318,24.5519499 C35.8498853,24.5519499 37.7966113,22.6538396 37.8748186,20.2828103 C39.2273034,22.2593768 40.0190444,24.6518177 40.0190444,27.2291796 C40.0190444,34.0307078 34.5053163,39.5444359 27.703788,39.5444359 C20.9022598,39.5444359 15.3885317,34.0307078 15.3885317,27.2291796 C15.3885317,20.4276513 20.9022598,14.9139232 27.703788,14.9139232 Z" id="形状结合备份-5" fill="#1E2427"></path>
                    </g>
                </g>
            </g>
        </g>
    </g>
</svg>