<?xml version="1.0" encoding="UTF-8"?>
<svg width="231px" height="230px" viewBox="0 0 231 230" version="1.1" xmlns="http://www.w3.org/2000/svg" xmlns:xlink="http://www.w3.org/1999/xlink">
    <title>编组11</title>
    <defs>
        <circle id="path-1" cx="103.895981" cy="103.895981" r="103.895981"></circle>
    </defs>
    <g id="页面-1" stroke="none" stroke-width="1" fill="none" fill-rule="evenodd">
        <g id="贴纸备份" transform="translate(-1177.000000, -411.000000)">
            <g id="编组11" transform="translate(1177.087847, 411.000000)">
                <circle id="椭圆形" fill="#FFFFFF" cx="114.643841" cy="114.643841" r="114.643841"></circle>
                <g id="编组-5" transform="translate(10.747860, 10.747860)">
                    <mask id="mask-2" fill="white">
                        <use xlink:href="#path-1"></use>
                    </mask>
                    <use id="蒙版" fill="#55B765" xlink:href="#path-1"></use>
                    <path d="M22.5510398,185.467679 C51.6536188,214.570343 94.0717316,225.936022 133.826533,215.28328 C173.581335,204.630538 204.632966,173.577823 215.284321,133.822649 C225.935675,94.0674755 214.568515,51.6497594 185.464836,22.5481962 C156.362256,-6.55446795 113.944144,-17.9201468 74.1893421,-7.26740475 C34.4345405,3.3853373 3.38290904,34.4380527 -7.26844528,74.1932263 C-17.9197996,113.9484 -6.55264012,156.366116 22.5510398,185.467679 Z" id="路径" fill="#FFC946" fill-rule="nonzero" mask="url(#mask-2)"></path>
                    <g id="编组-2" mask="url(#mask-2)" fill-rule="nonzero">
                        <g transform="translate(10.523946, 10.523946)" id="路径">
                            <path d="M31.5216133,31.5710851 C-10.7879008,73.9285404 -5.04343835,148.346801 16.9024723,170.317579 C36.8189021,190.256576 113.182415,198.039328 155.49193,155.681873 C197.801444,113.324418 192.710543,39.5604588 170.111071,16.935379 C148.16516,-5.06983558 73.8311275,-10.7863702 31.5216133,31.5710851 Z" fill="#FFD671"></path>
                            <path d="M51.3741093,51.5053525 C7.67980106,95.1607562 1.92964387,160.213844 14.4284885,172.70156 C26.7896049,185.05167 92.0383946,179.444239 135.732703,135.788835 C179.427011,92.1334311 186.03797,27.9403788 172.678324,14.5926273 C158.836628,0.763255901 95.1028496,7.84994871 51.3741093,51.5053525 Z" fill="#FFC946"></path>
                            <path d="M77.444403,77.4491139 C35.0937881,119.797597 11.8181656,165.175891 16.914012,170.305911 C22.2508781,175.642508 67.4248673,152.12705 109.775482,109.778566 C152.126097,67.4300824 175.642739,22.2583665 170.305873,16.921769 C165.141164,11.7917495 119.795018,35.1006303 77.444403,77.4491139 Z" fill="#FFD671"></path>
                        </g>
                    </g>
                </g>
            </g>
        </g>
    </g>
</svg>