<?xml version="1.0" encoding="UTF-8"?>
<svg width="230px" height="229px" viewBox="0 0 230 229" version="1.1" xmlns="http://www.w3.org/2000/svg" xmlns:xlink="http://www.w3.org/1999/xlink">
    <title>编组 2</title>
    <defs>
        <path d="M114.643841,0 C177.959886,0 229.287682,51.2353407 229.287682,114.437337 L229.287682,117.074695 C229.287682,180.27669 177.959886,192.565826 114.643841,192.565826 C51.3277959,192.565826 0,180.27669 0,117.074695 L0,114.437337 C0,51.2353407 51.3277959,0 114.643841,0 Z" id="path-1"></path>
        <path d="M103.895981,0 C161.276147,0 207.791962,46.3006646 207.791962,103.415429 L207.791962,105.798773 C207.791962,162.913537 161.276147,170.174451 103.895981,170.174451 C46.515815,170.174451 0,162.913537 0,105.798773 L0,103.415429 C0,46.3006646 46.515815,0 103.895981,0 Z" id="path-3"></path>
    </defs>
    <g id="页面-1" stroke="none" stroke-width="1" fill="none" fill-rule="evenodd">
        <g id="贴纸备份" transform="translate(-170.000000, -813.000000)">
            <g id="编组-2" transform="translate(170.000000, 813.437786)">
                <path d="M114.643841,149.574386 C154.83469,149.574386 187.41581,159.735123 187.41581,179.553063 L187.41581,181.083339 C187.41581,217.755059 154.83469,227.272458 114.643841,227.272458 C74.452992,227.272458 41.8718716,217.755059 41.8718716,181.083339 L41.8718716,179.553063 C41.8718716,159.772363 74.452992,149.574386 114.643841,149.574386 Z" id="矩形备份" fill="#FFFFFF"></path>
                <g id="蒙版-2">
                    <mask id="mask-2" fill="white">
                        <use xlink:href="#path-1"></use>
                    </mask>
                    <use id="蒙版" fill="#FFFFFF" xlink:href="#path-1"></use>
                </g>
                <g id="编组" transform="translate(10.747860, 10.747860)">
                    <g id="椭圆形-+-椭圆形备份-22-+-椭圆形备份-23-蒙版">
                        <mask id="mask-4" fill="white">
                            <use xlink:href="#path-3"></use>
                        </mask>
                        <use id="蒙版" fill="#F42E2E" xlink:href="#path-3"></use>
                        <ellipse id="椭圆形" fill="#FFFFFF" mask="url(#mask-4)" cx="104.007938" cy="52.1358343" rx="44.415277" ry="44.4105894"></ellipse>
                        <ellipse id="椭圆形备份-22" fill="#FFFFFF" mask="url(#mask-4)" cx="-8.38990619" cy="75.2474676" rx="44.415277" ry="44.4105894"></ellipse>
                        <ellipse id="椭圆形备份-23" fill="#FFFFFF" mask="url(#mask-4)" cx="216.405781" cy="75.2474676" rx="44.415277" ry="44.4105894"></ellipse>
                    </g>
                    <path d="M104.119895,133.004768 C138.374864,133.004768 166.144004,142.521309 166.144004,161.08278 L166.144004,162.516035 C166.144004,196.862747 138.374864,205.776738 104.119895,205.776738 C69.8649249,205.776738 42.0957853,196.862747 42.0957853,162.516035 L42.0957853,161.08278 C42.0957853,142.556188 69.8649249,133.004768 104.119895,133.004768 Z" id="矩形备份" fill="#FFD4A9"></path>
                    <rect id="矩形" fill="#1E2427" x="76.8024168" y="150.917869" width="9.18046382" height="23.7348577" rx="4.47827503"></rect>
                    <rect id="矩形备份-58" fill="#1E2427" x="122.480822" y="150.917869" width="9.18046382" height="23.7348577" rx="4.47827503"></rect>
                </g>
            </g>
        </g>
    </g>
</svg>