<?xml version="1.0" encoding="UTF-8"?>
<svg width="306px" height="306px" viewBox="0 0 306 306" version="1.1" xmlns="http://www.w3.org/2000/svg" xmlns:xlink="http://www.w3.org/1999/xlink">
    <title>编组 4</title>
    <g id="页面-1" stroke="none" stroke-width="1" fill="none" fill-rule="evenodd">
        <g id="贴纸备份-3" transform="translate(-960.000000, -567.000000)">
            <g id="编组-4" transform="translate(960.873960, 567.000000)">
                <text id="#place&amp;love#" font-family="FZPTYJW--GB1-0, FZPangTouYu-M24S" font-size="14.863258" font-weight="normal" fill="#000000">
                    <tspan x="82.676414" y="58.0404427">#place&amp;love#</tspan>
                </text>
                <g id="编组-11备份-3">
                    <ellipse id="椭圆形备份-5" fill="#2FE242" cx="151.86917" cy="152.199762" rx="131.575868" ry="131.906461"></ellipse>
                    <ellipse id="椭圆形备份-8" stroke="#2FE242" stroke-width="9.51248514" cx="152.193169" cy="152.575564" rx="147.436927" ry="147.819322"></ellipse>
                    <polyline id="路径" stroke="#0012FF" stroke-width="80.2615933" stroke-linecap="round" stroke-linejoin="round" transform="translate(151.666400, 132.876306) rotate(-135.000000) translate(-151.666400, -132.876306) " points="125.73607 158.806636 125.73607 106.945976 177.59673 106.945976"></polyline>
                    <g id="编组-3" transform="translate(96.956886, 63.886320)">
                        <circle id="椭圆形" stroke="#000000" stroke-width="0.594530321" fill="#FFFFFF" cx="24.0513204" cy="24.0513204" r="23.7540553"></circle>
                        <circle id="椭圆形" fill="#000000" cx="24.0513204" cy="24.0513204" r="9.77084893"></circle>
                    </g>
                    <g id="编组-3备份" transform="translate(158.588394, 63.886320)">
                        <circle id="椭圆形" stroke="#000000" stroke-width="0.594530321" fill="#FFFFFF" cx="24.0513204" cy="24.0513204" r="23.7540553"></circle>
                        <circle id="椭圆形" fill="#000000" cx="24.0513204" cy="24.0513204" r="9.77084893"></circle>
                    </g>
                </g>
                <g id="编组" transform="translate(107.995570, 157.460116) rotate(-30.000000) translate(-107.995570, -157.460116) translate(62.495570, 105.960116)" fill="#FF4700" stroke="#000000" stroke-width="0.5">
                    <path d="M19.1330867,0.25 C21.1901176,0.25 23.0524095,1.08377649 24.4004437,2.43181069 C25.7484779,3.7798449 26.5822544,5.64213681 26.5822544,7.69916674 L26.5822544,7.69916674 L26.58217,30.641201 C29.8333978,29.6943655 33.2717094,29.1867449 36.8285844,29.1867449 C39.8149534,29.1867449 42.7177426,29.5445813 45.4963984,30.2197776 L45.4963984,30.2197776 L45.4965466,7.69916766 C45.4965466,5.64213681 46.3303231,3.7798449 47.6783573,2.43181069 C49.0263915,1.08377649 50.8886834,0.25 52.9457142,0.25 L52.9457142,0.25 L57.0139164,0.25 C59.0709473,0.25 60.9332392,1.08377649 62.2812734,2.43181069 C63.6293076,3.7798449 64.4630841,5.64213681 64.4630841,7.69917286 L64.4630841,7.69917286 L64.4637942,41.8001529 C68.8911357,46.901057 71.9297117,53.2398738 72.990822,60.2281593 L72.990822,60.2281593 L80.0888126,60.2279804 C82.8928397,60.2279804 85.4314099,61.3645369 87.2689732,63.2021003 C89.1065366,65.0396637 90.2430932,67.5782338 90.2430932,70.382261 L90.2430932,70.382261 L90.2430932,73.7753409 C90.2430932,76.5793681 89.1065366,79.1179383 87.2689732,80.9555016 C85.4314099,82.793065 82.8928397,83.9296216 80.0888149,83.9296216 L80.0888149,83.9296216 L68.5856951,83.9295152 C62.2790275,94.9317865 50.4194273,102.343914 36.8285844,102.343914 C26.7276873,102.343914 17.5830411,98.2497163 10.9636193,91.6302944 C4.34419752,85.0108726 0.25,75.8662265 0.25,65.7653293 C0.25,57.4999225 2.99138196,49.8747825 7.61462455,43.7496433 L7.61462455,43.7496433 L7.61571689,7.69916766 C7.61571689,5.64213681 8.44949338,3.7798449 9.79752758,2.43181069 C11.1455618,1.08377649 13.0078537,0.25 15.0648845,0.25 L15.0648845,0.25 Z" id="形状结合"></path>
                    <rect id="矩形备份-2" x="26.5561317" y="18.6642922" width="18.9665375" height="42.642056" rx="9.48326874"></rect>
                </g>
                <g id="编组备份" transform="translate(212.468494, 157.460116) rotate(-30.000000) translate(-212.468494, -157.460116) translate(166.968494, 105.960116)" fill="#FF4700" stroke="#000000" stroke-width="0.5">
                    <path d="M19.1330867,0.25 C21.1901176,0.25 23.0524095,1.08377649 24.4004437,2.43181069 C25.7484779,3.7798449 26.5822544,5.64213681 26.5822544,7.69916674 L26.5822544,7.69916674 L26.58217,30.641201 C29.8333978,29.6943655 33.2717094,29.1867449 36.8285844,29.1867449 C39.8149534,29.1867449 42.7177426,29.5445813 45.4963984,30.2197776 L45.4963984,30.2197776 L45.4965466,7.69916766 C45.4965466,5.64213681 46.3303231,3.7798449 47.6783573,2.43181069 C49.0263915,1.08377649 50.8886834,0.25 52.9457142,0.25 L52.9457142,0.25 L57.0139164,0.25 C59.0709473,0.25 60.9332392,1.08377649 62.2812734,2.43181069 C63.6293076,3.7798449 64.4630841,5.64213681 64.4630841,7.69917286 L64.4630841,7.69917286 L64.4637942,41.8001529 C68.8911357,46.901057 71.9297117,53.2398738 72.990822,60.2281593 L72.990822,60.2281593 L80.0888126,60.2279804 C82.8928397,60.2279804 85.4314099,61.3645369 87.2689732,63.2021003 C89.1065366,65.0396637 90.2430932,67.5782338 90.2430932,70.382261 L90.2430932,70.382261 L90.2430932,73.7753409 C90.2430932,76.5793681 89.1065366,79.1179383 87.2689732,80.9555016 C85.4314099,82.793065 82.8928397,83.9296216 80.0888149,83.9296216 L80.0888149,83.9296216 L68.5856951,83.9295152 C62.2790275,94.9317865 50.4194273,102.343914 36.8285844,102.343914 C26.7276873,102.343914 17.5830411,98.2497163 10.9636193,91.6302944 C4.34419752,85.0108726 0.25,75.8662265 0.25,65.7653293 C0.25,57.4999225 2.99138196,49.8747825 7.61462455,43.7496433 L7.61462455,43.7496433 L7.61571689,7.69916766 C7.61571689,5.64213681 8.44949338,3.7798449 9.79752758,2.43181069 C11.1455618,1.08377649 13.0078537,0.25 15.0648845,0.25 L15.0648845,0.25 Z" id="形状结合"></path>
                    <rect id="矩形备份-2" x="26.5561317" y="18.6642922" width="18.9665375" height="42.642056" rx="9.48326874"></rect>
                </g>
                <text id="#peace&amp;love#" font-family="FZPTYJW--GB1-0, FZPangTouYu-M24S" font-size="14.863258" font-weight="normal" fill="#0012FF">
                    <tspan x="82.676414" y="247.444591">#peace&amp;love#</tspan>
                </text>
            </g>
        </g>
    </g>
</svg>