<?xml version="1.0" encoding="UTF-8"?>
<svg width="306px" height="305px" viewBox="0 0 306 305" version="1.1" xmlns="http://www.w3.org/2000/svg" xmlns:xlink="http://www.w3.org/1999/xlink">
    <title>编组 9</title>
    <defs>
        <path d="M8.42788912,1.14010651 L45.2975552,6.12775473 C48.9833358,6.6263591 51.7329241,9.77295054 51.7329241,13.4923033 L51.7329241,18.3105015 C51.7329241,22.4148769 48.4056705,25.7421305 44.3012951,25.7421305 L7.43162901,25.7421305 C3.32725364,25.7421305 1.39081944e-15,22.4148769 0,18.3105015 L0,8.50465507 C-2.27899786e-15,4.4002797 3.32725364,1.07302606 7.43162901,1.07302606 C7.76484403,1.07302606 8.09768182,1.09543678 8.42788912,1.14010651 Z" id="path-1"></path>
        <path d="M8.42788912,1.14010651 L45.2975552,6.12775473 C48.9833358,6.6263591 51.7329241,9.77295054 51.7329241,13.4923033 L51.7329241,18.3105015 C51.7329241,22.4148769 48.4056705,25.7421305 44.3012951,25.7421305 L7.43162901,25.7421305 C3.32725364,25.7421305 5.02641016e-16,22.4148769 0,18.3105015 L0,8.50465507 C-4.98988509e-15,4.4002797 3.32725364,1.07302606 7.43162901,1.07302606 C7.76484403,1.07302606 8.09768182,1.09543678 8.42788912,1.14010651 Z" id="path-3"></path>
    </defs>
    <g id="页面-1" stroke="none" stroke-width="1" fill="none" fill-rule="evenodd">
        <g id="贴纸备份-3" transform="translate(-1293.000000, -567.000000)">
            <g id="编组-9" transform="translate(1293.810939, 567.000000)">
                <circle id="椭圆形备份-5" fill="#0012FF" cx="152.199762" cy="152.199762" r="133.455949"></circle>
                <circle id="椭圆形备份-7" stroke="#0012FF" stroke-width="9.51248514" cx="152.199762" cy="152.199762" r="147.44352"></circle>
                <g id="编组-6" transform="translate(87.721045, 168.694318)">
                    <rect id="矩形" stroke="#000000" stroke-width="0.594530321" fill="#FF4700" x="22.7898409" y="0.297265161" width="23.3975504" height="45.1403736" rx="11.6987752"></rect>
                    <g id="矩形" transform="translate(0.000000, 24.741833)">
                        <mask id="mask-2" fill="white">
                            <use xlink:href="#path-1"></use>
                        </mask>
                        <path stroke="#000000" stroke-width="0.594530321" d="M7.43162901,0.775760899 C7.77817263,0.775760899 8.12432393,0.799068048 8.46773953,0.845524564 L8.46773953,0.845524564 L45.3374056,5.83317278 C47.2540115,6.09244706 48.9272074,7.04019797 50.1212519,8.40664617 C51.3152963,9.77309437 52.0301893,11.5582399 52.0301893,13.4923033 L52.0301893,13.4923033 L52.0301893,18.3105015 C52.0301893,20.4447767 51.1651033,22.3770002 49.7664486,23.775655 C48.3677938,25.1743097 46.4355703,26.0393957 44.3012951,26.0393957 L44.3012951,26.0393957 L7.43162901,26.0393957 C5.29735382,26.0393957 3.36513028,25.1743097 1.96647553,23.775655 C0.567820787,22.3770002 -0.297265161,20.4447767 -0.297265161,18.3105015 L-0.297265161,18.3105015 L-0.297265161,8.50465507 C-0.297265161,6.37037988 0.567820787,4.43815634 1.96647553,3.03950159 C3.36513028,1.64084685 5.29735382,0.775760899 7.43162901,0.775760899 Z"></path>
                        <rect fill="#2FE242" mask="url(#mask-2)" x="-4.49851514" y="18.7438131" width="62.2294594" height="15.744803"></rect>
                    </g>
                </g>
                <g id="编组-6备份" transform="translate(190.678479, 194.194318) scale(-1, 1) translate(-190.678479, -194.194318) translate(164.678479, 168.694318)">
                    <rect id="矩形" stroke="#000000" stroke-width="0.594530321" fill="#FF4700" x="22.7898409" y="0.297265161" width="23.3975504" height="45.1403736" rx="11.6987752"></rect>
                    <g id="矩形" transform="translate(0.000000, 24.741833)">
                        <mask id="mask-4" fill="white">
                            <use xlink:href="#path-3"></use>
                        </mask>
                        <path stroke="#000000" stroke-width="0.594530321" d="M7.43162901,0.775760899 C7.77817263,0.775760899 8.12432393,0.799068048 8.46773953,0.845524564 L8.46773953,0.845524564 L45.3374056,5.83317278 C47.2540115,6.09244706 48.9272074,7.04019797 50.1212519,8.40664617 C51.3152963,9.77309437 52.0301893,11.5582399 52.0301893,13.4923033 L52.0301893,13.4923033 L52.0301893,18.3105015 C52.0301893,20.4447767 51.1651033,22.3770002 49.7664486,23.775655 C48.3677938,25.1743097 46.4355703,26.0393957 44.3012951,26.0393957 L44.3012951,26.0393957 L7.43162901,26.0393957 C5.29735382,26.0393957 3.36513028,25.1743097 1.96647553,23.775655 C0.567820787,22.3770002 -0.297265161,20.4447767 -0.297265161,18.3105015 L-0.297265161,18.3105015 L-0.297265161,8.50465507 C-0.297265161,6.37037988 0.567820787,4.43815634 1.96647553,3.03950159 C3.36513028,1.64084685 5.29735382,0.775760899 7.43162901,0.775760899 Z"></path>
                        <rect fill="#2FE242" mask="url(#mask-4)" x="-4.49851514" y="18.7438131" width="62.2294594" height="15.744803"></rect>
                    </g>
                </g>
                <g id="编组-10备份" transform="translate(86.971293, 71.226490)" fill="#FF4700" stroke="#000000" stroke-width="0.594530321">
                    <rect id="矩形" x="-0.297265161" y="-0.297265161" width="131.801222" height="120.554934" rx="21.7003567"></rect>
                </g>
                <g id="编组-11备份" transform="translate(219.113135, 124.934367) scale(-1, 1) rotate(-15.000000) translate(-219.113135, -124.934367) translate(181.113135, 76.434367)" fill="#2FE242" stroke="#000000" stroke-width="0.594530321">
                    <path d="M61.4562771,34.7858812 C65.31439,34.7858812 68.8072556,36.3496904 71.335593,38.8780279 C73.8639305,41.4063653 75.4277397,44.8992309 75.4277397,48.7573438 L75.4277397,48.7573438 L75.4277397,65.5283705 C75.4277397,74.0176745 71.9867694,81.7032968 66.423473,87.2665932 C60.8601767,92.8298895 53.1745544,96.2708598 44.6852504,96.2708598 L44.6852504,96.2708598 L40.7865373,96.2708598 C32.2972333,96.2708598 24.6116109,92.8298895 19.0483146,87.2665932 C13.4850183,81.7032968 10.044048,74.0176745 10.044048,65.5283705 L10.044048,65.5283705 L10.044048,48.7573438 C10.044048,44.8992309 11.6078572,41.4063653 14.1361946,38.8780279 C16.664532,36.3496904 20.1573977,34.7858812 24.0155105,34.7858812 L24.0155105,34.7858812 Z" id="矩形"></path>
                    <path d="M22.5716512,2.54652273 C24.9521889,2.54652273 27.1073613,3.51142629 28.6673993,5.07146427 C30.2274373,6.63150226 31.1923408,8.78667467 31.1923408,11.1672124 L31.1923408,11.1672124 L31.1923408,62.3085349 C31.1923408,64.6890726 30.2274373,66.844245 28.6673993,68.404283 C27.1073613,69.964321 24.9521889,70.9292245 22.5716512,70.9292245 L22.5716512,70.9292245 L17.9149851,70.9292245 C15.5344474,70.9292245 13.379275,69.964321 11.819237,68.404283 C10.259199,66.844245 9.29429544,64.6890726 9.29429544,62.3085349 L9.29429544,62.3085349 L9.29429544,11.1672124 C9.29429544,8.78667467 10.259199,6.63150226 11.819237,5.07146427 C13.379275,3.51142629 15.5344474,2.54652273 17.9149851,2.54652273 L17.9149851,2.54652273 Z" id="矩形" transform="translate(20.243318, 36.737874) rotate(-15.000000) translate(-20.243318, -36.737874) "></path>
                    <rect id="矩形备份-5" x="31.7868711" y="0.59716617" width="21.8980454" height="68.3827018" rx="10.9490227"></rect>
                    <rect id="矩形备份-7" x="53.5296943" y="27.288356" width="21.8980454" height="41.691512" rx="10.9490227"></rect>
                    <path d="M27.8199188,40.0341489 C30.2004565,40.0341489 32.3556289,40.9990524 33.9156669,42.5590904 C35.4757049,44.1191284 36.4406085,46.2743008 36.4406085,48.6548385 L36.4406085,48.6548385 L36.4406085,73.1049712 C36.4406085,75.4855089 35.4757049,77.6406813 33.9156669,79.2007193 C32.3556289,80.7607573 30.2004565,81.7256609 27.8199188,81.7256609 L27.8199188,81.7256609 L23.1632528,81.7256609 C20.782715,81.7256609 18.6275426,80.7607573 17.0675046,79.2007193 C15.5074667,77.6406813 14.5425631,75.4855089 14.5425631,73.1049712 L14.5425631,73.1049712 L14.5425631,48.6548385 C14.5425631,46.2743008 15.5074667,44.1191284 17.0675046,42.5590904 C18.6275426,40.9990524 20.782715,40.0341489 23.1632528,40.0341489 L23.1632528,40.0341489 Z" id="矩形备份-8" transform="translate(25.491586, 60.879905) rotate(-300.000000) translate(-25.491586, -60.879905) "></path>
                </g>
                <g id="编组-11备份-4" transform="translate(85.246026, 124.934367) rotate(-15.000000) translate(-85.246026, -124.934367) translate(47.246026, 76.434367)" fill="#2FE242" stroke="#000000" stroke-width="0.594530321">
                    <path d="M61.4562771,34.7858812 C65.31439,34.7858812 68.8072556,36.3496904 71.335593,38.8780279 C73.8639305,41.4063653 75.4277397,44.8992309 75.4277397,48.7573438 L75.4277397,48.7573438 L75.4277397,65.5283705 C75.4277397,74.0176745 71.9867694,81.7032968 66.423473,87.2665932 C60.8601767,92.8298895 53.1745544,96.2708598 44.6852504,96.2708598 L44.6852504,96.2708598 L40.7865373,96.2708598 C32.2972333,96.2708598 24.6116109,92.8298895 19.0483146,87.2665932 C13.4850183,81.7032968 10.044048,74.0176745 10.044048,65.5283705 L10.044048,65.5283705 L10.044048,48.7573438 C10.044048,44.8992309 11.6078572,41.4063653 14.1361946,38.8780279 C16.664532,36.3496904 20.1573977,34.7858812 24.0155105,34.7858812 L24.0155105,34.7858812 Z" id="矩形"></path>
                    <path d="M22.5716512,2.54652273 C24.9521889,2.54652273 27.1073613,3.51142629 28.6673993,5.07146427 C30.2274373,6.63150226 31.1923408,8.78667467 31.1923408,11.1672124 L31.1923408,11.1672124 L31.1923408,62.3085349 C31.1923408,64.6890726 30.2274373,66.844245 28.6673993,68.404283 C27.1073613,69.964321 24.9521889,70.9292245 22.5716512,70.9292245 L22.5716512,70.9292245 L17.9149851,70.9292245 C15.5344474,70.9292245 13.379275,69.964321 11.819237,68.404283 C10.259199,66.844245 9.29429544,64.6890726 9.29429544,62.3085349 L9.29429544,62.3085349 L9.29429544,11.1672124 C9.29429544,8.78667467 10.259199,6.63150226 11.819237,5.07146427 C13.379275,3.51142629 15.5344474,2.54652273 17.9149851,2.54652273 L17.9149851,2.54652273 Z" id="矩形" transform="translate(20.243318, 36.737874) rotate(-15.000000) translate(-20.243318, -36.737874) "></path>
                    <rect id="矩形备份-5" x="31.7868711" y="0.59716617" width="21.8980454" height="68.3827018" rx="10.9490227"></rect>
                    <rect id="矩形备份-7" x="53.5296943" y="27.288356" width="21.8980454" height="41.691512" rx="10.9490227"></rect>
                    <path d="M27.8199188,40.0341489 C30.2004565,40.0341489 32.3556289,40.9990524 33.9156669,42.5590904 C35.4757049,44.1191284 36.4406085,46.2743008 36.4406085,48.6548385 L36.4406085,48.6548385 L36.4406085,73.1049712 C36.4406085,75.4855089 35.4757049,77.6406813 33.9156669,79.2007193 C32.3556289,80.7607573 30.2004565,81.7256609 27.8199188,81.7256609 L27.8199188,81.7256609 L23.1632528,81.7256609 C20.782715,81.7256609 18.6275426,80.7607573 17.0675046,79.2007193 C15.5074667,77.6406813 14.5425631,75.4855089 14.5425631,73.1049712 L14.5425631,73.1049712 L14.5425631,48.6548385 C14.5425631,46.2743008 15.5074667,44.1191284 17.0675046,42.5590904 C18.6275426,40.9990524 20.782715,40.0341489 23.1632528,40.0341489 L23.1632528,40.0341489 Z" id="矩形备份-8" transform="translate(25.491586, 60.879905) rotate(-300.000000) translate(-25.491586, -60.879905) "></path>
                </g>
                <g id="编组-3" transform="translate(108.714116, 53.232429)">
                    <circle id="椭圆形" stroke="#000000" stroke-width="0.594530321" fill="#FFFFFF" cx="23.9920807" cy="23.9920807" r="23.6948156"></circle>
                    <circle id="椭圆形" fill="#000000" cx="23.9920807" cy="23.9920807" r="9.7467828"></circle>
                </g>
                <g id="编组-3备份" transform="translate(143.202732, 53.232429)">
                    <circle id="椭圆形" stroke="#000000" stroke-width="0.594530321" fill="#FFFFFF" cx="23.9920807" cy="23.9920807" r="23.6948156"></circle>
                    <circle id="椭圆形" fill="#000000" cx="23.9920807" cy="23.9920807" r="9.7467828"></circle>
                </g>
                <text id="#yeah·yeah#" font-family="FZPTYJW--GB1-0, FZPangTouYu-M24S" font-size="14.863258" font-weight="normal" fill="#2AFF41">
                    <tspan x="77.2245099" y="248.346146">#yeah·yeah#</tspan>
                </text>
            </g>
        </g>
    </g>
</svg>