<?xml version="1.0" encoding="UTF-8"?>
<svg width="306px" height="306px" viewBox="0 0 306 306" version="1.1" xmlns="http://www.w3.org/2000/svg" xmlns:xlink="http://www.w3.org/1999/xlink">
    <title>编组 12</title>
    <g id="页面-1" stroke="none" stroke-width="1" fill="none" fill-rule="evenodd">
        <g id="贴纸备份-3" transform="translate(-1959.000000, -567.000000)">
            <g id="编组-12" transform="translate(1959.600476, 567.000000)">
                <g id="编组-4备份">
                    <text id="#place&amp;love#" font-family="FZPTYJW--GB1-0, FZPangTouYu-M24S" font-size="14.863258" font-weight="normal" fill="#000000">
                        <tspan x="82.676414" y="58.0404427">#place&amp;love#</tspan>
                    </text>
                    <g id="编组-11备份-3">
                        <ellipse id="椭圆形备份-5" fill="#2FE242" cx="151.86917" cy="152.199762" rx="131.575868" ry="131.906461"></ellipse>
                        <ellipse id="椭圆形备份-8" stroke="#2FE242" stroke-width="9.51248514" cx="152.193169" cy="152.575564" rx="147.436927" ry="147.819322"></ellipse>
                        <polyline id="路径" stroke="#0012FF" stroke-width="80.2615933" stroke-linecap="round" stroke-linejoin="round" transform="translate(151.666400, 132.876306) rotate(-135.000000) translate(-151.666400, -132.876306) " points="125.73607 158.806636 125.73607 106.945976 177.59673 106.945976"></polyline>
                        <g id="编组-3" transform="translate(96.956886, 63.886320)">
                            <circle id="椭圆形" stroke="#000000" stroke-width="0.594530321" fill="#FFFFFF" cx="24.0513204" cy="24.0513204" r="23.7540553"></circle>
                            <circle id="椭圆形" fill="#000000" cx="24.0513204" cy="24.0513204" r="9.77084893"></circle>
                        </g>
                        <g id="编组-3备份" transform="translate(158.588394, 63.886320)">
                            <circle id="椭圆形" stroke="#000000" stroke-width="0.594530321" fill="#FFFFFF" cx="24.0513204" cy="24.0513204" r="23.7540553"></circle>
                            <circle id="椭圆形" fill="#000000" cx="24.0513204" cy="24.0513204" r="9.77084893"></circle>
                        </g>
                    </g>
                    <text id="#coolcool#" font-family="FZPTYJW--GB1-0, FZPangTouYu-M24S" font-size="14.863258" font-weight="normal" fill="#0012FF">
                        <tspan x="97.7084893" y="247.444591">#coolcool#</tspan>
                    </text>
                </g>
                <g id="编组-8" transform="translate(57.121886, 109.485753)" fill="#FF4700" stroke="#000000" stroke-width="0.594530321">
                    <g id="编组-7" transform="translate(0.000000, 0.366690)">
                        <path d="M23.401007,6.19180175 C25.7815447,6.19180175 27.9367172,7.1567053 29.4967551,8.71674329 C31.0567931,10.2767813 32.0216967,12.4319537 32.0216967,14.8124914 L32.0216967,14.8124914 L32.0216967,32.3019587 C32.0216967,34.6824964 31.0567931,36.8376688 29.4967551,38.3977068 C27.9367172,39.9577448 25.7815447,40.9226483 23.401007,40.9226483 L23.401007,40.9226483 L18.6888037,40.9226483 C16.308266,40.9226483 14.1530936,39.9577448 12.5930556,38.3977068 C11.0330176,36.8376688 10.0681141,34.6824964 10.0681141,32.3019587 L10.0681141,32.3019587 L10.0681141,14.8124914 C10.0681141,12.4319537 11.0330176,10.2767813 12.5930556,8.71674329 C14.1530936,7.1567053 16.308266,6.19180175 18.6888037,6.19180175 L18.6888037,6.19180175 Z" id="矩形备份-7" transform="translate(21.044905, 23.557225) scale(-1, 1) rotate(-315.000000) translate(-21.044905, -23.557225) "></path>
                        <path d="M37.5319948,0.765819862 C39.617999,0.172541097 41.9242943,0.362113719 43.9634915,1.45904729 L43.9634915,1.45904729 L48.2823308,3.94780965 C50.3026046,5.11421532 51.6721605,6.97486899 52.2636103,9.05444252 C52.8568891,11.1404467 52.6673165,13.446742 51.5704691,15.4857898 L51.5704691,15.4857898 L43.5729874,29.3455094 C45.0903053,27.9052153 47.070121,27.0842666 49.114546,26.9890754 C50.6105886,26.9194176 52.1412328,27.2385629 53.5417969,27.9833315 L53.5417969,27.9833315 L57.8983899,30.4922871 C59.6842336,31.5233445 60.961654,33.0968574 61.6425532,34.8845773 C62.3360949,36.7054904 62.4110349,38.7486047 61.7739275,40.6669447 C61.6092844,41.1626876 61.401552,41.6366599 61.155895,42.085013 C61.4836691,41.6900527 61.8482708,41.3225891 62.2469714,40.988481 C63.5749466,39.8756475 65.2010858,39.2000033 66.8946031,39.0229562 C68.5470194,38.8502059 70.2636384,39.1523479 71.8215055,39.9818037 L71.8215055,39.9818037 L76.17406,42.4886103 C78.1943339,43.655016 79.5638898,45.5156696 80.1553396,47.5952432 C80.7486184,49.6812474 80.5590457,51.9875426 79.4621683,54.0266425 L79.4621683,54.0266425 L73.626262,64.1450517 C73.4071126,64.7418938 73.1446102,65.3303742 72.8427252,65.8973615 L72.8427252,65.8973615 L64.1710859,80.9339274 C59.9510095,88.2247185 53.2129247,93.138831 45.699735,95.2142622 C38.1706014,97.2940978 29.8630972,96.5232209 22.5335446,92.4378863 L22.5335446,92.4378863 L22.0886963,92.1851974 L18.7061011,90.227269 C11.4179249,86.0086953 6.5012805,79.2645344 4.42304398,71.7410008 C2.34129322,64.204745 3.1075161,55.8864689 7.18987403,48.5433938 L7.18987403,48.5433938 L7.44245221,48.097601 L10.9012832,42.1053824 C10.9773834,41.9391094 11.0593301,41.7740238 11.1423736,41.6190116 L11.1423736,41.6190116 L32.4253619,4.74709942 C33.5917676,2.72682554 35.4524213,1.35726968 37.5319948,0.765819862 Z" id="形状结合"></path>
                    </g>
                </g>
                <g id="编组-8备份" transform="translate(206.777638, 158.485753) scale(-1, 1) translate(-206.777638, -158.485753) translate(166.277638, 109.485753)" fill="#FF4700" stroke="#000000" stroke-width="0.594530321">
                    <g id="编组-7" transform="translate(0.000000, 0.366690)">
                        <path d="M23.401007,6.19180175 C25.7815447,6.19180175 27.9367172,7.1567053 29.4967551,8.71674329 C31.0567931,10.2767813 32.0216967,12.4319537 32.0216967,14.8124914 L32.0216967,14.8124914 L32.0216967,32.3019587 C32.0216967,34.6824964 31.0567931,36.8376688 29.4967551,38.3977068 C27.9367172,39.9577448 25.7815447,40.9226483 23.401007,40.9226483 L23.401007,40.9226483 L18.6888037,40.9226483 C16.308266,40.9226483 14.1530936,39.9577448 12.5930556,38.3977068 C11.0330176,36.8376688 10.0681141,34.6824964 10.0681141,32.3019587 L10.0681141,32.3019587 L10.0681141,14.8124914 C10.0681141,12.4319537 11.0330176,10.2767813 12.5930556,8.71674329 C14.1530936,7.1567053 16.308266,6.19180175 18.6888037,6.19180175 L18.6888037,6.19180175 Z" id="矩形备份-7" transform="translate(21.044905, 23.557225) scale(-1, 1) rotate(-315.000000) translate(-21.044905, -23.557225) "></path>
                        <path d="M37.5319948,0.765819862 C39.617999,0.172541097 41.9242943,0.362113719 43.9634915,1.45904729 L43.9634915,1.45904729 L48.2823308,3.94780965 C50.3026046,5.11421532 51.6721605,6.97486899 52.2636103,9.05444252 C52.8568891,11.1404467 52.6673165,13.446742 51.5704691,15.4857898 L51.5704691,15.4857898 L43.5729874,29.3455094 C45.0903053,27.9052153 47.070121,27.0842666 49.114546,26.9890754 C50.6105886,26.9194176 52.1412328,27.2385629 53.5417969,27.9833315 L53.5417969,27.9833315 L57.8983899,30.4922871 C59.6842336,31.5233445 60.961654,33.0968574 61.6425532,34.8845773 C62.3360949,36.7054904 62.4110349,38.7486047 61.7739275,40.6669447 C61.6092844,41.1626876 61.401552,41.6366599 61.155895,42.085013 C61.4836691,41.6900527 61.8482708,41.3225891 62.2469714,40.988481 C63.5749466,39.8756475 65.2010858,39.2000033 66.8946031,39.0229562 C68.5470194,38.8502059 70.2636384,39.1523479 71.8215055,39.9818037 L71.8215055,39.9818037 L76.17406,42.4886103 C78.1943339,43.655016 79.5638898,45.5156696 80.1553396,47.5952432 C80.7486184,49.6812474 80.5590457,51.9875426 79.4621683,54.0266425 L79.4621683,54.0266425 L73.626262,64.1450517 C73.4071126,64.7418938 73.1446102,65.3303742 72.8427252,65.8973615 L72.8427252,65.8973615 L64.1710859,80.9339274 C59.9510095,88.2247185 53.2129247,93.138831 45.699735,95.2142622 C38.1706014,97.2940978 29.8630972,96.5232209 22.5335446,92.4378863 L22.5335446,92.4378863 L22.0886963,92.1851974 L18.7061011,90.227269 C11.4179249,86.0086953 6.5012805,79.2645344 4.42304398,71.7410008 C2.34129322,64.204745 3.1075161,55.8864689 7.18987403,48.5433938 L7.18987403,48.5433938 L7.44245221,48.097601 L10.9012832,42.1053824 C10.9773834,41.9391094 11.0593301,41.7740238 11.1423736,41.6190116 L11.1423736,41.6190116 L32.4253619,4.74709942 C33.5917676,2.72682554 35.4524213,1.35726968 37.5319948,0.765819862 Z" id="形状结合"></path>
                    </g>
                </g>
            </g>
        </g>
    </g>
</svg>