<?xml version="1.0" encoding="UTF-8"?>
<svg width="230px" height="196px" viewBox="0 0 230 196" version="1.1" xmlns="http://www.w3.org/2000/svg" xmlns:xlink="http://www.w3.org/1999/xlink">
    <title>编组7</title>
    <g id="页面-1" stroke="none" stroke-width="1" fill="none" fill-rule="evenodd">
        <g id="贴纸备份" transform="translate(-1852.000000, -828.000000)">
            <g id="编组7" transform="translate(1852.056896, 828.872553)">
                <circle id="椭圆形" fill="#FFFFFF" cx="114.205882" cy="118.336305" r="76.1306756"></circle>
                <ellipse id="椭圆形" fill="#FFFFFF" cx="178.971701" cy="49.8912112" rx="49.9327666" ry="49.8912112"></ellipse>
                <ellipse id="椭圆形备份-5" fill="#FFFFFF" cx="49.9327666" cy="49.8912112" rx="49.9327666" ry="49.8912112"></ellipse>
                <g id="米老鼠米奇" transform="translate(10.971774, 10.845030)">
                    <path d="M167.999927,0 C189.605468,0 207.12022,17.5001757 207.12022,39.0877364 C207.12022,60.6752972 189.605468,78.1754728 167.999927,78.1754728 C165.670863,78.1754728 163.389338,77.9721085 161.172166,77.5821822 C165.813018,86.5386682 168.434597,96.7090753 168.434597,107.491275 C168.434597,143.470543 139.243343,172.637503 103.234108,172.637503 C67.2248719,172.637503 38.0336186,143.470543 38.0336186,107.491275 C38.0336186,96.7557964 40.6325268,86.62682 45.2360006,77.6981937 C43.24411,78.0131398 41.201175,78.1754728 39.1202934,78.1754728 C17.514752,78.1754728 0,60.6752972 0,39.0877364 C0,17.5001757 17.514752,0 39.1202934,0 C60.7258349,0 78.2405869,17.5001757 78.2405869,39.0877364 C78.2405869,42.0509581 77.9105784,44.9371663 77.28528,47.7116713 C85.2359761,44.2583267 94.0114207,42.3450478 103.234108,42.3450478 C112.73821,42.3450478 121.76736,44.3768694 129.910198,48.0294959 C129.235561,45.159456 128.879633,42.1651273 128.879633,39.0877364 C128.879633,17.5001757 146.394385,0 167.999927,0 Z" id="形状结合" fill="#1E2427"></path>
                    <path d="M147.637974,116.096443 C148.791721,116.729751 149.984983,117.308383 151.100244,118.010346 C156.997196,121.719343 158.98672,127.179239 156.728207,133.781392 C154.471959,140.37738 150.20005,145.577868 144.903022,149.9545 C135.29601,157.892748 124.162332,162.644309 111.932532,164.46633 C87.103923,168.164843 67.8279524,158.595739 53.1173704,138.91446 C51.5991416,136.881952 50.4882022,134.428062 49.6855599,132.005004 C48.1033254,127.230421 49.4667884,123.034676 53.2274765,119.767207 C54.933606,118.285581 56.9727292,117.185873 58.9939473,115.823469 C58.834242,115.552755 58.5481721,115.091289 58.2851523,114.61749 C50.3855052,100.396929 49.4299492,85.8813995 56.6930392,71.1467508 C63.0800142,58.1891069 79.1365657,51.8492387 92.0323528,57.0236219 C96.9198273,58.9852133 100.648821,62.3353145 103.554798,66.7495631 C104.600497,65.4977459 105.55914,64.2671007 106.603604,63.1133322 C114.458386,54.4385886 124.967855,52.4819305 135.398707,57.8096562 C149.251903,64.886226 155.457974,76.4253493 154.917117,91.7400683 C154.79775,95.1273746 154.38799,98.5383195 153.738262,101.865604 C152.498488,108.205061 151.175363,110.983314 147.637974,116.096443 L147.637974,116.096443 Z" id="形状" fill="#FECFBF" fill-rule="nonzero"></path>
                    <circle id="椭圆形" fill="#FF5E63" cx="74.7871931" cy="128.750407" r="10.5239463"></circle>
                    <circle id="椭圆形备份-2" fill="#FF5E63" cx="132.333027" cy="128.750407" r="10.5239463"></circle>
                    <path d="M103.136813,142.409146 C99.0218904,142.233639 95.0737274,141.547587 91.608302,139.181267 C86.4726385,135.674028 86.5045968,130.483858 91.6539566,126.977346 C97.8456833,122.760574 108.682407,122.775341 114.844818,127.009542 C119.965344,130.528642 119.95429,135.715666 114.790273,139.211284 C111.261652,141.600361 107.252696,142.267288 103.136813,142.409146 L103.136813,142.409146 Z" id="路径" fill="#1E2427"></path>
                    <path d="M121.716322,73.2197968 C127.70343,73.2197968 132.556941,83.8963793 132.556941,97.0666113 C132.556941,110.236843 127.70343,120.913426 121.716322,120.913426 C116.415083,120.913426 112.002594,112.5429 111.061195,101.48239 C111.490704,101.572092 111.936547,101.619185 112.393389,101.619185 C115.985654,101.619185 118.897761,98.7073898 118.897761,95.1155083 C118.897761,91.5236269 115.985654,88.6118316 112.393389,88.6118316 C112.114044,88.6118316 111.838812,88.6294395 111.568743,88.6636057 C113.112668,79.6397144 117.073674,73.2197968 121.716322,73.2197968 Z" id="形状结合" fill="#1E2427"></path>
                    <path d="M85.4422939,73.2197968 C91.4294026,73.2197968 96.2829132,83.8963793 96.2829132,97.0666113 C96.2829132,110.236843 91.4294026,120.913426 85.4422939,120.913426 C80.141055,120.913426 75.728566,112.5429 74.7871669,101.48239 C75.2166767,101.572092 75.6625188,101.619185 76.1193612,101.619185 C79.7116265,101.619185 82.6237328,98.7073898 82.6237328,95.1155083 C82.6237328,91.5236269 79.7116265,88.6118316 76.1193612,88.6118316 C75.8400163,88.6118316 75.5647844,88.6294395 75.294715,88.6636057 C76.8386402,79.6397144 80.799646,73.2197968 85.4422939,73.2197968 Z" id="形状结合" fill="#1E2427"></path>
                </g>
            </g>
        </g>
    </g>
</svg>