<?xml version="1.0" encoding="UTF-8"?>
<svg width="230px" height="274px" viewBox="0 0 230 274" version="1.1" xmlns="http://www.w3.org/2000/svg" xmlns:xlink="http://www.w3.org/1999/xlink">
    <title>编组 3备份 5</title>
    <defs>
        <path d="M143.796054,49.8751903 C174.523229,49.8751903 191.065906,76.1923576 180.93907,100.975459 C168.126361,132.331616 132.75567,197.432076 119.104517,213.042562 C110.177079,223.251343 102.396747,227.555556 91.9584949,227.555556 C81.5202423,227.555556 73.7381605,223.251888 64.8102472,213.042562 C51.1590945,197.432076 15.7884028,132.331616 2.97569368,100.975459 C-7.15114228,76.1923576 9.39153536,49.8751903 40.1187104,49.8751903 L143.796054,49.8751903 Z" id="path-1"></path>
        <filter x="-7.1%" y="-7.3%" width="114.2%" height="114.6%" filterUnits="objectBoundingBox" id="filter-2">
            <feOffset dx="-15" dy="-2" in="SourceAlpha" result="shadowOffsetInner1"></feOffset>
            <feComposite in="shadowOffsetInner1" in2="SourceAlpha" operator="arithmetic" k2="-1" k3="1" result="shadowInnerInner1"></feComposite>
            <feColorMatrix values="0 0 0 0 0.968627451   0 0 0 0 0.725490196   0 0 0 0 0.937254902  0 0 0 1 0" type="matrix" in="shadowInnerInner1"></feColorMatrix>
        </filter>
    </defs>
    <g id="页面-1" stroke="none" stroke-width="1" fill="none" fill-rule="evenodd">
        <g id="贴纸" transform="translate(-970.000000, -409.000000)">
            <g id="编组-3备份-5" transform="translate(992.876712, 431.780822)">
                <g id="编组-9" transform="translate(0.097412, 0.280061)">
                    <path d="M92.3649208,-10.9589041 C98.5992268,-10.9589041 107.67823,-6.44229725 114.293946,4.36053907 C115.32846,6.04980373 116.297757,7.87402857 117.173746,9.81369415 L117.177,9.823 L117.647121,9.54762925 C121.207185,7.48920316 124.856851,5.99167534 128.348073,5.01344023 L128.897965,4.86329144 C140.585793,1.75553295 149.559921,4.89878426 153.601101,8.92831592 C156.234699,11.55433 158.419315,15.7289095 158.915096,21.3790295 C159.225086,24.9117919 158.887608,29.1425823 157.687978,33.6282503 C157.151156,35.6355414 156.440486,37.7003065 155.547773,39.7744539 L155.442,40.013 L155.744892,40.0725963 C168.876793,42.7103496 179.117485,49.6475775 185.818412,58.6681225 L186.103426,59.0559863 C195.289563,71.6940029 197.819972,88.6353512 191.083729,105.120755 C177.906547,137.368876 141.387203,204.209316 127.354033,220.256649 C115.7136,233.56782 105.387241,238.51446 91.9584949,238.51446 C78.5299006,238.51446 68.201562,233.568275 56.5607307,220.256649 C42.5275611,204.209316 6.00821696,137.368876 -7.16896497,105.120755 C-13.9052075,88.6353512 -11.3747987,71.6940029 -2.18866176,59.0559863 C4.5052778,49.8466614 14.8503727,42.7480318 28.1701089,40.0725963 L28.471,40.013 L28.36699,39.7744529 C27.5554341,37.8888653 26.8943255,36.0110307 26.3775085,34.1770822 L26.226786,33.6282503 C25.0271562,29.1425823 24.6896784,24.9117919 24.9996679,21.3790295 C25.4954493,15.7289095 27.6800654,11.55433 30.3136751,8.92830355 C34.3548436,4.89878426 43.3289708,1.75553295 55.0167989,4.86329144 C59.0391587,5.93282488 63.2914512,7.69564869 67.3886163,10.2163619 L67.421,10.236 L67.4694567,10.1260751 C68.1714853,8.53729516 68.9347027,7.02659439 69.7441346,5.60383066 L70.0156364,5.13284653 C76.6644377,-6.25061024 86.0163884,-10.9589041 92.3649208,-10.9589041 Z" id="形状结合" stroke="#FFFFFF" stroke-width="21.9178082"></path>
                    <path d="M92.3649208,-2.73972603 C96.8168673,-2.73972603 102.783594,1.30313756 107.28471,8.65303306 C109.833666,12.815236 111.906331,17.9539418 112.91457,23.6522418 C113.199563,23.3545186 113.489485,23.0580313 113.784632,22.7637331 C119.002544,17.5608886 125.28656,14.3283226 131.010032,12.8064685 C138.620289,10.782924 145.014052,11.9729518 147.79765,14.7485259 C149.348414,16.2948239 150.44053,18.828445 150.727379,22.0974777 C150.965692,24.8133964 150.668828,28.0610212 149.747844,31.5047715 C148.221151,37.2133982 144.978729,43.4814204 139.759261,48.6858766 C134.10299,54.3258239 127.638986,58.0714636 121.791958,59.6261736 C115.444918,61.3138356 109.865588,60.4097637 106.21181,57.1408674 L106.148,57.082 L105.941994,57.3627976 C104.660389,59.0585833 103.256128,60.5045842 101.762936,61.6652928 L101.387805,61.9495059 C98.6251472,63.988663 95.5657694,65.0837139 92.3649208,65.0837139 C89.028813,65.0837139 85.8449934,63.8941453 82.9914347,61.6844929 C81.276353,60.3564198 79.6778275,58.6504306 78.2467894,56.6223283 C74.5328837,60.3262495 68.7458047,61.3872122 62.122806,59.6261736 C56.2757776,58.0714636 49.8117742,54.3258239 44.1554936,48.685867 C38.9360352,43.4814204 35.6936131,37.2133982 34.1669199,31.5047715 C33.2459366,28.0610212 32.9490717,24.8133964 33.1873856,22.0974777 C33.4742336,18.828445 34.5663504,16.2948239 36.1171168,14.7485228 C38.9007119,11.9729518 45.2944751,10.782924 52.9047319,12.8064685 C58.628204,14.3283226 64.9122204,17.5608886 70.1301454,22.7637459 C70.6828152,23.3148272 71.2174455,23.8735742 71.7338836,24.436729 C72.6658075,18.6802921 74.646686,13.5005951 77.1128945,9.27818307 C81.6502967,1.50966671 87.8067111,-2.73972603 92.3649208,-2.73972603 Z" id="形状结合" stroke="#363636" stroke-width="5.47945205" fill="#7EF0D9"></path>
                    <g id="路径">
                        <use fill="#FF7C7C" fill-rule="evenodd" xlink:href="#path-1"></use>
                        <use fill="black" fill-opacity="1" filter="url(#filter-2)" xlink:href="#path-1"></use>
                        <path stroke="#363636" stroke-width="5.47945205" d="M143.796054,47.1354642 C159.853585,47.1354642 172.223679,53.9398747 179.454992,63.8885028 C187.066104,74.3596471 189.040162,88.3929054 183.475235,102.011783 C170.571408,133.590931 134.913553,199.126386 121.166896,214.846084 C111.56121,225.830462 103.144371,230.295282 91.9584949,230.295282 C80.7726569,230.295282 72.3540109,225.830984 62.7478681,214.846084 C49.0012111,199.126386 13.3433563,133.590931 0.439529014,102.011783 C-5.1253975,88.3929054 -3.15134033,74.3596471 4.45977209,63.8885028 C11.6910856,53.9398747 24.061179,47.1354642 40.1187104,47.1354642 L40.1187104,47.1354642 Z"></path>
                    </g>
                    <path d="M92.6767357,173.023749 C93.1321158,173.213491 93.4940892,173.575464 93.6838309,174.030844 L98.2397377,184.96502 C98.795941,186.299908 98.1646924,187.832941 96.8298045,188.389144 C96.5106938,188.522107 96.1684125,188.590563 95.8227093,188.590563 L88.0920548,188.590563 C86.6459262,188.590563 85.4736073,187.418244 85.4736073,185.972116 C85.4736073,185.626412 85.5420636,185.284131 85.6750263,184.96502 L90.2309331,174.030844 C90.6282212,173.077353 91.7232443,172.626461 92.6767357,173.023749 Z M72.4149397,134.058757 C72.8703198,134.248498 73.2322932,134.610472 73.4220349,135.065852 L77.9779417,146.000028 C78.534145,147.334916 77.9028964,148.867948 76.5680084,149.424152 C76.2488978,149.557115 75.9066164,149.625571 75.5609132,149.625571 L67.8302588,149.625571 C66.3841301,149.625571 65.2118113,148.453252 65.2118113,147.007123 C65.2118113,146.66142 65.2802675,146.319139 65.4132303,146.000028 L69.9691371,135.065852 C70.3664252,134.11236 71.4614483,133.661469 72.4149397,134.058757 Z M112.938532,134.058757 C113.393912,134.248498 113.755885,134.610472 113.945627,135.065852 L118.501534,146.000028 C119.057737,147.334916 118.426488,148.867948 117.091601,149.424152 C116.77249,149.557115 116.430209,149.625571 116.084505,149.625571 L108.353851,149.625571 C106.907722,149.625571 105.735403,148.453252 105.735403,147.007123 C105.735403,146.66142 105.80386,146.319139 105.936822,146.000028 L110.492729,135.065852 C110.890017,134.11236 111.98504,133.661469 112.938532,134.058757 Z M92.6767357,95.0937642 C93.1321158,95.2835059 93.4940892,95.6454793 93.6838309,96.1008594 L98.2397377,107.035036 C98.795941,108.369924 98.1646924,109.902956 96.8298045,110.459159 C96.5106938,110.592122 96.1684125,110.660578 95.8227093,110.660578 L88.0920548,110.660578 C86.6459262,110.660578 85.4736073,109.48826 85.4736073,108.042131 C85.4736073,107.696428 85.5420636,107.354146 85.6750263,107.035036 L90.2309331,96.1008594 C90.6282212,95.147368 91.7232443,94.6964761 92.6767357,95.0937642 Z M133.200328,95.0937642 C133.655708,95.2835059 134.017681,95.6454793 134.207423,96.1008594 L138.76333,107.035036 C139.319533,108.369924 138.688285,109.902956 137.353397,110.459159 C137.034286,110.592122 136.692005,110.660578 136.346301,110.660578 L128.615647,110.660578 C127.169518,110.660578 125.997199,109.48826 125.997199,108.042131 C125.997199,107.696428 126.065656,107.354146 126.198618,107.035036 L130.754525,96.1008594 C131.151813,95.147368 132.246836,94.6964761 133.200328,95.0937642 Z M52.1531437,95.0937642 C52.6085238,95.2835059 52.9704971,95.6454793 53.1602388,96.1008594 L57.7161457,107.035036 C58.272349,108.369924 57.6411003,109.902956 56.3062124,110.459159 C55.9871017,110.592122 55.6448204,110.660578 55.2991172,110.660578 L47.5684627,110.660578 C46.1223341,110.660578 44.9500152,109.48826 44.9500152,108.042131 C44.9500152,107.696428 45.0184715,107.354146 45.1514343,107.035036 L49.7073411,96.1008594 C50.1046291,95.147368 51.1996523,94.6964761 52.1531437,95.0937642 Z" id="形状结合" fill="#363636"></path>
                </g>
            </g>
        </g>
    </g>
</svg>