<?xml version="1.0" encoding="UTF-8"?>
<svg width="273px" height="268px" viewBox="0 0 273 268" version="1.1" xmlns="http://www.w3.org/2000/svg" xmlns:xlink="http://www.w3.org/1999/xlink">
    <title>编组 3备份</title>
    <defs>
        <path d="M189.80806,29.9885536 C197.87929,29.708843 204.845764,41.5199984 205.494029,59.9489193 C205.619898,63.5271402 205.494471,66.9823668 205.151508,70.2295124 C223.480661,88.5898297 234.80028,113.857234 234.80028,141.749265 C234.80028,197.871473 188.971212,243.367512 132.438192,243.367512 C75.9051714,243.367512 30.0761035,197.871473 30.0761035,141.749265 C30.0761035,113.857234 41.3957222,88.5898297 59.7232062,70.2274727 C59.3819124,66.9823668 59.2564856,63.5271402 59.382354,59.9489193 C60.0306194,41.5199984 66.9970935,29.708843 75.0683228,29.9885536 C81.4248012,30.2089884 86.5708005,37.862853 88.1537969,50.1069027 C101.555116,43.7130994 116.575272,40.1310178 132.438192,40.1310178 C148.301111,40.1310178 163.321267,43.7130994 176.722661,50.1069035 C178.305583,37.862853 183.451582,30.2089884 189.80806,29.9885536 Z" id="path-1"></path>
        <ellipse id="path-2" cx="102.362088" cy="112.683816" rx="102.362088" ry="101.618247"></ellipse>
        <path d="M74.5102023,200.907055 C74.768408,201.611316 72.584615,203.127352 68.7903794,205.046448 L68.2505831,205.316804 C63.9416173,207.454437 57.7548633,210.050895 50.7761959,212.572464 C37.1158257,217.508302 25.5940658,220.288096 25.0416241,218.781307 C24.489184,217.274517 35.1152602,212.051736 48.7756305,207.115898 C62.4360007,202.18006 73.9577606,199.400266 74.5102023,200.907055 Z M190.350005,200.907055 C190.902447,199.400266 202.424207,202.18006 216.084577,207.115898 C229.744947,212.051736 240.371024,217.274517 239.818584,218.781307 C239.266142,220.288096 227.744382,217.508302 214.084012,212.572464 C207.105344,210.050895 200.91859,207.454437 196.609625,205.316804 L196.609625,205.316804 L196.069828,205.046448 C192.275593,203.127352 190.0918,201.611316 190.350005,200.907055 Z M78.5336637,180.947487 C79.2173082,182.812139 66.205873,189.229346 49.3772715,195.344052 L48.8661557,195.529249 C31.7906929,201.699046 17.3884931,205.173788 16.6979409,203.290301 C16.0073908,201.406814 29.2899861,194.878338 46.3654488,188.70854 L46.8768997,188.524257 C48.8989819,187.797721 50.8817772,187.109596 52.8067779,186.464349 L53.7643764,186.14532 C58.8449676,184.463106 63.4926396,183.091092 67.3564296,182.113952 L68.0716185,181.935387 C74.1888234,180.428282 78.1781674,179.977869 78.5336637,180.947487 Z M186.326544,180.947487 C186.91448,179.343887 197.441742,181.62437 211.095831,186.14532 L212.05343,186.464349 C213.97843,187.109596 215.961226,187.797721 217.983308,188.524257 L217.983308,188.524257 L218.494759,188.70854 C235.570222,194.878338 248.852817,201.406814 248.162267,203.290301 C247.471715,205.173788 233.069515,201.699046 215.994052,195.529249 C198.918589,189.359451 185.635994,182.830974 186.326544,180.947487 Z M263.87284,166.083361 C251.79925,171.581664 238.452369,174.633755 224.417197,174.633755 C182.262284,174.633755 164.783033,131.314319 132.430631,131.314319 C100.07823,131.314319 82.6033806,174.633755 40.4484672,174.633755 C28.7753117,174.633755 17.5782722,172.52251 7.19391352,168.648597 C-30.6272953,154.539294 103.452666,-20.4031971 121.162748,2.30425711 C125.76636,8.2069017 129.570188,15.0898514 132.435033,23.0639093 C135.304996,15.0730729 139.118085,8.17794112 143.734184,2.26701012 C161.44532,-20.4121643 298.414118,150.353292 263.87284,166.083361 Z" id="path-4"></path>
    </defs>
    <g id="页面-1" stroke="none" stroke-width="1" fill="none" fill-rule="evenodd">
        <g id="贴纸" transform="translate(-1732.000000, -412.000000)">
            <g id="编组-3备份" transform="translate(1732.054795, 412.602740)">
                <g id="编组-4" transform="translate(0.207002, 0.292237)">
                    <g id="形状结合" stroke-linejoin="round">
                        <path stroke="#FFFFFF" stroke-width="21.9178082" d="M75.0141986,19.0259521 L75.4481357,19.0362332 C81.7417312,19.2544873 87.9526623,22.4370779 92.6331983,29.6331992 C93.6995406,31.2726543 94.6895731,33.1557558 95.568902,35.2674568 C107.126513,31.3182121 119.529794,29.1721137 132.438192,29.1721137 C145.347653,29.1721137 157.751915,31.3185652 169.308057,35.2672882 C170.187142,33.1551583 171.177014,31.2724149 172.243171,29.6332351 C176.923695,22.4370913 183.134639,19.2544877 189.428505,19.0362243 C193.914837,18.8807493 198.324974,20.2497058 202.350608,23.3471062 C205.27016,25.5934654 208.052643,28.8701715 210.334732,33.2289845 C213.6532,39.5672945 216.059325,48.5667019 216.44616,59.5636644 C216.525388,61.8159993 216.517198,64.0258901 216.432372,66.1805552 C234.661339,86.1610902 245.759184,112.66949 245.759184,141.749265 C245.759184,172.845676 233.068778,201.001863 212.539924,221.381539 C192.040103,241.732393 163.721725,254.326417 132.438192,254.326417 C101.154658,254.326417 72.8362801,241.732393 52.3364591,221.381539 C31.8076048,201.001863 19.1171994,172.845676 19.1171994,141.749265 C19.1171994,112.666134 30.2176196,86.1549215 48.4470437,66.1715149 C48.3591724,64.0222089 48.3510607,61.8141295 48.4302238,59.5636614 C48.8170586,48.5667019 51.2231829,39.5672945 54.5416515,33.2289845 C56.8237399,28.8701715 59.6062235,25.5934654 62.5257751,23.3471062 C66.5514093,20.2497058 70.961546,18.8807493 75.4481357,19.0362332 Z"></path>
                        <path stroke="#363636" stroke-width="5.47945205" d="M189.713171,27.2504712 C192.374782,27.1582325 194.963716,28.0340142 197.338515,29.8612305 C199.450426,31.4861748 201.407696,33.8984276 203.05317,37.0412995 C205.927149,42.530629 207.89777,50.3493458 208.232062,59.8526055 C208.345938,63.0898938 208.261026,66.2301044 208.001621,69.2179321 C226.290038,87.9944865 237.540006,113.567887 237.540006,141.749265 C237.540006,170.569196 225.774454,196.661664 206.74932,215.548547 C187.731444,234.428225 161.458958,246.107239 132.438192,246.107239 C103.417426,246.107239 77.1449396,234.428225 58.1270635,215.548547 C39.101929,196.661664 27.3363775,170.569196 27.3363775,141.749265 C27.3363775,113.566248 38.5876584,87.9914974 56.87374,69.2123234 C56.6153393,66.2294276 56.5304578,63.0895494 56.6443214,59.8526048 C56.978613,50.3493458 58.9492346,42.530629 61.8232133,37.0412995 C63.4686869,33.8984276 65.4259577,31.4861748 67.5378678,29.8612305 C69.9126671,28.0340142 72.5016015,27.1582325 75.1632761,27.2504735 C79.136226,27.3882505 82.8585125,29.6795022 85.7432188,34.1146131 C87.7125452,37.1423671 89.2951111,41.2060746 90.2800404,46.1265737 C103.184876,40.5094264 117.44469,37.3912918 132.438192,37.3912918 C147.432685,37.3912918 161.693393,40.5098386 174.598917,46.125776 C175.581535,41.2054808 177.163995,37.1421582 179.133162,34.1146309 C182.017859,29.6795089 185.740151,27.3882507 189.713171,27.2504712 Z"></path>
                    </g>
                    <g id="编组-2" transform="translate(30.076104, 29.065449)">
                        <path d="M160.845766,4.02067153 C162.207899,4.02101677 163.479962,4.59009082 164.645469,5.55342849 C166.139665,6.78844058 167.445369,8.63136895 168.557022,10.9479655 C170.942243,15.918578 172.358012,22.9496386 172.360169,31.3937199 C172.362395,40.1198316 170.849411,48.0300157 168.344826,53.751501 C167.191707,56.3856927 165.846847,58.5353514 164.312436,59.9865361 C163.250143,60.99121 162.112545,61.6614859 160.863654,61.6611693 C159.614035,61.6608526 158.475506,60.9895749 157.412061,59.9837582 C155.876559,58.5314652 154.530212,56.3806684 153.375475,53.7452691 C150.86789,48.0223348 149.350739,40.1111158 149.34851,31.3847166 C149.346356,22.9409879 150.75837,15.9109446 153.140962,10.9417333 C154.251107,8.62637816 155.55542,6.78458984 157.048564,5.55068299 C158.213035,4.58838622 159.484282,4.02032646 160.845766,4.02067153 Z" id="椭圆形" stroke="#F7B9EF" stroke-width="6.23439878" fill="#363636" transform="translate(160.854339, 32.840920) rotate(-2.000000) translate(-160.854339, -32.840920) "></path>
                        <path d="M43.87841,4.02067153 C45.2398946,4.02032646 46.5111416,4.58838622 47.6756118,5.55068299 C49.1687559,6.78458984 50.4730696,8.62637816 51.5832146,10.9417333 C53.9658059,15.9109446 55.3778206,22.9409879 55.375666,31.3847157 C55.3734369,40.1111158 53.8562864,48.0223348 51.3487017,53.7452691 C50.1939641,56.3806684 48.847617,58.5314652 47.3121152,59.9837582 C46.2486704,60.9895749 45.1101417,61.6608526 43.8605223,61.6611693 C42.6116316,61.6614859 41.4740333,60.99121 40.4117406,59.9865361 C38.8773292,58.5353514 37.5324697,56.3856927 36.3793502,53.751501 C33.8747656,48.0300157 32.3617809,40.1198316 32.3640075,31.3937208 C32.3661644,22.9496386 33.7819331,15.918578 36.1671545,10.9479655 C37.2788074,8.63136895 38.5845114,6.78844058 40.078707,5.55342849 C41.2442138,4.59009082 42.516277,4.02101677 43.87841,4.02067153 Z" id="椭圆形备份" stroke="#F7B9EF" stroke-width="6.23439878" fill="#363636" transform="translate(43.869837, 32.840920) rotate(2.000000) translate(-43.869837, -32.840920) "></path>
                        <mask id="mask-3" fill="white">
                            <use xlink:href="#path-2"></use>
                        </mask>
                        <use id="椭圆形" fill="#FFF9F5" xlink:href="#path-2"></use>
                        <path d="M44.4394584,172.345969 C44.6976641,173.05023 42.5138711,174.566266 38.7196355,176.485362 L38.1798391,176.755718 C33.8708733,178.893351 27.6841194,181.489809 20.705452,184.011378 C7.04508179,188.947216 -4.47667811,191.72701 -5.02911987,190.220221 C-5.58155992,188.713431 5.0445163,183.49065 18.7048865,178.554812 C32.3652567,173.618974 43.8870166,170.83918 44.4394584,172.345969 Z M160.279261,172.345969 C160.831703,170.83918 172.353463,173.618974 186.013833,178.554812 C199.674204,183.49065 210.30028,188.713431 209.74784,190.220221 C209.195398,191.72701 197.673638,188.947216 184.013268,184.011378 C177.0346,181.489809 170.847846,178.893351 166.538881,176.755718 L166.538881,176.755718 L165.999084,176.485362 C162.204849,174.566266 160.021056,173.05023 160.279261,172.345969 Z M48.4629197,152.386401 C49.1534698,154.269888 35.8708745,160.798365 18.7954118,166.968162 C1.719949,173.13796 -12.6822509,176.612702 -13.3728031,174.729215 C-14.0633531,172.845728 -0.780757865,166.317252 16.2947049,160.147454 L16.8061558,159.963171 C33.6568405,153.908697 47.7792731,150.52175 48.4629197,152.386401 Z M156.2558,152.386401 C156.939447,150.52175 171.061879,153.908697 187.912564,159.963171 L187.912564,159.963171 L188.424015,160.147454 C205.499478,166.317252 218.782073,172.845728 218.091523,174.729215 C217.400971,176.612702 202.998771,173.13796 185.923308,166.968162 L185.412192,166.782966 C168.583591,160.66826 155.572156,154.251053 156.2558,152.386401 Z M194.346453,-57.1638259 C248.534786,-57.1638259 292.463109,-11.6677868 292.463109,44.4544215 C292.463109,100.57663 248.534786,146.072669 194.346453,146.072669 C152.19154,146.072669 134.712289,102.753233 102.359887,102.753233 C70.0074856,102.753233 52.5326366,146.072669 10.3777232,146.072669 C-43.8106095,146.072669 -87.7389327,100.57663 -87.7389327,44.4544215 C-87.7389327,-11.6677868 -43.8106095,-57.1638259 10.3777232,-57.1638259 C52.5326366,-57.1638259 88.4783937,-44.1474091 102.364289,-5.49717684 C116.245783,-44.1474091 152.19154,-57.1638259 194.346453,-57.1638259 Z" id="形状结合" fill="#F7B9EF" mask="url(#mask-3)"></path>
                        <path d="M105.087651,120.74537 L113.809141,127.960465 C115.022185,128.963989 115.192035,130.760873 114.18851,131.973918 C113.64697,132.628523 112.841672,133.007466 111.992099,133.007466 L92.7320769,133.007466 C91.1577396,133.007466 89.8814871,131.731213 89.8814871,130.156876 C89.8814871,129.307303 90.2604297,128.502005 90.9150351,127.960465 L99.6365254,120.74537 C101.218047,119.437013 103.506129,119.437013 105.087651,120.74537 Z" id="三角形" fill="#363636" mask="url(#mask-3)" transform="translate(102.362088, 125.749019) scale(1, -1) translate(-102.362088, -125.749019) "></path>
                        <path d="M85.3670701,154.785972 C91.8239538,151.929516 97.4559439,144.67107 102.263041,133.010633 C107.004833,144.67107 112.636823,151.929516 119.159011,154.785972" id="路径" stroke="#363636" stroke-width="5.47945205" stroke-linecap="round" stroke-linejoin="round" mask="url(#mask-3)"></path>
                    </g>
                    <path d="M188.750636,56.8764861 C216.494699,75.0545425 234.80028,106.27969 234.80028,141.749265 C234.80028,197.871473 188.971212,243.367512 132.438192,243.367512 C127.45927,243.367512 122.563374,243.014622 117.774497,242.332662 C173.302556,234.843369 216.097083,187.56957 216.097083,130.369035 C216.097083,102.909807 206.23509,77.738194 189.836889,58.1572017 Z" id="形状结合" fill="#7EF0D9"></path>
                    <g id="形状结合" transform="translate(0.005360, 0.504363)">
                        <mask id="mask-5" fill="white">
                            <use xlink:href="#path-4"></use>
                        </mask>
                        <g id="蒙版"></g>
                        <path d="M188.74448,56.3716014 C216.488989,74.5495821 234.79492,105.774987 234.79492,141.244902 C234.79492,197.367111 188.965852,242.86315 132.432832,242.86315 C127.45391,242.86315 122.558014,242.510259 117.769138,241.828299 C173.297196,234.339006 216.091724,187.065207 216.091724,129.864672 C216.091724,102.405444 206.229731,77.2338311 189.831529,57.6528388 Z" fill="#9C9EFF" mask="url(#mask-5)"></path>
                    </g>
                </g>
                <g id="编组-14" transform="translate(27.713851, 81.802131)">
                    <polygon id="矩形" fill="#FFFFFF" points="83.4630137 8.1826484 126.012785 8.1826484 126.012785 24.5479452 104.7379 27.8210046 83.4630137 24.5479452"></polygon>
                    <g id="编组-3" fill="#9C9EFF" stroke="#FFFFFF" stroke-linejoin="round" stroke-width="7.67123288">
                        <polygon id="三角形" transform="translate(46.791415, 32.730594) scale(1, -1) translate(-46.791415, -32.730594) " points="57.0339126 6.55611401e-12 93.2821918 36.7475301 81.29749 57.1551954 0.300637572 65.4611872"></polygon>
                    </g>
                    <g id="编组-3备份-10" transform="translate(123.023744, 33.000000) scale(-1, 1) translate(-123.023744, -33.000000) translate(36.023744, 0.000000)">
                        <polygon id="三角形" stroke="#FFFFFF" stroke-width="7.67123288" fill="#9C9EFF" stroke-linejoin="round" transform="translate(46.791415, 32.730594) scale(1, -1) translate(-46.791415, -32.730594) " points="57.0339126 6.55611401e-12 93.2821918 36.7475301 81.29749 57.1551954 0.300637572 65.4611872"></polygon>
                        <path d="M44.5954338,-0.548133508 L52.7780822,-0.548133508 L52.7780822,28.0911359 C52.7780822,30.3507119 50.946334,32.1824601 48.686758,32.1824601 C46.427182,32.1824601 44.5954338,30.3507119 44.5954338,28.0911359 L44.5954338,-0.548133508 L44.5954338,-0.548133508 Z" id="矩形" fill="#FFFFFF" transform="translate(48.686758, 15.817163) rotate(-38.000000) translate(-48.686758, -15.817163) "></path>
                        <path d="M155.47032,21.2748858 L163.652968,21.2748858 L163.652968,48.2776256 C163.652968,50.5372015 161.82122,52.3689498 159.561644,52.3689498 C157.302068,52.3689498 155.47032,50.5372015 155.47032,48.2776256 L155.47032,21.2748858 L155.47032,21.2748858 Z" id="矩形备份-8" fill="#FFFFFF" transform="translate(159.561644, 36.821918) scale(-1, -1) rotate(-44.000000) translate(-159.561644, -36.821918) "></path>
                    </g>
                </g>
            </g>
        </g>
    </g>
</svg>