<?xml version="1.0" encoding="UTF-8"?>
<svg width="306px" height="305px" viewBox="0 0 306 305" version="1.1" xmlns="http://www.w3.org/2000/svg" xmlns:xlink="http://www.w3.org/1999/xlink">
    <title>编组 2</title>
    <g id="页面-1" stroke="none" stroke-width="1" fill="none" fill-rule="evenodd">
        <g id="贴纸备份-3" transform="translate(-627.000000, -567.000000)">
            <g id="编组-2" transform="translate(627.936980, 567.000000)">
                <ellipse id="椭圆形备份" fill="#FF4700" cx="152.24486" cy="151.824886" rx="131.251789" ry="131.581568"></ellipse>
                <circle id="椭圆形备份-2" stroke="#FF4700" stroke-width="9.51248514" cx="152.199762" cy="152.199762" r="147.44352"></circle>
                <circle id="椭圆形备份-6" stroke="#000000" stroke-width="0.594530321" fill="#2FE242" cx="152.199762" cy="133.455949" r="76.7720225"></circle>
                <g id="编组-4备份-2" transform="translate(55.481687, 92.219560)">
                    <path d="M31.2738178,1.96585795 C33.4506964,1.96585795 35.4214901,2.84821235 36.8480642,4.27478639 C38.2746382,5.70136044 39.1569926,7.67215413 39.1569926,9.84903274 L39.1569926,9.84903274 L39.1569926,40.5471812 C39.1569926,42.7240598 38.2746382,44.6948535 36.8480642,46.1214276 C35.4214901,47.5480016 33.4506964,48.430356 31.2738178,48.430356 L31.2738178,48.430356 L29.1862256,48.430356 C27.009347,48.430356 25.0385533,47.5480016 23.6119793,46.1214276 C22.1854052,44.6948535 21.3030508,42.7240598 21.3030508,40.5471812 L21.3030508,40.5471812 L21.3030508,9.84903274 C21.3030508,7.67215413 22.1854052,5.70136044 23.6119793,4.27478639 C25.0385533,2.84821235 27.009347,1.96585795 29.1862256,1.96585795 L29.1862256,1.96585795 Z" id="矩形" stroke="#000000" stroke-width="0.5" fill="#0012FF" transform="translate(30.230022, 25.198107) rotate(-345.000000) translate(-30.230022, -25.198107) "></path>
                    <path d="M14.1745892,1.86946545 C16.3514678,1.86946545 18.3222615,2.75181984 19.7488355,4.17839389 C21.1754096,5.60496793 22.057764,7.57576163 22.057764,9.75264024 L22.057764,9.75264024 L22.057764,61.5038396 C22.057764,63.6807182 21.1754096,65.6515119 19.7488355,67.0780859 C18.3222615,68.50466 16.3514678,69.3870143 14.1745892,69.3870143 L14.1745892,69.3870143 L12.086997,69.3870143 C9.91011837,69.3870143 7.93932467,68.50466 6.51275063,67.0780859 C5.08617658,65.6515119 4.20382219,63.6807182 4.20382219,61.5038396 L4.20382219,61.5038396 L4.20382219,9.75264024 C4.20382219,7.57576163 5.08617658,5.60496793 6.51275063,4.17839389 C7.93932467,2.75181984 9.91011837,1.86946545 12.086997,1.86946545 L12.086997,1.86946545 Z" id="矩形备份" stroke="#000000" stroke-width="0.5" fill="#0012FF" transform="translate(13.130793, 35.628240) rotate(6.000000) translate(-13.130793, -35.628240) "></path>
                    <circle id="椭圆形" stroke="#000000" stroke-width="0.5" fill="#0012FF" cx="31.8494872" cy="64.3351887" r="30.5198435"></circle>
                    <circle id="椭圆形" fill="#2AFF41" cx="31.8494872" cy="64.3351887" r="10.1216591"></circle>
                </g>
                <g id="编组-4备份-3" transform="translate(217.417838, 140.219560) scale(-1, 1) translate(-217.417838, -140.219560) translate(185.917838, 92.219560)">
                    <path d="M31.2738178,1.96585795 C33.4506964,1.96585795 35.4214901,2.84821235 36.8480642,4.27478639 C38.2746382,5.70136044 39.1569926,7.67215413 39.1569926,9.84903274 L39.1569926,9.84903274 L39.1569926,40.5471812 C39.1569926,42.7240598 38.2746382,44.6948535 36.8480642,46.1214276 C35.4214901,47.5480016 33.4506964,48.430356 31.2738178,48.430356 L31.2738178,48.430356 L29.1862256,48.430356 C27.009347,48.430356 25.0385533,47.5480016 23.6119793,46.1214276 C22.1854052,44.6948535 21.3030508,42.7240598 21.3030508,40.5471812 L21.3030508,40.5471812 L21.3030508,9.84903274 C21.3030508,7.67215413 22.1854052,5.70136044 23.6119793,4.27478639 C25.0385533,2.84821235 27.009347,1.96585795 29.1862256,1.96585795 L29.1862256,1.96585795 Z" id="矩形" stroke="#000000" stroke-width="0.5" fill="#0012FF" transform="translate(30.230022, 25.198107) rotate(-345.000000) translate(-30.230022, -25.198107) "></path>
                    <path d="M14.1745892,1.86946545 C16.3514678,1.86946545 18.3222615,2.75181984 19.7488355,4.17839389 C21.1754096,5.60496793 22.057764,7.57576163 22.057764,9.75264024 L22.057764,9.75264024 L22.057764,61.5038396 C22.057764,63.6807182 21.1754096,65.6515119 19.7488355,67.0780859 C18.3222615,68.50466 16.3514678,69.3870143 14.1745892,69.3870143 L14.1745892,69.3870143 L12.086997,69.3870143 C9.91011837,69.3870143 7.93932467,68.50466 6.51275063,67.0780859 C5.08617658,65.6515119 4.20382219,63.6807182 4.20382219,61.5038396 L4.20382219,61.5038396 L4.20382219,9.75264024 C4.20382219,7.57576163 5.08617658,5.60496793 6.51275063,4.17839389 C7.93932467,2.75181984 9.91011837,1.86946545 12.086997,1.86946545 L12.086997,1.86946545 Z" id="矩形备份" stroke="#000000" stroke-width="0.5" fill="#0012FF" transform="translate(13.130793, 35.628240) rotate(6.000000) translate(-13.130793, -35.628240) "></path>
                    <circle id="椭圆形" stroke="#000000" stroke-width="0.5" fill="#0012FF" cx="31.8494872" cy="64.3351887" r="30.5198435"></circle>
                    <circle id="椭圆形" fill="#2AFF41" cx="31.8494872" cy="64.3351887" r="12.4159018"></circle>
                </g>
                <g id="编组-3备份-3" transform="translate(107.214611, 72.725995)">
                    <rect id="矩形" stroke="#000000" stroke-width="0.594530321" fill="#FFFFFF" x="0.297265161" y="0.297265161" width="41.391611" height="45.8901261" rx="20.6958055"></rect>
                    <circle id="椭圆形" fill="#000000" cx="20.9930706" cy="22.4925757" r="9.7467828"></circle>
                </g>
                <g id="编组-3备份-4" transform="translate(155.198772, 72.725995)">
                    <rect id="矩形" stroke="#000000" stroke-width="0.594530321" fill="#FFFFFF" x="0.297265161" y="0.297265161" width="41.391611" height="45.8901261" rx="20.6958055"></rect>
                    <circle id="椭圆形" fill="#000000" cx="20.9930706" cy="22.4925757" r="9.7467828"></circle>
                </g>
                <text id="#okkkk!!!#" font-family="FZPTYJW--GB1-0, FZPangTouYu-M24S" font-size="14.863258" font-weight="normal" fill="#2AFF41">
                    <tspan x="90.7200553" y="254.344166">#okkkk!!!#</tspan>
                </text>
            </g>
        </g>
    </g>
</svg>