<?xml version="1.0" encoding="UTF-8"?>
<svg width="80px" height="24px" viewBox="0 0 80 24" version="1.1" xmlns="http://www.w3.org/2000/svg" xmlns:xlink="http://www.w3.org/1999/xlink">
    <title>方正北魏体</title>
    <defs>
        <path d="M8.2096875,2.481875 L8.2578125,2.46875 C8.29427083,2.43229167 8.33072917,2.32291667 8.3671875,2.140625 C8.3671875,1.41145833 8.3125,0.955729167 8.203125,0.7734375 C7.36458333,0.5546875 6.63541667,0.408854167 6.015625,0.3359375 C5.86979167,0.299479167 5.77864583,0.317708333 5.7421875,0.390625 C5.70572917,0.463541667 5.7421875,0.5546875 5.8515625,0.6640625 C6.36197917,1.17447917 7.0546875,1.73958333 7.9296875,2.359375 C8.07552083,2.46875 8.18489583,2.50520833 8.2578125,2.46875 L8.2096875,2.481875 Z M8.421875,12.2578125 C8.53125,12.3307292 8.71354167,11.8567708 8.96875,10.8359375 C9.00520833,10.6171875 9.04166667,10.4348958 9.078125,10.2890625 C9.15104167,10.0338542 9.2421875,9.6328125 9.3515625,9.0859375 C9.49739583,8.57552083 9.58854167,8.19270833 9.625,7.9375 C9.77083333,7.42708333 10.0078125,7.02604167 10.3359375,6.734375 C9.42447917,6.58854167 8.76822917,6.27864583 8.3671875,5.8046875 C8.00260417,6.09635417 7.3828125,6.2421875 6.5078125,6.2421875 C6.54427083,6.20572917 6.58072917,6.15104167 6.6171875,6.078125 C6.98177083,5.38541667 7.29166667,4.94791667 7.546875,4.765625 C7.21875,4.69270833 6.92708333,4.56510417 6.671875,4.3828125 C8.78645833,4.12760417 10.8098958,4.03645833 12.7421875,4.109375 C12.8880208,4.109375 12.9791667,4.07291667 13.015625,4 C13.0520833,3.92708333 13.0338542,3.81770833 12.9609375,3.671875 C12.8151042,3.453125 12.6145833,3.234375 12.359375,3.015625 C12.2864583,2.90625 12.140625,2.8515625 11.921875,2.8515625 C11.7395833,2.88802083 11.15625,2.9609375 10.171875,3.0703125 C8.3125,3.32552083 7.01822917,3.5078125 6.2890625,3.6171875 C4.06510417,3.9453125 2.4609375,4.1640625 1.4765625,4.2734375 C1.33072917,4.2734375 1.23958333,4.30989583 1.203125,4.3828125 C1.16666667,4.45572917 1.203125,4.52864583 1.3125,4.6015625 C1.82291667,4.96614583 2.20572917,5.16666667 2.4609375,5.203125 C3.59114583,4.91145833 4.7578125,4.67447917 5.9609375,4.4921875 C5.81510417,5.07552083 5.66927083,5.53125 5.5234375,5.859375 C4.46614583,8.30208333 2.8984375,9.94270833 0.8203125,10.78125 C1.2578125,11.109375 1.6953125,11.2734375 2.1328125,11.2734375 C2.6796875,11.2734375 3.171875,11.0911458 3.609375,10.7265625 C4.59375,9.88802083 5.48697917,8.55729167 6.2890625,6.734375 C6.3984375,6.84375 6.5625,6.953125 6.78125,7.0625 C7.14583333,6.953125 7.65625,6.86197917 8.3125,6.7890625 C8.53125,6.75260417 8.62239583,6.84375 8.5859375,7.0625 C8.4765625,7.57291667 8.29427083,8.3203125 8.0390625,9.3046875 C7.9296875,9.66927083 7.85677083,9.92447917 7.8203125,10.0703125 C7.78385417,10.2526042 7.65625,10.34375 7.4375,10.34375 C6.92708333,10.2708333 6.87239583,10.2708333 7.2734375,10.34375 C6.7265625,10.2708333 6.36197917,10.234375 6.1796875,10.234375 C6.0703125,10.1979167 5.99739583,10.2161458 5.9609375,10.2890625 C5.9609375,10.3619792 5.99739583,10.4348958 6.0703125,10.5078125 C7.0546875,11.4921875 7.83854167,12.0755208 8.421875,12.2578125 Z M15.8046875,10.8359375 C20.3255208,10.0703125 24.1901042,9.76041667 27.3984375,9.90625 C27.5442708,9.94270833 27.6354167,9.92447917 27.671875,9.8515625 C27.7083333,9.81510417 27.6901042,9.72395833 27.6171875,9.578125 C27.5078125,9.359375 27.3619792,9.10416667 27.1796875,8.8125 C27.0703125,8.63020833 26.90625,8.57552083 26.6875,8.6484375 C26.03125,8.68489583 24.9557292,8.79427083 23.4609375,8.9765625 C22.8776042,9.01302083 22.421875,9.04947917 22.09375,9.0859375 C22.09375,8.02864583 22.1119792,7.0625 22.1484375,6.1875 C22.5494792,6.1875 23.6067708,6.0234375 25.3203125,5.6953125 C25.4661458,5.65885417 25.5026042,5.5859375 25.4296875,5.4765625 C25.3567708,5.33072917 25.2109375,5.1484375 24.9921875,4.9296875 C24.9921875,4.89322917 24.9010417,4.875 24.71875,4.875 C24.5364583,4.91145833 24.2447917,4.984375 23.84375,5.09375 C23.0416667,5.27604167 22.4765625,5.40364583 22.1484375,5.4765625 C22.1848958,3.9453125 22.2942708,3.05208333 22.4765625,2.796875 C21.9661458,2.796875 21.4921875,2.76041667 21.0546875,2.6875 C21.5651042,2.61458333 22.3854167,2.46875 23.515625,2.25 C24.171875,2.10416667 24.6276042,2.01302083 24.8828125,1.9765625 C25.0651042,1.90364583 25.1015625,1.79427083 24.9921875,1.6484375 C24.9557292,1.61197917 24.9192708,1.57552083 24.8828125,1.5390625 C24.7369792,1.35677083 24.609375,1.22916667 24.5,1.15625 C24.390625,1.046875 24.28125,1.01041667 24.171875,1.046875 C23.734375,1.11979167 22.96875,1.28385417 21.875,1.5390625 C19.9791667,2.01302083 18.7213542,2.26822917 18.1015625,2.3046875 C18.3932292,2.66927083 18.6666667,2.88802083 18.921875,2.9609375 C19.140625,2.99739583 19.7786458,2.90625 20.8359375,2.6875 C20.9817708,3.05208333 21.0729167,3.671875 21.109375,4.546875 C21.1458333,4.984375 21.1640625,5.53125 21.1640625,6.1875 L21.1640625,6.1875 L21.1640625,9.1953125 C20.3984375,9.3046875 19.6328125,9.39583333 18.8671875,9.46875 C18.8671875,6.953125 18.9583333,5.421875 19.140625,4.875 C18.5572917,4.875 18.0286458,4.78385417 17.5546875,4.6015625 C17.8098958,5.0390625 17.9557292,6.69791667 17.9921875,9.578125 C16.7890625,9.6875 15.9140625,9.7421875 15.3671875,9.7421875 C15.1484375,9.77864583 14.984375,9.796875 14.875,9.796875 C14.7291667,9.796875 14.65625,9.83333333 14.65625,9.90625 C14.6197917,9.94270833 14.65625,10.015625 14.765625,10.125 C15.2760417,10.5989583 15.6223958,10.8359375 15.8046875,10.8359375 Z M37.515625,10.8359375 C38.609375,10.9453125 39.6666667,10.890625 40.6875,10.671875 C41.1614583,10.5989583 41.3619792,10.34375 41.2890625,9.90625 C40.9973958,8.8125 40.7421875,7.95572917 40.5234375,7.3359375 C40.4869792,7.2265625 40.4140625,7.171875 40.3046875,7.171875 C40.2317708,7.171875 40.1770833,7.24479167 40.140625,7.390625 C39.9947917,7.9375 39.9036458,8.30208333 39.8671875,8.484375 C39.8307292,8.66666667 39.7942708,8.8125 39.7578125,8.921875 C39.6848958,9.17708333 39.5390625,9.34114583 39.3203125,9.4140625 C38.7369792,9.55989583 38.1171875,9.6328125 37.4609375,9.6328125 C36.5494792,9.66927083 36.1119792,9.23177083 36.1484375,8.3203125 C36.1119792,7.3359375 36.1119792,6.55208333 36.1484375,5.96875 C36.9869792,5.67708333 37.8072917,5.3125 38.609375,4.875 C39.1197917,4.546875 39.703125,4.2734375 40.359375,4.0546875 C39.703125,3.76302083 39.15625,3.2890625 38.71875,2.6328125 C38.390625,3.43489583 37.5338542,4.34635417 36.1484375,5.3671875 C36.2213542,4.12760417 36.2942708,3.14322917 36.3671875,2.4140625 C36.4401042,1.61197917 36.6041667,0.9921875 36.859375,0.5546875 C36.1666667,0.4453125 35.5286458,0.263020833 34.9453125,0.0078125 C35.2005208,0.7734375 35.328125,1.63020833 35.328125,2.578125 C35.328125,5.38541667 35.3098958,7.37239583 35.2734375,8.5390625 C35.1640625,10.0338542 35.9114583,10.7994792 37.515625,10.8359375 Z M33.3046875,11.328125 C33.4505208,11.328125 33.5234375,10.7630208 33.5234375,9.6328125 C33.4869792,8.39322917 33.46875,6.49739583 33.46875,3.9453125 C33.46875,2.99739583 33.5963542,2.25 33.8515625,1.703125 C33.2317708,1.66666667 32.6666667,1.52083333 32.15625,1.265625 C32.4114583,2.10416667 32.5390625,2.92447917 32.5390625,3.7265625 L32.5390625,3.7265625 L32.5390625,4.6015625 C31.4088542,4.85677083 30.3697917,5.02083333 29.421875,5.09375 C29.4947917,5.27604167 29.6588542,5.49479167 29.9140625,5.75 C29.9869792,5.859375 30.0416667,5.93229167 30.078125,5.96875 C30.1875,6.078125 30.3515625,6.09635417 30.5703125,6.0234375 C30.7161458,5.98697917 30.9348958,5.9140625 31.2265625,5.8046875 C31.8098958,5.62239583 32.2473958,5.49479167 32.5390625,5.421875 C32.5390625,6.47916667 32.5208333,7.29947917 32.484375,7.8828125 C30.9166667,8.50260417 29.6770833,8.90364583 28.765625,9.0859375 C29.3489583,9.48697917 29.7682292,9.92447917 30.0234375,10.3984375 C30.4244792,9.9609375 31.2265625,9.359375 32.4296875,8.59375 C32.3932292,9.17708333 32.2838542,9.6875 32.1015625,10.125 C32.6119792,10.8177083 33.0130208,11.21875 33.3046875,11.328125 Z M52.4453125,11.8203125 C53.4661458,11.8567708 54.5234375,11.765625 55.6171875,11.546875 C55.8723958,11.5104167 55.9817708,11.4010417 55.9453125,11.21875 C55.8359375,10.5260417 55.6354167,9.796875 55.34375,9.03125 C55.3072917,8.921875 55.2708333,8.8671875 55.234375,8.8671875 C55.1614583,8.8671875 55.1067708,8.921875 55.0703125,9.03125 C55.0338542,9.32291667 54.9427083,9.70572917 54.796875,10.1796875 C54.8333333,10.6171875 54.1041667,10.8359375 52.609375,10.8359375 C51.5520833,10.8723958 51.078125,10.453125 51.1875,9.578125 C51.2604167,8.265625 51.4973958,7.35416667 51.8984375,6.84375 C51.8619792,6.84375 51.8072917,6.82552083 51.734375,6.7890625 C51.296875,6.71614583 51.0052083,6.64322917 50.859375,6.5703125 C50.859375,6.42447917 50.8776042,6.31510417 50.9140625,6.2421875 C50.9505208,6.20572917 50.96875,6.16927083 50.96875,6.1328125 C51.2239583,6.09635417 51.6432292,6.05989583 52.2265625,6.0234375 C52.8463542,5.95052083 53.2838542,5.89583333 53.5390625,5.859375 C53.4661458,5.71354167 53.3203125,5.53125 53.1015625,5.3125 C53.1380208,5.23958333 53.1927083,5.1484375 53.265625,5.0390625 C53.8125,4.01822917 54.2682292,3.38020833 54.6328125,3.125 C53.9401042,2.97916667 53.3385417,2.65104167 52.828125,2.140625 C52.4270833,2.43229167 51.5520833,2.6875 50.203125,2.90625 C50.421875,2.6875 50.6953125,2.34114583 51.0234375,1.8671875 C51.5338542,1.2109375 51.9348958,0.7734375 52.2265625,0.5546875 C51.7161458,0.518229167 51.2057292,0.3359375 50.6953125,0.0078125 C50.7682292,0.809895833 50.4401042,1.79427083 49.7109375,2.9609375 L49.7109375,2.9609375 L49.328125,3.015625 C49.1822917,3.015625 49,2.97916667 48.78125,2.90625 C48.5260417,2.86979167 48.3255208,2.8515625 48.1796875,2.8515625 C48.5807292,3.7265625 48.8359375,4.89322917 48.9453125,6.3515625 L48.9453125,6.3515625 L49.0546875,6.4609375 C49.3828125,6.71614583 49.5833333,6.82552083 49.65625,6.7890625 C49.7291667,6.7890625 49.7291667,6.60677083 49.65625,6.2421875 C49.8020833,6.2421875 49.984375,6.22395833 50.203125,6.1875 C49.6197917,7.86458333 48.6901042,9.06770833 47.4140625,9.796875 C48.2526042,10.1614583 48.9270833,9.97916667 49.4375,9.25 C50.0208333,8.52083333 50.4401042,7.73697917 50.6953125,6.8984375 C50.7317708,7.5546875 50.6588542,8.50260417 50.4765625,9.7421875 C50.2578125,11.0546875 50.9140625,11.7473958 52.4453125,11.8203125 Z M42.4921875,6.1328125 C43.0390625,6.60677083 43.5859375,6.625 44.1328125,6.1875 C44.8984375,5.53125 45.5182292,4.9296875 45.9921875,4.3828125 L45.9921875,4.3828125 L45.9921875,4.4921875 C45.9192708,5.0390625 45.8463542,5.40364583 45.7734375,5.5859375 C45.9921875,5.95052083 46.265625,6.2421875 46.59375,6.4609375 C46.6666667,6.42447917 46.703125,5.78645833 46.703125,4.546875 L46.703125,4.546875 L46.703125,4.4375 C47.1041667,4.875 47.5416667,5.22135417 48.015625,5.4765625 C48.125,5.54947917 48.1979167,5.56770833 48.234375,5.53125 C48.2708333,5.49479167 48.2890625,5.40364583 48.2890625,5.2578125 C48.2161458,4.85677083 48.1432292,4.58333333 48.0703125,4.4375 C47.7421875,4.328125 47.3046875,4.23697917 46.7578125,4.1640625 L46.7578125,4.1640625 L46.703125,4.1640625 C46.703125,3.9453125 46.7213542,3.76302083 46.7578125,3.6171875 C47.2682292,3.5078125 47.7239583,3.41666667 48.125,3.34375 C48.0885417,3.234375 48.015625,3.10677083 47.90625,2.9609375 C47.796875,2.81510417 47.6692708,2.77864583 47.5234375,2.8515625 C47.3046875,2.88802083 47.0494792,2.94270833 46.7578125,3.015625 C46.8307292,2.61458333 46.8854167,2.34114583 46.921875,2.1953125 C46.703125,2.23177083 46.3932292,2.17708333 45.9921875,2.03125 C46.3567708,1.95833333 46.8671875,1.83072917 47.5234375,1.6484375 C47.8880208,1.57552083 48.1432292,1.52083333 48.2890625,1.484375 C47.9609375,1.30208333 47.578125,0.9921875 47.140625,0.5546875 C46.703125,1.1015625 45.9557292,1.55729167 44.8984375,1.921875 C44.6067708,1.99479167 44.4791667,2.06770833 44.515625,2.140625 C44.5520833,2.21354167 44.7161458,2.23177083 45.0078125,2.1953125 C45.2994792,2.1953125 45.5911458,2.15885417 45.8828125,2.0859375 C45.9557292,2.3046875 45.9921875,2.65104167 45.9921875,3.125 C45.8098958,3.16145833 45.5182292,3.21614583 45.1171875,3.2890625 C44.0963542,3.5078125 43.4036458,3.63541667 43.0390625,3.671875 C43.1119792,3.70833333 43.203125,3.79947917 43.3125,3.9453125 C43.53125,4.12760417 43.6953125,4.25520833 43.8046875,4.328125 C44.0598958,4.21875 44.5885417,4.07291667 45.390625,3.890625 C45.5729167,3.85416667 45.7005208,3.8359375 45.7734375,3.8359375 C44.4973958,5.1484375 43.4036458,5.9140625 42.4921875,6.1328125 Z M51.078125,5.5859375 C51.1510417,5.29427083 51.2057292,4.984375 51.2421875,4.65625 C51.6796875,4.61979167 52.0807292,4.546875 52.4453125,4.4375 C52.3359375,4.25520833 52.2083333,4.09114583 52.0625,3.9453125 C51.9895833,3.9453125 51.8802083,3.96354167 51.734375,4 C51.5520833,4.03645833 51.4244792,4.07291667 51.3515625,4.109375 C51.3880208,3.81770833 51.4609375,3.59895833 51.5703125,3.453125 C51.2421875,3.453125 50.9505208,3.3984375 50.6953125,3.2890625 C50.7682292,3.2890625 50.8776042,3.27083333 51.0234375,3.234375 C52.1536458,3.05208333 52.7369792,2.97916667 52.7734375,3.015625 C52.8463542,3.27083333 52.7005208,4.07291667 52.3359375,5.421875 C51.9713542,5.421875 51.5520833,5.4765625 51.078125,5.5859375 Z M49.6015625,5.8046875 L49.3828125,3.5625 L49.3828125,3.5625 L49.546875,3.5625 C49.9479167,3.48958333 50.2578125,3.41666667 50.4765625,3.34375 C50.5494792,3.63541667 50.5859375,3.9453125 50.5859375,4.2734375 C50.5130208,4.2734375 50.4036458,4.29166667 50.2578125,4.328125 C49.9661458,4.40104167 49.7291667,4.4375 49.546875,4.4375 C49.65625,4.61979167 49.7838542,4.765625 49.9296875,4.875 C50.1119792,4.875 50.3125,4.83854167 50.53125,4.765625 C50.53125,4.91145833 50.4947917,5.11197917 50.421875,5.3671875 C50.3854167,5.51302083 50.3671875,5.62239583 50.3671875,5.6953125 C50.2578125,5.6953125 50.1119792,5.71354167 49.9296875,5.75 C49.7838542,5.78645833 49.6744792,5.8046875 49.6015625,5.8046875 L49.6015625,5.8046875 Z M42.9296875,11.328125 C43.7317708,11.9479167 44.5338542,11.9479167 45.3359375,11.328125 C45.6640625,11.109375 45.9739583,10.8541667 46.265625,10.5625 C46.8125,10.9635417 47.3958333,11.3463542 48.015625,11.7109375 C48.0885417,11.4557292 48.1614583,11.0546875 48.234375,10.5078125 L48.234375,10.5078125 L48.234375,10.3984375 C48.125,10.3255208 47.90625,10.2161458 47.578125,10.0703125 C47.2864583,9.92447917 47.0494792,9.81510417 46.8671875,9.7421875 C47.1953125,9.1953125 47.4869792,8.52083333 47.7421875,7.71875 C47.8151042,7.5 47.9609375,7.24479167 48.1796875,6.953125 L48.1796875,6.953125 L48.234375,6.8984375 C47.8333333,6.82552083 47.46875,6.6796875 47.140625,6.4609375 L47.140625,6.4609375 L47.140625,6.84375 C47.1041667,6.98958333 47.0859375,7.1171875 47.0859375,7.2265625 L47.0859375,7.2265625 L45.9375,7.3359375 C46.046875,7.0078125 46.1744792,6.734375 46.3203125,6.515625 C45.9192708,6.40625 45.5729167,6.26041667 45.28125,6.078125 C45.28125,6.47916667 45.2265625,6.93489583 45.1171875,7.4453125 C44.0234375,7.59114583 43.0208333,7.6640625 42.109375,7.6640625 C42.4010417,7.9921875 42.6015625,8.33854167 42.7109375,8.703125 C43.0755208,8.55729167 43.6953125,8.375 44.5703125,8.15625 C44.7526042,8.11979167 44.8984375,8.08333333 45.0078125,8.046875 C44.8984375,8.55729167 44.7890625,8.90364583 44.6796875,9.0859375 C44.6432292,9.1953125 44.625,9.26822917 44.625,9.3046875 C44.9166667,9.55989583 45.1171875,9.72395833 45.2265625,9.796875 C45.3723958,9.90625 45.4817708,9.99739583 45.5546875,10.0703125 C44.8984375,10.6901042 44.0234375,11.109375 42.9296875,11.328125 Z M52.0078125,9.796875 C52.6276042,9.46875 53.265625,9.17708333 53.921875,8.921875 C53.9947917,9.140625 54.0677083,9.32291667 54.140625,9.46875 C54.2135417,9.61458333 54.3046875,9.61458333 54.4140625,9.46875 C54.4140625,9.43229167 54.4322917,9.39583333 54.46875,9.359375 C54.6875,9.03125 54.7604167,8.84895833 54.6875,8.8125 C54.46875,8.55729167 54.1223958,8.24739583 53.6484375,7.8828125 C53.5390625,7.80989583 53.484375,7.79166667 53.484375,7.828125 C53.4479167,7.828125 53.4479167,7.8828125 53.484375,7.9921875 L53.484375,7.9921875 L53.589375,8.2021875 C53.6214583,8.26635417 53.659375,8.3421875 53.703125,8.4296875 C53.7395833,8.5390625 53.7760417,8.61197917 53.8125,8.6484375 L53.8125,8.6484375 L52.171875,8.9765625 C52.4635417,8.72135417 52.7916667,8.30208333 53.15625,7.71875 C53.4479167,7.24479167 53.6666667,6.953125 53.8125,6.84375 C53.4114583,6.77083333 53.046875,6.58854167 52.71875,6.296875 C52.609375,7.609375 52.1901042,8.55729167 51.4609375,9.140625 C51.4973958,9.21354167 51.5885417,9.32291667 51.734375,9.46875 L51.8153125,9.551875 C51.9144792,9.656875 51.9786458,9.73854167 52.0078125,9.796875 Z M46.1015625,9.46875 C45.9921875,9.43229167 45.8463542,9.37760417 45.6640625,9.3046875 C45.4453125,9.23177083 45.2994792,9.17708333 45.2265625,9.140625 C45.2994792,8.95833333 45.4270833,8.6484375 45.609375,8.2109375 C45.6458333,8.06510417 45.6822917,7.95572917 45.71875,7.8828125 C45.8645833,7.84635417 46.0651042,7.80989583 46.3203125,7.7734375 C46.6119792,7.70052083 46.8307292,7.64583333 46.9765625,7.609375 C46.8307292,8.30208333 46.5390625,8.921875 46.1015625,9.46875 Z M64.640625,12.421875 C64.7135417,12.2395833 64.7135417,11.21875 64.640625,9.359375 C65.1875,9.17708333 65.7526042,9.06770833 66.3359375,9.03125 C66.4088542,9.03125 66.4453125,9.01302083 66.4453125,8.9765625 C66.4817708,8.94010417 66.4635417,8.88541667 66.390625,8.8125 C66.2447917,8.66666667 66.0989583,8.5390625 65.953125,8.4296875 C65.953125,8.4296875 65.9348958,8.41145833 65.8984375,8.375 C65.8255208,8.30208333 65.734375,8.28385417 65.625,8.3203125 C65.2604167,8.4296875 64.9869792,8.484375 64.8046875,8.484375 C64.7317708,8.52083333 64.6770833,8.5390625 64.640625,8.5390625 L64.640625,8.5390625 L64.640625,6.734375 C64.640625,5.93229167 64.6223958,5.34895833 64.5859375,4.984375 C64.7682292,5.27604167 65.0416667,5.71354167 65.40625,6.296875 C66.4270833,8.01041667 67.0833333,8.94010417 67.375,9.0859375 C67.59375,9.3046875 68.359375,9.43229167 69.671875,9.46875 C69.78125,9.46875 69.8541667,9.4140625 69.890625,9.3046875 C69.9270833,9.23177083 69.890625,9.15885417 69.78125,9.0859375 C69.125,8.61197917 68.5052083,8.19270833 67.921875,7.828125 C67.5572917,7.71875 66.828125,6.93489583 65.734375,5.4765625 C65.2604167,4.85677083 64.9140625,4.41927083 64.6953125,4.1640625 C65.6067708,4.01822917 66.5546875,3.9453125 67.5390625,3.9453125 C67.6484375,3.9453125 67.7213542,3.92708333 67.7578125,3.890625 C67.7578125,3.85416667 67.7395833,3.79947917 67.703125,3.7265625 C67.6666667,3.69010417 67.6302083,3.63541667 67.59375,3.5625 C67.4479167,3.41666667 67.3567708,3.2890625 67.3203125,3.1796875 C67.2109375,3.03385417 67.0651042,2.97916667 66.8828125,3.015625 C66.6276042,3.05208333 66.28125,3.125 65.84375,3.234375 C65.296875,3.30729167 64.8776042,3.38020833 64.5859375,3.453125 L64.5859375,3.453125 L64.5859375,3.234375 C64.6223958,1.88541667 64.7135417,0.955729167 64.859375,0.4453125 C64.2395833,0.372395833 63.7473958,0.2265625 63.3828125,0.0078125 C63.6380208,0.627604167 63.765625,1.484375 63.765625,2.578125 L63.765625,2.578125 L63.765625,3.6171875 C62.8541667,3.8359375 61.8333333,4.01822917 60.703125,4.1640625 C60.8489583,4.3828125 61.0494792,4.56510417 61.3046875,4.7109375 C61.4140625,4.8203125 61.578125,4.83854167 61.796875,4.765625 C61.9791667,4.72916667 62.2526042,4.65625 62.6171875,4.546875 C62.9817708,4.47395833 63.2552083,4.41927083 63.4375,4.3828125 C62.3802083,6.6796875 61.1770833,8.28385417 59.828125,9.1953125 L59.828125,9.1953125 L59.828125,6.84375 C59.828125,6.00520833 59.9010417,5.34895833 60.046875,4.875 C59.828125,4.875 59.6276042,4.83854167 59.4453125,4.765625 C59.8828125,4.07291667 60.3020833,3.234375 60.703125,2.25 C60.8854167,1.703125 61.140625,1.30208333 61.46875,1.046875 C60.9583333,0.864583333 60.484375,0.609375 60.046875,0.28125 C60.046875,0.755208333 59.9375,1.28385417 59.71875,1.8671875 C59.0260417,4.01822917 57.8411458,5.62239583 56.1640625,6.6796875 C56.9296875,7.04427083 57.5859375,6.98958333 58.1328125,6.515625 C58.4244792,6.26041667 58.6979167,5.93229167 58.953125,5.53125 C58.953125,7.86458333 58.8984375,9.39583333 58.7890625,10.125 C58.6432292,10.7447917 58.5338542,11.109375 58.4609375,11.21875 C59.0078125,11.7291667 59.4270833,12.0208333 59.71875,12.09375 C59.7916667,12.2395833 59.828125,11.3828125 59.828125,9.5234375 C60.5572917,9.70572917 61.1223958,9.578125 61.5234375,9.140625 C62.3984375,8.19270833 63.1640625,6.93489583 63.8203125,5.3671875 C63.8203125,6.5703125 63.8020833,7.71875 63.765625,8.8125 C63.546875,8.84895833 63.1822917,8.94010417 62.671875,9.0859375 L62.716,9.073 C62.6683542,9.08061227 62.5116102,9.11277488 62.2457682,9.16948785 L62.125,9.1953125 C62.234375,9.37760417 62.4166667,9.54166667 62.671875,9.6875 C62.7083333,9.72395833 62.7265625,9.7421875 62.7265625,9.7421875 C62.9453125,9.7421875 63.2734375,9.6875 63.7109375,9.578125 C63.6744792,10.4166667 63.6015625,11.0182292 63.4921875,11.3828125 C64.0026042,12.0026042 64.3854167,12.3489583 64.640625,12.421875 Z" id="path-1"></path>
    </defs>
    <g id="页面-1" stroke="none" stroke-width="1" fill="none" fill-rule="evenodd">
        <g id="画板" transform="translate(-68.000000, -52.000000)">
            <g id="方正北魏体" transform="translate(68.000000, 52.000000)">
                <g transform="translate(5.000000, 6.000000)" fill-rule="nonzero">
                    <g>
                        <use fill="#000000" xlink:href="#path-1"></use>
                        <use fill="#333333" xlink:href="#path-1"></use>
                    </g>
                </g>
                <rect id="矩形" stroke-opacity="0" stroke="#979797" x="0.5" y="0.5" width="79" height="23"></rect>
            </g>
        </g>
    </g>
</svg>