<?xml version="1.0" encoding="UTF-8"?>
<svg width="80px" height="24px" viewBox="0 0 80 24" version="1.1" xmlns="http://www.w3.org/2000/svg" xmlns:xlink="http://www.w3.org/1999/xlink">
    <title>方正复古体</title>
    <defs>
        <path d="M0.966,9.748 C0.994,9.748 1.19933333,9.706 1.582,9.622 C1.946,9.52866667 2.24,9.44 2.464,9.356 C3.57466667,8.80533333 4.41466667,8.166 4.984,7.438 C5.544,6.69133333 5.93133333,5.898 6.146,5.058 L6.146,5.058 L6.272,4.526 L9.506,4.526 L9.506,8.39 L7.126,7.914 L9.534,9.622 C9.88866667,9.64066667 10.2806667,9.636 10.71,9.608 C11.1486667,9.58 11.5266667,9.44 11.844,9.188 C12.152,8.936 12.32,8.46933333 12.348,7.788 L12.348,7.788 L12.348,4.568 L12.642,4.204 L10.934,3.616 L10.346,4.092 L6.356,4.092 C6.44,3.66266667 6.50533333,3.224 6.552,2.776 L6.552,2.776 L12.824,2.776 L13.398,2.328 L11.886,1.74 L11.186,2.356 L8.106,2.356 L9.534,1.11 C9.27266667,1.11933333 9.06266667,1.11 8.904,1.082 C8.36266667,0.858 7.896,0.718 7.504,0.662 C7.10266667,0.606 6.52866667,0.578 5.782,0.578 L5.782,0.578 L4.816,0.578 C4.86266667,0.596666667 4.97,0.666666667 5.138,0.788 C5.21266667,0.844 5.27333333,0.890666667 5.32,0.928 L5.32,0.928 L6.16,1.544 L6.874,2.076 L7.252,2.356 L0.84,2.356 L1.498,2.958 L1.932,2.776 L3.71,2.776 C3.682,3.37333333 3.62133333,4.05 3.528,4.806 C3.388,5.674 3.13133333,6.542 2.758,7.41 C2.366,8.278 1.76866667,9.05733333 0.966,9.748 Z M15.26,9.44 L15.68,9.258 L26.768,9.258 L27.342,8.824 L25.83,8.222 L25.13,8.838 L23.03,8.838 L23.03,4.344 L26.152,4.344 L26.74,3.91 L25.214,3.308 L24.528,3.924 L23.03,3.924 L23.03,1.46 L26.67,1.46 L27.244,1.026 L25.732,0.438 L25.032,1.054 L14.686,1.054 L15.344,1.656 L15.778,1.46 L20.188,1.46 L20.188,8.838 L18.886,8.838 L18.886,3.742 L19.068,3.322 L16.086,2.846 L16.086,8.838 L14.602,8.838 L15.26,9.44 Z M39.9,9.888 C39.9,9.86 39.9373333,9.748 40.012,9.552 C40.0773333,9.356 40.166,9.21133333 40.278,9.118 C40.418,8.99666667 40.6,8.824 40.824,8.6 L40.824,8.6 L41.202,8.222 C41.1926667,8.222 41.1413333,8.21733333 41.048,8.208 C40.8146667,8.18933333 40.5953333,8.17066667 40.39,8.152 C40.2593333,8.14266667 40.054,8.124 39.774,8.096 C39.2326667,8.04 38.8033333,7.99333333 38.486,7.956 C38.2713333,7.93733333 38.0566667,7.914 37.842,7.886 C38.5233333,7.56866667 39.242,7.13 39.998,6.57 L39.998,6.57 L40.824,6.416 L38.99,5.366 L38.038,5.996 L33.124,5.996 C33.1613333,5.94933333 33.2173333,5.87466667 33.292,5.772 C33.3293333,5.72533333 33.3573333,5.688 33.376,5.66 L33.376,5.66 L33.782,5.534 L33.348,5.352 L33.348,4.89 L37.506,4.89 L40.054,5.548 L40.054,3.252 L40.362,2.832 L38.626,2.216 L37.87,2.874 L33.18,2.874 L31.682,2.636 C31.822,2.468 31.9573333,2.29533333 32.088,2.118 L32.088,2.118 L40.782,2.118 L41.384,1.67 L39.816,1.082 L39.088,1.698 L32.368,1.698 C32.452,1.57666667 32.5313333,1.446 32.606,1.306 L32.606,1.306 L33.026,1.124 L30.17,0.424 C30.17,0.452 30.1653333,0.475333333 30.156,0.494 C30.1186667,0.615333333 30.0906667,0.727333333 30.072,0.83 L30.072,0.83 L29.834,1.712 C29.75,2.02933333 29.6706667,2.3 29.596,2.524 C29.3533333,3.17733333 29.12,3.728 28.896,4.176 L28.896,4.176 L28.518,4.876 C28.546,4.876 28.7326667,4.78266667 29.078,4.596 C29.19,4.54 29.274,4.498 29.33,4.47 C29.6473333,4.29266667 30.002,4.064 30.394,3.784 L30.394,3.784 L30.394,4.624 L30.072,5.198 L30.94,5.268 L30.786,5.674 C30.6646667,5.982 30.5526667,6.23866667 30.45,6.444 C30.142,7.04133333 29.8526667,7.55 29.582,7.97 L29.582,7.97 L29.134,8.614 C29.162,8.614 29.428,8.516 29.932,8.32 C30.436,8.124 31.0146667,7.81133333 31.668,7.382 C31.8826667,7.23266667 32.0926667,7.06933333 32.298,6.892 C32.6806667,7.20933333 33.2266667,7.55466667 33.936,7.928 L33.936,7.928 L33.922,7.928 C33.3433333,8.21733333 32.69,8.502 31.962,8.782 C31.7753333,8.84733333 31.5093333,8.94533333 31.164,9.076 C30.6226667,9.28133333 30.2353333,9.426 30.002,9.51 L30.002,9.51 L29.12,9.804 C29.2413333,9.81333333 29.68,9.79 30.436,9.734 C31.192,9.678 32.1253333,9.54733333 33.236,9.342 C34.0293333,9.19266667 34.8506667,8.98733333 35.7,8.726 C36.82,9.146 38.22,9.53333333 39.9,9.888 Z M37.128,3.714 L33.348,3.714 L33.348,3.28 L37.128,3.28 L37.128,3.714 Z M37.128,4.484 L33.348,4.484 L33.348,4.078 L37.128,4.078 L37.128,4.484 Z M34.916,7.382 L34.524,7.256 C33.8146667,7.004 33.208,6.75666667 32.704,6.514 L32.704,6.514 L32.676,6.514 L32.718,6.472 L36.218,6.472 C36.1993333,6.48133333 36.1433333,6.52333333 36.05,6.598 C35.9286667,6.70066667 35.8213333,6.78466667 35.728,6.85 C35.5226667,6.99933333 35.252,7.17666667 34.916,7.382 L34.916,7.382 Z M46.536,9.636 L46.536,8.992 L51.898,8.992 L54.292,9.552 L54.292,4.918 L54.684,4.372 L53.018,3.756 L52.388,4.316 L50.358,4.316 L50.358,2.622 L54.838,2.622 L55.426,2.188 L53.914,1.586 L53.214,2.202 L50.358,2.202 L50.358,1.376 L50.54,0.956 L47.572,0.494 L47.572,2.202 L42.686,2.202 L43.33,2.804 L43.764,2.622 L47.572,2.622 L47.572,4.316 L46.368,4.316 L43.694,3.854 L43.694,8.53 L43.386,9.398 L46.536,9.636 Z M51.478,8.586 L46.536,8.586 L46.536,4.736 L51.478,4.736 L51.478,8.586 Z M60.662,9.608 L60.662,9.342 C60.6713333,9.33266667 60.6946667,9.314 60.732,9.286 C60.8906667,9.18333333 61.026,9.08533333 61.138,8.992 C61.4086667,8.78666667 61.7213333,8.45066667 62.076,7.984 L62.076,7.984 L62.566,8.432 L63,8.236 L63.504,8.236 L63.504,9.608 L66.136,9.608 L66.136,8.236 L67.032,8.236 L67.242,8.082 C67.3166667,8.278 67.3773333,8.42266667 67.424,8.516 C67.452,8.58133333 67.4706667,8.628 67.48,8.656 L67.48,8.656 L67.424,9.3 L69.314,7.312 L68.908,6.738 L68.082,5.59 L67.508,4.778 C67.34,4.526 67.1346667,4.19 66.892,3.77 C66.668,3.39666667 66.486,3.07933333 66.346,2.818 L66.346,2.818 L68.866,2.818 L69.398,2.37 L68.096,1.782 L67.368,2.398 L66.136,2.398 L66.136,1.348 L66.318,0.984 L63.504,0.466 L63.504,2.398 L60.354,2.398 L60.956,3 L61.348,2.818 L62.118,2.818 L61.992,3.658 C61.88,4.32066667 61.7913333,4.81066667 61.726,5.128 C61.67,5.408 61.628,5.618 61.6,5.758 C61.4786667,6.318 61.334,6.878 61.166,7.438 C60.998,7.998 60.8486667,8.46466667 60.718,8.838 L60.718,8.838 L60.662,8.978 L60.662,4.05 L60.83,3.63 L59.276,3.336 C59.752,2.76666667 60.1813333,2.146 60.564,1.474 L60.564,1.474 L61.166,1.25 L58.128,0.382 C58.1093333,0.41 58.058,0.606 57.974,0.97 L57.974,0.97 L57.68,2.146 C57.6613333,2.22066667 57.6333333,2.31866667 57.596,2.44 C57.512,2.72933333 57.4653333,2.91133333 57.456,2.986 L57.456,2.986 L57.134,3.966 C57.0686667,4.134 56.9753333,4.37666667 56.854,4.694 C56.7793333,4.90866667 56.7233333,5.06266667 56.686,5.156 C56.6393333,5.268 56.588,5.39866667 56.532,5.548 C56.4853333,5.66 56.462,5.72066667 56.462,5.73 L56.462,5.73 L56.714,5.59 L57.092,5.366 C57.4,5.15133333 57.694,4.92266667 57.974,4.68 L57.974,4.68 L57.974,9.608 L60.662,9.608 Z M67.032,7.508 L66.472,7.2 L66.136,7.508 L66.136,2.818 C66.2293333,3.81666667 66.3786667,4.81066667 66.584,5.8 C66.696,6.36933333 66.8453333,6.93866667 67.032,7.508 L67.032,7.508 Z M63.504,7.83 L62.188,7.83 L62.566,7.298 C62.8833333,6.81266667 63.196,6.19666667 63.504,5.45 L63.504,5.45 L63.504,7.83 Z" id="path-1"></path>
    </defs>
    <g id="页面-1" stroke="none" stroke-width="1" fill="none" fill-rule="evenodd">
        <g id="画板" transform="translate(-68.000000, -103.000000)">
            <g id="方正复古体" transform="translate(68.000000, 103.000000)">
                <rect id="矩形备份-12" stroke-opacity="0" stroke="#979797" x="0.5" y="0.5" width="79" height="23"></rect>
                <g transform="translate(5.000000, 7.000000)" fill-rule="nonzero">
                    <g>
                        <use fill="#000000" xlink:href="#path-1"></use>
                        <use fill="#333333" xlink:href="#path-1"></use>
                    </g>
                </g>
            </g>
        </g>
    </g>
</svg>