<?xml version="1.0" encoding="UTF-8"?>
<svg width="80px" height="24px" viewBox="0 0 80 24" version="1.1" xmlns="http://www.w3.org/2000/svg" xmlns:xlink="http://www.w3.org/1999/xlink">
    <title>编组 71</title>
    <g id="页面-1" stroke="none" stroke-width="1" fill="none" fill-rule="evenodd">
        <g id="操作调整" transform="translate(-2093.000000, -2719.000000)">
            <g id="编组-71" transform="translate(2093.000000, 2719.000000)">
                <path d="M12.188,18.236 C12.5426667,18.1986667 12.8553333,18.0446667 13.126,17.774 C13.406,17.5033333 13.6766667,17.242 13.938,16.99 C13.9753333,16.9526667 14.0453333,16.8453333 14.148,16.668 C14.26,16.4906667 14.358,16.3646667 14.442,16.29 L14.47168,16.26032 C14.5134933,16.21104 14.5642667,16.1229333 14.624,15.996 L14.673,15.898 C14.722,15.807 14.771,15.737 14.82,15.688 L14.82,15.688 L15.576,14.092 C15.5946667,14.0266667 15.646,13.9286667 15.73,13.798 C15.8046667,13.686 15.8513333,13.588 15.87,13.504 C15.926,13.392 15.9726667,13.2753333 16.01,13.154 C16.0473333,13.042 16.1313333,12.9533333 16.262,12.888 C16.2713333,12.6826667 16.192,12.5053333 16.024,12.356 C15.856,12.1973333 15.7066667,12.0293333 15.576,11.852 C15.3333333,11.6093333 15.058,11.46 14.75,11.404 C14.7126667,11.376 14.652,11.348 14.568,11.32 C14.456,11.292 14.3813333,11.2546667 14.344,11.208 C14.2506667,11.152 14.1713333,11.18 14.106,11.292 C14.0406667,11.3106667 13.9893333,11.3386667 13.952,11.376 C13.8586667,11.4133333 13.4853333,11.5813333 12.832,11.88 L12.832,11.88 L12.972,11.712 C13.084,11.5813333 13.2053333,11.46 13.336,11.348 C13.4573333,11.2266667 13.532,11.096 13.56,10.956 C13.532,10.8813333 13.4993333,10.8066667 13.462,10.732 C13.378,10.6573333 13.2893333,10.5826667 13.196,10.508 C13.7186667,10.3026667 14.1526667,10.1626667 14.498,10.088 C14.554,10.144 14.6146667,10.1626667 14.68,10.144 C14.6706667,10.1066667 14.68,10.0786667 14.708,10.06 C14.736,10.0413333 14.7733333,10.0366667 14.82,10.046 C14.848,10.074 14.876,10.0693333 14.904,10.032 C14.932,9.98533333 14.9646667,9.97133333 15.002,9.99 C15.0393333,9.962 15.0626667,9.95266667 15.072,9.962 C15.072,9.99 15.044,10.018 14.988,10.046 C14.988,10.0646667 14.9926667,10.074 15.002,10.074 C15.03,10.0646667 15.0533333,10.06 15.072,10.06 C15.0813333,10.06 15.086,10.074 15.086,10.102 C15.0766667,10.1393333 15.058,10.1673333 15.03,10.186 C15.03,10.1953333 15.044,10.2093333 15.072,10.228 C15.072,10.2653333 15.058,10.2886667 15.03,10.298 C15.0113333,10.3166667 15.016,10.3353333 15.044,10.354 C15.0906667,10.326 15.1373333,10.2933333 15.184,10.256 C15.2213333,10.2186667 15.2726667,10.2186667 15.338,10.256 C15.45,10.2 15.5993333,10.1533333 15.786,10.116 C15.814,10.088 15.8466667,10.074 15.884,10.074 C15.9213333,10.0646667 15.94,10.0413333 15.94,10.004 C16.0706667,10.06 16.1826667,10.074 16.276,10.046 C16.304,10.0553333 16.3506667,10.046 16.416,10.018 C16.4813333,9.98066667 16.5373333,9.97133333 16.584,9.99 C16.668,9.97133333 16.8173333,9.92 17.032,9.836 C17.284,9.73333333 17.4846667,9.67733333 17.634,9.668 C17.69,9.65866667 17.7553333,9.64 17.83,9.612 C17.8953333,9.584 17.9606667,9.598 18.026,9.654 C18.082,9.67266667 18.138,9.66333333 18.194,9.626 C18.2593333,9.57933333 18.2966667,9.52333333 18.306,9.458 C18.306,9.35533333 18.278,9.25733333 18.222,9.164 C18.1566667,9.06133333 18.0913333,8.96333333 18.026,8.87 C17.7086667,8.63666667 17.2793333,8.24 16.738,7.68 C16.7286667,7.74533333 16.7473333,7.84333333 16.794,7.974 C16.8406667,8.086 16.8546667,8.17 16.836,8.226 C16.7893333,8.24466667 16.7426667,8.25866667 16.696,8.268 C16.64,8.27733333 16.598,8.30533333 16.57,8.352 C16.5326667,8.37066667 16.4906667,8.37533333 16.444,8.366 C16.3693333,8.35666667 16.3273333,8.37066667 16.318,8.408 C16.2433333,8.39866667 16.136,8.41733333 15.996,8.464 C15.8653333,8.51066667 15.7626667,8.534 15.688,8.534 C14.8853333,8.76733333 14.0686667,9.01933333 13.238,9.29 C13.2286667,9.24333333 13.2426667,9.15466667 13.28,9.024 C13.308,8.92133333 13.322,8.83266667 13.322,8.758 C13.4153333,8.49666667 13.4526667,8.282 13.434,8.114 C13.434,7.946 13.448,7.84333333 13.476,7.806 C13.56,7.75933333 13.5833333,7.69866667 13.546,7.624 C13.5086667,7.55866667 13.4713333,7.498 13.434,7.442 C13.3593333,7.37666667 13.238,7.316 13.07,7.26 C12.874,7.19466667 12.7386667,7.11533333 12.664,7.022 C12.5986667,7.04066667 12.5006667,7.01266667 12.37,6.938 C12.2486667,6.87266667 12.16,6.84 12.104,6.84 C11.9173333,6.77466667 11.726,6.70466667 11.53,6.63 L11.53,6.63 L10.984,6.532 C10.9653333,6.57866667 11.0073333,6.63 11.11,6.686 C11.194,6.73266667 11.2453333,6.77 11.264,6.798 C11.376,6.854 11.4506667,6.90533333 11.488,6.952 C11.5533333,7.036 11.572,7.12933333 11.544,7.232 C11.5626667,7.54 11.4973333,7.74533333 11.348,7.848 C11.32,7.86666667 11.3106667,7.89466667 11.32,7.932 C11.3293333,7.96 11.3106667,7.97866667 11.264,7.988 C11.2266667,8.08133333 11.1706667,8.156 11.096,8.212 C11.068,8.28666667 10.9886667,8.38 10.858,8.492 C10.7646667,8.56666667 10.6946667,8.63666667 10.648,8.702 C10.676,8.758 10.6666667,8.8 10.62,8.828 C10.592,8.84666667 10.55,8.856 10.494,8.856 C10.4286667,9.01466667 10.382,9.10333333 10.354,9.122 C10.298,9.16866667 10.2793333,9.20133333 10.298,9.22 C10.3633333,9.23866667 10.438,9.19666667 10.522,9.094 C10.5593333,9.122 10.6106667,9.108 10.676,9.052 C10.732,8.996 10.7786667,8.99133333 10.816,9.038 C10.816,9.066 10.8533333,9.04733333 10.928,8.982 C10.984,8.926 11.0166667,8.93066667 11.026,8.996 C11.0446667,9.00533333 11.068,9.00066667 11.096,8.982 C11.1053333,8.99133333 11.1053333,9.01 11.096,9.038 C11.1333333,9.04733333 11.1753333,9.04266667 11.222,9.024 C11.2686667,9.00533333 11.3106667,9.024 11.348,9.08 C11.488,8.996 11.614,9.01466667 11.726,9.136 C11.8286667,9.25733333 11.9313333,9.36466667 12.034,9.458 C12.174,9.53266667 12.244,9.598 12.244,9.654 C11.7213333,9.878 11.2033333,10.0786667 10.69,10.256 C10.4286667,10.3773333 10.172,10.466 9.92,10.522 C9.65866667,10.634 9.39733333,10.7413333 9.136,10.844 C9.136,10.8813333 9.108,10.8953333 9.052,10.886 C9.00533333,10.8766667 8.96333333,10.9 8.926,10.956 L8.926,10.956 L8.212,11.236 C8.128,11.2733333 8.03933333,11.3106667 7.946,11.348 C7.834,11.3946667 7.71733333,11.4506667 7.596,11.516 C7.46533333,11.572 7.33466667,11.5953333 7.204,11.586 C6.98933333,11.7073333 6.76066667,11.81 6.518,11.894 C6.434,11.81 6.35466667,11.726 6.28,11.642 C6.20533333,11.558 6.112,11.4973333 6,11.46 C6.09333333,11.628 6.17733333,11.8193333 6.252,12.034 C6.34533333,12.314 6.406,12.5333333 6.434,12.692 C6.63,13.0373333 6.83533333,13.1913333 7.05,13.154 C7.98333333,12.6313333 8.76733333,12.244 9.402,11.992 C9.86866667,11.7773333 10.3446667,11.5813333 10.83,11.404 C11.0073333,11.32 11.1473333,11.2826667 11.25,11.292 L11.25,11.292 L11.236,11.306 L11.502,11.194 L11.194,11.572 C11.2033333,11.6186667 11.166,11.6886667 11.082,11.782 C11.026,11.8473333 10.9886667,11.9033333 10.97,11.95 C10.802,12.118 10.718,12.2346667 10.718,12.3 C10.6713333,12.2906667 10.62,12.3326667 10.564,12.426 C10.5173333,12.5006667 10.48,12.5473333 10.452,12.566 C10.312,12.7713333 10.242,12.8926667 10.242,12.93 C10.214,12.9486667 10.186,12.9813333 10.158,13.028 C10.13,13.0746667 10.0926667,13.084 10.046,13.056 C9.99933333,13.1306667 9.962,13.2006667 9.934,13.266 C9.906,13.3313333 9.85933333,13.3686667 9.794,13.378 C9.78466667,13.462 9.74266667,13.5506667 9.668,13.644 C9.612,13.7 9.55133333,13.7513333 9.486,13.798 C9.43,13.8446667 9.38333333,13.91 9.346,13.994 C9.374,14.05 9.36933333,14.0826667 9.332,14.092 C9.26666667,14.0826667 9.21066667,14.1153333 9.164,14.19 C9.08,14.3486667 8.982,14.3813333 8.87,14.288 C8.99133333,14.0826667 9.01,13.9566667 8.926,13.91 L8.926,13.91 L8.954,13.742 C8.898,13.7326667 8.85133333,13.7606667 8.814,13.826 C8.786,13.882 8.75333333,13.9286667 8.716,13.966 C8.52,14.2366667 8.39866667,14.4373333 8.352,14.568 C8.268,14.6706667 8.16066667,14.8713333 8.03,15.17 C8.03933333,15.2166667 8.016,15.2493333 7.96,15.268 C7.91333333,15.2866667 7.89,15.31 7.89,15.338 C7.834,15.3846667 7.82933333,15.4266667 7.876,15.464 C7.91333333,15.5106667 7.932,15.5526667 7.932,15.59 C7.988,15.6926667 8.05333333,15.8 8.128,15.912 C8.156,16.0146667 8.198,16.0893333 8.254,16.136 C8.366,16.2666667 8.49666667,16.3553333 8.646,16.402 C8.83266667,16.458 8.982,16.416 9.094,16.276 C9.094,16.22 9.14066667,16.164 9.234,16.108 C9.33666667,16.0426667 9.39733333,15.9773333 9.416,15.912 C9.68666667,15.66 10.0646667,15.2353333 10.55,14.638 C10.914,14.19 11.194,13.8633333 11.39,13.658 C11.6513333,13.3406667 11.908,13.0186667 12.16,12.692 C12.188,12.7853333 12.2346667,12.8506667 12.3,12.888 C12.5613333,13.1306667 12.86,13.1586667 13.196,12.972 L13.196,12.972 L14.414,12.384 C14.4513333,12.3746667 14.4746667,12.384 14.484,12.412 C14.5026667,12.4493333 14.498,12.482 14.47,12.51 C14.4513333,12.5286667 14.4373333,12.5613333 14.428,12.608 C14.4186667,12.664 14.3953333,12.6966667 14.358,12.706 C14.386,12.762 14.3766667,12.8273333 14.33,12.902 C14.2926667,12.9673333 14.2646667,13.028 14.246,13.084 C14.1433333,13.336 14.0406667,13.5833333 13.938,13.826 C13.9006667,13.854 13.8773333,13.896 13.868,13.952 C13.8586667,13.9986667 13.8353333,14.0313333 13.798,14.05 C13.658,14.3673333 13.5086667,14.6846667 13.35,15.002 C13.1913333,15.3193333 12.9953333,15.6133333 12.762,15.884 C12.7526667,15.9306667 12.7106667,15.9913333 12.636,16.066 C12.5706667,16.122 12.5286667,16.1686667 12.51,16.206 C12.202,16.43 11.8706667,16.4953333 11.516,16.402 C11.1613333,16.2993333 10.886,16.108 10.69,15.828 C10.6246667,15.6786667 10.5453333,15.5526667 10.452,15.45 C10.4426667,15.3753333 10.4053333,15.31 10.34,15.254 C10.312,15.2446667 10.2933333,15.2633333 10.284,15.31 C10.2933333,15.3846667 10.3166667,15.4686667 10.354,15.562 C10.3913333,15.6553333 10.4053333,15.7533333 10.396,15.856 L10.396,15.856 L10.396,16.15 C10.452,16.2153333 10.5126667,16.3273333 10.578,16.486 C10.634,16.6353333 10.6853333,16.7426667 10.732,16.808 C10.8346667,17.06 11.0026667,17.3073333 11.236,17.55 C11.3013333,17.6433333 11.3946667,17.732 11.516,17.816 C11.6093333,17.928 11.7166667,18.012 11.838,18.068 C11.9593333,18.124 12.076,18.18 12.188,18.236 Z M9.906,13.658 C9.85,13.6486667 9.85933333,13.5973333 9.934,13.504 C9.97133333,13.4666667 9.98066667,13.4386667 9.962,13.42 C9.962,13.4013333 10.004,13.378 10.088,13.35 C10.1066667,13.3406667 10.102,13.3266667 10.074,13.308 C10.1113333,13.2986667 10.1253333,13.2706667 10.116,13.224 C10.1066667,13.1773333 10.1113333,13.1493333 10.13,13.14 C10.158,13.168 10.186,13.1586667 10.214,13.112 C10.242,13.056 10.27,13.028 10.298,13.028 C10.298,13 10.3166667,12.958 10.354,12.902 C10.3353333,12.9206667 10.312,12.916 10.284,12.888 C10.312,12.8506667 10.3353333,12.8413333 10.354,12.86 C10.3633333,12.86 10.368,12.8693333 10.368,12.888 C10.424,12.8413333 10.4753333,12.79 10.522,12.734 L10.522,12.734 L10.578,12.706 C10.5966667,12.6966667 10.6106667,12.6966667 10.62,12.706 C10.6386667,12.762 10.6106667,12.8086667 10.536,12.846 C10.3866667,13.042 10.2326667,13.238 10.074,13.434 C10.074,13.4526667 10.046,13.49 9.99,13.546 C9.94333333,13.5926667 9.91533333,13.63 9.906,13.658 Z M20.854,17.55 C20.9566667,17.6246667 21.0593333,17.6293333 21.162,17.564 C21.2646667,17.508 21.372,17.466 21.484,17.438 C21.5866667,17.4286667 21.7173333,17.3913333 21.876,17.326 C22.072,17.2513333 22.226,17.2093333 22.338,17.2 C22.6553333,17.144 22.968,17.0833333 23.276,17.018 L23.276,17.018 L23.64,16.962 C23.8266667,16.8966667 24.1113333,16.8406667 24.494,16.794 C24.55,16.8033333 24.6106667,16.794 24.676,16.766 C24.7413333,16.738 24.788,16.7286667 24.816,16.738 C25.2733333,16.6633333 25.5346667,16.6166667 25.6,16.598 C25.9266667,16.5326667 26.2533333,16.486 26.58,16.458 C26.7106667,16.402 26.8973333,16.374 27.14,16.374 C27.56,16.318 27.98,16.2573333 28.4,16.192 C28.7173333,16.1546667 29.0346667,16.1173333 29.352,16.08 C29.408,16.0986667 29.3986667,16.1266667 29.324,16.164 C29.24,16.192 29.2073333,16.234 29.226,16.29 L29.226,16.29 L29.086,16.29 C29.0673333,16.29 29.0626667,16.3086667 29.072,16.346 C28.9693333,16.3646667 28.8806667,16.416 28.806,16.5 C28.722,16.5653333 28.6333333,16.6306667 28.54,16.696 L28.54,16.696 L28.372,16.752 C28.3346667,16.752 28.3206667,16.7706667 28.33,16.808 C28.3486667,16.8546667 28.33,16.8826667 28.274,16.892 C28.2366667,16.9293333 28.218,16.9526667 28.218,16.962 C28.246,16.9713333 28.288,16.9573333 28.344,16.92 C28.3906667,16.9573333 28.358,17.0086667 28.246,17.074 C28.1806667,17.1113333 28.1713333,17.1393333 28.218,17.158 C28.3486667,17.0833333 28.4793333,17.004 28.61,16.92 C28.6473333,16.9946667 28.694,17.0086667 28.75,16.962 C28.7966667,16.9246667 28.8386667,16.9106667 28.876,16.92 C28.9133333,16.9293333 28.974,16.92 29.058,16.892 C29.0766667,16.864 29.0906667,16.8546667 29.1,16.864 C29.1,16.892 29.1093333,16.92 29.128,16.948 C29.1373333,16.948 29.1513333,16.9386667 29.17,16.92 L29.17,16.92 L29.464,16.92 C29.492,16.948 29.5386667,16.948 29.604,16.92 C29.6693333,16.892 29.7113333,16.8826667 29.73,16.892 C29.8046667,16.864 29.8746667,16.836 29.94,16.808 C30.0146667,16.7706667 30.0846667,16.766 30.15,16.794 C30.3833333,16.738 30.6166667,16.6773333 30.85,16.612 C30.9993333,16.5373333 31.1626667,16.486 31.34,16.458 C31.4986667,16.374 31.5873333,16.3273333 31.606,16.318 C31.7273333,16.2713333 31.8253333,16.2806667 31.9,16.346 L31.9455,16.3759444 C32.0193889,16.413537 32.0835556,16.3895556 32.138,16.304 C32.2033333,16.2106667 32.2126667,16.1173333 32.166,16.024 C32.1193333,15.912 32.012,15.758 31.844,15.562 C31.6853333,15.3753333 31.5826667,15.2353333 31.536,15.142 C31.3586667,14.9366667 31.186,14.722 31.018,14.498 C30.85,14.2833333 30.6446667,14.0873333 30.402,13.91 C30.4206667,14.0593333 30.458,14.19 30.514,14.302 C30.5793333,14.4606667 30.584,14.554 30.528,14.582 C30.5093333,14.6286667 30.458,14.652 30.374,14.652 C30.2806667,14.6426667 30.206,14.6473333 30.15,14.666 C29.3566667,14.7686667 28.5306667,14.8993333 27.672,15.058 C27.5506667,15.0766667 27.4106667,15.0766667 27.252,15.058 C27.2706667,14.918 27.2893333,14.7733333 27.308,14.624 C27.3826667,14.3533333 27.4386667,14.0873333 27.476,13.826 C27.56,13.4993333 27.616,13.168 27.644,12.832 L27.644,12.832 L28.456,12.44 C28.456,12.4586667 28.4326667,12.4913333 28.386,12.538 C28.3113333,12.622 28.2786667,12.6826667 28.288,12.72 C28.26,12.7386667 28.246,12.7526667 28.246,12.762 C28.274,12.79 28.316,12.7713333 28.372,12.706 C28.3906667,12.734 28.4233333,12.734 28.47,12.706 C28.5166667,12.678 28.554,12.678 28.582,12.706 C28.6006667,12.678 28.6426667,12.6546667 28.708,12.636 C28.7546667,12.6266667 28.792,12.5986667 28.82,12.552 C28.8946667,12.58 28.946,12.5706667 28.974,12.524 C29.0673333,12.5426667 29.1466667,12.5146667 29.212,12.44 C29.2866667,12.44 29.3613333,12.4213333 29.436,12.384 L29.436,12.384 L29.436,12.44 C29.4453333,12.4493333 29.4733333,12.44 29.52,12.412 C29.5573333,12.3746667 29.6086667,12.342 29.674,12.314 C29.758,12.2766667 29.814,12.2393333 29.842,12.202 C29.9633333,12.1646667 30.08,12.1086667 30.192,12.034 C30.2946667,11.95 30.4066667,11.9313333 30.528,11.978 C30.668,11.8473333 30.6633333,11.7306667 30.514,11.628 C30.4206667,11.516 30.262,11.376 30.038,11.208 C29.8233333,11.0493333 29.674,10.9186667 29.59,10.816 C29.4686667,10.7506667 29.3566667,10.69 29.254,10.634 C29.142,10.578 29.03,10.5546667 28.918,10.564 C28.974,10.6946667 29.044,10.816 29.128,10.928 C28.82,11.1053333 28.5073333,11.2686667 28.19,11.418 C28.0966667,11.474 28.0173333,11.516 27.952,11.544 C27.9333333,11.5346667 27.9333333,11.502 27.952,11.446 L27.952,11.446 L28.246,10.214 C28.2273333,10.1206667 28.2506667,9.99466667 28.316,9.836 C28.3626667,9.70533333 28.386,9.60733333 28.386,9.542 C28.2833333,9.39266667 28.1526667,9.276 27.994,9.192 C28.6006667,8.98666667 29.212,8.79066667 29.828,8.604 C29.8933333,8.56666667 29.968,8.534 30.052,8.506 C30.1266667,8.478 30.1593333,8.422 30.15,8.338 C30.15,8.198 30.038,8.06266667 29.814,7.932 C29.73,7.81066667 29.5666667,7.67533333 29.324,7.526 C29.1373333,7.40466667 29.002,7.302 28.918,7.218 C28.7686667,7.08733333 28.6566667,7.00333333 28.582,6.966 C28.5726667,6.98466667 28.5586667,6.994 28.54,6.994 C28.5306667,6.994 28.5166667,6.98466667 28.498,6.966 C28.526,7.05 28.582,7.148 28.666,7.26 C28.694,7.316 28.666,7.35333333 28.582,7.372 C28.6006667,7.40933333 28.5586667,7.442 28.456,7.47 C28.372,7.48866667 28.3206667,7.512 28.302,7.54 C27.238,7.904 26.216,8.31 25.236,8.758 C25.208,8.76733333 25.0726667,8.82333333 24.83,8.926 C24.802,8.90733333 24.7553333,8.91666667 24.69,8.954 C24.634,8.982 24.5826667,8.996 24.536,8.996 C24.368,9.07066667 24.2,9.13133333 24.032,9.178 C23.8546667,9.22466667 23.6866667,9.29933333 23.528,9.402 C23.4906667,9.402 23.4533333,9.40666667 23.416,9.416 C23.3786667,9.416 23.3506667,9.388 23.332,9.332 L23.332,9.332 L22.94,8.814 C22.9026667,8.87 22.898,8.93533333 22.926,9.01 C22.954,9.07533333 22.9726667,9.136 22.982,9.192 L22.982,9.192 L23.626,10.536 C23.682,10.592 23.724,10.6526667 23.752,10.718 C23.78,10.774 23.8266667,10.788 23.892,10.76 C23.92,10.76 23.9713333,10.746 24.046,10.718 C24.13,10.6806667 24.1953333,10.6713333 24.242,10.69 C24.3353333,10.6433333 24.5126667,10.5686667 24.774,10.466 C25.0913333,10.3446667 25.3293333,10.228 25.488,10.116 C25.9266667,9.976 26.3606667,9.80333333 26.79,9.598 C26.79,9.86866667 26.7666667,10.1393333 26.72,10.41 C26.5986667,10.9606667 26.496,11.5066667 26.412,12.048 C26.3653333,12.1973333 26.342,12.3513333 26.342,12.51 C26.37,12.5846667 26.3653333,12.6873333 26.328,12.818 C26.2906667,12.93 26.2626667,13.0746667 26.244,13.252 C26.216,13.4853333 26.188,13.6486667 26.16,13.742 C26.104,13.7793333 26.0666667,13.8633333 26.048,13.994 C26.0293333,14.106 26.0106667,14.176 25.992,14.204 C25.9453333,14.596 25.8846667,14.9646667 25.81,15.31 C25.4086667,15.4033333 24.9,15.492 24.284,15.576 C24.2746667,15.4733333 24.312,15.2586667 24.396,14.932 C24.368,14.8386667 24.382,14.736 24.438,14.624 C24.4753333,14.4746667 24.508,14.3253333 24.536,14.176 C24.5546667,14.1293333 24.564,14.078 24.564,14.022 C24.564,13.9566667 24.5873333,13.9006667 24.634,13.854 C24.662,13.4806667 24.7086667,13.1633333 24.774,12.902 C24.8486667,12.7993333 24.844,12.6966667 24.76,12.594 C24.7226667,12.5473333 24.6386667,12.4773333 24.508,12.384 C24.368,12.3466667 24.2793333,12.3 24.242,12.244 C24.1953333,12.2533333 24.116,12.2253333 24.004,12.16 L23.938375,12.12325 C23.877125,12.09175 23.829,12.076 23.794,12.076 C23.6166667,12.02 23.4346667,11.9733333 23.248,11.936 C23.192,11.936 23.136,11.9313333 23.08,11.922 C23.0146667,11.9033333 22.968,11.922 22.94,11.978 C23.0333333,12.0526667 23.1453333,12.1273333 23.276,12.202 C23.3973333,12.2673333 23.4393333,12.37 23.402,12.51 C23.4393333,12.6126667 23.4486667,12.7153333 23.43,12.818 C23.402,12.9206667 23.388,13.0233333 23.388,13.126 C23.36,13.3873333 23.332,13.6486667 23.304,13.91 L23.304,13.91 L23.108,14.89 C23.1173333,15.0393333 23.1033333,15.1886667 23.066,15.338 C23.0286667,15.478 23.0006667,15.6226667 22.982,15.772 C22.926,15.828 22.856,15.856 22.772,15.856 C22.688,15.8653333 22.6086667,15.8793333 22.534,15.898 C22.31,15.954 22.0906667,15.9866667 21.876,15.996 C21.5866667,16.0706667 21.2926667,16.1453333 20.994,16.22 C20.854,16.248 20.714,16.2713333 20.574,16.29 C20.5273333,16.2246667 20.4806667,16.1546667 20.434,16.08 C20.3873333,16.0053333 20.3266667,15.968 20.252,15.968 C20.3266667,16.304 20.4246667,16.6306667 20.546,16.948 C20.6113333,17.1626667 20.714,17.3633333 20.854,17.55 Z M40.888,17.242 C41.0746667,17.2326667 41.1866667,17.2233333 41.224,17.214 C41.364,17.186 41.4806667,17.1346667 41.574,17.06 C41.5926667,17.0693333 41.63,17.046 41.686,16.99 C41.742,16.934 41.7886667,16.9106667 41.826,16.92 C41.8726667,16.8266667 41.9193333,16.7286667 41.966,16.626 C42.0593333,16.486 42.12,16.3413333 42.148,16.192 C42.1853333,16.052 42.2273333,15.9073333 42.274,15.758 C42.386,15.31 42.4746667,14.8526667 42.54,14.386 C42.54,14.3113333 42.5586667,14.1946667 42.596,14.036 C42.6613333,13.8026667 42.6706667,13.6393333 42.624,13.546 C42.512,13.4153333 42.3766667,13.2986667 42.218,13.196 L42.218,13.196 L42.848,12.888 C42.932,12.8973333 43.0113333,12.9066667 43.086,12.916 C43.1793333,12.8786667 43.254,12.8086667 43.31,12.706 C43.31,12.678 43.3473333,12.6546667 43.422,12.636 C43.4873333,12.6173333 43.5153333,12.5846667 43.506,12.538 C43.5433333,12.426 43.6086667,12.328 43.702,12.244 C43.8513333,12.0106667 44.0006667,11.768 44.15,11.516 C44.3086667,11.264 44.4673333,11.0446667 44.626,10.858 L44.626,10.858 L45.116,10.48 C45.0413333,10.2373333 44.878,10.018 44.626,9.822 C44.3833333,9.626 44.1266667,9.50466667 43.856,9.458 L43.856,9.458 L43.8,9.458 C43.7906667,9.43933333 43.7953333,9.416 43.814,9.388 C43.8326667,9.36 43.856,9.35066667 43.884,9.36 C43.912,9.39733333 43.9726667,9.36466667 44.066,9.262 C44.1033333,9.234 44.136,9.21533333 44.164,9.206 C44.192,9.18733333 44.2293333,9.18733333 44.276,9.206 C44.332,9.234 44.3786667,9.21533333 44.416,9.15 C44.5093333,9.15 44.584,9.12666667 44.64,9.08 C44.8173333,8.996 44.9946667,8.90733333 45.172,8.814 L45.172,8.814 L45.662,8.576 C45.6993333,8.58533333 45.746,8.58066667 45.802,8.562 C45.8486667,8.534 45.886,8.55266667 45.914,8.618 C45.998,8.58066667 46.0726667,8.55266667 46.138,8.534 C46.2033333,8.51533333 46.2173333,8.464 46.18,8.38 C46.1613333,8.27733333 46.1146667,8.198 46.04,8.142 C45.956,8.07666667 45.8813333,8.016 45.816,7.96 C45.62,7.81066667 45.4333333,7.66133333 45.256,7.512 C45.0693333,7.36266667 44.8733333,7.25533333 44.668,7.19 C44.612,7.23666667 44.6073333,7.28333333 44.654,7.33 C44.71,7.37666667 44.752,7.42333333 44.78,7.47 C44.8266667,7.56333333 44.8033333,7.62866667 44.71,7.666 C44.6166667,7.70333333 44.5326667,7.736 44.458,7.764 L44.458,7.764 L42.932,8.506 C42.9226667,8.43133333 42.9506667,8.296 43.016,8.1 C43.072,7.932 43.1046667,7.80133333 43.114,7.708 C43.2353333,7.512 43.2166667,7.358 43.058,7.246 C43.03,7.17133333 42.974,7.11533333 42.89,7.078 C42.806,7.04066667 42.736,6.99866667 42.68,6.952 C42.5213333,6.88666667 42.358,6.84466667 42.19,6.826 C41.9846667,6.76066667 41.7606667,6.70933333 41.518,6.672 C41.434,6.60666667 41.2566667,6.56466667 40.986,6.546 C40.9766667,6.61133333 41.0046667,6.658 41.07,6.686 C41.1353333,6.714 41.1913333,6.742 41.238,6.77 C41.294,6.826 41.3733333,6.87733333 41.476,6.924 C41.5693333,6.97066667 41.5786667,7.04533333 41.504,7.148 C41.4946667,7.26933333 41.4806667,7.386 41.462,7.498 C41.434,7.60066667 41.3733333,7.69866667 41.28,7.792 C41.2146667,7.97866667 41.182,8.08133333 41.182,8.1 L41.182,8.1 L40.902,8.548 C40.9486667,8.548 40.9906667,8.52933333 41.028,8.492 C41.056,8.47333333 41.0793333,8.48733333 41.098,8.534 C41.1166667,8.534 41.1493333,8.51533333 41.196,8.478 C41.252,8.43133333 41.308,8.41266667 41.364,8.422 C41.4013333,8.37533333 41.4433333,8.35666667 41.49,8.366 C41.5366667,8.37533333 41.588,8.38466667 41.644,8.394 L41.644,8.394 L42.176,8.856 C41.8866667,9.00533333 41.644,9.11266667 41.448,9.178 C41.2146667,9.318 40.986,9.43933333 40.762,9.542 C40.6686667,9.58866667 40.5706667,9.63066667 40.468,9.668 C39.9266667,9.92933333 39.586,10.102 39.446,10.186 C39.3433333,10.2606667 39.236,10.3166667 39.124,10.354 C38.9373333,10.5126667 38.8253333,10.5173333 38.788,10.368 C38.7506667,10.3493333 38.7133333,10.326 38.676,10.298 C38.6293333,10.27 38.592,10.2793333 38.564,10.326 C38.7506667,10.606 38.886,10.886 38.97,11.166 C39.0166667,11.3153333 39.0773333,11.4226667 39.152,11.488 C39.2453333,11.5813333 39.3433333,11.5673333 39.446,11.446 C39.9873333,11.1193333 40.5473333,10.8206667 41.126,10.55 C41.9835686,10.1151765 42.5988581,9.80344637 42.9718685,9.61480969 L43.151301,9.52412457 C43.1772018,9.51104498 43.2011003,9.4989827 43.2229965,9.48793772 L43.366,9.416 C43.4126667,9.39733333 43.4406667,9.39266667 43.45,9.402 C43.4686667,9.43 43.45,9.46733333 43.394,9.514 C43.4313333,9.542 43.464,9.56533333 43.492,9.584 C43.492,9.60266667 43.4733333,9.626 43.436,9.654 C43.268,9.74733333 43.1,9.878 42.932,10.046 C42.8573333,10.0646667 42.7593333,10.1206667 42.638,10.214 C42.5073333,10.3166667 42.414,10.3773333 42.358,10.396 L42.358,10.396 L41.63,10.886 C41.5553333,10.8953333 41.4433333,10.9513333 41.294,11.054 C41.182,11.1286667 41.1026667,11.1753333 41.056,11.194 L41.056,11.194 L40.272,11.698 C39.9826667,11.6326667 39.656,11.6186667 39.292,11.656 C39.236,11.656 39.208,11.67 39.208,11.698 C39.1986667,11.726 39.222,11.7446667 39.278,11.754 C39.3993333,11.782 39.4553333,11.8566667 39.446,11.978 C39.4273333,12.0993333 39.4226667,12.2113333 39.432,12.314 C39.3946667,12.7153333 39.3853333,13.0793333 39.404,13.406 C39.3573333,13.4153333 39.3013333,13.42 39.236,13.42 C39.208,13.4293333 39.2033333,13.462 39.222,13.518 C39.2593333,13.6953333 39.3246667,13.8633333 39.418,14.022 C39.4833333,14.1153333 39.5393333,14.204 39.586,14.288 C39.6233333,14.372 39.6933333,14.428 39.796,14.456 C39.936,14.3813333 40.0853333,14.316 40.244,14.26 C40.2906667,14.2693333 40.3466667,14.2646667 40.412,14.246 C40.4586667,14.2366667 40.4913333,14.1993333 40.51,14.134 C40.7246667,13.9566667 40.958,13.8026667 41.21,13.672 L41.21,13.672 L41.21,13.686 C41.2006667,13.8633333 41.1866667,14.036 41.168,14.204 C41.1773333,14.2973333 41.1633333,14.386 41.126,14.47 C41.1446667,14.5166667 41.14,14.5633333 41.112,14.61 C41.084,14.666 41.07,14.708 41.07,14.736 L41.07,14.736 L40.986,15.352 C40.9393333,15.52 40.888,15.688 40.832,15.856 C40.7386667,16.136 40.6173333,16.3786667 40.468,16.584 C40.468,16.6306667 40.4213333,16.6726667 40.328,16.71 C40.2533333,16.738 40.2066667,16.766 40.188,16.794 C40.1226667,16.8406667 40.048,16.8453333 39.964,16.808 C39.8613333,16.8453333 39.7586667,16.864 39.656,16.864 C39.9266667,17.0506667 40.2253333,17.1766667 40.552,17.242 L40.552,17.242 L40.888,17.242 Z M37.122,17.578 C37.1593333,17.5593333 37.206,17.55 37.262,17.55 C37.318,17.55 37.346,17.522 37.346,17.466 C37.374,17.438 37.374,17.3866667 37.346,17.312 C37.3273333,17.2373333 37.3226667,17.1813333 37.332,17.144 C37.3506667,16.9386667 37.3553333,16.7193333 37.346,16.486 L37.346,16.486 L37.388,15.968 C37.388,15.8653333 37.4113333,15.7953333 37.458,15.758 C37.5046667,15.2913333 37.5466667,14.8246667 37.584,14.358 C37.6026667,14.1246667 37.6213333,13.8913333 37.64,13.658 C37.7053333,13.266 37.766,12.8693333 37.822,12.468 C37.8126667,12.3933333 37.8266667,12.286 37.864,12.146 C37.9106667,11.9873333 37.9246667,11.866 37.906,11.782 C37.9526667,11.7166667 37.976,11.614 37.976,11.474 C37.976,11.3526667 37.9853333,11.2733333 38.004,11.236 C37.9946667,11.1986667 37.9993333,11.18 38.018,11.18 C38.0553333,11.1986667 38.102,11.2313333 38.158,11.278 C38.186,11.2873333 38.228,11.3153333 38.284,11.362 C38.3493333,11.418 38.41,11.4413333 38.466,11.432 C38.5313333,11.432 38.5873333,11.4273333 38.634,11.418 C38.6526667,11.4086667 38.6526667,11.39 38.634,11.362 C38.69,11.1846667 38.69,11.0026667 38.634,10.816 C38.5313333,10.6013333 38.4286667,10.466 38.326,10.41 C38.2793333,10.3726667 38.228,10.3446667 38.172,10.326 C38.1066667,10.298 38.0926667,10.2513333 38.13,10.186 L38.13,10.186 L38.186,9.71 C38.2606667,9.542 38.3073333,9.36933333 38.326,9.192 C38.326,9.164 38.3446667,9.12666667 38.382,9.08 C38.4193333,9.024 38.4333333,8.96333333 38.424,8.898 C38.4706667,8.74866667 38.5126667,8.59466667 38.55,8.436 C38.5686667,8.30533333 38.6013333,8.16066667 38.648,8.002 C38.6853333,7.85266667 38.6853333,7.71733333 38.648,7.596 C38.5266667,7.512 38.3446667,7.42333333 38.102,7.33 C37.8873333,7.246 37.7473333,7.18533333 37.682,7.148 C37.5233333,7.092 37.36,7.03133333 37.192,6.966 C37.1826667,6.994 37.1686667,7.00333333 37.15,6.994 C37.1313333,6.97533333 37.108,6.966 37.08,6.966 C37.0613333,7.01266667 37.0986667,7.06866667 37.192,7.134 C37.304,7.218 37.3366667,7.29733333 37.29,7.372 C37.2526667,7.652 37.2106667,7.932 37.164,8.212 C37.1266667,8.352 37.1173333,8.48733333 37.136,8.618 C37.0893333,8.65533333 37.0706667,8.73 37.08,8.842 C37.0893333,8.94466667 37.066,9.01933333 37.01,9.066 C37.038,9.10333333 37.0286667,9.21533333 36.982,9.402 C36.954,9.43 36.9493333,9.47666667 36.968,9.542 C36.9773333,9.60733333 36.9773333,9.65866667 36.968,9.696 C36.9586667,9.808 36.9446667,9.91533333 36.926,10.018 C36.898,10.0926667 36.884,10.1673333 36.884,10.242 C36.884,10.326 36.8466667,10.3866667 36.772,10.424 L36.772,10.424 L36.31,10.886 C36.282,10.8486667 36.2726667,10.788 36.282,10.704 C36.2913333,10.6106667 36.2866667,10.5453333 36.268,10.508 C36.24,10.3773333 36.156,10.2653333 36.016,10.172 C35.876,10.0786667 35.7313333,10.046 35.582,10.074 C35.638,10.1393333 35.6566667,10.228 35.638,10.34 C35.3953333,11.2266667 35.1246667,11.9453333 34.826,12.496 C34.7793333,12.5053333 34.7233333,12.482 34.658,12.426 C34.574,12.3606667 34.5133333,12.3373333 34.476,12.356 C34.6066667,12.5893333 34.7373333,12.8226667 34.868,13.056 C34.924,13.1306667 34.98,13.21 35.036,13.294 C35.092,13.378 35.1713333,13.448 35.274,13.504 C35.3206667,13.588 35.4,13.644 35.512,13.672 C35.6333333,13.7 35.708,13.658 35.736,13.546 C35.764,13.4153333 35.82,13.2333333 35.904,13 C35.9973333,12.7386667 36.0533333,12.552 36.072,12.44 C36.0813333,12.4213333 36.0906667,12.3793333 36.1,12.314 C36.1093333,12.2206667 36.1326667,12.1646667 36.17,12.146 C36.1513333,12.118 36.1653333,12.0713333 36.212,12.006 C36.2586667,11.9313333 36.282,11.8753333 36.282,11.838 C36.3286667,11.8193333 36.3566667,11.7773333 36.366,11.712 C36.3753333,11.6746667 36.394,11.642 36.422,11.614 C36.4873333,11.5113333 36.506,11.3853333 36.478,11.236 C36.506,11.208 36.5293333,11.1566667 36.548,11.082 C36.5666667,11.0073333 36.5946667,10.956 36.632,10.928 C36.604,10.9 36.618,10.8533333 36.674,10.788 C36.7393333,10.7133333 36.7486667,10.6573333 36.702,10.62 C36.73,10.5453333 36.772,10.5126667 36.828,10.522 C36.856,10.5313333 36.856,10.564 36.828,10.62 C36.828,10.7133333 36.8233333,10.802 36.814,10.886 L36.814,10.886 L36.646,12.286 L36.59,12.944 C36.59,13.056 36.5806667,13.1213333 36.562,13.14 C36.5433333,13.224 36.5433333,13.2986667 36.562,13.364 C36.5433333,13.5693333 36.5106667,13.7653333 36.464,13.952 C36.4826667,14.092 36.464,14.2273333 36.408,14.358 C36.436,14.3953333 36.436,14.4373333 36.408,14.484 C36.38,14.5306667 36.38,14.5633333 36.408,14.582 C36.3986667,14.5913333 36.3893333,14.624 36.38,14.68 C36.3706667,14.7173333 36.352,14.7313333 36.324,14.722 C36.3146667,14.946 36.282,15.2306667 36.226,15.576 C36.1513333,16.024 36.114,16.3273333 36.114,16.486 C36.114,16.6446667 36.0906667,16.696 36.044,16.64 C35.9786667,16.6306667 35.8993333,16.626 35.806,16.626 C35.7686667,16.6353333 35.7593333,16.6633333 35.778,16.71 C35.89,16.8033333 36.0066667,16.8966667 36.128,16.99 C36.24,17.0833333 36.366,17.1533333 36.506,17.2 C36.534,17.2186667 36.604,17.284 36.716,17.396 C36.7346667,17.424 36.7673333,17.4426667 36.814,17.452 C36.8793333,17.4706667 36.9213333,17.5033333 36.94,17.55 C36.9586667,17.5686667 36.9866667,17.564 37.024,17.536 C37.0706667,17.508 37.1033333,17.522 37.122,17.578 Z M40.566,13.154 C40.5753333,12.9393333 40.58,12.72 40.58,12.496 C40.5706667,12.3093333 40.6686667,12.1833333 40.874,12.118 L40.874,12.118 L41.588,11.656 C41.7093333,11.5906667 41.8306667,11.5206667 41.952,11.446 C42.1013333,11.3713333 42.2786667,11.264 42.484,11.124 C42.736,10.9466667 42.9226667,10.8346667 43.044,10.788 L43.044,10.788 L43.128,10.746 C43.1653333,10.7273333 43.1886667,10.7226667 43.198,10.732 C43.1793333,10.7973333 43.1326667,10.8673333 43.058,10.942 C43.0206667,11.0073333 42.9786667,11.0726667 42.932,11.138 C42.764,11.4366667 42.5913333,11.7073333 42.414,11.95 C42.414,11.9966667 42.3906667,12.034 42.344,12.062 C42.3066667,12.09 42.2646667,12.118 42.218,12.146 C41.7233333,12.482 41.1726667,12.818 40.566,13.154 Z M46.11,18.39 C46.25,18.474 46.3573333,18.4506667 46.432,18.32 C46.5906667,18.1426667 46.7213333,17.9513333 46.824,17.746 C46.9173333,17.5313333 47.0293333,17.326 47.16,17.13 C47.1506667,17.102 47.1693333,17.06 47.216,17.004 C47.2533333,16.948 47.2673333,16.9013333 47.258,16.864 C47.23,16.836 47.202,16.7986667 47.174,16.752 C47.146,16.7146667 47.1086667,16.7146667 47.062,16.752 L47.040125,16.765125 C47.017375,16.784375 46.992,16.822 46.964,16.878 C46.936,16.934 46.8986667,16.9573333 46.852,16.948 C46.8053333,16.9013333 46.7586667,16.8453333 46.712,16.78 C46.6746667,16.7146667 46.6233333,16.6866667 46.558,16.696 C46.5673333,16.612 46.502,16.5233333 46.362,16.43 C46.3806667,16.4113333 46.3573333,16.3926667 46.292,16.374 C46.264,16.3646667 46.2593333,16.3506667 46.278,16.332 C46.194,16.304 46.1053333,16.2246667 46.012,16.094 L46.012,16.094 L45.9,15.954 C45.8533333,15.9446667 45.802,15.8886667 45.746,15.786 C45.6993333,15.702 45.6526667,15.6553333 45.606,15.646 C45.522,15.5433333 45.396,15.4126667 45.228,15.254 C44.9946667,15.03 44.836,14.862 44.752,14.75 C44.612,14.61 44.514,14.484 44.458,14.372 C44.1033333,14.0453333 43.8886667,13.826 43.814,13.714 C43.9353333,13.5273333 43.9493333,13.4293333 43.856,13.42 L43.856,13.42 L43.814,13.406 C43.534,13.7606667 43.254,13.994 42.974,14.106 C42.862,14.1713333 42.7826667,14.2646667 42.736,14.386 C42.68,14.5166667 42.722,14.596 42.862,14.624 C43.4033333,15.1186667 44.0193333,15.7346667 44.71,16.472 C44.6633333,16.4813333 44.598,16.4533333 44.514,16.388 C44.43,16.3226667 44.3646667,16.29 44.318,16.29 C44.1593333,16.178 44.0426667,16.1313333 43.968,16.15 C44.0053333,16.1873333 44.0193333,16.2106667 44.01,16.22 C43.982,16.2293333 43.9493333,16.206 43.912,16.15 C43.884,16.15 43.8373333,16.1313333 43.772,16.094 C43.716,16.0566667 43.6693333,16.038 43.632,16.038 C43.604,16.0473333 43.5946667,16.0613333 43.604,16.08 C43.6693333,16.1453333 43.7393333,16.192 43.814,16.22 C43.8606667,16.22 43.884,16.234 43.884,16.262 C43.884,16.2806667 43.8606667,16.2853333 43.814,16.276 C43.8233333,16.3133333 43.8513333,16.3413333 43.898,16.36 C43.954,16.3786667 44.0053333,16.402 44.052,16.43 C44.192,16.5233333 44.3273333,16.612 44.458,16.696 C44.43,16.7426667 44.458,16.7986667 44.542,16.864 C44.6166667,16.92 44.654,16.9666667 44.654,17.004 C44.7286667,17.0413333 44.822,17.13 44.934,17.27 C45.0273333,17.382 45.1206667,17.466 45.214,17.522 L45.214,17.522 L45.872,18.096 C45.8906667,18.208 45.97,18.306 46.11,18.39 Z M38.858,16.836 C38.942,16.7613333 39.0586667,16.6026667 39.208,16.36 C39.3106667,16.192 39.404,16.066 39.488,15.982 C39.4973333,15.9353333 39.544,15.87 39.628,15.786 C39.7026667,15.7113333 39.7446667,15.646 39.754,15.59 C39.8286667,15.4966667 39.8566667,15.4173333 39.838,15.352 C39.9313333,15.2773333 39.992,15.184 40.02,15.072 C40.048,15.0626667 40.0713333,15.03 40.09,14.974 C40.118,14.8993333 40.1646667,14.8526667 40.23,14.834 C40.2113333,14.778 40.244,14.7266667 40.328,14.68 C40.3373333,14.6333333 40.3653333,14.582 40.412,14.526 C40.4026667,14.4886667 40.384,14.4746667 40.356,14.484 C40.2906667,14.5306667 40.23,14.5586667 40.174,14.568 C39.8193333,14.7733333 39.558,14.9413333 39.39,15.072 C39.3526667,15.016 39.3293333,14.9273333 39.32,14.806 C39.3013333,14.666 39.2826667,14.5726667 39.264,14.526 C39.2173333,14.386 39.082,14.316 38.858,14.316 C38.8393333,14.3346667 38.844,14.372 38.872,14.428 C38.9,14.484 38.9,14.5306667 38.872,14.568 C38.8066667,15.072 38.6246667,15.4453333 38.326,15.688 C38.3073333,15.6786667 38.27,15.6693333 38.214,15.66 C38.13,15.6506667 38.0693333,15.6226667 38.032,15.576 C37.9853333,15.6413333 37.9853333,15.7206667 38.032,15.814 C38.0786667,15.9073333 38.116,15.996 38.144,16.08 C38.2933333,16.22 38.438,16.4113333 38.578,16.654 C38.6713333,16.7193333 38.7646667,16.78 38.858,16.836 Z M55.952,18.334 C56.1293333,18.3713333 56.302,18.376 56.47,18.348 C56.6473333,18.3293333 56.8153333,18.278 56.974,18.194 C57.1326667,18.1006667 57.296,18.0166667 57.464,17.942 C57.9026667,17.5686667 58.2386667,17.2046667 58.472,16.85 C58.5186667,16.8313333 58.5606667,16.7753333 58.598,16.682 C58.6353333,16.598 58.6773333,16.5466667 58.724,16.528 C59.0133333,16.1546667 59.2793333,15.7486667 59.522,15.31 C59.55,15.282 59.5826667,15.2353333 59.62,15.17 C59.6666667,15.0766667 59.7226667,15.0113333 59.788,14.974 C59.8533333,14.834 59.9186667,14.694 59.984,14.554 C60.0773333,14.3953333 60.166,14.232 60.25,14.064 C60.278,14.008 60.3153333,13.9566667 60.362,13.91 C60.4086667,13.854 60.4366667,13.7886667 60.446,13.714 C60.5486667,13.6393333 60.6093333,13.5413333 60.628,13.42 C60.6466667,13.2893333 60.6046667,13.1866667 60.502,13.112 C60.4553333,12.972 60.376,12.8553333 60.264,12.762 C60.152,12.6686667 60.0493333,12.5706667 59.956,12.468 L59.956,12.468 L59.228,11.95 C59.1626667,11.9126667 59.0926667,11.8613333 59.018,11.796 C58.9433333,11.7306667 58.864,11.7213333 58.78,11.768 C58.612,11.8053333 58.248,11.936 57.688,12.16 C57.6693333,12.132 57.6786667,12.0993333 57.716,12.062 C57.7626667,12.0246667 57.772,11.992 57.744,11.964 C57.7813333,11.9266667 57.8186667,11.866 57.856,11.782 C57.912,11.67 57.968,11.586 58.024,11.53 L58.024,11.53 L58.136,11.208 C58.1733333,11.2173333 58.192,11.194 58.192,11.138 C58.192,11.082 58.2153333,11.0353333 58.262,10.998 C58.29,10.914 58.3273333,10.83 58.374,10.746 C58.4206667,10.6713333 58.444,10.5873333 58.444,10.494 C58.5093333,10.4286667 58.5746667,10.3026667 58.64,10.116 C58.6866667,9.96666667 58.7333333,9.85933333 58.78,9.794 C58.8173333,9.64466667 58.9153333,9.43 59.074,9.15 C59.0926667,9.15 59.116,9.122 59.144,9.066 C59.172,9.00066667 59.2,8.95866667 59.228,8.94 C59.2373333,8.81866667 59.1953333,8.716 59.102,8.632 C59.0086667,8.53866667 58.92,8.45933333 58.836,8.394 C58.6773333,8.23533333 58.5046667,8.114 58.318,8.03 C58.2713333,8.03933333 58.2106667,8.02533333 58.136,7.988 C58.0613333,7.95066667 58.0053333,7.932 57.968,7.932 C57.8933333,7.91333333 57.828,7.88533333 57.772,7.848 C57.7066667,7.81066667 57.6413333,7.82 57.576,7.876 C57.6133333,7.92266667 57.6506667,7.974 57.688,8.03 C57.6973333,8.04866667 57.6786667,8.06733333 57.632,8.086 L57.632,8.086 L56.204,9.15 C56.176,8.99133333 56.218,8.89333333 56.33,8.856 C56.3486667,8.772 56.316,8.69266667 56.232,8.618 C56.1853333,8.57133333 56.134,8.534 56.078,8.506 C56.0406667,8.46866667 56.0593333,8.42666667 56.134,8.38 C56.1993333,8.352 56.2973333,8.26333333 56.428,8.114 C56.54,7.98333333 56.638,7.91333333 56.722,7.904 L56.722,7.904 L57.254,7.4 C57.282,7.4 57.3193333,7.36266667 57.366,7.288 C57.4313333,7.19466667 57.4873333,7.14333333 57.534,7.134 C57.5713333,7.022 57.5386667,6.92866667 57.436,6.854 C57.324,6.77 57.2213333,6.69533333 57.128,6.63 C56.8386667,6.36866667 56.4513333,6.15866667 55.966,6 C55.9566667,6.03733333 55.9846667,6.08866667 56.05,6.154 C56.1153333,6.21 56.148,6.25666667 56.148,6.294 C56.3346667,6.45266667 56.3766667,6.57866667 56.274,6.672 C56.2086667,6.83066667 56.0546667,7.05933333 55.812,7.358 C55.6253333,7.59133333 55.4993333,7.764 55.434,7.876 C55.3406667,7.94133333 55.2613333,8.016 55.196,8.1 C55.14,8.19333333 55.0606667,8.22133333 54.958,8.184 C54.8926667,8.14666667 54.8506667,8.14666667 54.832,8.184 C54.8133333,8.268 54.846,8.324 54.93,8.352 C55.098,8.45466667 55.1493333,8.60866667 55.084,8.814 L55.084,8.814 L55.028,9.36 C55,9.39733333 54.986,9.458 54.986,9.542 C54.986,9.61666667 54.9766667,9.668 54.958,9.696 C54.9393333,9.77066667 54.93,9.85466667 54.93,9.948 C54.902,10.0413333 54.8973333,10.1253333 54.916,10.2 C54.8786667,10.3306667 54.86,10.466 54.86,10.606 C54.7853333,11.11 54.706,11.614 54.622,12.118 C54.622,12.2393333 54.5846667,12.342 54.51,12.426 C54.4913333,12.706 54.4586667,12.9206667 54.412,13.07 C54.44,13.126 54.44,13.2146667 54.412,13.336 C54.384,13.4386667 54.3746667,13.5133333 54.384,13.56 C54.3373333,13.616 54.2813333,13.5786667 54.216,13.448 C54.1693333,13.364 54.132,13.3593333 54.104,13.434 C54.1786667,13.63 54.2533333,13.8213333 54.328,14.008 C54.4026667,14.204 54.5193333,14.3766667 54.678,14.526 C54.7993333,14.5913333 54.8926667,14.5633333 54.958,14.442 C55.3966667,14.1806667 55.854,13.9613333 56.33,13.784 L56.33,13.784 L58.346,12.93 C58.3833333,12.9673333 58.4253333,12.972 58.472,12.944 C58.528,12.9066667 58.584,12.8833333 58.64,12.874 C58.7613333,12.8086667 58.878,12.7713333 58.99,12.762 C58.9526667,12.93 58.836,13.182 58.64,13.518 C58.276,14.1806667 58.038,14.5866667 57.926,14.736 C57.478,14.2693333 57.142,13.9706667 56.918,13.84 C56.8433333,13.8026667 56.778,13.7886667 56.722,13.798 C56.6846667,13.8166667 56.6846667,13.854 56.722,13.91 C56.806,13.994 56.806,14.0406667 56.722,14.05 C56.6286667,14.0873333 56.5306667,14.1246667 56.428,14.162 C56.12,14.3206667 55.9006667,14.4233333 55.77,14.47 C55.7046667,14.498 55.6393333,14.5213333 55.574,14.54 L55.574,14.54 L53.614,15.24 C53.4833333,15.2773333 53.3526667,15.324 53.222,15.38 C53.1473333,15.4453333 53.0306667,15.5013333 52.872,15.548 C52.704,15.604 52.5826667,15.6553333 52.508,15.702 C52.4893333,15.7393333 52.4566667,15.758 52.41,15.758 C52.3633333,15.758 52.3306667,15.772 52.312,15.8 C52.2466667,15.856 52.186,15.828 52.13,15.716 C52.0646667,15.5946667 51.9993333,15.548 51.934,15.576 C51.9713333,15.6693333 51.9993333,15.786 52.018,15.926 C52.074,16.0473333 52.1253333,16.178 52.172,16.318 C52.228,16.458 52.3026667,16.5793333 52.396,16.682 C52.5453333,16.654 52.746,16.5746667 52.998,16.444 C53.2126667,16.332 53.3806667,16.262 53.502,16.234 C53.8846667,16.0846667 54.2673333,15.9306667 54.65,15.772 L54.65,15.772 L56.33,15.128 C56.33,15.1653333 56.2926667,15.2166667 56.218,15.282 C56.1246667,15.3566667 56.1013333,15.4173333 56.148,15.464 C56.1293333,15.492 56.1246667,15.5106667 56.134,15.52 C56.1993333,15.5293333 56.2646667,15.5013333 56.33,15.436 C56.3673333,15.4733333 56.4186667,15.4733333 56.484,15.436 C56.5493333,15.3986667 56.596,15.3893333 56.624,15.408 C56.764,15.3893333 56.8993333,15.3706667 57.03,15.352 C57.0766667,15.3706667 57.1513333,15.3566667 57.254,15.31 C57.338,15.282 57.3986667,15.268 57.436,15.268 C57.5293333,15.2306667 57.604,15.2026667 57.66,15.184 C57.66,15.1933333 57.6506667,15.212 57.632,15.24 C57.548,15.38 57.4593333,15.506 57.366,15.618 C57.1513333,15.9446667 56.9133333,16.2433333 56.652,16.514 C56.3253333,16.85 56.022,17.074 55.742,17.186 C55.4993333,17.2233333 55.3453333,17.2606667 55.28,17.298 C55.028,17.2793333 54.7713333,17.13 54.51,16.85 C54.482,16.8313333 54.4633333,16.822 54.454,16.822 C54.4633333,16.8873333 54.51,16.9666667 54.594,17.06 C54.7806667,17.3493333 54.944,17.5593333 55.084,17.69 C55.2613333,17.942 55.5506667,18.1566667 55.952,18.334 Z M49.47,16.836 C49.6473333,16.9386667 49.8106667,16.9246667 49.96,16.794 C50.016,16.7286667 50.0626667,16.598 50.1,16.402 C50.128,16.2713333 50.1606667,16.1686667 50.198,16.094 C50.226,16.01 50.2633333,15.912 50.31,15.8 C50.3193333,15.7813333 50.4406667,15.4686667 50.674,14.862 C50.7206667,14.7686667 50.7626667,14.6753333 50.8,14.582 C50.8186667,14.6193333 50.954,14.8386667 51.206,15.24 C51.318,15.4266667 51.4346667,15.492 51.556,15.436 C51.64,15.4546667 51.738,15.4266667 51.85,15.352 C51.8873333,15.3333333 51.9853333,15.2586667 52.144,15.128 L52.144,15.128 L52.774,14.54 C52.886,14.5026667 52.956,14.4093333 52.984,14.26 C53.1426667,14.0173333 53.292,13.8353333 53.432,13.714 C53.6093333,13.4713333 53.768,13.21 53.908,12.93 C53.936,12.818 53.9733333,12.6966667 54.02,12.566 C54.0573333,12.4726667 54.0946667,12.3746667 54.132,12.272 L54.132,12.272 L54.258,12.048 C54.258,12.02 54.2766667,11.9733333 54.314,11.908 C54.3513333,11.8426667 54.356,11.796 54.328,11.768 L54.328,11.768 L53.572,12.398 C53.5533333,12.3326667 53.5673333,12.2346667 53.614,12.104 C53.6513333,11.9826667 53.67,11.9033333 53.67,11.866 C53.7633333,11.698 53.8146667,11.5113333 53.824,11.306 C53.8426667,11.222 53.866,11.1333333 53.894,11.04 C53.9313333,10.9466667 53.8986667,10.872 53.796,10.816 C53.88,10.7506667 54.1693333,10.578 54.664,10.298 C54.72,10.1486667 54.6966667,9.99466667 54.594,9.836 C54.566,9.864 54.524,9.85466667 54.468,9.808 C54.412,9.752 54.37,9.73333333 54.342,9.752 C54.1553333,9.67733333 53.964,9.598 53.768,9.514 C53.5533333,9.682 53.1286667,9.98533333 52.494,10.424 C52.4286667,10.4613333 52.3633333,10.5033333 52.298,10.55 C52.2326667,10.5966667 52.158,10.62 52.074,10.62 C51.99,10.62 51.9153333,10.5593333 51.85,10.438 C51.9433333,10.4193333 52.0086667,10.3726667 52.046,10.298 C52.018,10.186 52.0226667,10.06 52.06,9.92 L52.06,9.92 L52.06,9.892 C52.0973333,9.60266667 52.13,9.30866667 52.158,9.01 C52.046,8.842 51.8733333,8.69733333 51.64,8.576 C51.612,8.55733333 51.4066667,8.464 51.024,8.296 L51.024,8.296 L50.338,8.128 C50.31,8.17466667 50.3426667,8.226 50.436,8.282 C50.5013333,8.31933333 50.5386667,8.352 50.548,8.38 C50.604,8.39866667 50.66,8.42666667 50.716,8.464 C50.7813333,8.51066667 50.8046667,8.55733333 50.786,8.604 C50.786,8.996 50.6973333,9.26666667 50.52,9.416 C50.4546667,9.50933333 50.4033333,9.60733333 50.366,9.71 C50.282,9.84066667 50.2726667,9.892 50.338,9.864 C50.3566667,9.84533333 50.38,9.84533333 50.408,9.864 C50.436,9.88266667 50.4686667,9.86866667 50.506,9.822 C50.5526667,9.83133333 50.604,9.84066667 50.66,9.85 C50.716,9.86866667 50.772,9.84533333 50.828,9.78 C50.8933333,9.808 50.9773333,9.88733333 51.08,10.018 C51.1826667,10.158 51.276,10.2466667 51.36,10.284 C51.4906667,10.3773333 51.6166667,10.4286667 51.738,10.438 L51.738,10.438 L51.724,10.466 L51.99,11.124 C51.9806667,11.1706667 51.99,11.208 52.018,11.236 C52.046,11.2546667 52.0506667,11.2733333 52.032,11.292 L52.032,11.292 L52.06,11.334 C52.0786667,11.334 52.102,11.362 52.13,11.418 C52.158,11.474 52.1906667,11.5066667 52.228,11.516 C52.312,11.6186667 52.4706667,11.6326667 52.704,11.558 C52.732,11.6513333 52.7086667,11.7913333 52.634,11.978 C52.5686667,12.146 52.5406667,12.2766667 52.55,12.37 C52.41,12.7526667 52.2793333,13.1353333 52.158,13.518 C52.1393333,13.63 52.0833333,13.7186667 51.99,13.784 C51.906,13.8586667 51.8266667,13.924 51.752,13.98 C51.7053333,13.9426667 51.6493333,13.9566667 51.584,14.022 C51.528,14.078 51.4906667,14.106 51.472,14.106 C51.2946667,14.302 51.0893333,14.442 50.856,14.526 L50.856,14.526 L50.842,14.512 C50.8513333,14.4653333 50.8606667,14.414 50.87,14.358 C50.898,14.3393333 50.9213333,14.2926667 50.94,14.218 C50.9586667,14.1433333 50.9913333,14.0966667 51.038,14.078 C51.094,13.994 51.122,13.924 51.122,13.868 C51.1873333,13.784 51.22,13.7186667 51.22,13.672 C51.2106667,13.672 51.2013333,13.6766667 51.192,13.686 C51.1733333,13.6113333 51.2153333,13.532 51.318,13.448 C51.29,13.42 51.2993333,13.3873333 51.346,13.35 C51.3926667,13.3033333 51.402,13.2613333 51.374,13.224 C51.402,13.168 51.416,13.098 51.416,13.014 C51.4626667,12.9673333 51.4953333,12.8926667 51.514,12.79 C51.5233333,12.6966667 51.5466667,12.6313333 51.584,12.594 C51.5653333,12.5753333 51.5746667,12.552 51.612,12.524 C51.6586667,12.4866667 51.682,12.454 51.682,12.426 C51.7006667,12.4073333 51.7053333,12.3933333 51.696,12.384 C51.6773333,12.3746667 51.6586667,12.3653333 51.64,12.356 C51.64,12.3466667 51.654,12.3326667 51.682,12.314 C51.6913333,12.258 51.6913333,12.202 51.682,12.146 C51.682,12.0993333 51.71,12.0573333 51.766,12.02 C51.794,12.048 51.8173333,12.048 51.836,12.02 C51.8453333,11.992 51.8546667,11.9546667 51.864,11.908 L51.864,11.908 L51.948,11.768 C51.976,11.7306667 51.9806667,11.684 51.962,11.628 L51.962,11.628 L52.004,11.628 L51.976,11.6 L51.948,11.614 C51.7613333,11.8006667 51.598,12.006 51.458,12.23 C51.1966667,12.538 50.9726667,12.8226667 50.786,13.084 L50.786,13.084 L50.758,13.112 C50.3846667,13.5973333 50.0066667,14.148 49.624,14.764 C49.6053333,14.7453333 49.5913333,14.7406667 49.582,14.75 C49.5726667,14.7873333 49.568,14.834 49.568,14.89 C49.5026667,15.0206667 49.4326667,15.1466667 49.358,15.268 C49.3393333,15.296 49.3253333,15.324 49.316,15.352 C49.2973333,15.38 49.2786667,15.3846667 49.26,15.366 L49.26,15.366 L49.036,15.758 C48.98,15.702 48.9286667,15.6366667 48.882,15.562 C48.8353333,15.478 48.7793333,15.4406667 48.714,15.45 C48.826,15.8606667 48.9706667,16.192 49.148,16.444 C49.204,16.612 49.3113333,16.7426667 49.47,16.836 Z M55.518,13.084 C55.4806667,13.084 55.4713333,13.0466667 55.49,12.972 C55.4526667,12.8786667 55.4526667,12.7433333 55.49,12.566 C55.518,12.4073333 55.5273333,12.2953333 55.518,12.23 C55.5273333,12.2113333 55.56,12.0853333 55.616,11.852 C55.672,11.8426667 55.742,11.8146667 55.826,11.768 C55.9473333,11.7026667 56.0313333,11.67 56.078,11.67 C56.162,11.7446667 56.246,11.782 56.33,11.782 C56.4046667,11.7913333 56.4886667,11.81 56.582,11.838 C56.7033333,11.8006667 56.8013333,11.656 56.876,11.404 C57.016,10.8346667 56.918,10.5033333 56.582,10.41 C56.4886667,10.3633333 56.3906667,10.34 56.288,10.34 C56.2506667,10.284 56.2646667,10.2373333 56.33,10.2 C56.4046667,10.1533333 56.456,10.102 56.484,10.046 C56.6613333,9.88733333 57.0253333,9.598 57.576,9.178 C57.6133333,9.16866667 57.632,9.178 57.632,9.206 C57.6133333,9.27133333 57.5993333,9.33666667 57.59,9.402 C57.5433333,9.50466667 57.52,9.60266667 57.52,9.696 C57.4733333,9.76133333 57.4313333,9.88266667 57.394,10.06 C57.366,10.1813333 57.3426667,10.2653333 57.324,10.312 C57.2306667,10.7133333 57.1513333,10.998 57.086,11.166 C57.0953333,11.1846667 57.086,11.208 57.058,11.236 C57.0206667,11.2826667 57.016,11.3153333 57.044,11.334 C57.016,11.3526667 57.0066667,11.3666667 57.016,11.376 C57.0346667,11.3853333 57.0393333,11.3993333 57.03,11.418 C57.03,11.4273333 57.016,11.4366667 56.988,11.446 C56.96,11.4833333 56.932,11.5486667 56.904,11.642 C56.8666667,11.782 56.82,11.866 56.764,11.894 C56.7453333,11.9966667 56.6333333,12.1693333 56.428,12.412 C56.26,12.6266667 56.0733333,12.7713333 55.868,12.846 C55.8773333,12.818 55.882,12.7993333 55.882,12.79 C55.882,12.7806667 55.8773333,12.776 55.868,12.776 C55.8586667,12.7853333 55.84,12.7946667 55.812,12.804 C55.7466667,12.7666667 55.7093333,12.7573333 55.7,12.776 C55.6906667,12.804 55.7186667,12.8366667 55.784,12.874 C55.8306667,12.9113333 55.8446667,12.9393333 55.826,12.958 C55.8166667,12.9766667 55.798,12.9906667 55.77,13 C55.7326667,13.0186667 55.714,13.042 55.714,13.07 C55.658,13.0513333 55.5926667,13.056 55.518,13.084 Z M55.658,11.796 C55.6486667,11.6 55.6673333,11.3853333 55.714,11.152 C55.742,10.9933333 55.7653333,10.83 55.784,10.662 C55.812,10.6153333 55.8306667,10.564 55.84,10.508 C55.8493333,10.4613333 55.882,10.4473333 55.938,10.466 L55.938,10.466 L56.064,10.424 C56.1106667,10.452 56.1293333,10.5126667 56.12,10.606 C56.1106667,10.7086667 56.1106667,10.788 56.12,10.844 L56.12,10.844 L55.938,11.39 C55.9286667,11.4366667 55.8866667,11.502 55.812,11.586 C55.728,11.6793333 55.6766667,11.7493333 55.658,11.796 Z M49.162,13.476 C49.1806667,13.476 49.1993333,13.4526667 49.218,13.406 C49.2553333,13.378 49.2926667,13.3406667 49.33,13.294 C49.358,13.2566667 49.3953333,13.238 49.442,13.238 C49.4606667,13.2006667 49.5213333,13.14 49.624,13.056 C49.6986667,12.9906667 49.764,12.9206667 49.82,12.846 C49.96,12.7526667 50.0813333,12.6593333 50.184,12.566 C50.2026667,12.5753333 50.2353333,12.5613333 50.282,12.524 C50.3193333,12.496 50.3426667,12.4866667 50.352,12.496 C50.436,12.3746667 50.534,12.2906667 50.646,12.244 C50.7673333,12.0946667 50.898,11.9453333 51.038,11.796 C51.1686667,11.6373333 51.2806667,11.4693333 51.374,11.292 C51.3086667,11.18 51.22,11.082 51.108,10.998 C50.996,10.9046667 50.8886667,10.8113333 50.786,10.718 L50.786,10.718 L50.394,10.466 C50.3846667,10.522 50.4126667,10.5873333 50.478,10.662 C50.534,10.7366667 50.5106667,10.7973333 50.408,10.844 C49.9973333,11.152 49.5213333,11.432 48.98,11.684 C48.952,11.6653333 48.9146667,11.6186667 48.868,11.544 C48.8026667,11.4413333 48.7466667,11.3993333 48.7,11.418 C48.7466667,11.614 48.812,11.7866667 48.896,11.936 C49.0173333,12.2253333 49.1106667,12.4213333 49.176,12.524 C49.2413333,12.5613333 49.302,12.5846667 49.358,12.594 C49.3766667,12.5846667 49.3906667,12.58 49.4,12.58 C49.4093333,12.5893333 49.4093333,12.5986667 49.4,12.608 L49.4,12.608 L49.414,12.608 C49.4513333,12.608 49.4886667,12.594 49.526,12.566 C49.5633333,12.5846667 49.5493333,12.6313333 49.484,12.706 C49.4746667,12.7246667 49.47,12.7433333 49.47,12.762 C49.4326667,12.7993333 49.4,12.8553333 49.372,12.93 C49.3346667,13.014 49.2973333,13.07 49.26,13.098 C49.26,13.1166667 49.2366667,13.1586667 49.19,13.224 C49.1526667,13.28 49.1573333,13.3266667 49.204,13.364 C49.148,13.392 49.1293333,13.4246667 49.148,13.462 C49.148,13.4713333 49.1526667,13.476 49.162,13.476 Z M69.35224,18.72152 L69.434,18.712 C69.4806667,18.6653333 69.4993333,18.5813333 69.49,18.46 C69.4806667,18.376 69.4853333,18.3106667 69.504,18.264 C69.5133333,17.9466667 69.518,17.6246667 69.518,17.298 C69.5366667,17.0366667 69.5506667,16.7706667 69.56,16.5 C69.5786667,16.4066667 69.5926667,16.3086667 69.602,16.206 L69.602,16.206 L69.602,15.842 C69.6673333,15.758 69.812,15.688 70.036,15.632 C70.1013333,15.6413333 70.2086667,15.604 70.358,15.52 C70.47,15.464 70.5493333,15.4313333 70.596,15.422 C70.7266667,15.366 70.8573333,15.31 70.988,15.254 C71.044,15.2446667 71.1466667,15.198 71.296,15.114 C71.4266667,15.0393333 71.5386667,14.9926667 71.632,14.974 C71.66,14.9646667 71.6973333,14.9413333 71.744,14.904 C71.7906667,14.8666667 71.828,14.876 71.856,14.932 C71.996,14.9786667 72.1266667,15.1233333 72.248,15.366 C72.276,15.4593333 72.262,15.478 72.206,15.422 L72.206,15.422 L71.604,15.17 C71.6133333,15.226 71.6833333,15.31 71.814,15.422 C71.9166667,15.506 71.9773333,15.5666667 71.996,15.604 C72.08,15.6693333 72.1593333,15.744 72.234,15.828 C72.2433333,15.9026667 72.2946667,15.94 72.388,15.94 C72.4533333,15.94 72.5046667,15.954 72.542,15.982 C72.5233333,16.0753333 72.5466667,16.136 72.612,16.164 C72.6866667,16.192 72.752,16.2293333 72.808,16.276 C73.0226667,16.4626667 73.2186667,16.6446667 73.396,16.822 C73.368,16.8873333 73.3866667,16.948 73.452,17.004 C73.508,17.06 73.5686667,17.06 73.634,17.004 C73.886,16.752 74.138,16.4673333 74.39,16.15 C74.6233333,15.8326667 74.768,15.59 74.824,15.422 C74.7866667,15.394 74.7446667,15.4126667 74.698,15.478 C74.642,15.5526667 74.5906667,15.5806667 74.544,15.562 C74.5066667,15.5993333 74.4786667,15.604 74.46,15.576 C74.4506667,15.548 74.4413333,15.5153333 74.432,15.478 C74.4226667,15.4406667 74.404,15.4266667 74.376,15.436 C74.348,15.38 74.2546667,15.2866667 74.096,15.156 C73.9466667,15.0253333 73.844,14.9086667 73.788,14.806 C73.7693333,14.7686667 73.7366667,14.7546667 73.69,14.764 C73.6526667,14.7733333 73.6246667,14.7546667 73.606,14.708 C72.7753333,13.7466667 71.968,12.7993333 71.184,11.866 C71.2026667,11.81 71.1933333,11.768 71.156,11.74 C71.1093333,11.7026667 71.072,11.656 71.044,11.6 C70.6613333,11.1146667 70.3766667,10.7833333 70.19,10.606 C70.19,10.5406667 70.26,10.4753333 70.4,10.41 C70.4933333,10.3726667 70.554,10.3353333 70.582,10.298 C70.7033333,10.2233333 71.0346667,10.0413333 71.576,9.752 C72.1173333,9.472 72.43,9.28533333 72.514,9.192 C72.5233333,9.04266667 72.4906667,8.94933333 72.416,8.912 C72.332,8.86533333 72.2293333,8.80466667 72.108,8.73 C72.0053333,8.68333333 71.87,8.58066667 71.702,8.422 C71.478,8.226 71.2913333,8.10933333 71.142,8.072 C71.1326667,8.11866667 71.142,8.17466667 71.17,8.24 C71.2073333,8.352 71.212,8.42666667 71.184,8.464 C71.128,8.464 71.0113333,8.53866667 70.834,8.688 C70.7033333,8.8 70.6146667,8.856 70.568,8.856 C70.4933333,8.93066667 70.428,8.97733333 70.372,8.996 C70.3533333,8.98666667 70.3533333,8.954 70.372,8.898 L70.372,8.898 L70.4,8.534 C70.4746667,8.17933333 70.582,7.638 70.722,6.91 C70.7126667,6.84466667 70.6753333,6.78866667 70.61,6.742 C70.5353333,6.69533333 70.47,6.658 70.414,6.63 C70.2926667,6.56466667 70.1106667,6.51333333 69.868,6.476 C69.644,6.448 69.4853333,6.41066667 69.392,6.364 L69.392,6.364 L68.902,6.266 C68.8553333,6.31266667 68.8973333,6.364 69.028,6.42 C69.1866667,6.48533333 69.2473333,6.55066667 69.21,6.616 C69.1633333,6.85866667 69.112,7.09666667 69.056,7.33 C69.084,7.42333333 69.0793333,7.53533333 69.042,7.666 L69.042,7.666 L68.972,8.254 L68.972,8.254 L68.944,8.618 C68.9533333,8.646 68.944,8.70666667 68.916,8.8 C68.888,8.90266667 68.888,8.99133333 68.916,9.066 C68.8973333,9.206 68.874,9.34133333 68.846,9.472 C68.818,9.49066667 68.8086667,9.53266667 68.818,9.598 C68.8273333,9.70066667 68.818,9.77066667 68.79,9.808 L68.769,9.85 C68.741,9.892 68.692,9.934 68.622,9.976 C68.538,10.0226667 68.482,10.0693333 68.454,10.116 C68.3326667,10.1906667 68.216,10.242 68.104,10.27 C68.0573333,10.354 67.9826667,10.396 67.88,10.396 C67.8706667,10.424 67.8333333,10.4473333 67.768,10.466 C67.7026667,10.4846667 67.6746667,10.5126667 67.684,10.55 C67.6186667,10.5873333 67.5533333,10.606 67.488,10.606 C67.0213333,10.8673333 66.6526667,11.0633333 66.382,11.194 C66.2886667,11.026 66.1906667,10.928 66.088,10.9 C66.116,11.04 66.144,11.1753333 66.172,11.306 C66.2933333,11.5113333 66.354,11.6606667 66.354,11.754 C66.4286667,11.8753333 66.494,12.0013333 66.55,12.132 C66.5966667,12.2626667 66.69,12.37 66.83,12.454 C66.9046667,12.5006667 66.9793333,12.4913333 67.054,12.426 C67.1193333,12.37 67.1846667,12.3326667 67.25,12.314 C67.2873333,12.2953333 67.3386667,12.2533333 67.404,12.188 C67.4973333,12.0946667 67.5813333,12.0386667 67.656,12.02 L67.656,12.02 L68.076,11.824 C68.0853333,11.852 68.0713333,11.8893333 68.034,11.936 C67.9873333,11.992 67.978,12.034 68.006,12.062 C67.726,12.398 67.4833333,12.7526667 67.278,13.126 C67.2033333,13.21 67.1473333,13.3033333 67.11,13.406 C67.0726667,13.4433333 66.9886667,13.56 66.858,13.756 C66.83,13.812 66.7973333,13.868 66.76,13.924 C66.7133333,13.9706667 66.648,14.064 66.564,14.204 C66.48,14.344 66.4053333,14.4373333 66.34,14.484 L66.34,14.484 L66.256,14.484 C66.2466667,14.4746667 66.256,14.456 66.284,14.428 C66.2373333,14.3813333 66.228,14.3253333 66.256,14.26 C66.2653333,14.232 66.2606667,14.2133333 66.242,14.204 L66.242,14.204 L66.2,14.204 C66.2653333,14.0173333 66.2793333,13.8306667 66.242,13.644 C66.2046667,13.6813333 66.158,13.7933333 66.102,13.98 C66.0366667,14.1946667 65.9853333,14.3113333 65.948,14.33 C65.9106667,14.4046667 65.7473333,14.8153333 65.458,15.562 C65.3833333,15.562 65.3506667,15.604 65.36,15.688 C65.3693333,15.772 65.4066667,15.8373333 65.472,15.884 C65.5466667,16.0146667 65.7426667,16.1733333 66.06,16.36 C66.116,16.3506667 66.1813333,16.3553333 66.256,16.374 C66.3213333,16.402 66.3773333,16.3786667 66.424,16.304 C66.4613333,16.2853333 66.4753333,16.248 66.466,16.192 C66.4566667,16.1266667 66.48,16.08 66.536,16.052 C66.6106667,15.9306667 66.6993333,15.8046667 66.802,15.674 C66.8673333,15.7953333 67.0026667,16.1313333 67.208,16.682 C67.3573333,16.8126667 67.53,16.822 67.726,16.71 C67.9313333,16.5886667 68.104,16.5093333 68.244,16.472 C68.2906667,16.4626667 68.314,16.4673333 68.314,16.486 C68.3046667,16.542 68.3,16.6166667 68.3,16.71 C68.2906667,16.85 68.2626667,16.9853333 68.216,17.116 L68.216,17.116 L68.216,17.48 C68.1786667,17.5266667 68.16,17.6106667 68.16,17.732 C68.16,17.8253333 68.1506667,17.8953333 68.132,17.942 C68.132,18.0073333 68.118,18.0726667 68.09,18.138 C68.062,18.2033333 68.09,18.25 68.174,18.278 C68.37,18.3993333 68.6313333,18.5113333 68.958,18.614 C69.1446667,18.7073333 69.3033333,18.74 69.434,18.712 L69.35224,18.72152 Z M65.052,17.158 C65.1173333,17.186 65.1826667,17.172 65.248,17.116 C65.2013333,17.088 65.1873333,17.046 65.206,16.99 C65.2246667,16.934 65.234,16.878 65.234,16.822 C65.2526667,16.7566667 65.2573333,16.6726667 65.248,16.57 C65.2293333,16.542 65.2293333,16.486 65.248,16.402 C65.2666667,16.318 65.262,16.262 65.234,16.234 C65.262,16.1686667 65.2666667,16.0473333 65.248,15.87 C65.2293333,15.6926667 65.2293333,15.576 65.248,15.52 L65.248,15.52 L65.276,15.184 C65.304,15.1466667 65.3133333,15.0953333 65.304,15.03 C65.2946667,14.9553333 65.2993333,14.904 65.318,14.876 C65.3273333,14.848 65.3273333,14.8013333 65.318,14.736 C65.3086667,14.6706667 65.318,14.624 65.346,14.596 C65.3646667,14.5493333 65.3693333,14.4886667 65.36,14.414 C65.3506667,14.33 65.3646667,14.2646667 65.402,14.218 C65.43,13.742 65.4766667,13.2706667 65.542,12.804 C65.5513333,12.664 65.5606667,12.5193333 65.57,12.37 C65.6166667,12.2953333 65.6353333,12.2066667 65.626,12.104 C65.626,12.0013333 65.6306667,11.908 65.64,11.824 C65.64,11.7213333 65.668,11.5486667 65.724,11.306 C65.78,11.0633333 65.8033333,10.8766667 65.794,10.746 C65.7846667,10.606 65.7006667,10.5173333 65.542,10.48 C65.6166667,10.3026667 65.7286667,10.1253333 65.878,9.948 C66.0366667,9.74266667 66.1906667,9.53266667 66.34,9.318 C66.4053333,9.262 66.4846667,9.15466667 66.578,8.996 C66.662,8.84666667 66.732,8.744 66.788,8.688 C66.844,8.65066667 66.8953333,8.59466667 66.942,8.52 C67.026,8.34266667 67.1286667,8.24 67.25,8.212 C67.2686667,8.08133333 67.1753333,7.92733333 66.97,7.75 C66.3913333,7.33 65.934,7.05466667 65.598,6.924 L65.598,6.924 L65.514,6.91 C65.5046667,6.966 65.5326667,7.01266667 65.598,7.05 C65.654,7.09666667 65.7053333,7.13866667 65.752,7.176 C65.8266667,7.24133333 65.906,7.30666667 65.99,7.372 C66.0833333,7.43733333 66.088,7.512 66.004,7.596 C65.9293333,7.77333333 65.8453333,7.93666667 65.752,8.086 C65.6586667,8.24466667 65.5606667,8.394 65.458,8.534 C65.3646667,8.674 65.2853333,8.80933333 65.22,8.94 C65.248,8.93066667 65.2666667,8.926 65.276,8.926 C65.276,8.954 65.2526667,8.97733333 65.206,8.996 C65.2246667,9.03333333 65.2013333,9.06133333 65.136,9.08 C65.0613333,9.108 65.038,9.15 65.066,9.206 C65.0193333,9.234 64.968,9.29933333 64.912,9.402 C64.8746667,9.458 64.828,9.514 64.772,9.57 C64.7906667,9.57933333 64.8046667,9.58866667 64.814,9.598 C64.7953333,9.61666667 64.7626667,9.64466667 64.716,9.682 C64.716,9.70066667 64.73,9.71933333 64.758,9.738 C64.7206667,9.794 64.6786667,9.82666667 64.632,9.836 C64.604,9.948 64.5573333,10.0506667 64.492,10.144 C64.4173333,10.2373333 64.352,10.3353333 64.296,10.438 C64.2586667,10.4753333 64.2166667,10.536 64.17,10.62 C64.114,10.732 64.0626667,10.8066667 64.016,10.844 C63.988,10.8906667 63.9133333,10.998 63.792,11.166 C63.7546667,11.1846667 63.7173333,11.222 63.68,11.278 C63.6426667,11.334 63.6006667,11.3666667 63.554,11.376 C63.582,11.4133333 63.568,11.46 63.512,11.516 C63.4746667,11.5533333 63.456,11.586 63.456,11.614 C63.428,11.6513333 63.4046667,11.6606667 63.386,11.642 C63.3673333,11.6326667 63.3673333,11.5906667 63.386,11.516 C63.4326667,11.32 63.4746667,11.1193333 63.512,10.914 C63.5306667,10.746 63.4326667,10.8766667 63.218,11.306 C63.1246667,11.502 63.0686667,11.6093333 63.05,11.628 C63.0313333,11.7026667 62.9846667,11.7913333 62.91,11.894 C62.8353333,11.9966667 62.7886667,12.0853333 62.77,12.16 C62.7233333,12.216 62.6673333,12.314 62.602,12.454 C62.5366667,12.6033333 62.476,12.7013333 62.42,12.748 C62.4013333,12.7666667 62.364,12.846 62.308,12.986 C62.2893333,13.0606667 62.2986667,13.1166667 62.336,13.154 C62.3733333,13.182 62.4106667,13.2193333 62.448,13.266 C62.532,13.378 62.6206667,13.4526667 62.714,13.49 C62.7513333,13.49 62.798,13.5133333 62.854,13.56 C62.91,13.6066667 62.9613333,13.6253333 63.008,13.616 C63.0453333,13.616 63.1386667,13.6393333 63.288,13.686 C63.4093333,13.7233333 63.5073333,13.7186667 63.582,13.672 C63.6286667,13.6066667 63.638,13.546 63.61,13.49 C63.5913333,13.434 63.582,13.3733333 63.582,13.308 C63.6286667,13.2053333 63.6986667,13.1073333 63.792,13.014 C63.9506667,12.706 64.1466667,12.3933333 64.38,12.076 C64.4266667,12.104 64.4406667,12.1273333 64.422,12.146 C64.4033333,12.1646667 64.394,12.1786667 64.394,12.188 C64.394,12.2066667 64.408,12.2206667 64.436,12.23 C64.3986667,12.65 64.3473333,13.0513333 64.282,13.434 C64.282,13.602 64.2773333,13.6953333 64.268,13.714 C64.24,14.0126667 64.212,14.3113333 64.184,14.61 C64.184,14.7966667 64.1653333,14.918 64.128,14.974 C64.1093333,15.282 64.0813333,15.5106667 64.044,15.66 C64.016,15.688 64.0066667,15.7813333 64.016,15.94 C64.016,16.08 64.002,16.1733333 63.974,16.22 C63.974,16.2666667 63.988,16.3133333 64.016,16.36 C64.0253333,16.4066667 64.002,16.43 63.946,16.43 C63.862,16.4486667 63.7826667,16.4673333 63.708,16.486 C63.6893333,16.5046667 63.708,16.5373333 63.764,16.584 C63.904,16.7053333 64.0766667,16.808 64.282,16.892 C64.4873333,16.976 64.6693333,17.0506667 64.828,17.116 C64.9026667,17.116 64.9773333,17.13 65.052,17.158 Z M69.742,14.554 C69.7326667,14.4886667 69.7233333,14.4233333 69.714,14.358 C69.6953333,14.3486667 69.6953333,14.316 69.714,14.26 C69.7326667,14.1853333 69.7326667,14.134 69.714,14.106 C69.742,14.0686667 69.7466667,14.0453333 69.728,14.036 C69.7186667,14.036 69.714,14.022 69.714,13.994 C69.7513333,13.9473333 69.7606667,13.854 69.742,13.714 C69.7326667,13.7046667 69.7233333,13.6906667 69.714,13.672 L69.714,13.672 L69.756,13.658 L69.756,13.616 C69.7653333,13.5226667 69.7746667,13.4246667 69.784,13.322 C69.7653333,13.3033333 69.7653333,13.2146667 69.784,13.056 C69.8026667,12.944 69.8026667,12.8693333 69.784,12.832 C69.8026667,12.804 69.812,12.7433333 69.812,12.65 C69.8213333,12.5286667 69.84,12.4446667 69.868,12.398 C69.8213333,12.3233333 69.8213333,12.23 69.868,12.118 C69.9146667,12.1273333 69.9706667,12.174 70.036,12.258 C70.1013333,12.3326667 70.148,12.3793333 70.176,12.398 C70.4933333,12.8273333 70.8106667,13.2566667 71.128,13.686 C71.184,13.742 71.212,13.798 71.212,13.854 C71.2026667,13.8633333 71.1886667,13.8633333 71.17,13.854 C71.1233333,13.8166667 71.0673333,13.8026667 71.002,13.812 C70.9833333,13.8213333 70.9926667,13.8493333 71.03,13.896 C71.03,13.9613333 70.9693333,14.008 70.848,14.036 C70.7453333,14.0733333 70.6706667,14.1106667 70.624,14.148 L70.624,14.148 L69.742,14.554 Z M66.942,15.59 C66.8953333,15.4873333 66.956,15.324 67.124,15.1 C67.3293333,14.8293333 67.4366667,14.6613333 67.446,14.596 C67.4646667,14.5866667 67.4833333,14.5586667 67.502,14.512 C67.53,14.456 67.558,14.4233333 67.586,14.414 C67.6793333,14.3486667 67.7773333,14.2133333 67.88,14.008 C67.8986667,13.9986667 67.9126667,13.9613333 67.922,13.896 C67.9406667,13.8306667 67.978,13.7886667 68.034,13.77 C68.0713333,13.6486667 68.1413333,13.5506667 68.244,13.476 C68.3186667,13.336 68.4073333,13.21 68.51,13.098 C68.5286667,13.0886667 68.5426667,13.0933333 68.552,13.112 C68.552,13.196 68.5473333,13.28 68.538,13.364 C68.5193333,13.9613333 68.482,14.5493333 68.426,15.128 C68.2486667,15.2306667 68.0666667,15.3146667 67.88,15.38 C67.8613333,15.3426667 67.8053333,15.352 67.712,15.408 C67.6186667,15.4546667 67.558,15.478 67.53,15.478 C67.362,15.5526667 67.166,15.59 66.942,15.59 Z" id="方正惊鸿体" fill="#333333" fill-rule="nonzero"></path>
                <rect id="矩形" stroke-opacity="0" stroke="#979797" x="0.5" y="0.5" width="79" height="23"></rect>
            </g>
        </g>
    </g>
</svg>