<?xml version="1.0" encoding="UTF-8"?>
<svg width="80px" height="24px" viewBox="0 0 80 24" version="1.1" xmlns="http://www.w3.org/2000/svg" xmlns:xlink="http://www.w3.org/1999/xlink">
    <title>方正超重体</title>
    <defs>
        <path d="M6.134,13.555901 C6.19933333,13.527901 6.274,13.5045677 6.358,13.485901 C6.442,13.4485677 6.526,13.415901 6.61,13.387901 C6.694,13.359901 6.78733333,13.331901 6.89,13.303901 L6.89,13.303901 L7.156,13.219901 C7.352,13.1545677 7.548,13.0985677 7.744,13.051901 C7.81866667,13.0145677 7.90266667,12.981901 7.996,12.953901 L7.996,12.953901 L8.024,12.953901 C8.09866667,12.9352343 8.15,12.9165677 8.178,12.897901 C8.29933333,12.8512343 8.444,12.813901 8.612,12.785901 C8.65866667,12.757901 8.71466667,12.7322343 8.78,12.708901 C8.84533333,12.6855677 8.864,12.6552343 8.836,12.617901 C8.85466667,12.5525677 8.864,12.477901 8.864,12.393901 C8.864,12.3472343 8.86633333,12.2772343 8.871,12.183901 C8.87566667,12.0905677 8.878,12.0205677 8.878,11.973901 C8.89666667,11.8525677 8.906,11.721901 8.906,11.581901 L8.906,11.581901 L8.92,11.217901 L8.934,10.517901 C8.934,10.349901 8.948,10.181901 8.976,10.013901 C8.96666667,9.985901 8.96666667,9.93456767 8.976,9.859901 L8.976,9.859901 L8.976,9.243901 L9.004,8.851901 L9.032,8.333901 C9.032,8.221901 9.04133333,8.11923433 9.06,8.025901 L9.06,8.025901 L9.074,7.381901 L9.074,6.821901 C8.95266667,6.849901 8.81266667,6.85923433 8.654,6.849901 C8.55133333,6.83123433 8.458,6.835901 8.374,6.863901 C8.234,6.863901 8.11733333,6.87323433 8.024,6.891901 C7.912,6.87323433 7.814,6.877901 7.73,6.905901 L7.73,6.905901 L7.142,6.933901 C7.086,6.961901 7.01133333,6.97123433 6.918,6.961901 C6.89,6.961901 6.85033333,6.96423433 6.799,6.968901 C6.74766667,6.97356767 6.71266667,6.975901 6.694,6.975901 L6.694,6.975901 L6.316,7.003901 C6.288,7.003901 6.24366667,7.00623433 6.183,7.010901 C6.12233333,7.01556767 6.07333333,7.017901 6.036,7.017901 C5.952,7.017901 5.882,7.02723433 5.826,7.045901 C5.69533333,7.03656767 5.574,7.045901 5.462,7.073901 L5.462,7.073901 L5.042,7.073901 C4.94866667,7.11123433 4.89266667,7.087901 4.874,7.003901 C4.874,6.98523433 4.87866667,6.961901 4.888,6.933901 C4.89733333,6.80323433 4.902,6.70523433 4.902,6.639901 C4.92066667,6.60256767 4.93,6.555901 4.93,6.499901 C4.91133333,6.443901 4.916,6.39723433 4.944,6.359901 C4.944,6.191901 4.95333333,6.03323433 4.972,5.883901 C4.98133333,5.83723433 4.986,5.785901 4.986,5.729901 C4.96733333,5.673901 4.972,5.62256767 5,5.575901 C5,5.56656767 5.00233333,5.55023433 5.007,5.526901 C5.01166667,5.50356767 5.014,5.48023433 5.014,5.456901 C5.014,5.43356767 5.01866667,5.41956767 5.028,5.414901 C5.03733333,5.41023433 5.056,5.41256767 5.084,5.421901 C5.14,5.43123433 5.20066667,5.435901 5.266,5.435901 L5.266,5.435901 L5.532,5.449901 L5.98,5.463901 L6.442,5.491901 L7.226,5.519901 C7.366,5.53856767 7.51066667,5.547901 7.66,5.547901 C7.78133333,5.547901 7.898,5.55723433 8.01,5.575901 L8.01,5.575901 L8.948,5.575901 C8.976,5.52923433 8.976,5.491901 8.948,5.463901 C8.96666667,5.379901 8.976,5.295901 8.976,5.211901 C8.95733333,5.11856767 8.962,5.03456767 8.99,4.959901 C8.99,4.80123433 8.99933333,4.665901 9.018,4.553901 C8.99933333,4.34856767 9.004,4.15256767 9.032,3.965901 C9.032,3.81656767 9.04133333,3.671901 9.06,3.531901 C9.06,3.48523433 9.032,3.461901 8.976,3.461901 L8.976,3.461901 L8.416,3.447901 L7.884,3.419901 C7.69733333,3.42923433 7.506,3.419901 7.31,3.391901 L7.31,3.391901 L6.918,3.377901 C6.75,3.377901 6.582,3.36856767 6.414,3.349901 L6.414,3.349901 L5.98,3.335901 L5.462,3.307901 L4.65,3.251901 L4.258,3.237901 L3.698,3.195901 C3.66066667,3.195901 3.61166667,3.19356767 3.551,3.188901 C3.49033333,3.18423433 3.446,3.181901 3.418,3.181901 C3.29666667,3.19123433 3.18,3.181901 3.068,3.153901 L3.068,3.153901 L2.704,3.139901 L2.228,3.125901 L1.472,3.097901 L1.108,3.083901 C1.08,3.139901 1.066,3.20523433 1.066,3.279901 C1.07533333,3.41056767 1.066,3.531901 1.038,3.643901 C1.038,3.755901 1.03333333,3.85856767 1.024,3.951901 C1.03333333,4.05456767 1.024,4.15256767 0.996,4.245901 C0.986666667,4.385901 0.982,4.53523433 0.982,4.693901 C0.963333333,4.76856767 0.954,4.85256767 0.954,4.945901 L0.954,4.945901 L0.954,5.099901 C0.935333333,5.155901 0.954,5.183901 1.01,5.183901 C1.094,5.19323433 1.192,5.197901 1.304,5.197901 C1.416,5.197901 1.52333333,5.20723433 1.626,5.225901 L1.626,5.225901 L2.13,5.239901 C2.28866667,5.239901 2.44266667,5.24923433 2.592,5.267901 L2.592,5.267901 L2.872,5.281901 C2.872,5.31923433 2.86733333,5.37056767 2.858,5.435901 L2.858,5.435901 L2.858,5.533901 C2.83933333,5.65523433 2.83,5.771901 2.83,5.883901 C2.802,5.911901 2.79733333,5.95856767 2.816,6.023901 C2.816,6.079901 2.80666667,6.12656767 2.788,6.163901 C2.76933333,6.275901 2.76,6.401901 2.76,6.541901 C2.732,6.569901 2.72733333,6.611901 2.746,6.667901 C2.746,6.71456767 2.73666667,6.751901 2.718,6.779901 C2.70866667,6.891901 2.704,7.01323433 2.704,7.143901 C2.68533333,7.171901 2.67833333,7.20456767 2.683,7.241901 C2.68766667,7.27923433 2.676,7.311901 2.648,7.339901 C2.648,7.44256767 2.64333333,7.535901 2.634,7.619901 L2.634,7.619901 L2.592,7.955901 C2.592,8.011901 2.58266667,8.07723433 2.564,8.151901 C2.55466667,8.263901 2.55,8.389901 2.55,8.529901 C2.522,8.557901 2.51033333,8.592901 2.515,8.634901 L2.51577778,8.67456767 C2.5137037,8.69945656 2.50644444,8.72123433 2.494,8.739901 C2.494,8.823901 2.48466667,8.89856767 2.466,8.963901 L2.466,8.963901 L2.424,9.285901 C2.396,9.397901 2.37733333,9.509901 2.368,9.621901 L2.368,9.621901 L2.326,9.831901 L2.298,10.027901 L2.256,10.223901 L2.228,10.447901 L2.2,10.685901 C2.18133333,10.7325677 2.172,10.7885677 2.172,10.853901 C2.144,10.8632343 2.13933333,10.895901 2.158,10.951901 C2.158,10.979901 2.14866667,11.007901 2.13,11.035901 C2.13,11.063901 2.12533333,11.1012343 2.116,11.147901 L2.116,11.147901 L2.116,11.175901 C2.116,11.1852343 2.13,11.1922343 2.158,11.196901 C2.186,11.2015677 2.22566667,11.2085677 2.277,11.217901 C2.32833333,11.2272343 2.368,11.231901 2.396,11.231901 C2.508,11.231901 2.606,11.2412343 2.69,11.259901 C2.802,11.2785677 2.92333333,11.287901 3.054,11.287901 C3.082,11.3065677 3.13333333,11.315901 3.208,11.315901 C3.264,11.2972343 3.31533333,11.301901 3.362,11.329901 C3.474,11.3112343 3.58133333,11.315901 3.684,11.343901 C3.768,11.343901 3.852,11.3532343 3.936,11.371901 L3.936,11.371901 L4.286,11.357901 C4.30466667,11.3205677 4.30466667,11.2925677 4.286,11.273901 C4.30466667,11.245901 4.314,11.217901 4.314,11.189901 C4.29533333,11.133901 4.3,11.1012343 4.328,11.091901 C4.328,10.9892343 4.33733333,10.895901 4.356,10.811901 L4.356,10.811901 L4.398,10.643901 C4.398,10.5692343 4.40733333,10.4992343 4.426,10.433901 L4.426,10.433901 L4.426,10.405901 L4.468,10.195901 C4.468,10.111901 4.47733333,10.0372343 4.496,9.971901 L4.496,9.971901 L4.538,9.775901 L4.594,9.537901 C4.594,9.453901 4.60333333,9.369901 4.622,9.285901 L4.622,9.285901 L4.664,8.963901 C4.72,8.907901 4.804,8.88923433 4.916,8.907901 C5,8.879901 5.09333333,8.87523433 5.196,8.893901 C5.28,8.90323433 5.35466667,8.893901 5.42,8.865901 L5.42,8.865901 L5.742,8.851901 L6.092,8.837901 C6.22266667,8.82856767 6.34866667,8.81456767 6.47,8.795901 C6.582,8.81456767 6.68933333,8.809901 6.792,8.781901 C6.904,8.79123433 7.00666667,8.781901 7.1,8.753901 C7.184,8.753901 7.21666667,8.77723433 7.198,8.823901 L7.198,8.823901 L7.184,9.523901 L7.156,9.957901 L7.142,10.671901 L7.114,11.287901 C7.086,11.3065677 7.08133333,11.3345677 7.1,11.371901 C7.1,11.399901 7.086,11.4092343 7.058,11.399901 C7.002,11.427901 6.94366667,11.4535677 6.883,11.476901 C6.82233333,11.5002343 6.71733333,11.5305677 6.568,11.567901 C6.46533333,11.595901 6.386,11.6192343 6.33,11.637901 C6.31133333,11.6472343 6.28333333,11.658901 6.246,11.672901 C6.20866667,11.686901 6.18066667,11.6985677 6.162,11.707901 C6.022,11.7452343 5.882,11.791901 5.742,11.847901 C5.69533333,11.847901 5.658,11.8572343 5.63,11.875901 C5.61133333,11.875901 5.59966667,11.882901 5.595,11.896901 C5.59033333,11.910901 5.59266667,11.9272343 5.602,11.945901 C5.63,11.9925677 5.64866667,12.043901 5.658,12.099901 C5.70466667,12.239901 5.74666667,12.379901 5.784,12.519901 C5.868,12.7812343 5.96133333,13.051901 6.064,13.331901 C6.07333333,13.359901 6.08266667,13.3925677 6.092,13.429901 C6.11066667,13.485901 6.12466667,13.527901 6.134,13.555901 Z M5.874,3.190901 L5.90066667,3.17101211 C5.91933333,3.15649359 5.93177778,3.14612322 5.938,3.139901 C6.19933333,2.971901 6.456,2.78523433 6.708,2.579901 C6.80133333,2.51456767 6.89,2.439901 6.974,2.355901 C7.07666667,2.26256767 7.17466667,2.173901 7.268,2.089901 C7.05333333,1.88456767 6.848,1.66056767 6.652,1.417901 C6.54,1.333901 6.45133333,1.235901 6.386,1.123901 C6.26466667,1.00256767 6.148,0.876567667 6.036,0.745901 C5.93333333,0.643234333 5.84,0.535901 5.756,0.423901 L5.756,0.423901 L5.476,0.143901 C5.392,0.227901 5.33133333,0.279234333 5.294,0.297901 C5.24733333,0.335234333 5.21466667,0.363234333 5.196,0.381901 C4.98133333,0.549901 4.776,0.717901 4.58,0.885901 C4.44,0.969901 4.314,1.06323433 4.202,1.165901 C4.19266667,1.17523433 4.174,1.19156767 4.146,1.214901 C4.118,1.23823433 4.09466667,1.25456767 4.076,1.263901 C4.244,1.487901 4.41666667,1.70256767 4.594,1.907901 C4.78066667,2.075901 4.96266667,2.26723433 5.14,2.481901 C5.252,2.593901 5.364,2.719901 5.476,2.859901 L5.476,2.859901 L5.77,3.139901 C5.77,3.195901 5.791,3.216901 5.833,3.202901 C5.854,3.195901 5.86741667,3.19181767 5.87325,3.190651 L5.874,3.190901 Z M15.612,11.707901 L16.116,11.693901 L17.166,11.679901 L18.244,11.651901 L19.266,11.637901 L20.26,11.609901 L21.17,11.581901 L22.024,11.567901 L22.71,11.539901 C22.7286667,11.483901 22.7286667,11.427901 22.71,11.371901 L22.71,11.371901 L22.696,10.685901 L22.668,9.887901 L22.654,9.579901 L20.834,9.579901 L20.834,8.585901 L21.604,8.585901 L22.248,8.557901 C22.276,8.48323433 22.2853333,8.389901 22.276,8.277901 C22.248,8.221901 22.2386667,8.14723433 22.248,8.053901 L22.248,8.053901 L22.234,7.647901 L22.22,7.059901 L22.192,6.583901 L20.834,6.583901 L20.834,4.343901 C20.9646667,4.33456767 21.0766667,4.343901 21.17,4.371901 C21.282,4.35323433 21.3893333,4.357901 21.492,4.385901 C21.604,4.37656767 21.7113333,4.385901 21.814,4.413901 C21.926,4.39523433 22.038,4.399901 22.15,4.427901 C22.2526667,4.427901 22.3366667,4.43723433 22.402,4.455901 C22.43,4.427901 22.444,4.39523433 22.444,4.357901 C22.472,4.273901 22.4813333,4.203901 22.472,4.147901 C22.472,4.007901 22.4813333,3.87723433 22.5,3.755901 C22.5,3.727901 22.5023333,3.68823433 22.507,3.636901 C22.5116667,3.58556767 22.514,3.545901 22.514,3.517901 C22.5326667,3.405901 22.542,3.279901 22.542,3.139901 C22.5606667,3.04656767 22.57,2.94856767 22.57,2.845901 C22.57,2.761901 22.584,2.67323433 22.612,2.579901 C22.6213333,2.50523433 22.598,2.467901 22.542,2.467901 C22.486,2.439901 22.43,2.43523433 22.374,2.453901 L22.374,2.453901 L21.996,2.425901 C21.8933333,2.41656767 21.8,2.40256767 21.716,2.383901 C21.6506667,2.383901 21.5596667,2.38156767 21.443,2.376901 C21.3263333,2.37223433 21.24,2.369901 21.184,2.369901 C21.1373333,2.341901 21.086,2.33723433 21.03,2.355901 C20.9553333,2.355901 20.904,2.34656767 20.876,2.327901 C20.7546667,2.327901 20.638,2.31856767 20.526,2.299901 C20.3953333,2.271901 20.26,2.257901 20.12,2.257901 C20.0546667,2.229901 19.98,2.22523433 19.896,2.243901 C19.7933333,2.22523433 19.686,2.215901 19.574,2.215901 C19.49,2.187901 19.4013333,2.18323433 19.308,2.201901 C19.196,2.18323433 19.0793333,2.173901 18.958,2.173901 C18.902,2.145901 18.846,2.14123433 18.79,2.159901 C18.706,2.159901 18.6453333,2.15056767 18.608,2.131901 C18.4773333,2.14123433 18.37,2.131901 18.286,2.103901 L18.286,2.103901 L17.796,2.089901 C17.7586667,2.07123433 17.7026667,2.061901 17.628,2.061901 C17.5066667,2.04323433 17.3806667,2.033901 17.25,2.033901 C17.1753333,2.005901 17.096,2.00123433 17.012,2.019901 C16.9,2.00123433 16.7786667,1.991901 16.648,1.991901 C16.592,1.963901 16.5266667,1.95923433 16.452,1.977901 L16.452,1.977901 L16.354,1.977901 C16.326,2.005901 16.3213333,2.061901 16.34,2.145901 C16.34,2.21123433 16.3306667,2.271901 16.312,2.327901 C16.3213333,2.439901 16.312,2.53323433 16.284,2.607901 C16.284,2.71056767 16.2793333,2.80856767 16.27,2.901901 C16.2793333,3.013901 16.27,3.111901 16.242,3.195901 C16.2326667,3.335901 16.228,3.47123433 16.228,3.601901 C16.2093333,3.685901 16.2,3.76523433 16.2,3.839901 C16.1813333,3.867901 16.1743333,3.902901 16.179,3.944901 C16.1836667,3.986901 16.214,3.99856767 16.27,3.979901 C16.326,3.98923433 16.3866667,3.993901 16.452,3.993901 C16.5826667,3.993901 16.718,4.00323433 16.858,4.021901 C16.9326667,4.03123433 17.012,4.035901 17.096,4.035901 C17.208,4.063901 17.3293333,4.07323433 17.46,4.063901 C17.516,4.08256767 17.5813333,4.091901 17.656,4.091901 C17.7026667,4.091901 17.768,4.09423433 17.852,4.098901 C17.936,4.10356767 17.9966667,4.105901 18.034,4.105901 C18.09,4.12456767 18.1693333,4.133901 18.272,4.133901 L18.272,4.133901 L18.44,4.133901 C18.5333333,4.14323433 18.6033333,4.147901 18.65,4.147901 C18.6873333,4.175901 18.734,4.18523433 18.79,4.175901 L18.79,4.175901 L18.79,9.621901 C18.762,9.621901 18.7223333,9.62423433 18.671,9.628901 C18.6196667,9.63356767 18.58,9.635901 18.552,9.635901 L18.23,9.635901 L18.202,9.215901 C18.2113333,9.09456767 18.202,8.98256767 18.174,8.879901 L18.174,8.879901 L18.174,8.473901 L18.146,7.983901 C18.1273333,7.815901 18.118,7.65256767 18.118,7.493901 L18.118,7.493901 L18.104,7.213901 C18.0573333,7.20456767 18.006,7.20456767 17.95,7.213901 C17.8473333,7.213901 17.754,7.22323433 17.67,7.241901 L17.67,7.241901 L17.236,7.241901 L16.788,7.269901 L16.312,7.297901 C16.2373333,7.297901 16.214,7.33523433 16.242,7.409901 C16.242,7.493901 16.2466667,7.563901 16.256,7.619901 C16.2653333,7.647901 16.27,7.67123433 16.27,7.689901 L16.27,7.689901 L16.284,8.753901 C16.312,8.865901 16.3213333,9.00123433 16.312,9.159901 L16.312,9.159901 L16.34,9.649901 C16.2466667,9.69656767 16.1346667,9.71056767 16.004,9.691901 L16.004,9.691901 L15.276,9.691901 L15.29,10.601901 L15.304,11.693901 C15.388,11.7032343 15.4906667,11.707901 15.612,11.707901 L15.612,11.707901 Z M36.024,6.765901 L36.276,6.737901 C36.2946667,6.709901 36.3226667,6.70523433 36.36,6.723901 C36.388,6.723901 36.416,6.71456767 36.444,6.695901 C36.5466667,6.68656767 36.64,6.681901 36.724,6.681901 C36.7426667,6.66323433 36.7683333,6.65623433 36.801,6.660901 C36.8336667,6.66556767 36.8593333,6.653901 36.878,6.625901 L36.878,6.625901 L37.158,6.611901 C37.1766667,6.583901 37.2046667,6.57923433 37.242,6.597901 C37.27,6.597901 37.298,6.58856767 37.326,6.569901 L37.326,6.569901 L37.606,6.541901 C37.634,6.513901 37.6666667,6.50923433 37.704,6.527901 C37.732,6.527901 37.76,6.51856767 37.788,6.499901 C37.8533333,6.499901 37.886,6.471901 37.886,6.415901 C37.8673333,6.331901 37.872,6.27123433 37.9,6.233901 C37.9,6.15923433 37.9093333,6.079901 37.928,5.995901 C37.928,5.967901 37.9303333,5.92356767 37.935,5.862901 C37.9396667,5.80223433 37.942,5.75323433 37.942,5.715901 C37.9513333,5.64123433 37.97,5.561901 37.998,5.477901 C37.998,5.43123433 38.0003333,5.37056767 38.005,5.295901 C38.0096667,5.22123433 38.012,5.16523433 38.012,5.127901 C38.0306667,5.099901 38.04,5.06723433 38.04,5.029901 C38.0213333,4.98323433 38.026,4.945901 38.054,4.917901 C38.054,4.82456767 38.0633333,4.74056767 38.082,4.665901 L38.082,4.665901 L38.11,4.357901 C38.11,4.25523433 38.124,4.175901 38.152,4.119901 C38.152,4.08256767 38.1543333,4.028901 38.159,3.958901 C38.1636667,3.888901 38.1683333,3.83756767 38.173,3.804901 C38.1776667,3.77223433 38.1846667,3.73023433 38.194,3.678901 C38.2033333,3.62756767 38.208,3.587901 38.208,3.559901 C38.208,3.46656767 38.2173333,3.38256767 38.236,3.307901 L38.236,3.307901 L38.306,2.691901 C38.3153333,2.607901 38.3223333,2.52156767 38.327,2.432901 C38.3316667,2.34423433 38.348,2.257901 38.376,2.173901 C38.376,2.13656767 38.3783333,2.075901 38.383,1.991901 C38.3876667,1.907901 38.39,1.84256767 38.39,1.795901 C38.4086667,1.74923433 38.411,1.718901 38.397,1.704901 C38.383,1.690901 38.348,1.68856767 38.292,1.697901 C38.18,1.67923433 38.0633333,1.669901 37.942,1.669901 C37.9046667,1.641901 37.858,1.63723433 37.802,1.655901 C37.7366667,1.655901 37.69,1.64656767 37.662,1.627901 C37.5313333,1.627901 37.424,1.61856767 37.34,1.599901 C37.312,1.599901 37.2723333,1.59756767 37.221,1.592901 C37.1696667,1.58823433 37.13,1.585901 37.102,1.585901 C36.9806667,1.56723433 36.85,1.557901 36.71,1.557901 C36.6726667,1.529901 36.626,1.52523433 36.57,1.543901 C36.486,1.543901 36.43,1.53456767 36.402,1.515901 C36.29,1.52523433 36.192,1.515901 36.108,1.487901 C35.968,1.47856767 35.8373333,1.473901 35.716,1.473901 C35.66,1.45523433 35.5946667,1.445901 35.52,1.445901 L35.52,1.445901 L35.184,1.417901 C35.0906667,1.40856767 34.9926667,1.39456767 34.89,1.375901 C34.8526667,1.375901 34.7966667,1.37123433 34.722,1.361901 L34.722,1.361901 L34.596,1.361901 C34.4653333,1.34323433 34.33,1.333901 34.19,1.333901 C34.1526667,1.305901 34.106,1.30123433 34.05,1.319901 C33.9753333,1.319901 33.924,1.31056767 33.896,1.291901 C33.784,1.291901 33.686,1.277901 33.602,1.249901 C33.5646667,1.249901 33.518,1.24756767 33.462,1.242901 C33.406,1.23823433 33.3686667,1.235901 33.35,1.235901 L33.35,1.235901 L33.336,1.235901 C33.3266667,1.31056767 33.3126667,1.38056767 33.294,1.445901 C33.2846667,1.557901 33.28,1.66523433 33.28,1.767901 C33.252,1.795901 33.2403333,1.82856767 33.245,1.865901 L33.2457778,1.90167878 C33.2437037,1.92449359 33.2364444,1.94523433 33.224,1.963901 C33.224,2.05723433 33.2193333,2.145901 33.21,2.229901 C33.21,2.24856767 33.2076667,2.271901 33.203,2.299901 C33.1983333,2.327901 33.196,2.34656767 33.196,2.355901 C33.168,2.39323433 33.1913333,2.411901 33.266,2.411901 L33.266,2.411901 L33.434,2.411901 C33.5273333,2.42123433 33.5973333,2.425901 33.644,2.425901 C33.7,2.453901 33.7606667,2.46323433 33.826,2.453901 C33.854,2.453901 33.9053333,2.45623433 33.98,2.460901 C34.0546667,2.46556767 34.1153333,2.467901 34.162,2.467901 C34.1993333,2.495901 34.2483333,2.50756767 34.309,2.502901 L34.3642222,2.50212322 C34.3974074,2.5041973 34.4233333,2.51145656 34.442,2.523901 C34.582,2.51456767 34.6846667,2.52856767 34.75,2.565901 C34.7406667,2.58456767 34.729,2.614901 34.715,2.656901 C34.701,2.698901 34.6893333,2.72923433 34.68,2.747901 C34.624,2.92523433 34.5633333,3.111901 34.498,3.307901 C34.4513333,3.43856767 34.4163333,3.531901 34.393,3.587901 C34.3696667,3.643901 34.3533333,3.69056767 34.344,3.727901 C34.3066667,3.80256767 34.2786667,3.881901 34.26,3.965901 C34.2413333,4.01256767 34.2133333,4.08723433 34.176,4.189901 C34.148,4.273901 34.127,4.33456767 34.113,4.371901 C34.099,4.40923433 34.078,4.46056767 34.05,4.525901 C34.0126667,4.64723433 33.9823333,4.73356767 33.959,4.784901 C33.9356667,4.83623433 33.9053333,4.910901 33.868,5.008901 L33.8057778,5.17067878 L33.8057778,5.17067878 L33.784,5.225901 C33.728,5.32856767 33.6813333,5.42656767 33.644,5.519901 C34.064,5.715901 34.4886667,5.90256767 34.918,6.079901 C34.974,6.04256767 35.0206667,5.98656767 35.058,5.911901 C35.086,5.81856767 35.1233333,5.72056767 35.17,5.617901 C35.1886667,5.57123433 35.2166667,5.50356767 35.254,5.414901 C35.2913333,5.32623433 35.3193333,5.25856767 35.338,5.211901 C35.3566667,5.16523433 35.3823333,5.09756767 35.415,5.008901 C35.4476667,4.92023433 35.4733333,4.85256767 35.492,4.805901 C35.5013333,4.78723433 35.5153333,4.75456767 35.534,4.707901 C35.59,4.55856767 35.6366667,4.44656767 35.674,4.371901 C35.73,4.175901 35.7953333,3.98456767 35.87,3.797901 C35.8886667,3.741901 35.9166667,3.66023433 35.954,3.552901 C35.9913333,3.44556767 36.0193333,3.363901 36.038,3.307901 C36.0846667,3.15856767 36.1266667,2.999901 36.164,2.831901 C36.1733333,2.803901 36.1616667,2.782901 36.129,2.768901 C36.0963333,2.754901 36.0893333,2.75256767 36.108,2.761901 C36.0706667,2.75256767 36.045,2.74556767 36.031,2.740901 C36.017,2.73623433 35.9866667,2.72923433 35.94,2.719901 C35.772,2.68256767 35.646,2.65456767 35.562,2.635901 C35.5246667,2.61723433 35.5316667,2.607901 35.583,2.607901 L35.583,2.607901 L35.702,2.607901 C35.73,2.62656767 35.7813333,2.635901 35.856,2.635901 C35.912,2.61723433 35.9586667,2.621901 35.996,2.649901 C36.0986667,2.649901 36.1966667,2.65923433 36.29,2.677901 C36.3366667,2.677901 36.4066667,2.68023433 36.5,2.684901 C36.5933333,2.68956767 36.668,2.691901 36.724,2.691901 C36.78,2.71056767 36.808,2.747901 36.808,2.803901 C36.7893333,2.86923433 36.78,2.943901 36.78,3.027901 C36.752,3.055901 36.7473333,3.09323433 36.766,3.139901 C36.766,3.17723433 36.7566667,3.209901 36.738,3.237901 C36.738,3.27523433 36.7356667,3.321901 36.731,3.377901 C36.7263333,3.433901 36.724,3.475901 36.724,3.503901 C36.7053333,3.587901 36.696,3.68123433 36.696,3.783901 C36.668,3.79323433 36.6633333,3.825901 36.682,3.881901 C36.682,3.91923433 36.6726667,3.951901 36.654,3.979901 L36.654,3.979901 L36.626,4.357901 C36.598,4.385901 36.5933333,4.42323433 36.612,4.469901 C36.612,4.51656767 36.6026667,4.553901 36.584,4.581901 C36.584,4.61923433 36.5793333,4.672901 36.57,4.742901 C36.5606667,4.812901 36.5513333,4.86656767 36.542,4.903901 C36.514,4.931901 36.5093333,4.973901 36.528,5.029901 C36.528,5.07656767 36.5186667,5.113901 36.5,5.141901 C36.4906667,5.253901 36.486,5.365901 36.486,5.477901 C36.4206667,5.533901 36.353,5.55956767 36.283,5.554901 C36.213,5.55023433 36.1546667,5.55723433 36.108,5.575901 L36.108,5.575901 L35.828,5.603901 C35.8,5.62256767 35.7696667,5.62956767 35.737,5.624901 C35.7043333,5.62023433 35.6856667,5.62256767 35.681,5.631901 C35.6763333,5.64123433 35.6833333,5.659901 35.702,5.687901 C35.73,5.799901 35.758,5.92123433 35.786,6.051901 C35.7953333,6.07056767 35.8093333,6.107901 35.828,6.163901 C35.8373333,6.20123433 35.8466667,6.22923433 35.856,6.247901 C35.8746667,6.331901 35.898,6.415901 35.926,6.499901 C35.9353333,6.59323433 35.968,6.681901 36.024,6.765901 L36.024,6.765901 Z M36.99,12.449901 L37.354,12.435901 C37.3446667,12.3052343 37.354,12.183901 37.382,12.071901 C37.3633333,11.959901 37.368,11.861901 37.396,11.777901 C37.396,11.665901 37.4053333,11.567901 37.424,11.483901 C37.424,11.371901 37.4263333,11.2855677 37.431,11.224901 C37.4356667,11.1642343 37.4053333,11.133901 37.34,11.133901 L37.34,11.133901 L37.158,11.133901 C37.0833333,11.105901 37.004,11.1012343 36.92,11.119901 C36.8453333,11.091901 36.766,11.0732343 36.682,11.063901 C36.6353333,11.063901 36.5793333,11.0592343 36.514,11.049901 L36.514,11.049901 L36.43,11.049901 C36.3273333,11.0312343 36.234,11.021901 36.15,11.021901 C36.122,10.993901 36.0893333,10.9892343 36.052,11.007901 C36.0053333,11.007901 35.968,10.9985677 35.94,10.979901 C35.8466667,10.9612343 35.7486667,10.951901 35.646,10.951901 C35.59,10.9425677 35.5246667,10.9285677 35.45,10.909901 C35.3753333,10.8912343 35.366,10.8912343 35.422,10.909901 C35.3286667,10.8912343 35.2586667,10.881901 35.212,10.881901 C35.1186667,10.853901 35.03,10.8352343 34.946,10.825901 C34.8806667,10.8165677 34.8106667,10.8025677 34.736,10.783901 L34.736,10.783901 L34.708,10.783901 C34.596,10.7652343 34.5166667,10.7465677 34.47,10.727901 C34.302,10.6905677 34.1526667,10.6625677 34.022,10.643901 C33.9846667,10.6345677 33.9613333,10.629901 33.952,10.629901 C33.9146667,10.601901 33.868,10.5832343 33.812,10.573901 C33.672,10.545901 33.5273333,10.5085677 33.378,10.461901 L33.378,10.461901 L33.196,10.419901 C33.0466667,10.363901 32.8926667,10.3172343 32.734,10.279901 L32.734,10.279901 L32.5846667,10.2301232 L32.5846667,10.2301232 L32.482,10.195901 C32.398,10.167901 32.3326667,10.1445677 32.286,10.125901 L32.286,10.125901 L32.09,10.055901 C32.062,10.0465677 32.02,10.0302343 31.964,10.006901 L31.9134444,9.985901 C31.8833704,9.97345656 31.8605556,9.96412322 31.845,9.957901 C31.8216667,9.94856767 31.782,9.93456767 31.726,9.915901 C31.6886667,9.90656767 31.6606667,9.89723433 31.642,9.887901 C31.5953333,9.859901 31.572,9.817901 31.572,9.761901 L31.572,9.761901 L31.572,9.565901 L31.586,8.949901 L32.594,8.949901 L32.58,7.703901 C32.4866667,7.675901 32.384,7.67123433 32.272,7.689901 L32.272,7.689901 L31.6,7.675901 L31.614,6.471901 L31.628,6.037901 C31.7773333,6.037901 31.936,6.04723433 32.104,6.065901 L32.104,6.065901 L32.79,6.051901 L32.776,4.679901 C32.1801026,4.67272151 31.8106351,4.66830337 31.6675976,4.66664656 L31.6089467,4.66598384 L31.6089467,4.66598384 C31.5749822,4.67526195 31.544,4.679901 31.516,4.679901 L31.516,4.679901 L31.18,4.637901 L31.194,4.021901 L31.194,4.021901 L31.278,4.021901 C31.3433333,4.01256767 31.39,4.007901 31.418,4.007901 L31.418,4.007901 L32.048,3.993901 C32.076,3.98456767 32.09,3.951901 32.09,3.895901 L32.09,3.895901 L32.09,3.741901 L32.104,2.915901 L32.104,2.621901 C32.048,2.61256767 31.9873333,2.61256767 31.922,2.621901 C31.726,2.60323433 31.53,2.607901 31.334,2.635901 C31.3246667,2.635901 31.3036667,2.63823433 31.271,2.642901 C31.2383333,2.64756767 31.2126667,2.649901 31.194,2.649901 C31.138,2.649901 31.1193333,2.61723433 31.138,2.551901 C31.1193333,2.411901 31.11,2.271901 31.11,2.131901 L31.11,2.131901 L31.11,1.795901 C31.1006667,1.74923433 31.096,1.697901 31.096,1.641901 C31.096,1.585901 31.0633333,1.56723433 30.998,1.585901 L30.998,1.585901 L30.844,1.585901 C30.7786667,1.59523433 30.704,1.599901 30.62,1.599901 C30.4706667,1.599901 30.34,1.60923433 30.228,1.627901 C30.032,1.61856767 29.8593333,1.627901 29.71,1.655901 C29.7006667,1.73056767 29.71,1.795901 29.738,1.851901 L29.738,1.851901 L29.738,2.509901 C29.7473333,2.55656767 29.752,2.593901 29.752,2.621901 C29.7613333,2.677901 29.738,2.70123433 29.682,2.691901 L29.682,2.691901 L29.276,2.691901 L28.786,2.719901 L28.786,4.091901 C28.926,4.091901 29.0426667,4.08723433 29.136,4.077901 L29.136,4.077901 L29.794,4.077901 L29.808,4.553901 C29.8173333,4.59123433 29.815,4.61923433 29.801,4.637901 C29.787,4.65656767 29.766,4.65656767 29.738,4.637901 L29.738,4.637901 L28.114,4.637901 L28.128,5.225901 L28.156,5.995901 L28.898,6.009901 L30.27,6.023901 C30.2793333,6.12656767 30.284,6.23856767 30.284,6.359901 L30.284,6.359901 L30.284,9.173901 C30.1813333,9.12723433 30.088,9.075901 30.004,9.019901 C29.9666667,9.00123433 29.906,8.963901 29.822,8.907901 C29.766,8.87056767 29.724,8.84256767 29.696,8.823901 C29.7053333,8.69323433 29.724,8.571901 29.752,8.459901 C29.752,8.403901 29.7636667,8.34556767 29.787,8.284901 C29.8103333,8.22423433 29.8173333,8.151901 29.808,8.067901 C29.836,8.011901 29.85,7.95123433 29.85,7.885901 C29.8593333,7.76456767 29.864,7.65256767 29.864,7.549901 C29.7613333,7.53123433 29.668,7.521901 29.584,7.521901 C29.5186667,7.51256767 29.4486667,7.49856767 29.374,7.479901 C29.2806667,7.46123433 29.1826667,7.451901 29.08,7.451901 C29.0053333,7.451901 28.94,7.437901 28.884,7.409901 C28.772,7.40056767 28.6646667,7.40056767 28.562,7.409901 C28.5433333,7.465901 28.534,7.53123433 28.534,7.605901 C28.506,7.661901 28.492,7.72723433 28.492,7.801901 C28.4733333,7.857901 28.464,7.92323433 28.464,7.997901 C28.4173333,8.081901 28.394,8.17523433 28.394,8.277901 C28.366,8.35256767 28.3473333,8.417901 28.338,8.473901 C28.31,8.57656767 28.2913333,8.655901 28.282,8.711901 L28.282,8.711901 L28.282,8.753901 C28.2353333,8.893901 28.198,9.033901 28.17,9.173901 C28.142,9.229901 28.1233333,9.30923433 28.114,9.411901 C28.0766667,9.48656767 28.0486667,9.57056767 28.03,9.663901 C28.0206667,9.691901 28.0066667,9.73623433 27.988,9.796901 C27.9693333,9.85756767 27.9553333,9.901901 27.946,9.929901 C27.9273333,9.99523433 27.897,10.0885677 27.855,10.209901 C27.834,10.2705677 27.8159167,10.3230677 27.80075,10.367401 L27.764,10.475901 C27.7546667,10.4945677 27.743,10.5202343 27.729,10.552901 L27.729,10.552901 L27.694,10.629901 C27.6846667,10.6672343 27.666,10.720901 27.638,10.790901 C27.61,10.860901 27.5866667,10.9145677 27.568,10.951901 C27.568,10.979901 27.5913333,11.0032343 27.638,11.021901 C27.6753333,11.021901 27.708,11.035901 27.736,11.063901 C27.8666667,11.119901 27.9926667,11.175901 28.114,11.231901 C28.142,11.2412343 28.1816667,11.2575677 28.233,11.280901 C28.2843333,11.3042343 28.324,11.3205677 28.352,11.329901 C28.4826667,11.385901 28.604,11.441901 28.716,11.497901 C28.772,11.525901 28.8046667,11.511901 28.814,11.455901 C28.8793333,11.3625677 28.926,11.259901 28.954,11.147901 C28.982,11.091901 29.01,11.0265677 29.038,10.951901 C29.094,10.811901 29.15,10.6625677 29.206,10.503901 L29.206,10.503901 L29.276,10.279901 C29.276,10.2145677 29.304,10.1585677 29.36,10.111901 C29.612,10.2612343 29.8686667,10.419901 30.13,10.587901 C30.41,10.755901 30.6993333,10.9052343 30.998,11.035901 C31.0166667,11.0452343 31.0446667,11.0545677 31.082,11.063901 C31.1473333,11.1012343 31.1986667,11.1245677 31.236,11.133901 C31.2546667,11.1432343 31.2826667,11.1525677 31.32,11.161901 C31.3853333,11.1992343 31.4366667,11.2225677 31.474,11.231901 C31.4926667,11.2412343 31.5253333,11.2505677 31.572,11.259901 C31.6653333,11.3065677 31.7353333,11.3345677 31.782,11.343901 C31.95,11.4185677 32.1273333,11.483901 32.314,11.539901 C32.3326667,11.5492343 32.3606667,11.5585677 32.398,11.567901 C32.5566667,11.6145677 32.6733333,11.651901 32.748,11.679901 C32.8693333,11.707901 33,11.7405677 33.14,11.777901 C33.4386667,11.8525677 33.728,11.9225677 34.008,11.987901 L34.008,11.987901 L34.204,12.029901 C34.2693333,12.029901 34.33,12.043901 34.386,12.071901 C34.414,12.0812343 34.4536667,12.0905677 34.505,12.099901 C34.5563333,12.1092343 34.596,12.113901 34.624,12.113901 L34.624,12.113901 L34.904,12.169901 L35.17,12.211901 L35.17,12.211901 L35.254,12.211901 C35.31,12.2212343 35.352,12.225901 35.38,12.225901 C35.3893333,12.225901 35.3986667,12.2305677 35.408,12.239901 C35.4826667,12.2492343 35.5386667,12.2632343 35.576,12.281901 C35.66,12.281901 35.7416667,12.288901 35.821,12.302901 C35.9003333,12.316901 35.9913333,12.323901 36.094,12.323901 C36.122,12.3425677 36.1593333,12.351901 36.206,12.351901 C36.2526667,12.3332343 36.29,12.337901 36.318,12.365901 C36.4393333,12.365901 36.556,12.3752343 36.668,12.393901 L36.668,12.393901 L36.71,12.393901 C36.738,12.421901 36.7846667,12.435901 36.85,12.435901 C36.906,12.4172343 36.9526667,12.421901 36.99,12.449901 L36.99,12.449901 Z M35.2695556,10.1663454 L35.38,10.153901 L35.954,10.139901 C36.094,10.139901 36.234,10.1305677 36.374,10.111901 C36.514,10.1212343 36.6493333,10.111901 36.78,10.083901 C36.948,10.0932343 37.102,10.083901 37.242,10.055901 C37.326,10.0745677 37.354,10.0605677 37.326,10.013901 C37.354,9.845901 37.3633333,9.67323433 37.354,9.495901 C37.3726667,9.40256767 37.382,9.30456767 37.382,9.201901 C37.3633333,9.089901 37.368,8.991901 37.396,8.907901 L37.396,8.907901 L37.41,8.291901 L37.41,8.011901 C37.3913333,7.927901 37.396,7.82523433 37.424,7.703901 L37.424,7.703901 L37.41,7.073901 L36.962,7.073901 C36.906,7.08323433 36.8313333,7.087901 36.738,7.087901 C36.626,7.087901 36.5233333,7.09723433 36.43,7.115901 C36.262,7.09723433 36.1173333,7.101901 35.996,7.129901 L35.996,7.129901 L35.422,7.143901 L34.316,7.171901 C34.2973333,7.283901 34.302,7.38656767 34.33,7.479901 L34.33,7.479901 L34.344,7.801901 L34.372,8.249901 L34.4,8.781901 C34.4,8.865901 34.4093333,8.94056767 34.428,9.005901 L34.428,9.005901 L34.428,9.047901 L34.442,9.397901 C34.442,9.50056767 34.4513333,9.59856767 34.47,9.691901 C34.4606667,9.803901 34.47,9.89256767 34.498,9.957901 C34.4886667,10.0045677 34.484,10.055901 34.484,10.111901 C34.484,10.1492343 34.5166667,10.1655677 34.582,10.160901 C34.6473333,10.1562343 34.722,10.1562343 34.806,10.160901 C34.89,10.1655677 34.974,10.1632343 35.058,10.153901 C35.1606667,10.1725677 35.268,10.1725677 35.38,10.153901 L35.2695556,10.1663454 Z M35.562,9.131901 C35.562,9.075901 35.548,9.01523433 35.52,8.949901 C35.5293333,8.82856767 35.52,8.711901 35.492,8.599901 L35.492,8.599901 L35.506,8.179901 L36.178,8.151901 C36.3086667,8.11456767 36.3646667,8.15656767 36.346,8.277901 L36.346,8.277901 L36.332,9.075901 C36.248,9.103901 36.15,9.11323433 36.038,9.103901 C35.982,9.131901 35.9073333,9.13656767 35.814,9.117901 C35.7206667,9.12723433 35.6366667,9.131901 35.562,9.131901 Z M45.13464,12.498621 L45.18,12.491901 C45.32,12.4732343 45.474,12.463901 45.642,12.463901 C45.698,12.435901 45.768,12.4312343 45.852,12.449901 C45.964,12.4405677 46.0666667,12.4265677 46.16,12.407901 C46.244,12.4265677 46.3093333,12.421901 46.356,12.393901 C46.496,12.4032343 46.622,12.393901 46.734,12.365901 C46.846,12.3752343 46.9486667,12.365901 47.042,12.337901 C47.1726667,12.3565677 47.2846667,12.351901 47.378,12.323901 C47.5086667,12.3332343 47.616,12.323901 47.7,12.295901 C47.812,12.3145677 47.9193333,12.309901 48.022,12.281901 C48.134,12.2912343 48.2413333,12.281901 48.344,12.253901 L48.344,12.253901 L48.848,12.225901 C48.932,12.197901 49.0253333,12.1932343 49.128,12.211901 C49.24,12.183901 49.3613333,12.1745677 49.492,12.183901 C49.5666667,12.155901 49.646,12.1512343 49.73,12.169901 C49.842,12.141901 49.954,12.1232343 50.066,12.113901 L50.066,12.113901 L50.248,12.113901 C50.304,12.113901 50.325,12.0765677 50.311,12.001901 C50.297,11.9272343 50.29,11.847901 50.29,11.763901 C50.2993333,11.651901 50.29,11.553901 50.262,11.469901 C50.2713333,11.301901 50.262,11.161901 50.234,11.049901 C50.2526667,11.0032343 50.2526667,10.9705677 50.234,10.951901 C50.2153333,10.9332343 50.1896667,10.9262343 50.157,10.930901 C50.1243333,10.9355677 50.0823333,10.9402343 50.031,10.944901 C49.9796667,10.9495677 49.94,10.951901 49.912,10.951901 L49.912,10.951901 L49.59,10.979901 C49.506,10.979901 49.422,10.9892343 49.338,11.007901 L49.338,11.007901 L48.61,11.063901 C48.47,11.063901 48.344,11.0732343 48.232,11.091901 C48.176,11.063901 48.1573333,11.0172343 48.176,10.951901 L48.176,10.951901 L48.176,10.783901 C48.1573333,10.7185677 48.19,10.6905677 48.274,10.699901 C48.33,10.7092343 48.3813333,10.699901 48.428,10.671901 C48.596,10.6905677 48.7406667,10.685901 48.862,10.657901 C49.002,10.6672343 49.128,10.657901 49.24,10.629901 L49.24,10.629901 L49.534,10.629901 L49.562,9.481901 C49.5713333,9.44456767 49.548,9.425901 49.492,9.425901 C49.436,9.425901 49.4033333,9.43523433 49.394,9.453901 C49.2353333,9.43523433 49.1,9.439901 48.988,9.467901 C48.8386667,9.467901 48.6986667,9.47723433 48.568,9.495901 L48.568,9.495901 L48.134,9.481901 C48.106,9.341901 48.148,9.271901 48.26,9.271901 L48.26,9.271901 L48.638,9.243901 L49.688,9.229901 L50.654,9.215901 L51.032,9.187901 C51.0506667,9.15056767 51.0506667,9.089901 51.032,9.005901 C51.0226667,8.893901 51.032,8.795901 51.06,8.711901 L51.06,8.711901 L51.074,8.179901 L51.088,7.563901 L51.116,6.919901 L51.172,5.225901 L51.158,4.903901 L48.134,4.889901 L48.134,4.889901 L48.134,4.749901 C48.134,4.693901 48.1666667,4.67523433 48.232,4.693901 L48.232,4.693901 L48.4,4.693901 C48.4933333,4.70323433 48.5633333,4.707901 48.61,4.707901 L48.61,4.707901 L49.24,4.721901 L49.926,4.721901 L49.94,3.979901 L49.94,3.363901 C49.856,3.335901 49.758,3.33123433 49.646,3.349901 C49.5246667,3.33123433 49.3986667,3.321901 49.268,3.321901 C49.016,3.34056767 48.7873333,3.335901 48.582,3.307901 L48.582,3.307901 L48.134,3.279901 L48.134,2.691901 C48.0406667,2.663901 47.9426667,2.65456767 47.84,2.663901 C47.784,2.64523433 47.7723333,2.63356767 47.805,2.628901 C47.8376667,2.62423433 47.8726667,2.62656767 47.91,2.635901 C47.966,2.607901 48.022,2.58923433 48.078,2.579901 L48.078,2.579901 L48.344,2.565901 C48.3906667,2.537901 48.442,2.523901 48.498,2.523901 L48.498,2.523901 L48.736,2.495901 L48.708,2.173901 C48.68,2.145901 48.6753333,2.11323433 48.694,2.075901 C48.694,2.02923433 48.6846667,1.991901 48.666,1.963901 L48.666,1.963901 L48.638,1.669901 C48.61,1.641901 48.6053333,1.60923433 48.624,1.571901 C48.624,1.515901 48.6146667,1.48323433 48.596,1.473901 L48.596,1.473901 L48.582,1.165901 L48.456,1.165901 C48.428,1.18456767 48.4,1.193901 48.372,1.193901 C48.3346667,1.17523433 48.3066667,1.179901 48.288,1.207901 C48.1946667,1.207901 48.106,1.21723433 48.022,1.235901 C47.994,1.25456767 47.9636667,1.26156767 47.931,1.256901 C47.8983333,1.25223433 47.8726667,1.263901 47.854,1.291901 L47.854,1.291901 L47.588,1.305901 C47.5693333,1.333901 47.532,1.34323433 47.476,1.333901 C47.4386667,1.333901 47.406,1.34323433 47.378,1.361901 C47.35,1.361901 47.301,1.36423433 47.231,1.368901 C47.161,1.37356767 47.1073333,1.375901 47.07,1.375901 C47.0513333,1.38523433 47.021,1.39456767 46.979,1.403901 C46.937,1.41323433 46.9066667,1.417901 46.888,1.417901 L46.888,1.417901 L46.594,1.445901 C46.5753333,1.46456767 46.538,1.473901 46.482,1.473901 C46.4446667,1.45523433 46.412,1.459901 46.384,1.487901 L46.384,1.487901 L46.048,1.515901 C46.02,1.53456767 45.992,1.543901 45.964,1.543901 C45.9266667,1.52523433 45.894,1.529901 45.866,1.557901 L45.866,1.557901 L45.53,1.585901 C45.446,1.585901 45.362,1.599901 45.278,1.627901 L45.278,1.627901 L44.942,1.641901 C44.914,1.669901 44.8813333,1.67923433 44.844,1.669901 C44.788,1.669901 44.7553333,1.67923433 44.746,1.697901 C44.718,1.697901 44.6666667,1.70023433 44.592,1.704901 C44.5173333,1.70956767 44.4613333,1.711901 44.424,1.711901 C44.368,1.739901 44.3073333,1.74923433 44.242,1.739901 C44.214,1.75856767 44.186,1.767901 44.158,1.767901 C44.1206667,1.74923433 44.0926667,1.753901 44.074,1.781901 C43.9993333,1.77256767 43.934,1.781901 43.878,1.809901 C43.8966667,1.87523433 43.906,1.935901 43.906,1.991901 C43.906,2.02923433 43.92,2.075901 43.948,2.131901 L43.948,2.131901 L43.976,2.383901 C43.976,2.439901 43.99,2.49123433 44.018,2.537901 L44.018,2.537901 L44.032,2.789901 C44.0413333,2.80856767 44.0506667,2.83423433 44.06,2.866901 C44.0693333,2.89956767 44.074,2.92523433 44.074,2.943901 C44.046,3.055901 44.0833333,3.10723433 44.186,3.097901 C44.214,3.069901 44.2606667,3.06523433 44.326,3.083901 C44.382,3.083901 44.424,3.07456767 44.452,3.055901 C44.5826667,3.055901 44.704,3.04656767 44.816,3.027901 C44.844,2.999901 44.8813333,2.99523433 44.928,3.013901 C44.9653333,3.013901 44.998,3.00456767 45.026,2.985901 L45.026,2.985901 L45.348,2.971901 C45.376,2.943901 45.4133333,2.93223433 45.46,2.936901 C45.5066667,2.94156767 45.544,2.93456767 45.572,2.915901 C45.6186667,2.915901 45.684,2.91356767 45.768,2.908901 C45.852,2.90423433 45.9126667,2.901901 45.95,2.901901 C45.9593333,2.873901 45.992,2.86923433 46.048,2.887901 C46.0853333,2.887901 46.118,2.87856767 46.146,2.859901 L46.146,2.859901 L46.454,2.831901 C46.482,2.803901 46.524,2.79923433 46.58,2.817901 C46.6173333,2.817901 46.65,2.80856767 46.678,2.789901 C46.7713333,2.761901 46.818,2.789901 46.818,2.873901 L46.818,2.873901 L46.804,3.237901 L45.992,3.237901 L44.634,3.195901 C44.438,3.21456767 44.2513333,3.209901 44.074,3.181901 L44.074,3.181901 L43.192,3.167901 L42.912,3.167901 C42.8746667,3.195901 42.87,3.22856767 42.898,3.265901 C42.9166667,3.321901 42.912,3.35923433 42.884,3.377901 L42.884,3.377901 L42.87,4.105901 L42.87,4.553901 C43.0286667,4.54456767 43.1686667,4.553901 43.29,4.581901 L43.29,4.581901 L44.074,4.581901 L45.292,4.623901 C45.488,4.60523433 45.6606667,4.609901 45.81,4.637901 L45.81,4.637901 L46.636,4.651901 C46.664,4.66123433 46.706,4.665901 46.762,4.665901 C46.818,4.665901 46.8366667,4.693901 46.818,4.749901 C46.8366667,4.861901 46.8086667,4.91323433 46.734,4.903901 C46.566,4.88523433 46.4213333,4.889901 46.3,4.917901 L46.3,4.917901 L46.16,4.917901 L44.242,4.931901 L43.976,4.959901 C43.9853333,5.071901 43.99,5.211901 43.99,5.379901 L43.99,5.379901 L44.004,6.331901 L44.018,7.115901 L44.046,8.011901 C44.046,8.19856767 44.0553333,8.38056767 44.074,8.557901 L44.074,8.557901 L44.088,9.201901 C44.0973333,9.257901 44.13,9.28123433 44.186,9.271901 L44.186,9.271901 L46.804,9.285901 L46.79,9.579901 C46.6966667,9.579901 46.6126667,9.58923433 46.538,9.607901 C46.398,9.58923433 46.2813333,9.593901 46.188,9.621901 C46.0666667,9.621901 45.9546667,9.63123433 45.852,9.649901 L45.852,9.649901 L45.404,9.663901 L45.404,9.663901 L45.404,9.789901 C45.404,9.901901 45.4133333,9.99523433 45.432,10.069901 L45.432,10.069901 L45.446,10.377901 C45.446,10.517901 45.4553333,10.6532343 45.474,10.783901 C45.474,10.8212343 45.5043333,10.8375677 45.565,10.832901 C45.6256667,10.8282343 45.6793333,10.8305677 45.726,10.839901 C45.81,10.8492343 45.8893333,10.839901 45.964,10.811901 L45.964,10.811901 L46.286,10.797901 C46.4446667,10.8072343 46.594,10.797901 46.734,10.769901 C46.79,10.769901 46.8156667,10.8095677 46.811,10.888901 C46.8063333,10.9682343 46.811,11.0382343 46.825,11.098901 C46.839,11.1595677 46.8226667,11.1875677 46.776,11.182901 C46.7293333,11.1782343 46.692,11.1852343 46.664,11.203901 C46.524,11.1945677 46.412,11.203901 46.328,11.231901 C46.1973333,11.2132343 46.076,11.217901 45.964,11.245901 C45.852,11.245901 45.7493333,11.2552343 45.656,11.273901 C45.4973333,11.2552343 45.362,11.259901 45.25,11.287901 L45.25,11.287901 L45.054,11.287901 C45.0166667,11.287901 44.991,11.294901 44.977,11.308901 C44.963,11.322901 44.9653333,11.3485677 44.984,11.385901 C44.984,11.497901 44.9933333,11.595901 45.012,11.679901 C44.9933333,11.791901 44.998,11.889901 45.026,11.973901 C45.026,12.085901 45.0353333,12.183901 45.054,12.267901 L45.054,12.267901 L45.054,12.435901 C45.054,12.491901 45.096,12.5105677 45.18,12.491901 L45.13464,12.498621 Z M48.2428889,8.13478989 L48.134,8.123901 C48.106,8.03056767 48.1013333,7.91856767 48.12,7.787901 C48.1666667,7.759901 48.2366667,7.75056767 48.33,7.759901 C48.498,7.759901 48.6426667,7.76923433 48.764,7.787901 L48.764,7.787901 L49.296,7.787901 C49.3426667,7.79723433 49.394,7.801901 49.45,7.801901 C49.506,7.78323433 49.5246667,7.745901 49.506,7.689901 L49.506,7.689901 L49.52,6.835901 L49.52,6.625901 L49.114,6.611901 L48.274,6.583901 C48.246,6.57456767 48.2133333,6.569901 48.176,6.569901 C48.1386667,6.569901 48.1246667,6.54656767 48.134,6.499901 L48.134,6.499901 L48.134,6.163901 L49.87,6.163901 C49.87,6.28523433 49.8653333,6.401901 49.856,6.513901 L49.856,6.513901 L49.842,7.087901 L49.814,7.633901 L49.8,8.081901 L49.422,8.109901 L48.722,8.123901 C48.6193333,8.123901 48.526,8.11923433 48.442,8.109901 C48.3486667,8.137901 48.246,8.14256767 48.134,8.123901 L48.2428889,8.13478989 Z M46.77075,8.1313385 L46.734,8.123901 L45.334,8.123901 L45.306,7.115901 C45.3246667,6.919901 45.32,6.72856767 45.292,6.541901 L45.292,6.541901 L45.292,6.163901 L46.818,6.163901 L46.804,6.527901 C46.5613333,6.54656767 46.328,6.541901 46.104,6.513901 L46.104,6.513901 L45.558,6.527901 L45.544,7.073901 C45.544,7.241901 45.5346667,7.40056767 45.516,7.549901 L45.516,7.549901 L45.516,7.591901 C45.516,7.647901 45.5486667,7.675901 45.614,7.675901 L45.614,7.675901 L45.796,7.675901 C45.936,7.65723433 46.0713333,7.661901 46.202,7.689901 L46.202,7.689901 L46.818,7.703901 C46.846,7.77856767 46.846,7.857901 46.818,7.941901 L46.818,7.941901 L46.818,8.074901 C46.818,8.12623433 46.79,8.14256767 46.734,8.123901 L46.77075,8.1313385 Z M57.248,9.07901211 L57.283,9.075901 C57.325,9.06656767 57.3833333,9.05256767 57.458,9.033901 C57.514,9.02456767 57.5583333,9.01756767 57.591,9.012901 C57.6236667,9.00823433 57.6703333,9.00356767 57.731,8.998901 C57.7916667,8.99423433 57.836,8.991901 57.864,8.991901 C57.92,8.963901 57.9713333,8.949901 58.018,8.949901 L58.018,8.949901 L58.172,8.921901 C58.2093333,8.893901 58.256,8.879901 58.312,8.879901 L58.312,8.879901 L58.508,8.851901 C58.536,8.84256767 58.5733333,8.82856767 58.62,8.809901 C58.704,8.80056767 58.7833333,8.781901 58.858,8.753901 C58.886,8.725901 58.886,8.697901 58.858,8.669901 C58.83,8.62323433 58.8253333,8.585901 58.844,8.557901 C58.7973333,8.501901 58.774,8.42256767 58.774,8.319901 C58.7646667,8.291901 58.753,8.249901 58.739,8.193901 C58.725,8.137901 58.7133333,8.095901 58.704,8.067901 C58.6666667,7.899901 58.6386667,7.74123433 58.62,7.591901 C58.6106667,7.54523433 58.5943333,7.472901 58.571,7.374901 C58.5476667,7.276901 58.5313333,7.20456767 58.522,7.157901 C58.5126667,7.09256767 58.494,7.017901 58.466,6.933901 C58.438,6.89656767 58.4333333,6.84056767 58.452,6.765901 C58.424,6.72856767 58.4053333,6.681901 58.396,6.625901 L58.396,6.625901 L58.382,6.401901 C58.354,6.345901 58.34,6.289901 58.34,6.233901 L58.34,6.233901 L58.312,6.037901 C58.284,6.00056767 58.27,5.953901 58.27,5.897901 L58.27,5.897901 L58.242,5.743901 C58.2326667,5.715901 58.2186667,5.67856767 58.2,5.631901 L58.2,5.631901 L58.172,5.435901 C58.144,5.407901 58.1393333,5.379901 58.158,5.351901 C58.158,5.30523433 58.1486667,5.267901 58.13,5.239901 L58.13,5.239901 L58.116,5.043901 C58.0973333,5.00656767 58.116,4.96456767 58.172,4.917901 L58.578,4.511901 C58.5873333,4.483901 58.606,4.455901 58.634,4.427901 C58.6993333,4.35323433 58.7996667,4.24123433 58.935,4.091901 C59.0703333,3.94256767 59.1706667,3.83056767 59.236,3.755901 C59.2453333,3.73723433 59.264,3.713901 59.292,3.685901 C59.348,3.62056767 59.39,3.56923433 59.418,3.531901 C59.5486667,3.40123433 59.656,3.265901 59.74,3.125901 C59.656,3.03256767 59.558,2.94856767 59.446,2.873901 C59.4273333,2.85523433 59.404,2.831901 59.376,2.803901 C59.3013333,2.747901 59.2453333,2.705901 59.208,2.677901 C59.0773333,2.55656767 58.942,2.44456767 58.802,2.341901 C58.746,2.285901 58.69,2.23923433 58.634,2.201901 C58.5313333,2.13656767 58.424,2.06656767 58.312,1.991901 L58.312,1.991901 L58.256,1.991901 C58.1253333,2.159901 57.976,2.327901 57.808,2.495901 C57.556,2.747901 57.318,2.999901 57.094,3.251901 C57.0286667,3.363901 56.9446667,3.45256767 56.842,3.517901 C56.814,3.545901 56.7743333,3.59023433 56.723,3.650901 C56.6716667,3.71156767 56.632,3.755901 56.604,3.783901 C56.3053333,4.04523433 56.016,4.315901 55.736,4.595901 C55.6146667,4.707901 55.484,4.81056767 55.344,4.903901 C55.2786667,4.95056767 55.218,4.99256767 55.162,5.029901 C55.1246667,5.029901 55.092,5.043901 55.064,5.071901 C55.0453333,5.08123433 55.036,5.092901 55.036,5.106901 C55.036,5.120901 55.05,5.13723433 55.078,5.155901 C55.1713333,5.34256767 55.274,5.52456767 55.386,5.701901 C55.4606667,5.785901 55.5306667,5.869901 55.596,5.953901 C55.6333333,6.037901 55.694,6.121901 55.778,6.205901 C55.8433333,6.30856767 55.918,6.401901 56.002,6.485901 C56.0486667,6.55123433 56.1046667,6.541901 56.17,6.457901 C56.31,6.35523433 56.436,6.26656767 56.548,6.191901 C56.5853333,6.163901 56.6133333,6.142901 56.632,6.128901 C56.6506667,6.114901 56.6646667,6.11256767 56.674,6.121901 C56.6833333,6.13123433 56.688,6.15223433 56.688,6.184901 C56.688,6.21756767 56.702,6.261901 56.73,6.317901 L56.73,6.317901 L56.744,6.485901 C56.744,6.49523433 56.7486667,6.50923433 56.758,6.527901 C56.7766667,6.57456767 56.7906667,6.60723433 56.8,6.625901 L56.8,6.625901 L56.814,6.821901 C56.8326667,6.849901 56.8466667,6.88723433 56.856,6.933901 C56.8653333,6.98056767 56.8793333,7.05056767 56.898,7.143901 C56.9073333,7.20923433 56.9166667,7.26056767 56.926,7.297901 C56.9353333,7.31656767 56.9446667,7.346901 56.954,7.388901 C56.9633333,7.430901 56.968,7.46123433 56.968,7.479901 L56.968,7.479901 L56.996,7.703901 C57.0146667,7.72256767 57.024,7.75056767 57.024,7.787901 C57.0053333,7.815901 57.01,7.83923433 57.038,7.857901 C57.038,7.95123433 57.0473333,8.039901 57.066,8.123901 C57.0753333,8.14256767 57.0846667,8.172901 57.094,8.214901 C57.1033333,8.256901 57.108,8.28723433 57.108,8.305901 L57.108,8.305901 L57.122,8.543901 C57.1313333,8.599901 57.15,8.66056767 57.178,8.725901 C57.178,8.809901 57.1826667,8.88923433 57.192,8.963901 C57.2106667,8.991901 57.22,9.019901 57.22,9.047901 C57.22,9.075901 57.241,9.08523433 57.283,9.075901 L57.248,9.07901211 Z M62.33,11.679901 C62.442,11.6985677 62.5493333,11.693901 62.652,11.665901 C62.8386667,11.6752343 63.0066667,11.665901 63.156,11.637901 L63.156,11.637901 L63.492,11.623901 C63.5853333,11.623901 63.632,11.5935677 63.632,11.532901 L63.632,11.532901 L63.632,11.329901 L63.618,10.993901 C63.6646667,10.9565677 63.7346667,10.9425677 63.828,10.951901 C63.912,10.979901 64.0053333,10.9892343 64.108,10.979901 L64.108,10.979901 L65.032,10.965901 C65.06,10.797901 65.0693333,10.629901 65.06,10.461901 L65.06,10.461901 L65.046,9.733901 L64.724,9.719901 C64.584,9.70123433 64.4673333,9.705901 64.374,9.733901 L64.374,9.733901 L63.562,9.719901 L63.576,8.333901 C63.6506667,8.361901 63.7183333,8.403901 63.779,8.459901 C63.8396667,8.515901 63.912,8.58123433 63.996,8.655901 C64.108,8.73056767 64.22,8.79823433 64.332,8.858901 C64.444,8.91956767 64.556,8.98723433 64.668,9.061901 C64.696,9.08056767 64.738,9.103901 64.794,9.131901 C64.8873333,9.187901 64.9573333,9.229901 65.004,9.257901 C65.116,9.35123433 65.242,9.425901 65.382,9.481901 C65.438,9.51923433 65.5266667,9.565901 65.648,9.621901 C65.732,9.66856767 65.7926667,9.70123433 65.83,9.719901 L65.83,9.719901 L66.222,9.901901 C66.2406667,9.929901 66.264,9.94856767 66.292,9.957901 C66.292,9.96723433 66.2966667,9.971901 66.306,9.971901 C66.334,9.999901 66.3573333,9.99056767 66.376,9.943901 C66.3853333,9.92523433 66.404,9.89256767 66.432,9.845901 C66.4973333,9.75256767 66.544,9.68023433 66.572,9.628901 C66.6,9.57756767 66.642,9.50523433 66.698,9.411901 C66.782,9.26256767 66.8473333,9.15523433 66.894,9.089901 C66.9406667,9.005901 66.978,8.90323433 67.006,8.781901 C67.006,8.74456767 66.9686667,8.71656767 66.894,8.697901 C66.7913333,8.66056767 66.698,8.613901 66.614,8.557901 C66.362,8.417901 66.1986667,8.32923433 66.124,8.291901 C66.096,8.277901 66.06975,8.264776 66.04525,8.252526 L65.91925,8.189526 L65.91925,8.189526 L65.872,8.165901 C65.788,8.109901 65.704,8.06323433 65.62,8.025901 L65.62,8.025901 L65.214,7.801901 C65.1766667,7.78323433 65.123,7.75523433 65.053,7.717901 C64.983,7.68056767 64.9293333,7.65256767 64.892,7.633901 C64.7706667,7.549901 64.654,7.465901 64.542,7.381901 C64.43,7.31656767 64.3273333,7.24656767 64.234,7.171901 C64.1873333,7.16256767 64.15,7.185901 64.122,7.241901 C64.1126667,7.26056767 64.0963333,7.283901 64.073,7.311901 C64.0496667,7.339901 64.0333333,7.35856767 64.024,7.367901 C63.912,7.49856767 63.8,7.62456767 63.688,7.745901 C63.6693333,7.79256767 63.632,7.83456767 63.576,7.871901 L63.576,7.871901 L63.576,6.457901 C63.604,6.457901 63.646,6.45556767 63.702,6.450901 L63.7541111,6.44623433 C63.7862593,6.44312322 63.8132222,6.44001211 63.835,6.436901 C63.8676667,6.43223433 63.9166667,6.422901 63.982,6.408901 C64.0473333,6.394901 64.094,6.38323433 64.122,6.373901 C64.1966667,6.373901 64.262,6.359901 64.318,6.331901 L64.318,6.331901 L64.36,6.331901 C64.4066667,6.32256767 64.4393333,6.317901 64.458,6.317901 C64.486,6.261901 64.4953333,6.20123433 64.486,6.135901 C64.4953333,6.079901 64.486,6.01923433 64.458,5.953901 C64.458,5.757901 64.4533333,5.56656767 64.444,5.379901 C64.4533333,5.239901 64.444,5.12323433 64.416,5.029901 C64.4253333,4.945901 64.416,4.87123433 64.388,4.805901 C64.36,4.75923433 64.3273333,4.749901 64.29,4.777901 C64.2526667,4.78723433 64.2106667,4.791901 64.164,4.791901 C64.052,4.81056767 63.94,4.82456767 63.828,4.833901 C63.7533333,4.833901 63.702,4.84323433 63.674,4.861901 C63.6366667,4.82456767 63.6226667,4.75456767 63.632,4.651901 L63.632,4.651901 L63.618,2.187901 C63.5993333,2.159901 63.604,2.14123433 63.632,2.131901 C63.6413333,2.131901 63.6483333,2.12723433 63.653,2.117901 C63.6576667,2.10856767 63.6506667,2.09923433 63.632,2.089901 C63.576,2.07123433 63.52,2.061901 63.464,2.061901 L63.464,2.061901 L63.156,2.075901 C63.1093333,2.075901 63.0416667,2.07356767 62.953,2.068901 C62.8643333,2.06423433 62.7966667,2.061901 62.75,2.061901 L62.75,2.061901 L62.12,2.061901 C62.1013333,2.08056767 62.078,2.089901 62.05,2.089901 C62.0126667,2.07123433 61.9846667,2.075901 61.966,2.103901 C61.9286667,2.103901 61.9123333,2.131901 61.917,2.187901 C61.9216667,2.243901 61.924,2.29523433 61.924,2.341901 L61.924,2.341901 L61.91,2.761901 L61.896,5.001901 C61.8213333,5.01123433 61.742,5.015901 61.658,5.015901 C61.602,5.02523433 61.546,5.043901 61.49,5.071901 L61.49,5.071901 L61.224,5.085901 C61.196,5.10456767 61.1586667,5.113901 61.112,5.113901 C61.0653333,5.09523433 61.028,5.099901 61,5.127901 C60.8973333,5.127901 60.79,5.13723433 60.678,5.155901 C60.6593333,5.17456767 60.636,5.183901 60.608,5.183901 C60.5706667,5.16523433 60.5426667,5.169901 60.524,5.197901 L60.524,5.197901 L60.314,5.225901 C60.286,5.24456767 60.258,5.253901 60.23,5.253901 C60.1926667,5.23523433 60.16,5.239901 60.132,5.267901 C60.104,5.267901 60.0573333,5.27023433 59.992,5.274901 C59.9266667,5.27956767 59.8753333,5.281901 59.838,5.281901 C59.754,5.309901 59.67,5.33323433 59.586,5.351901 C59.558,5.351901 59.516,5.35423433 59.46,5.358901 C59.404,5.36356767 59.362,5.365901 59.334,5.365901 C59.2406667,5.393901 59.138,5.40323433 59.026,5.393901 C58.9886667,5.41256767 58.9443333,5.42423433 58.893,5.428901 C58.8416667,5.43356767 58.7833333,5.44523433 58.718,5.463901 C58.69,5.47323433 58.6503333,5.477901 58.599,5.477901 C58.5476667,5.477901 58.536,5.505901 58.564,5.561901 C58.592,5.701901 58.62,5.84656767 58.648,5.995901 C58.6666667,6.051901 58.676,6.121901 58.676,6.205901 C58.6946667,6.233901 58.7086667,6.27123433 58.718,6.317901 C58.718,6.33656767 58.7203333,6.373901 58.725,6.429901 C58.7296667,6.485901 58.732,6.527901 58.732,6.555901 C58.7413333,6.611901 58.76,6.67256767 58.788,6.737901 C58.788,6.78456767 58.795,6.828901 58.809,6.870901 C58.823,6.912901 58.858,6.933901 58.914,6.933901 C58.9326667,6.933901 58.956,6.93156767 58.984,6.926901 C59.012,6.92223433 59.0306667,6.919901 59.04,6.919901 C59.124,6.919901 59.2033333,6.91056767 59.278,6.891901 L59.278,6.891901 L59.614,6.877901 C59.7166667,6.877901 59.81,6.86856767 59.894,6.849901 C59.978,6.83123433 60.0713333,6.821901 60.174,6.821901 C60.258,6.80323433 60.3466667,6.793901 60.44,6.793901 L60.44,6.793901 L60.874,6.779901 L61.07,6.737901 L61.392,6.709901 L61.616,6.681901 C61.6813333,6.653901 61.756,6.64923433 61.84,6.667901 C61.924,6.64923433 61.9613333,6.681901 61.952,6.765901 L61.952,6.765901 L61.938,7.227901 C61.826,7.37723433 61.7046667,7.507901 61.574,7.619901 C61.4153333,7.75056767 61.266,7.86256767 61.126,7.955901 C61.1166667,7.96523433 61.098,7.97456767 61.07,7.983901 C60.9766667,8.04923433 60.9066667,8.10523433 60.86,8.151901 C60.5053333,8.38523433 60.146,8.613901 59.782,8.837901 C59.6326667,8.94056767 59.4646667,9.033901 59.278,9.117901 C59.166,9.19256767 59.04,9.257901 58.9,9.313901 C58.8066667,9.35123433 58.7226667,9.397901 58.648,9.453901 C58.6013333,9.46323433 58.564,9.481901 58.536,9.509901 C58.508,9.51923433 58.4916667,9.530901 58.487,9.544901 C58.4823333,9.558901 58.494,9.579901 58.522,9.607901 C58.578,9.719901 58.6433333,9.82723433 58.718,9.929901 C58.7646667,10.0232343 58.7996667,10.090901 58.823,10.132901 C58.8463333,10.174901 58.8626667,10.209901 58.872,10.237901 C58.9933333,10.4245677 59.124,10.6065677 59.264,10.783901 C59.292,10.7745677 59.32,10.755901 59.348,10.727901 C59.488,10.643901 59.6326667,10.5692343 59.782,10.503901 C59.8193333,10.475901 59.8823333,10.4385677 59.971,10.391901 C60.0596667,10.3452343 60.1273333,10.307901 60.174,10.279901 C60.2953333,10.1772343 60.426,10.083901 60.566,9.999901 C60.6873333,9.96256767 60.804,9.90656767 60.916,9.831901 C60.9533333,9.803901 61.0046667,9.76656767 61.07,9.719901 C61.2193333,9.607901 61.3313333,9.523901 61.406,9.467901 L61.406,9.467901 L61.91,9.131901 C61.938,9.09456767 61.959,9.07823433 61.973,9.082901 C61.987,9.08756767 61.994,9.10856767 61.994,9.145901 L61.994,9.145901 L61.98,9.817901 C61.8586667,9.80856767 61.7466667,9.817901 61.644,9.845901 L61.644,9.845901 L61.266,9.845901 C61.2193333,9.845901 61.196,9.85056767 61.196,9.859901 L61.1835556,9.87234544 C61.1794074,9.88271581 61.1835556,9.89723433 61.196,9.915901 C61.1773333,9.971901 61.168,10.0395677 61.168,10.118901 C61.168,10.1982343 61.1773333,10.2612343 61.196,10.307901 C61.1866667,10.531901 61.196,10.7372343 61.224,10.923901 C61.2053333,10.9892343 61.238,11.021901 61.322,11.021901 L61.322,11.021901 L61.532,11.021901 C61.6906667,11.021901 61.8306667,11.0172343 61.952,11.007901 C61.98,11.007901 61.994,11.021901 61.994,11.049901 C61.9753333,11.077901 61.98,11.0965677 62.008,11.105901 L62.008,11.105901 L62.022,11.567901 C62.0406667,11.595901 62.043,11.616901 62.029,11.630901 C62.015,11.644901 62.022,11.6565677 62.05,11.665901 C62.134,11.6752343 62.2273333,11.679901 62.33,11.679901 Z" id="path-1"></path>
    </defs>
    <g id="页面-1" stroke="none" stroke-width="1" fill="none" fill-rule="evenodd">
        <g id="画板" transform="translate(-169.000000, -52.000000)">
            <g id="方正超重体" transform="translate(169.000000, 52.000000)">
                <rect id="矩形备份-15" stroke-opacity="0" stroke="#979797" x="0.5" y="0.5" width="79" height="23"></rect>
                <g id="方正超重体备份-2" transform="translate(7.000000, 5.000000)" fill-rule="nonzero">
                    <g id="方正超重体">
                        <use fill="#000000" xlink:href="#path-1"></use>
                        <use fill="#333333" xlink:href="#path-1"></use>
                    </g>
                </g>
            </g>
        </g>
    </g>
</svg>