<?xml version="1.0" encoding="UTF-8"?>
<svg width="80px" height="24px" viewBox="0 0 80 24" version="1.1" xmlns="http://www.w3.org/2000/svg" xmlns:xlink="http://www.w3.org/1999/xlink">
    <title>方正工业体</title>
    <defs>
        <path d="M11.256,13.092 L12.096,12.238 L12.096,5.532 L6.314,5.532 L6.314,4.538 L13.132,4.538 L13.132,1.766 L9.002,1.766 L9.24,0.814 L4.55,0.814 L4.55,1.766 L0.672,1.766 L1.344,4.538 L2.828,4.538 L2.828,6.82 L0.98,13.022 L4.718,13.022 L6.118,8.108 L8.666,8.108 L8.666,10.418 L5.866,10.418 L6.524,13.092 L11.256,13.092 Z M27.244,13.008 L27.244,10.334 L23.31,10.334 L23.31,8.276 L26.362,8.276 L26.362,5.602 L23.31,5.602 L23.31,3.768 L26.796,3.768 L26.796,1.192 L15.092,1.192 L15.722,3.768 L20.062,3.768 L20.062,10.334 L19.11,10.334 L19.11,4.818 L16.184,4.818 L16.184,10.334 L14.574,10.334 L15.204,13.008 L27.244,13.008 Z M41.188,12.84 L41.188,10.082 L36.68,10.082 L36.68,4.076 L40.628,4.076 L40.628,1.346 L29.456,1.346 L30.002,4.076 L33.18,4.076 L33.18,10.082 L28.686,10.082 L29.26,12.84 L41.188,12.84 Z M55.23,13.064 L55.23,10.558 L52.108,10.558 L52.108,0.968 L49.392,0.968 L49.392,10.558 L48.678,10.558 L48.678,0.968 L46.046,0.968 L46.046,10.558 L42.728,10.558 L43.204,13.064 L55.23,13.064 Z M54.502,9.844 L55.16,2.312 L52.948,2.312 L52.248,9.844 L54.502,9.844 Z M45.906,9.816 L45.234,2.312 L43.008,2.312 L43.708,9.816 L45.906,9.816 Z M60.018,13.372 L60.018,12.308 L61.936,12.308 L62.412,9.802 L62.762,11.496 L63.196,11.496 L63.196,13.372 L65.968,13.372 L65.968,11.496 L66.626,11.496 L66.626,9.34 L65.968,9.34 L65.968,5.476 L67.2,12.294 L69.594,12.294 L68.278,5.294 L66.29,5.294 L66.29,4.818 L69.048,4.818 L69.048,2.396 L66.29,2.396 L66.29,0.814 L62.832,0.814 L62.832,2.396 L60.564,2.396 L60.928,0.842 L57.974,0.842 L56.378,7.296 L57.19,7.296 L57.19,13.372 L60.018,13.372 Z M60.018,10.026 L60.018,4.846 L60.354,3.376 L60.662,4.818 L62.832,4.818 L62.832,5.294 L60.942,5.294 L60.018,10.026 Z M63.196,9.34 L62.496,9.34 L63.196,5.602 L63.196,9.34 Z" id="path-1"></path>
    </defs>
    <g id="页面-1" stroke="none" stroke-width="1" fill="none" fill-rule="evenodd">
        <g id="画板" transform="translate(-169.000000, -103.000000)">
            <g id="方正工业体" transform="translate(169.000000, 103.000000)">
                <rect id="矩形备份-11" stroke-opacity="0" stroke="#979797" x="0.5" y="0.5" width="79" height="23"></rect>
                <g transform="translate(5.000000, 5.000000)" fill-rule="nonzero">
                    <g>
                        <use fill="#000000" xlink:href="#path-1"></use>
                        <use fill="#333333" xlink:href="#path-1"></use>
                    </g>
                </g>
            </g>
        </g>
    </g>
</svg>