<?xml version="1.0" encoding="UTF-8"?>
<svg width="80px" height="24px" viewBox="0 0 80 24" version="1.1" xmlns="http://www.w3.org/2000/svg" xmlns:xlink="http://www.w3.org/1999/xlink">
    <title>方正得年体</title>
    <defs>
        <path d="M8.022,4.656 C8.05,4.69333333 8.06866667,4.69333333 8.078,4.656 C8.106,4.60933333 8.148,4.59533333 8.204,4.614 C8.344,4.43666667 8.45133333,4.25 8.526,4.054 C8.51666667,3.84866667 8.47933333,3.65266667 8.414,3.466 C8.31133333,3.16733333 8.14333333,2.89666667 7.91,2.654 C7.854,2.64466667 7.80733333,2.61666667 7.77,2.57 C7.73266667,2.52333333 7.67666667,2.514 7.602,2.542 C7.55533333,2.49533333 7.52266667,2.44866667 7.504,2.402 C7.45733333,2.346 7.41533333,2.332 7.378,2.36 C7.294,2.26666667 7.18666667,2.20133333 7.056,2.164 C6.93466667,2.12666667 6.83666667,2.052 6.762,1.94 C6.65933333,1.856 6.56133333,1.76266667 6.468,1.66 C6.39333333,1.548 6.27666667,1.51066667 6.118,1.548 C5.922,1.72533333 5.838,1.94 5.866,2.192 C5.93133333,2.40666667 5.98266667,2.61666667 6.02,2.822 C6.02,2.878 6.03866667,2.92466667 6.076,2.962 C6.11333333,2.99933333 6.12733333,3.05066667 6.118,3.116 C6.16466667,3.16266667 6.188,3.214 6.188,3.27 C6.188,3.326 6.22066667,3.35866667 6.286,3.368 C6.24866667,3.452 6.26266667,3.49866667 6.328,3.508 C6.384,3.61066667 6.43533333,3.718 6.482,3.83 C6.538,3.95133333 6.50066667,4.05866667 6.37,4.152 C6.29533333,4.21733333 6.30933333,4.278 6.412,4.334 C6.54266667,4.20333333 6.67333333,4.20333333 6.804,4.334 C6.86,4.31533333 6.90666667,4.32466667 6.944,4.362 C6.99066667,4.39933333 7.05133333,4.41333333 7.126,4.404 C7.21,4.44133333 7.30333333,4.45066667 7.406,4.432 C7.518,4.42266667 7.61133333,4.44133333 7.686,4.488 L7.686,4.488 L8.022,4.656 Z M2.184,14.442 C2.212,14.498 2.24466667,14.498 2.282,14.442 C2.41266667,14.442 2.51066667,14.386 2.576,14.274 C2.64133333,14.1713333 2.72533333,14.0873333 2.828,14.022 C3.22933333,13.63 3.63066667,13.2473333 4.032,12.874 C4.088,12.9206667 4.13,12.9206667 4.158,12.874 C4.19533333,12.8366667 4.23733333,12.8086667 4.284,12.79 C4.23733333,12.7526667 4.23733333,12.72 4.284,12.692 C4.34,12.664 4.368,12.6266667 4.368,12.58 C4.60133333,12.384 4.82533333,12.1833333 5.04,11.978 C5.13333333,11.922 5.222,11.8753333 5.306,11.838 C5.39,11.81 5.474,11.8426667 5.558,11.936 C5.558,11.992 5.6,12.062 5.684,12.146 C5.74,12.1833333 5.75866667,12.216 5.74,12.244 C5.73066667,12.272 5.754,12.3 5.81,12.328 C5.87533333,12.4213333 5.964,12.496 6.076,12.552 C6.19733333,12.636 6.28133333,12.7293333 6.328,12.832 C6.39333333,13 6.46333333,13.154 6.538,13.294 C6.566,13.49 6.664,13.6486667 6.832,13.77 C6.85066667,13.882 6.89733333,13.924 6.972,13.896 C7,13.9613333 7.05133333,14.0033333 7.126,14.022 C7.21,14.05 7.27066667,14.092 7.308,14.148 C7.41066667,14.1946667 7.51333333,14.2506667 7.616,14.316 C7.71866667,14.3906667 7.81666667,14.3626667 7.91,14.232 C7.95666667,14.1293333 8.03133333,14.0453333 8.134,13.98 C8.246,13.9146667 8.31133333,13.8306667 8.33,13.728 C8.666,13.42 8.92266667,13.0606667 9.1,12.65 C9.14666667,12.5753333 9.17466667,12.4866667 9.184,12.384 C9.20266667,12.2813333 9.25866667,12.1926667 9.352,12.118 C9.464,11.9686667 9.52,11.796 9.52,11.6 C9.67866667,11.4133333 9.77666667,11.1986667 9.814,10.956 C9.80466667,10.8066667 9.83733333,10.6666667 9.912,10.536 C9.856,10.4986667 9.85133333,10.452 9.898,10.396 C9.91666667,10.3586667 9.92133333,10.3073333 9.912,10.242 C10.0146667,9.878 10.0146667,9.52333333 9.912,9.178 C9.856,9.15933333 9.83733333,9.122 9.856,9.066 C9.884,9.01933333 9.87,8.996 9.814,8.996 C9.55266667,8.604 9.226,8.29133333 8.834,8.058 C8.68466667,7.95533333 8.51666667,7.88533333 8.33,7.848 C8.19,7.75466667 8.134,7.624 8.162,7.456 C8.19,7.30666667 8.15733333,7.17133333 8.064,7.05 C8.10133333,7.01266667 8.148,6.994 8.204,6.994 C8.26933333,7.00333333 8.31133333,6.97533333 8.33,6.91 C8.37666667,7.00333333 8.428,6.994 8.484,6.882 C8.53066667,6.91933333 8.58666667,6.91 8.652,6.854 C8.69866667,6.80733333 8.75,6.81666667 8.806,6.882 C8.87133333,6.81666667 8.95533333,6.784 9.058,6.784 C9.15133333,6.71866667 9.25866667,6.70466667 9.38,6.742 C9.436,6.686 9.49666667,6.66733333 9.562,6.686 C9.60866667,6.686 9.66466667,6.66733333 9.73,6.63 C9.85133333,6.61133333 9.96333333,6.62066667 10.066,6.658 C10.234,6.55533333 10.4113333,6.55533333 10.598,6.658 C10.6166667,6.62066667 10.6493333,6.63 10.696,6.686 C10.7426667,6.72333333 10.794,6.728 10.85,6.7 C11.0833333,6.85866667 11.3493333,6.92866667 11.648,6.91 C11.8626667,6.77933333 11.9886667,6.59733333 12.026,6.364 C11.9513333,6.308 11.928,6.23333333 11.956,6.14 C11.9653333,6.03733333 11.9326667,5.95333333 11.858,5.888 C11.7833333,5.73866667 11.6713333,5.62666667 11.522,5.552 C11.354,5.47733333 11.2,5.39333333 11.06,5.3 C10.9853333,5.20666667 10.892,5.16 10.78,5.16 C10.668,5.17866667 10.5746667,5.15533333 10.5,5.09 L10.5,5.09 L10.416,5.048 C10.2573333,5.076 10.1126667,5.12733333 9.982,5.202 L9.982,5.202 L9.31,5.202 C9.282,5.258 9.24933333,5.26266667 9.212,5.216 C9.184,5.17866667 9.156,5.19266667 9.128,5.258 C9.02533333,5.24866667 8.92733333,5.24866667 8.834,5.258 C8.71266667,5.23 8.62866667,5.258 8.582,5.342 C8.34866667,5.38866667 8.12466667,5.45866667 7.91,5.552 C7.84466667,5.58 7.77,5.58 7.686,5.552 C7.602,5.608 7.49933333,5.636 7.378,5.636 C7.34066667,5.552 7.29866667,5.524 7.252,5.552 C7.18666667,5.58933333 7.12133333,5.60333333 7.056,5.594 C6.776,5.68733333 6.50066667,5.77133333 6.23,5.846 C6.118,5.846 6.00133333,5.86933333 5.88,5.916 C5.77733333,5.972 5.656,5.99533333 5.516,5.986 C5.32933333,6.05133333 5.14733333,6.10733333 4.97,6.154 C4.802,6.21 4.62466667,6.252 4.438,6.28 C4.41933333,6.31733333 4.396,6.31733333 4.368,6.28 C4.34,6.252 4.312,6.26133333 4.284,6.308 C4.144,6.336 4.04133333,6.39666667 3.976,6.49 C3.92,6.434 3.85466667,6.434 3.78,6.49 C3.71466667,6.52733333 3.63533333,6.54133333 3.542,6.532 C3.50466667,6.57866667 3.46266667,6.59733333 3.416,6.588 C3.35066667,6.56 3.29933333,6.574 3.262,6.63 C3.08466667,6.63933333 2.926,6.67666667 2.786,6.742 L2.678375,6.784875 C2.568125,6.821625 2.45,6.84 2.324,6.84 C2.22133333,6.88666667 2.10933333,6.95666667 1.988,7.05 C1.88533333,7.15266667 1.85266667,7.26466667 1.89,7.386 C2.02066667,7.61933333 2.212,7.78733333 2.464,7.89 C2.66933333,7.85266667 2.87466667,7.81533333 3.08,7.778 C3.136,7.75933333 3.18266667,7.764 3.22,7.792 C3.26666667,7.82933333 3.31333333,7.82466667 3.36,7.778 C3.39733333,7.82466667 3.44866667,7.834 3.514,7.806 C3.58866667,7.78733333 3.64466667,7.80133333 3.682,7.848 C3.934,7.876 4.17666667,7.89 4.41,7.89 C4.494,7.93666667 4.60133333,7.95533333 4.732,7.946 C4.85333333,7.918 4.956,7.932 5.04,7.988 C5.17066667,7.92266667 5.31533333,7.89 5.474,7.89 C5.65133333,7.82466667 5.81933333,7.75466667 5.978,7.68 C6.174,7.63333333 6.342,7.54933333 6.482,7.428 C6.566,7.47466667 6.62666667,7.46066667 6.664,7.386 C6.71066667,7.414 6.78066667,7.40466667 6.874,7.358 C6.97666667,7.32066667 7.02333333,7.35333333 7.014,7.456 C6.874,7.82 6.68733333,8.16533333 6.454,8.492 C6.22066667,8.92133333 5.964,9.35066667 5.684,9.78 C5.50666667,9.88266667 5.36666667,10.0226667 5.264,10.2 C5.17066667,10.3866667 5.054,10.5546667 4.914,10.704 C4.886,10.7693333 4.844,10.844 4.788,10.928 C4.75066667,11.068 4.66666667,11.1893333 4.536,11.292 C4.33066667,11.4506667 4.17666667,11.6373333 4.074,11.852 C3.97133333,11.9453333 3.892,12.0433333 3.836,12.146 C3.78933333,12.2673333 3.71466667,12.3653333 3.612,12.44 C3.39733333,12.8133333 3.122,13.1586667 2.786,13.476 C2.506,13.756 2.268,14.0546667 2.072,14.372 C2.11866667,14.372 2.156,14.3953333 2.184,14.442 Z M5.81,11.936 C5.82711111,11.9235556 5.84292593,11.9135741 5.85744444,11.9060556 L5.891,11.893 L5.82088889,11.8893333 C5.79392593,11.8862222 5.76903704,11.8815556 5.74622222,11.8753333 L5.684,11.852 C5.64666667,11.8053333 5.59533333,11.7633333 5.53,11.726 C5.46466667,11.67 5.46,11.6186667 5.516,11.572 C5.516,11.46 5.558,11.3993333 5.642,11.39 C5.73533333,11.3806667 5.79133333,11.334 5.81,11.25 C5.87533333,11.1753333 5.95,11.1193333 6.034,11.082 C6.12733333,11.0446667 6.17866667,10.9793333 6.188,10.886 C6.272,10.7833333 6.36066667,10.6853333 6.454,10.592 C6.55666667,10.4986667 6.61266667,10.396 6.622,10.284 C6.678,10.2093333 6.74333333,10.144 6.818,10.088 C6.91133333,10.0226667 6.96266667,9.94333333 6.972,9.85 L6.972,9.85 L7.168,9.43 C7.224,9.262 7.294,9.10333333 7.378,8.954 C7.50866667,8.88866667 7.60666667,8.79533333 7.672,8.674 C7.73733333,8.562 7.83066667,8.47333333 7.952,8.408 L7.952,8.408 L7.98,8.408 C8.07333333,8.36133333 8.134,8.38466667 8.162,8.478 C8.19933333,8.58066667 8.25533333,8.65533333 8.33,8.702 C8.414,8.82333333 8.47933333,8.93533333 8.526,9.038 C8.67533333,9.16866667 8.736,9.30866667 8.708,9.458 C8.68933333,9.74733333 8.62866667,10.0086667 8.526,10.242 C8.46066667,10.5313333 8.35333333,10.8113333 8.204,11.082 C8.13866667,11.1286667 8.09666667,11.194 8.078,11.278 C8.06866667,11.362 8.02666667,11.4133333 7.952,11.432 C7.97066667,11.4786667 7.95666667,11.53 7.91,11.586 C7.84466667,11.6233333 7.798,11.67 7.77,11.726 C7.658,11.894 7.546,12.034 7.434,12.146 C7.322,12.2766667 7.182,12.3373333 7.014,12.328 C6.74333333,12.2626667 6.482,12.146 6.23,11.978 C6.16466667,11.978 6.10866667,11.9453333 6.062,11.88 C6.02466667,11.824 5.97333333,11.8286667 5.908,11.894 L5.912,11.891 L5.929,11.8905 L5.929,11.8905 L5.938,11.896 L5.939,11.897 L5.958,11.914 L5.96944444,11.9340556 L5.96944444,11.9340556 L5.978,11.978 C5.99666667,12.0806667 5.95933333,12.1133333 5.866,12.076 C5.81,12.0592 5.78088,12.03568 5.77864,12.00544 L5.783,11.984 C5.77412,11.9807467 5.7652,11.9752 5.75624,11.96736 L5.726,11.936 C5.782,11.88 5.81,11.88 5.81,11.936 Z M19.10944,13.69552 L19.264,13.686 C19.404,13.6486667 19.544,13.602 19.684,13.546 C20.048,13.462 20.4073333,13.3406667 20.762,13.182 C20.8366667,13.182 20.9113333,13.1493333 20.986,13.084 C21.07,13.028 21.1493333,13.028 21.224,13.084 C21.2426667,13.0466667 21.28,13.042 21.336,13.07 C21.392,13.1073333 21.4246667,13.098 21.434,13.042 C21.518,12.9393333 21.63,12.8693333 21.77,12.832 C21.994,12.7386667 22.2086667,12.6546667 22.414,12.58 C22.5446667,12.5146667 22.6846667,12.4866667 22.834,12.496 C22.8993333,12.4493333 22.9786667,12.4306667 23.072,12.44 C23.1653333,12.468 23.2446667,12.454 23.31,12.398 C23.3473333,12.4353333 23.3893333,12.44 23.436,12.412 C23.492,12.3933333 23.548,12.384 23.604,12.384 C23.6693333,12.3933333 23.7253333,12.3886667 23.772,12.37 C23.8373333,12.342 23.898,12.3513333 23.954,12.398 C24.1313333,12.398 24.2853333,12.412 24.416,12.44 C24.4533333,12.4773333 24.5,12.4913333 24.556,12.482 C24.6213333,12.482 24.6726667,12.5146667 24.71,12.58 C24.7753333,12.58 24.8313333,12.5986667 24.878,12.636 C24.9433333,12.6733333 25.004,12.6546667 25.06,12.58 C25.1346667,12.4586667 25.2046667,12.328 25.27,12.188 C25.3633333,12.1506667 25.438,12.0853333 25.494,11.992 C25.5313333,11.8893333 25.4986667,11.8006667 25.396,11.726 C25.2373333,11.67 25.0926667,11.572 24.962,11.432 C24.906,11.3386667 24.8406667,11.2826667 24.766,11.264 C24.6913333,11.2546667 24.612,11.2266667 24.528,11.18 C24.4066667,11.18 24.29,11.152 24.178,11.096 C24.066,11.0493333 23.9446667,11.0306667 23.814,11.04 C23.5713333,11.012 23.3193333,10.998 23.058,10.998 C22.9926667,11.054 22.918,11.068 22.834,11.04 C22.7593333,11.012 22.6893333,11.012 22.624,11.04 C22.596,11.1053333 22.5586667,11.1566667 22.512,11.194 C22.4466667,11.2313333 22.386,11.2126667 22.33,11.138 C22.1993333,11.0633333 22.0826667,11.082 21.98,11.194 C21.8773333,11.3153333 21.7793333,11.32 21.686,11.208 C21.6393333,11.264 21.5833333,11.2733333 21.518,11.236 C21.4526667,11.18 21.406,11.1286667 21.378,11.082 C21.4153333,11.026 21.4153333,10.9746667 21.378,10.928 C21.462,10.8813333 21.49,10.83 21.462,10.774 C21.434,10.7273333 21.4526667,10.704 21.518,10.704 C21.4246667,10.6666667 21.3826667,10.6106667 21.392,10.536 C21.4106667,10.4706667 21.4246667,10.4006667 21.434,10.326 C21.3686667,10.2793333 21.364,10.242 21.42,10.214 C21.476,10.1953333 21.4806667,10.172 21.434,10.144 C21.3966667,10.032 21.4106667,9.934 21.476,9.85 L21.476,9.85 L21.434,9.808 C21.4806667,9.78933333 21.476,9.766 21.42,9.738 C21.364,9.71 21.3686667,9.67733333 21.434,9.64 C21.4153333,9.50933333 21.4433333,9.39266667 21.518,9.29 C21.4526667,9.25266667 21.4433333,9.20133333 21.49,9.136 C21.546,9.08 21.5553333,9.03333333 21.518,8.996 C21.63,8.90266667 21.63,8.81866667 21.518,8.744 C21.5926667,8.61333333 21.6066667,8.48266667 21.56,8.352 C21.5973333,8.324 21.6113333,8.27733333 21.602,8.212 C21.602,8.14666667 21.63,8.142 21.686,8.198 C21.7513333,8.29133333 21.812,8.394 21.868,8.506 C21.924,8.62733333 22.022,8.69266667 22.162,8.702 C22.3673333,8.76733333 22.582,8.83733333 22.806,8.912 C22.9833333,8.996 23.1746667,9.038 23.38,9.038 C23.464,9.00066667 23.5526667,8.968 23.646,8.94 C23.7486667,8.912 23.8186667,8.84666667 23.856,8.744 C23.94,8.64133333 24.024,8.55733333 24.108,8.492 C24.2013333,8.436 24.248,8.352 24.248,8.24 C24.3133333,8.156 24.3506667,8.06266667 24.36,7.96 C24.3693333,7.85733333 24.318,7.792 24.206,7.764 C24.1126667,7.68933333 24.1126667,7.64733333 24.206,7.638 C24.0566667,7.51666667 23.898,7.386 23.73,7.246 C23.7113333,7.218 23.674,7.218 23.618,7.246 C23.5806667,7.274 23.562,7.246 23.562,7.162 C23.506,7.162 23.45,7.148 23.394,7.12 C23.3473333,7.10133333 23.3053333,7.11533333 23.268,7.162 C23.1746667,7.19 23.1046667,7.25533333 23.058,7.358 C22.9926667,7.47933333 22.918,7.48866667 22.834,7.386 C22.8246667,7.45133333 22.7873333,7.48866667 22.722,7.498 C22.6753333,7.50733333 22.6286667,7.54 22.582,7.596 C22.3113333,7.736 22.0406667,7.88066667 21.77,8.03 C21.6953333,8.114 21.658,8.1 21.658,7.988 L21.658,7.988 L21.658,7.708 C21.7046667,7.512 21.742,7.30666667 21.77,7.092 C21.714,7.064 21.714,7.03133333 21.77,6.994 C21.8353333,6.966 21.8353333,6.938 21.77,6.91 C21.7606667,6.84466667 21.7886667,6.80266667 21.854,6.784 C21.9006667,6.73733333 21.9193333,6.68133333 21.91,6.616 C21.9473333,6.532 21.9706667,6.434 21.98,6.322 C21.9986667,6.21933333 22.0453333,6.13066667 22.12,6.056 C22.148,5.916 22.2273333,5.78533333 22.358,5.664 C22.4886667,5.56133333 22.5306667,5.426 22.484,5.258 C22.54,5.146 22.5726667,5.02466667 22.582,4.894 C22.6006667,4.76333333 22.6566667,4.66066667 22.75,4.586 C22.8526667,4.39 22.9693333,4.19866667 23.1,4.012 C23.0346667,4.00266667 22.9926667,3.956 22.974,3.872 C22.946,3.816 22.8993333,3.76466667 22.834,3.718 C22.834,3.634 22.7966667,3.56866667 22.722,3.522 C22.6473333,3.48466667 22.582,3.43333333 22.526,3.368 C22.6193333,3.30266667 22.6053333,3.25133333 22.484,3.214 C22.4093333,3.16733333 22.3393333,3.11133333 22.274,3.046 C22.2086667,2.99 22.1246667,2.976 22.022,3.004 L22.022,3.004 L21.91,3.004 C21.6206667,3.20933333 21.336,3.40533333 21.056,3.592 C20.7106667,3.89066667 20.3513333,4.14733333 19.978,4.362 C19.9406667,4.42733333 19.8846667,4.46933333 19.81,4.488 C19.7446667,4.50666667 19.6933333,4.54866667 19.656,4.614 C19.6,4.614 19.5393333,4.63733333 19.474,4.684 C19.418,4.74 19.362,4.74466667 19.306,4.698 C19.2126667,4.79133333 19.1006667,4.838 18.97,4.838 C18.7833333,4.91266667 18.5826667,4.95 18.368,4.95 C18.2466667,4.99666667 18.116,5.04333333 17.976,5.09 C17.8733333,5.16466667 17.836,5.24866667 17.864,5.342 C17.9013333,5.44466667 17.9713333,5.52866667 18.074,5.594 C18.102,5.622 18.1346667,5.65466667 18.172,5.692 C18.2093333,5.73866667 18.2466667,5.72933333 18.284,5.664 L18.284,5.664 L19.04,6.056 C19.124,6.04666667 19.1846667,6.06066667 19.222,6.098 C19.2593333,6.14466667 19.3153333,6.15866667 19.39,6.14 C19.5206667,6.18666667 19.6466667,6.22866667 19.768,6.266 C19.936,6.294 20.076,6.294 20.188,6.266 C20.3373333,6.25666667 20.454,6.28466667 20.538,6.35 C20.5566667,6.48066667 20.5473333,6.61133333 20.51,6.742 C20.482,6.87266667 20.4913333,7.00333333 20.538,7.134 C20.454,7.28333333 20.4353333,7.45133333 20.482,7.638 C20.482,7.71266667 20.4726667,7.78266667 20.454,7.848 C20.51,7.904 20.51,7.95066667 20.454,7.988 C20.37,8.02533333 20.356,8.06266667 20.412,8.1 C20.4773333,8.16533333 20.4773333,8.21666667 20.412,8.254 C20.3466667,8.29133333 20.3466667,8.338 20.412,8.394 C20.328,8.48733333 20.3,8.58533333 20.328,8.688 C20.356,8.79066667 20.37,8.89333333 20.37,8.996 C20.2953333,9.024 20.2766667,9.052 20.314,9.08 C20.3606667,9.11733333 20.3513333,9.15933333 20.286,9.206 C20.286,9.29933333 20.3,9.38333333 20.328,9.458 C20.3186667,9.514 20.2906667,9.56533333 20.244,9.612 C20.2066667,9.668 20.2206667,9.71466667 20.286,9.752 C20.314,9.84533333 20.3,9.92933333 20.244,10.004 C20.1973333,10.088 20.1786667,10.1813333 20.188,10.284 C20.1786667,10.3306667 20.188,10.3726667 20.216,10.41 C20.2533333,10.4566667 20.244,10.4986667 20.188,10.536 C20.272,10.5826667 20.3046667,10.6666667 20.286,10.788 C20.2486667,10.8533333 20.216,10.928 20.188,11.012 C20.1693333,11.1053333 20.202,11.1706667 20.286,11.208 C20.2766667,11.264 20.2533333,11.306 20.216,11.334 C20.1786667,11.362 20.1833333,11.3946667 20.23,11.432 C20.23,11.46 20.216,11.488 20.188,11.516 C20.1693333,11.5533333 20.1833333,11.5813333 20.23,11.6 C20.118,11.6653333 19.9966667,11.698 19.866,11.698 C19.726,11.7166667 19.6093333,11.782 19.516,11.894 C19.3946667,11.8846667 19.348,11.8146667 19.376,11.684 C19.4133333,11.5626667 19.3993333,11.4646667 19.334,11.39 C19.2873333,11.1473333 19.2873333,10.9186667 19.334,10.704 C19.3246667,10.6293333 19.3246667,10.5266667 19.334,10.396 C19.39,10.3213333 19.404,10.2373333 19.376,10.144 C19.3386667,10.0693333 19.3246667,9.98533333 19.334,9.892 C19.2873333,9.696 19.2173333,9.49533333 19.124,9.29 C19.0586667,9.05666667 18.9466667,8.828 18.788,8.604 C18.7506667,8.45466667 18.6573333,8.33333333 18.508,8.24 C18.4426667,8.20266667 18.368,8.142 18.284,8.058 C18.172,8.02066667 18.116,8.08133333 18.116,8.24 C18.1626667,8.268 18.1673333,8.30066667 18.13,8.338 C18.0926667,8.38466667 18.0973333,8.422 18.144,8.45 C18.2,8.65533333 18.214,8.884 18.186,9.136 C18.1766667,9.36933333 18.1906667,9.59333333 18.228,9.808 C18.2373333,10.1906667 18.27,10.564 18.326,10.928 C18.3913333,10.9466667 18.4053333,10.984 18.368,11.04 C18.34,11.1053333 18.354,11.1613333 18.41,11.208 C18.41,11.3013333 18.4426667,11.3806667 18.508,11.446 C18.5546667,11.53 18.5546667,11.6093333 18.508,11.684 C18.4893333,11.7306667 18.4473333,11.7773333 18.382,11.824 C18.3166667,11.8426667 18.326,11.88 18.41,11.936 C18.354,11.9733333 18.354,12.006 18.41,12.034 C18.4473333,12.0713333 18.48,12.0946667 18.508,12.104 C18.5826667,12.0293333 18.676,12.0293333 18.788,12.104 C18.4893333,12.3 18.1673333,12.4306667 17.822,12.496 C17.7286667,12.4866667 17.64,12.496 17.556,12.524 C17.4813333,12.5613333 17.416,12.552 17.36,12.496 C17.2946667,12.496 17.2666667,12.4726667 17.276,12.426 C17.304,12.37 17.332,12.3233333 17.36,12.286 C17.416,12.286 17.4673333,12.2673333 17.514,12.23 C17.5606667,12.174 17.5466667,12.132 17.472,12.104 C17.4533333,12.0573333 17.416,12.048 17.36,12.076 C17.3133333,12.1133333 17.2666667,12.1226667 17.22,12.104 C17.1266667,12.1973333 17.01,12.2393333 16.87,12.23 C16.7486667,12.2766667 16.6366667,12.3466667 16.534,12.44 C16.4593333,12.4493333 16.4033333,12.4866667 16.366,12.552 C16.338,12.6173333 16.3706667,12.664 16.464,12.692 C16.576,12.8973333 16.7533333,13.028 16.996,13.084 C17.1266667,13.1213333 17.2573333,13.1773333 17.388,13.252 C17.5746667,13.2986667 17.7426667,13.3733333 17.892,13.476 C18.088,13.56 18.3026667,13.5973333 18.536,13.588 C18.76,13.6813333 19.0026667,13.714 19.264,13.686 L19.10944,13.69552 Z M37.282,14.61 C37.4033333,14.694 37.5013333,14.6846667 37.576,14.582 L37.576,14.582 L37.968,14.19 C38.1453333,14.0593333 38.2433333,13.8913333 38.262,13.686 C38.3553333,13.5833333 38.4113333,13.4666667 38.43,13.336 C38.4206667,13.2706667 38.416,13.1726667 38.416,13.042 C38.4253333,12.9113333 38.444,12.7806667 38.472,12.65 C38.4346667,12.6126667 38.4253333,12.5753333 38.444,12.538 C38.472,12.5006667 38.4673333,12.454 38.43,12.398 C38.4486667,12.1926667 38.43,11.978 38.374,11.754 C38.4113333,11.7166667 38.43,11.6466667 38.43,11.544 C38.3926667,11.516 38.388,11.474 38.416,11.418 C38.444,11.3713333 38.43,11.3293333 38.374,11.292 C38.4113333,11.264 38.4206667,11.2313333 38.402,11.194 C38.374,11.138 38.3833333,11.096 38.43,11.068 C38.3833333,10.9933333 38.3833333,10.9093333 38.43,10.816 C38.4486667,10.7693333 38.4393333,10.718 38.402,10.662 C38.374,10.6153333 38.3833333,10.5733333 38.43,10.536 C38.4206667,10.3773333 38.4206667,10.2326667 38.43,10.102 C38.43,9.94333333 38.444,9.78933333 38.472,9.64 C38.528,9.54666667 38.612,9.486 38.724,9.458 C38.7893333,9.56066667 38.8593333,9.59333333 38.934,9.556 C38.9993333,9.612 39.0786667,9.626 39.172,9.598 C39.2653333,9.57 39.3446667,9.584 39.41,9.64 C39.4473333,9.584 39.4893333,9.57466667 39.536,9.612 C39.592,9.64933333 39.634,9.64466667 39.662,9.598 C39.6993333,9.57933333 39.732,9.598 39.76,9.654 C39.788,9.69133333 39.8113333,9.68666667 39.83,9.64 C40.0633333,9.68666667 40.236,9.626 40.348,9.458 C40.4506667,9.41133333 40.474,9.31333333 40.418,9.164 C40.39,9.03333333 40.32,8.91666667 40.208,8.814 C40.152,8.77666667 40.0866667,8.73933333 40.012,8.702 C39.984,8.646 39.9373333,8.618 39.872,8.618 C39.8253333,8.618 39.802,8.58533333 39.802,8.52 C39.7366667,8.52 39.676,8.50133333 39.62,8.464 C39.5826667,8.42666667 39.5266667,8.422 39.452,8.45 C39.172,8.34733333 38.8733333,8.33333333 38.556,8.408 C38.528,8.408 38.5,8.42666667 38.472,8.464 C38.4626667,8.50133333 38.43,8.49666667 38.374,8.45 C38.3273333,8.45933333 38.2433333,8.45933333 38.122,8.45 C38.01,8.31 37.8886667,8.17933333 37.758,8.058 C37.73,8.03 37.6973333,7.99733333 37.66,7.96 C37.632,7.92266667 37.6646667,7.89933333 37.758,7.89 C37.8326667,7.946 37.9213333,7.95533333 38.024,7.918 C38.1173333,7.89933333 38.2106667,7.89 38.304,7.89 C38.3506667,7.834 38.3926667,7.75933333 38.43,7.666 C38.514,7.498 38.472,7.37666667 38.304,7.302 C38.0893333,7.09666667 37.8606667,6.952 37.618,6.868 C37.5246667,6.85866667 37.4266667,6.85866667 37.324,6.868 C37.296,6.83066667 37.2726667,6.84 37.254,6.896 C37.2073333,6.93333333 37.1606667,6.938 37.114,6.91 C36.9833333,6.882 36.8573333,6.88666667 36.736,6.924 C36.6333333,6.97066667 36.5166667,6.994 36.386,6.994 C36.3486667,6.938 36.372,6.896 36.456,6.868 C36.54,6.85866667 36.6146667,6.85866667 36.68,6.868 C36.848,6.82133333 37.016,6.76533333 37.184,6.7 C37.408,6.644 37.576,6.52733333 37.688,6.35 C37.716,6.322 37.758,6.25666667 37.814,6.154 C37.8513333,6.06066667 37.842,5.96733333 37.786,5.874 C37.786,5.734 37.828,5.61266667 37.912,5.51 C37.9773333,5.44466667 38.0146667,5.37933333 38.024,5.314 C38.052,5.23933333 38.0986667,5.174 38.164,5.118 C38.1453333,5.04333333 38.164,4.97333333 38.22,4.908 C38.276,4.84266667 38.29,4.782 38.262,4.726 C38.3646667,4.66066667 38.4346667,4.56266667 38.472,4.432 C38.5933333,4.38533333 38.6726667,4.30133333 38.71,4.18 C38.7473333,4.068 38.822,3.97466667 38.934,3.9 C39.13,3.75066667 39.2606667,3.55933333 39.326,3.326 C39.13,2.98066667 38.8593333,2.71466667 38.514,2.528 C38.4953333,2.46266667 38.4486667,2.43 38.374,2.43 C38.2806667,2.44866667 38.2106667,2.43933333 38.164,2.402 C37.744,2.35533333 37.3193333,2.32733333 36.89,2.318 C36.7033333,2.346 36.5353333,2.43 36.386,2.57 C36.274,2.56066667 36.1806667,2.57933333 36.106,2.626 C36.0126667,2.682 35.9053333,2.70066667 35.784,2.682 C35.476,2.86866667 35.1773333,3.08333333 34.888,3.326 C34.8693333,3.382 34.846,3.43333333 34.818,3.48 C34.7806667,3.54533333 34.734,3.54066667 34.678,3.466 C34.6033333,3.40066667 34.5053333,3.34 34.384,3.284 C34.3466667,3.23733333 34.2953333,3.228 34.23,3.256 C34.1646667,3.26533333 34.1133333,3.25133333 34.076,3.214 C33.9733333,3.242 33.9266667,3.29333333 33.936,3.368 C33.936,3.46133333 33.9453333,3.54533333 33.964,3.62 C34.0386667,3.72266667 34.09,3.84866667 34.118,3.998 C34.146,4.11933333 34.188,4.24066667 34.244,4.362 C34.3373333,4.49266667 34.384,4.63733333 34.384,4.796 C34.468,4.796 34.4866667,4.81466667 34.44,4.852 C34.4213333,4.88933333 34.4306667,4.922 34.468,4.95 C34.5333333,5.12733333 34.5753333,5.314 34.594,5.51 C34.6873333,5.706 34.776,5.902 34.86,6.098 C34.8973333,6.238 34.9673333,6.364 35.07,6.476 C35.21,6.65333333 35.378,6.77 35.574,6.826 C35.742,6.87266667 35.896,6.88666667 36.036,6.868 C36.0826667,6.90533333 36.1573333,6.924 36.26,6.924 C36.344,6.94266667 36.3673333,6.98466667 36.33,7.05 L36.33,7.05 L35.434,7.162 C35.35,7.22733333 35.2426667,7.25533333 35.112,7.246 C34.8786667,7.33 34.636,7.386 34.384,7.414 C34.3466667,7.45133333 34.3,7.46533333 34.244,7.456 C34.1973333,7.456 34.16,7.48866667 34.132,7.554 C34.0573333,7.54466667 33.992,7.56333333 33.936,7.61 C33.8893333,7.666 33.824,7.68466667 33.74,7.666 C33.7213333,7.73133333 33.67,7.78266667 33.586,7.82 C33.5113333,7.876 33.4646667,7.94133333 33.446,8.016 C33.3993333,8.072 33.39,8.12333333 33.418,8.17 C33.4553333,8.226 33.4646667,8.28666667 33.446,8.352 C33.4926667,8.41733333 33.5253333,8.48266667 33.544,8.548 C33.572,8.62266667 33.628,8.66 33.712,8.66 C33.7493333,8.69733333 33.8006667,8.71133333 33.866,8.702 C33.9126667,8.674 33.9546667,8.688 33.992,8.744 C34.0573333,8.744 34.104,8.76266667 34.132,8.8 C34.16,8.84666667 34.1973333,8.83733333 34.244,8.772 C34.2906667,8.76266667 34.3233333,8.786 34.342,8.842 C34.37,8.87933333 34.398,8.87 34.426,8.814 C34.594,8.80466667 34.7386667,8.80466667 34.86,8.814 C34.9346667,8.87933333 34.9906667,8.86533333 35.028,8.772 L35.028,8.772 L35.392,8.744 L35.91,8.492 C35.9846667,8.50133333 36.0406667,8.48733333 36.078,8.45 C36.1153333,8.41266667 36.176,8.39866667 36.26,8.408 C36.2973333,8.34266667 36.3393333,8.31 36.386,8.31 C36.442,8.31 36.484,8.28666667 36.512,8.24 C36.6613333,8.17466667 36.8153333,8.128 36.974,8.1 C37.0113333,8.016 37.0766667,7.988 37.17,8.016 C37.2446667,8.03466667 37.31,8.02066667 37.366,7.974 C37.4126667,8.002 37.4173333,8.03 37.38,8.058 C37.352,8.086 37.3613333,8.114 37.408,8.142 C37.3146667,8.282 37.254,8.436 37.226,8.604 C37.1886667,8.67866667 37.1373333,8.70666667 37.072,8.688 C37.0066667,8.66933333 36.946,8.674 36.89,8.702 C36.8153333,8.674 36.7546667,8.688 36.708,8.744 C36.652,8.78133333 36.5866667,8.79066667 36.512,8.772 C36.484,8.86533333 36.4186667,8.89333333 36.316,8.856 C36.2133333,8.828 36.134,8.83266667 36.078,8.87 C36.0033333,8.86066667 35.9473333,8.884 35.91,8.94 C35.854,8.98666667 35.7886667,9.00533333 35.714,8.996 C35.686,9.04266667 35.644,9.05666667 35.588,9.038 C35.5506667,8.99133333 35.518,8.99133333 35.49,9.038 C35.3873333,9.01933333 35.2986667,9.038 35.224,9.094 C35.1586667,9.15933333 35.0746667,9.18266667 34.972,9.164 C34.8506667,9.20133333 34.7386667,9.262 34.636,9.346 C34.4586667,9.374 34.2906667,9.42533333 34.132,9.5 C33.9733333,9.5 33.8333333,9.52333333 33.712,9.57 C33.6,9.626 33.4693333,9.64933333 33.32,9.64 C33.2826667,9.68666667 33.222,9.696 33.138,9.668 C33.0726667,9.65866667 33.0166667,9.67266667 32.97,9.71 C32.886,9.738 32.7926667,9.752 32.69,9.752 C32.606,9.76133333 32.5313333,9.808 32.466,9.892 C32.382,9.82666667 32.3213333,9.72866667 32.284,9.598 C32.2186667,9.43933333 32.1206667,9.29466667 31.99,9.164 C31.8406667,9.03333333 31.8546667,8.93533333 32.032,8.87 C32.06,8.79533333 32.116,8.73466667 32.2,8.688 C32.284,8.64133333 32.3446667,8.576 32.382,8.492 C32.3913333,8.436 32.424,8.38933333 32.48,8.352 C32.5453333,8.31466667 32.5733333,8.26333333 32.564,8.198 C32.8066667,7.974 32.9746667,7.68933333 33.068,7.344 C33.1426667,7.092 33.11,6.86333333 32.97,6.658 C32.8206667,6.41533333 32.6246667,6.24733333 32.382,6.154 C32.3073333,6.098 32.2233333,6.05133333 32.13,6.014 C32.0553333,5.96733333 32.0693333,5.89733333 32.172,5.804 C32.368,5.51466667 32.592,5.26266667 32.844,5.048 C32.872,4.91733333 32.914,4.80066667 32.97,4.698 C32.97,4.57666667 32.9793333,4.46 32.998,4.348 C33.0446667,4.22666667 33.0353333,4.11466667 32.97,4.012 C32.9513333,3.82533333 32.9093333,3.65733333 32.844,3.508 C32.7973333,3.256 32.7273333,3.01333333 32.634,2.78 C32.69,2.70533333 32.6853333,2.63533333 32.62,2.57 C32.5546667,2.50466667 32.4893333,2.458 32.424,2.43 C32.34,2.46733333 32.2933333,2.542 32.284,2.654 C32.172,2.71933333 32.144,2.80333333 32.2,2.906 C32.0506667,3.242 31.8733333,3.55 31.668,3.83 C31.6773333,3.886 31.6633333,3.928 31.626,3.956 C31.57,3.96533333 31.5606667,3.984 31.598,4.012 C31.5793333,4.08666667 31.528,4.152 31.444,4.208 C31.3786667,4.27333333 31.346,4.348 31.346,4.432 C31.234,4.60933333 31.15,4.81466667 31.094,5.048 C31.1313333,5.08533333 31.122,5.11333333 31.066,5.132 C31.0193333,5.16 31.0053333,5.216 31.024,5.3 C31.0053333,5.412 30.968,5.53333333 30.912,5.664 C30.8653333,5.79466667 30.8886667,5.91133333 30.982,6.014 C31.1126667,6.21933333 31.2946667,6.364 31.528,6.448 C31.6026667,6.45733333 31.6586667,6.42466667 31.696,6.35 C31.7426667,6.28466667 31.8033333,6.25666667 31.878,6.266 C31.9713333,6.16333333 32.0693333,6.168 32.172,6.28 C32.2746667,6.40133333 32.284,6.51333333 32.2,6.616 C32.1626667,6.68133333 32.1766667,6.72333333 32.242,6.742 C32.2046667,6.84466667 32.1813333,6.92866667 32.172,6.994 C32.0506667,7.17133333 31.92,7.344 31.78,7.512 C31.7893333,7.57733333 31.7706667,7.624 31.724,7.652 C31.6866667,7.66133333 31.668,7.69866667 31.668,7.764 L31.668,7.764 L31.234,8.198 C31.1593333,8.16066667 31.1126667,8.198 31.094,8.31 C30.9633333,8.51533333 30.7953333,8.702 30.59,8.87 C30.646,8.954 30.632,8.996 30.548,8.996 C30.4826667,9.03333333 30.4453333,9.08933333 30.436,9.164 C30.408,9.22933333 30.3613333,9.27133333 30.296,9.29 C30.212,9.402 30.1093333,9.528 29.988,9.668 C29.8946667,9.79866667 29.7826667,9.88266667 29.652,9.92 C29.6426667,9.98533333 29.624,10.0133333 29.596,10.004 C29.568,10.004 29.5866667,10.0226667 29.652,10.06 C29.6053333,10.088 29.5866667,10.116 29.596,10.144 C29.596,10.1533333 29.5726667,10.186 29.526,10.242 C29.5446667,10.2886667 29.5493333,10.3446667 29.54,10.41 C29.54,10.4753333 29.5773333,10.5266667 29.652,10.564 C29.652,10.5826667 29.68,10.592 29.736,10.592 C29.792,10.592 29.806,10.6293333 29.778,10.704 C29.8246667,10.6946667 29.8573333,10.7133333 29.876,10.76 C29.876,10.7973333 29.8853333,10.7926667 29.904,10.746 C29.96,10.858 30.0206667,10.858 30.086,10.746 C30.142,10.7553333 30.1793333,10.7366667 30.198,10.69 C30.2446667,10.634 30.2913333,10.6246667 30.338,10.662 C30.4686667,10.5873333 30.4826667,10.5173333 30.38,10.452 C30.3426667,10.4146667 30.3426667,10.382 30.38,10.354 C30.4173333,10.3446667 30.4406667,10.3166667 30.45,10.27 C30.5806667,10.1673333 30.688,10.0833333 30.772,10.018 C30.7813333,10.0086667 30.786,9.976 30.786,9.92 C30.786,9.87333333 30.8186667,9.864 30.884,9.892 C30.9213333,9.95733333 30.954,9.962 30.982,9.906 C30.9913333,9.84066667 31.0146667,9.836 31.052,9.892 C31.1173333,9.85466667 31.1686667,9.794 31.206,9.71 C31.2526667,9.63533333 31.29,9.63533333 31.318,9.71 C31.2713333,9.94333333 31.2293333,10.172 31.192,10.396 C31.2293333,10.4613333 31.234,10.5266667 31.206,10.592 C31.1873333,10.6573333 31.1826667,10.7226667 31.192,10.788 C31.1826667,10.9933333 31.164,11.194 31.136,11.39 C31.108,11.5206667 31.0706667,11.6606667 31.024,11.81 C31.0613333,11.8473333 31.066,11.894 31.038,11.95 C31.01,12.006 31.0286667,12.0433333 31.094,12.062 C31.0473333,12.09 31.038,12.118 31.066,12.146 C31.1033333,12.174 31.0986667,12.1973333 31.052,12.216 C31.052,12.3373333 31.066,12.4306667 31.094,12.496 C31.1593333,12.6733333 31.206,12.8646667 31.234,13.07 C31.2713333,13.2846667 31.3833333,13.476 31.57,13.644 C31.6726667,13.7373333 31.7893333,13.8073333 31.92,13.854 C32.032,13.8446667 32.1393333,13.8026667 32.242,13.728 C32.3446667,13.5786667 32.4053333,13.406 32.424,13.21 C32.4613333,13.0793333 32.4753333,12.9393333 32.466,12.79 C32.5686667,12.7526667 32.5686667,12.706 32.466,12.65 C32.5406667,12.426 32.5733333,12.188 32.564,11.936 C32.6013333,11.908 32.5966667,11.866 32.55,11.81 C32.5126667,11.7633333 32.5266667,11.7213333 32.592,11.684 C32.5453333,11.6373333 32.5313333,11.5766667 32.55,11.502 C32.578,11.4366667 32.5826667,11.3853333 32.564,11.348 C32.6013333,11.32 32.6013333,11.2873333 32.564,11.25 C32.536,11.222 32.5453333,11.194 32.592,11.166 C32.6106667,11.054 32.6106667,10.9513333 32.592,10.858 C32.5453333,10.7086667 32.536,10.5406667 32.564,10.354 C32.48,10.3166667 32.4473333,10.2373333 32.466,10.116 C32.4753333,10.0133333 32.5173333,10.0086667 32.592,10.102 C32.76,10.2326667 32.942,10.3166667 33.138,10.354 C33.2033333,10.4286667 33.2826667,10.4613333 33.376,10.452 C33.4693333,10.424 33.5486667,10.438 33.614,10.494 C33.922,10.5313333 34.23,10.5453333 34.538,10.536 C34.5753333,10.48 34.636,10.466 34.72,10.494 C34.7946667,10.5033333 34.8506667,10.4893333 34.888,10.452 C35.0373333,10.424 35.168,10.3773333 35.28,10.312 C35.3173333,10.4053333 35.3686667,10.3913333 35.434,10.27 C35.4993333,10.2886667 35.5506667,10.2653333 35.588,10.2 C35.644,10.1346667 35.6953333,10.13 35.742,10.186 C35.826,10.0646667 35.9333333,9.99933333 36.064,9.99 C36.176,9.97133333 36.2833333,9.92466667 36.386,9.85 C36.5166667,9.85 36.6333333,9.83133333 36.736,9.794 C36.8573333,9.738 36.9833333,9.71 37.114,9.71 L37.114,9.71 L37.156,9.766 C37.1,9.794 37.0906667,9.83133333 37.128,9.878 C37.1653333,9.934 37.1606667,9.98066667 37.114,10.018 C37.1793333,10.1673333 37.1793333,10.326 37.114,10.494 C37.1606667,10.69 37.1746667,10.9046667 37.156,11.138 C37.1653333,11.474 37.1513333,11.796 37.114,12.104 C37.1233333,12.2253333 37.1093333,12.3373333 37.072,12.44 C37.072,12.5706667 37.0253333,12.7013333 36.932,12.832 C36.764,13.0093333 36.5633333,13.1353333 36.33,13.21 C36.1806667,13.2566667 35.9986667,13.2706667 35.784,13.252 C35.756,13.2146667 35.7186667,13.21 35.672,13.238 C35.6346667,13.2753333 35.602,13.266 35.574,13.21 C35.5086667,13.2286667 35.448,13.224 35.392,13.196 C35.3453333,13.168 35.308,13.1866667 35.28,13.252 C35.2146667,13.252 35.1446667,13.2286667 35.07,13.182 C35.042,13.2566667 34.986,13.2613333 34.902,13.196 C34.8273333,13.14 34.7666667,13.1586667 34.72,13.252 C34.692,13.3173333 34.7386667,13.364 34.86,13.392 C34.9626667,13.4013333 35.056,13.4666667 35.14,13.588 C35.1866667,13.6533333 35.2426667,13.6906667 35.308,13.7 C35.3546667,13.7186667 35.3826667,13.7513333 35.392,13.798 C35.4853333,13.8353333 35.574,13.9006667 35.658,13.994 C35.714,14.0686667 35.798,14.106 35.91,14.106 C36.022,14.2273333 36.148,14.2786667 36.288,14.26 C36.4093333,14.3813333 36.554,14.456 36.722,14.484 C36.8246667,14.484 36.9133333,14.5073333 36.988,14.554 C37.072,14.61 37.17,14.6286667 37.282,14.61 Z M36.008,6.056 C35.8586667,6.084 35.7793333,6.042 35.77,5.93 C35.77,5.82733333 35.7746667,5.72466667 35.784,5.622 C35.84,5.594 35.8493333,5.55666667 35.812,5.51 C35.784,5.47266667 35.7746667,5.426 35.784,5.37 C35.7186667,5.33266667 35.714,5.28133333 35.77,5.216 C35.8073333,5.15066667 35.854,5.146 35.91,5.202 C36.022,5.21133333 36.1106667,5.18333333 36.176,5.118 C36.2506667,5.05266667 36.3486667,5.02933333 36.47,5.048 C36.5726667,4.964 36.6846667,4.91733333 36.806,4.908 C36.9273333,4.80533333 36.9833333,4.67466667 36.974,4.516 C36.946,4.348 36.862,4.236 36.722,4.18 C36.554,4.16133333 36.4,4.17533333 36.26,4.222 C36.204,4.194 36.1433333,4.208 36.078,4.264 C36.0126667,4.30133333 35.9426667,4.31533333 35.868,4.306 C35.8306667,4.35266667 35.7886667,4.37133333 35.742,4.362 C35.6953333,4.35266667 35.6533333,4.36666667 35.616,4.404 C35.4293333,4.25466667 35.2613333,4.08666667 35.112,3.9 C35.0186667,3.844 34.9953333,3.76933333 35.042,3.676 C35.098,3.592 35.1586667,3.522 35.224,3.466 C35.3546667,3.34466667 35.4993333,3.26066667 35.658,3.214 C35.7046667,3.25133333 35.7606667,3.24666667 35.826,3.2 C35.8913333,3.15333333 35.9613333,3.13933333 36.036,3.158 L36.036,3.158 L36.54,2.906 C36.5866667,2.94333333 36.6333333,2.94333333 36.68,2.906 C36.736,2.86866667 36.7966667,2.85466667 36.862,2.864 C36.9926667,2.82666667 37.1326667,2.79866667 37.282,2.78 L37.282,2.78 L37.436,2.78 C37.492,2.73333333 37.5526667,2.724 37.618,2.752 C37.6646667,2.78933333 37.7206667,2.79866667 37.786,2.78 C37.9073333,2.79866667 37.968,2.87333333 37.968,3.004 C38.0146667,3.05066667 38.0193333,3.116 37.982,3.2 C37.9633333,3.256 37.9586667,3.33066667 37.968,3.424 C37.912,3.48933333 37.8886667,3.56866667 37.898,3.662 C37.9166667,3.75533333 37.8933333,3.83466667 37.828,3.9 C37.8186667,4.04 37.772,4.166 37.688,4.278 C37.6133333,4.39933333 37.562,4.52533333 37.534,4.656 C37.4593333,4.74933333 37.4033333,4.84733333 37.366,4.95 L37.366,4.95 L37.016,5.622 C36.9786667,5.65 36.9366667,5.692 36.89,5.748 C36.8526667,5.81333333 36.7966667,5.832 36.722,5.804 C36.4886667,5.89733333 36.2506667,5.98133333 36.008,6.056 Z M35.182,12.244 C35.2753333,12.2813333 35.3593333,12.2626667 35.434,12.188 C35.5833333,12.2066667 35.7093333,12.174 35.812,12.09 C35.924,11.9873333 35.9286667,11.8753333 35.826,11.754 C35.6953333,11.4553333 35.4806667,11.1893333 35.182,10.956 C35.07,11.0213333 34.986,10.9886667 34.93,10.858 C34.8833333,10.858 34.8366667,10.8673333 34.79,10.886 C34.7526667,10.9046667 34.7153333,10.8813333 34.678,10.816 C34.5193333,10.816 34.3746667,10.83 34.244,10.858 C34.076,10.83 33.8986667,10.816 33.712,10.816 C33.5906667,10.844 33.4833333,10.9046667 33.39,10.998 C33.3433333,11.0446667 33.334,11.11 33.362,11.194 C33.3713333,11.2593333 33.3713333,11.334 33.362,11.418 C33.4366667,11.418 33.4646667,11.4506667 33.446,11.516 C33.4273333,11.5813333 33.4413333,11.6373333 33.488,11.684 C33.488,11.6933333 33.5066667,11.712 33.544,11.74 C33.5906667,11.7773333 33.6,11.782 33.572,11.754 C33.6466667,11.642 33.7446667,11.6186667 33.866,11.684 C34.006,11.6373333 34.1133333,11.67 34.188,11.782 C34.272,11.9033333 34.3793333,11.964 34.51,11.964 C34.5473333,12.048 34.6033333,12.0946667 34.678,12.104 C34.7713333,12.104 34.8413333,12.1413333 34.888,12.216 C34.9906667,12.2066667 35.0886667,12.216 35.182,12.244 Z M49.56,15.828 C49.6253333,15.8653333 49.6766667,15.8466667 49.714,15.772 C49.77,15.6506667 49.8446667,15.5666667 49.938,15.52 C49.882,15.436 49.868,15.352 49.896,15.268 C49.9333333,15.184 49.9473333,15.0953333 49.938,15.002 C49.9193333,14.89 49.9193333,14.7873333 49.938,14.694 C49.9193333,14.582 49.9333333,14.4746667 49.98,14.372 C49.924,14.344 49.9146667,14.3113333 49.952,14.274 C49.9893333,14.218 49.9846667,14.176 49.938,14.148 C49.966,14.1013333 49.9986667,14.05 50.036,13.994 C50.0733333,13.9473333 50.0546667,13.896 49.98,13.84 C50.0453333,13.812 50.064,13.798 50.036,13.798 C50.008,13.8166667 49.9846667,13.7933333 49.966,13.728 C49.9566667,13.6626667 49.966,13.5973333 49.994,13.532 C50.0313333,13.476 50.0266667,13.4246667 49.98,13.378 C49.9893333,13.322 50.008,13.28 50.036,13.252 C50.064,13.2333333 50.0453333,13.2006667 49.98,13.154 C50.0173333,13.1166667 50.0173333,13.0606667 49.98,12.986 C49.9333333,12.8926667 49.9566667,12.8413333 50.05,12.832 C49.9473333,12.7386667 49.9333333,12.622 50.008,12.482 C49.9426667,12.4166667 49.9566667,12.342 50.05,12.258 C50.106,12.202 50.12,12.1273333 50.092,12.034 C50.064,11.95 50.064,11.8706667 50.092,11.796 C50.0546667,11.768 50.05,11.7306667 50.078,11.684 C50.1153333,11.6466667 50.106,11.614 50.05,11.586 C50.078,11.53 50.0966667,11.4693333 50.106,11.404 C50.1246667,11.3386667 50.1666667,11.2873333 50.232,11.25 C50.1666667,11.2033333 50.1386667,11.1193333 50.148,10.998 C50.2133333,10.7926667 50.2413333,10.578 50.232,10.354 C50.2693333,10.326 50.2693333,10.284 50.232,10.228 C50.204,10.1813333 50.2133333,10.1393333 50.26,10.102 C50.2506667,9.99 50.2926667,9.934 50.386,9.934 C50.4886667,9.94333333 50.5633333,9.91533333 50.61,9.85 C50.666,9.84066667 50.722,9.81733333 50.778,9.78 C50.8153333,9.752 50.8573333,9.76133333 50.904,9.808 C50.96,9.79866667 51.002,9.766 51.03,9.71 C51.0673333,9.66333333 51.1093333,9.654 51.156,9.682 C51.156,9.61666667 51.1746667,9.59333333 51.212,9.612 C51.2586667,9.63066667 51.3006667,9.626 51.338,9.598 C51.3846667,9.69133333 51.4546667,9.67266667 51.548,9.542 C51.576,9.61666667 51.6226667,9.63066667 51.688,9.584 C51.7626667,9.54666667 51.828,9.55133333 51.884,9.598 C51.9586667,9.56066667 52.0613333,9.542 52.192,9.542 C52.2573333,9.44866667 52.3366667,9.416 52.43,9.444 C52.5326667,9.472 52.6353333,9.47666667 52.738,9.458 C52.906,9.486 53.06,9.47666667 53.2,9.43 C53.2373333,9.47666667 53.284,9.48133333 53.34,9.444 C53.396,9.40666667 53.4333333,9.41133333 53.452,9.458 C53.5826667,9.458 53.69,9.416 53.774,9.332 C53.774,9.248 53.7506667,9.122 53.704,8.954 C53.788,8.926 53.83,8.87 53.83,8.786 C53.8393333,8.702 53.8206667,8.64133333 53.774,8.604 C53.606,8.464 53.4053333,8.35666667 53.172,8.282 C53.0226667,8.29133333 52.892,8.29133333 52.78,8.282 C52.696,8.32866667 52.5933333,8.338 52.472,8.31 C52.36,8.29133333 52.2666667,8.31933333 52.192,8.394 C52.0706667,8.48733333 51.968,8.47333333 51.884,8.352 C51.6786667,8.352 51.4826667,8.366 51.296,8.394 C51.268,8.366 51.2446667,8.37066667 51.226,8.408 C51.1793333,8.44533333 51.1326667,8.45933333 51.086,8.45 C51.086,8.48733333 51.0673333,8.51533333 51.03,8.534 C50.974,8.54333333 50.9786667,8.55266667 51.044,8.562 C51.1,8.618 51.0813333,8.646 50.988,8.646 C50.8946667,8.65533333 50.8526667,8.62733333 50.862,8.562 C50.7406667,8.51533333 50.624,8.51533333 50.512,8.562 C50.4373333,8.562 50.3533333,8.53866667 50.26,8.492 C50.2506667,8.39866667 50.2506667,8.31466667 50.26,8.24 C50.1853333,8.22133333 50.162,8.18866667 50.19,8.142 C50.218,8.07666667 50.218,8.03466667 50.19,8.016 C50.2366667,7.83866667 50.274,7.652 50.302,7.456 C50.33,7.38133333 50.3626667,7.29733333 50.4,7.204 C50.372,7.07333333 50.386,6.96133333 50.442,6.868 C50.386,6.83066667 50.3813333,6.79333333 50.428,6.756 C50.484,6.728 50.512,6.74666667 50.512,6.812 C50.568,6.728 50.6426667,6.70466667 50.736,6.742 C50.8386667,6.64866667 50.9553333,6.588 51.086,6.56 C51.1513333,6.46666667 51.2213333,6.434 51.296,6.462 C51.3706667,6.49 51.4406667,6.45266667 51.506,6.35 C51.5526667,6.35933333 51.548,6.34533333 51.492,6.308 C51.4546667,6.27066667 51.4406667,6.23333333 51.45,6.196 C51.422,6.03733333 51.3846667,5.89266667 51.338,5.762 C51.3473333,5.69666667 51.38,5.64533333 51.436,5.608 C51.5013333,5.58 51.5246667,5.52866667 51.506,5.454 C51.4406667,5.38866667 51.352,5.36066667 51.24,5.37 C51.1373333,5.38866667 51.0346667,5.37 50.932,5.314 C50.8386667,5.26733333 50.7453333,5.27666667 50.652,5.342 C50.6146667,5.286 50.5633333,5.272 50.498,5.3 C50.4326667,5.328 50.386,5.328 50.358,5.3 C50.3206667,5.328 50.274,5.35133333 50.218,5.37 C50.1713333,5.38866667 50.148,5.36533333 50.148,5.3 C50.1013333,5.16933333 50.0453333,5.05266667 49.98,4.95 C49.9893333,4.894 49.98,4.84266667 49.952,4.796 C49.924,4.75866667 49.9426667,4.74 50.008,4.74 C50.1293333,4.656 50.26,4.59533333 50.4,4.558 C50.5586667,4.53 50.6706667,4.446 50.736,4.306 C50.7733333,4.25 50.8153333,4.24533333 50.862,4.292 C50.918,4.33866667 50.946,4.32933333 50.946,4.264 C51.0393333,4.22666667 51.0533333,4.18933333 50.988,4.152 C51.0346667,4.096 51.0766667,4.068 51.114,4.068 C51.1606667,4.068 51.2073333,4.03533333 51.254,3.97 C51.17,3.95133333 51.1653333,3.90933333 51.24,3.844 C51.3333333,3.77866667 51.366,3.704 51.338,3.62 C51.338,3.57333333 51.3193333,3.536 51.282,3.508 C51.2446667,3.48 51.2166667,3.43333333 51.198,3.368 C51.0953333,3.256 51.044,3.116 51.044,2.948 C50.904,2.81733333 50.7266667,2.74266667 50.512,2.724 C50.344,2.78 50.176,2.85466667 50.008,2.948 C49.7746667,3.01333333 49.5413333,3.102 49.308,3.214 C49.0933333,3.33533333 48.86,3.41933333 48.608,3.466 C48.44,3.19533333 48.3,2.91066667 48.188,2.612 C48.104,2.388 47.9733333,2.18733333 47.796,2.01 C47.7213333,1.77666667 47.5953333,1.562 47.418,1.366 C47.3153333,1.35666667 47.2266667,1.30533333 47.152,1.212 C47.012,1.30533333 46.9513333,1.422 46.97,1.562 C47.0166667,1.69266667 47.04,1.828 47.04,1.968 C46.984,2.00533333 46.97,2.066 46.998,2.15 C47.0073333,2.21533333 46.9886667,2.26666667 46.942,2.304 C46.9233333,2.50933333 46.8766667,2.696 46.802,2.864 C46.7086667,3.032 46.6293333,3.2 46.564,3.368 C46.4333333,3.60133333 46.3306667,3.844 46.256,4.096 C46.2466667,4.17066667 46.214,4.236 46.158,4.292 C46.1113333,4.35733333 46.0926667,4.432 46.102,4.516 C46.046,4.712 46.032,4.92666667 46.06,5.16 C46.032,5.216 46.046,5.24866667 46.102,5.258 C46.1393333,5.26733333 46.1533333,5.30466667 46.144,5.37 C46.2093333,5.38866667 46.2466667,5.43066667 46.256,5.496 C46.256,5.54266667 46.2886667,5.57533333 46.354,5.594 C46.354,5.63133333 46.3726667,5.636 46.41,5.608 C46.466,5.57066667 46.4846667,5.58933333 46.466,5.664 C46.6526667,5.81333333 46.8113333,5.972 46.942,6.14 C47.0073333,6.24266667 47.0633333,6.24266667 47.11,6.14 C47.138,6.17733333 47.1846667,6.16333333 47.25,6.098 C47.3153333,6.042 47.3293333,6.00466667 47.292,5.986 C47.3573333,5.89266667 47.3433333,5.832 47.25,5.804 C47.5486667,5.57066667 47.7866667,5.286 47.964,4.95 C48.1133333,4.93133333 48.23,4.87066667 48.314,4.768 C48.3606667,4.86133333 48.4073333,4.88 48.454,4.824 C48.51,4.77733333 48.5613333,4.73533333 48.608,4.698 C48.6453333,4.73533333 48.692,4.726 48.748,4.67 C48.804,4.62333333 48.8553333,4.63266667 48.902,4.698 C49.1353333,4.63266667 49.266,4.71666667 49.294,4.95 C49.3406667,5.146 49.3546667,5.34666667 49.336,5.552 C49.2706667,5.68266667 49.1586667,5.734 49,5.706 C48.7946667,5.83666667 48.58,5.93933333 48.356,6.014 C48.0293333,6.13533333 47.698,6.26133333 47.362,6.392 C47.166,6.46666667 46.9606667,6.49933333 46.746,6.49 C46.5126667,6.47133333 46.284,6.47133333 46.06,6.49 C45.9573333,6.434 45.8546667,6.434 45.752,6.49 C45.6493333,6.47133333 45.5653333,6.49466667 45.5,6.56 C45.612,6.66266667 45.7426667,6.74666667 45.892,6.812 C46.2093333,6.93333333 46.5313333,7.064 46.858,7.204 C46.9233333,7.232 46.984,7.26466667 47.04,7.302 C47.1053333,7.33933333 47.1053333,7.39066667 47.04,7.456 C47.04,7.54933333 47.0166667,7.64266667 46.97,7.736 C46.9326667,7.81066667 46.942,7.88533333 46.998,7.96 C46.9606667,8.016 46.9466667,8.06266667 46.956,8.1 C46.9653333,8.13733333 46.9466667,8.184 46.9,8.24 C46.872,8.38 46.858,8.534 46.858,8.702 C46.746,8.87 46.648,8.982 46.564,9.038 C46.5266667,9.066 46.494,9.09866667 46.466,9.136 C46.4473333,9.18266667 46.41,9.18266667 46.354,9.136 C46.2233333,9.22 46.0693333,9.27133333 45.892,9.29 C45.8453333,9.32733333 45.7986667,9.36 45.752,9.388 C45.7146667,9.42533333 45.7286667,9.44866667 45.794,9.458 C45.8686667,9.57933333 45.9573333,9.59333333 46.06,9.5 C46.1253333,9.472 46.172,9.48133333 46.2,9.528 C46.2373333,9.584 46.2746667,9.58866667 46.312,9.542 C46.3493333,9.542 46.3726667,9.56533333 46.382,9.612 C46.4006667,9.65866667 46.4286667,9.654 46.466,9.598 C46.5126667,9.626 46.564,9.64 46.62,9.64 C46.6853333,9.62133333 46.6946667,9.64466667 46.648,9.71 C46.452,9.766 46.256,9.82666667 46.06,9.892 C45.9666667,9.93866667 45.8593333,9.95266667 45.738,9.934 C45.626,9.91533333 45.5326667,9.92466667 45.458,9.962 C45.262,10.018 45.0613333,10.0086667 44.856,9.934 C44.7813333,9.91533333 44.7113333,9.87333333 44.646,9.808 C44.5806667,9.74266667 44.4966667,9.724 44.394,9.752 C44.226,9.87333333 44.128,10.032 44.1,10.228 C44.2026667,10.3493333 44.3193333,10.438 44.45,10.494 C44.5806667,10.5313333 44.702,10.5826667 44.814,10.648 C45.0193333,10.7226667 45.234,10.7833333 45.458,10.83 C45.486,10.7833333 45.5186667,10.788 45.556,10.844 C45.612,10.8813333 45.6633333,10.886 45.71,10.858 C45.8033333,10.9233333 45.8873333,10.9233333 45.962,10.858 C46.1673333,10.9233333 46.368,10.9233333 46.564,10.858 C46.592,10.9046667 46.62,10.914 46.648,10.886 C46.6853333,10.858 46.732,10.8486667 46.788,10.858 C46.8533333,10.8113333 46.928,10.8066667 47.012,10.844 C47.096,10.9 47.1753333,10.8953333 47.25,10.83 C47.418,10.8953333 47.586,10.8953333 47.754,10.83 C47.922,10.8113333 48.0666667,10.8113333 48.188,10.83 C48.468,10.6806667 48.7666667,10.5826667 49.084,10.536 C49.1306667,10.5733333 49.14,10.6246667 49.112,10.69 C49.0933333,10.7646667 49.1073333,10.8206667 49.154,10.858 L49.154,10.858 L49.112,11.586 C49.168,11.6886667 49.1773333,11.796 49.14,11.908 C49.112,12.02 49.1026667,12.1273333 49.112,12.23 C49.1306667,12.8086667 49.1213333,13.378 49.084,13.938 C49.0373333,14.1993333 49.0233333,14.4653333 49.042,14.736 C49.0233333,14.8293333 49.0233333,14.932 49.042,15.044 C49.0513333,15.24 49.0746667,15.436 49.112,15.632 C49.2053333,15.7066667 49.2893333,15.7766667 49.364,15.842 C49.4293333,15.7953333 49.4946667,15.7906667 49.56,15.828 Z M47.544,9.528 C47.46,9.54666667 47.3993333,9.514 47.362,9.43 C47.446,9.374 47.46,9.304 47.404,9.22 C47.3573333,9.14533333 47.362,9.07066667 47.418,8.996 C47.418,8.90266667 47.4366667,8.81866667 47.474,8.744 C47.5206667,8.66933333 47.53,8.58533333 47.502,8.492 C47.446,8.37066667 47.418,8.24 47.418,8.1 C47.4646667,8.044 47.4926667,7.96466667 47.502,7.862 C47.53,7.778 47.502,7.71266667 47.418,7.666 C47.362,7.61933333 47.362,7.57733333 47.418,7.54 C47.4833333,7.512 47.5393333,7.484 47.586,7.456 C47.8846667,7.64266667 48.2113333,7.74533333 48.566,7.764 C48.762,7.61466667 48.972,7.48866667 49.196,7.386 C49.2893333,7.33 49.336,7.35333333 49.336,7.456 L49.336,7.456 L49.336,7.708 C49.308,8.1 49.294,8.48266667 49.294,8.856 C49.2193333,8.94933333 49.126,9.01 49.014,9.038 C48.9113333,9.04733333 48.818,9.08 48.734,9.136 C48.4166667,9.23866667 48.09,9.33666667 47.754,9.43 C47.7073333,9.44866667 47.6373333,9.48133333 47.544,9.528 Z M51.044,9.388 C50.988,9.36 50.9226667,9.332 50.848,9.304 C50.7733333,9.29466667 50.7686667,9.248 50.834,9.164 L50.834,9.164 L50.873,9.17 L50.876,9.171 L50.878,9.169 L50.89896,9.164 C50.9086667,9.15653333 50.9064267,9.1416 50.89224,9.1192 L50.888,9.115 L50.88776,9.10464 C50.8847733,9.08896 50.8788,9.08373333 50.86984,9.08896 L50.862,9.08 C50.9086667,9.024 50.9553333,9.01933333 51.002,9.066 C51.058,9.122 51.1,9.12666667 51.128,9.08 C51.1466667,9.09866667 51.198,9.11733333 51.282,9.136 L51.282,9.136 L51.312,9.149 L51.31,9.164 L51.31,9.164 C51.31,9.1864 51.3152267,9.19984 51.32568,9.20432 L51.327,9.205 L51.32232,9.21664 L51.32232,9.21664 L51.296,9.248 C51.184,9.25733333 51.1,9.304 51.044,9.388 Z M67.701,8.615 L67.70925,8.62325 L67.70925,8.62325 L67.732,8.646 C67.7786667,8.69266667 67.816,8.72066667 67.844,8.73 C68.0026667,8.66466667 68.1566667,8.59466667 68.306,8.52 C68.3713333,8.492 68.432,8.48266667 68.488,8.492 C68.544,8.51066667 68.5953333,8.492 68.642,8.436 C68.8006667,8.33333333 68.9546667,8.26333333 69.104,8.226 C69.132,8.16066667 69.188,8.10933333 69.272,8.072 C69.356,8.016 69.4073333,7.95066667 69.426,7.876 C69.4726667,7.78266667 69.4586667,7.68466667 69.384,7.582 C68.9826667,7.246 68.5533333,7.008 68.096,6.868 C67.9373333,6.84933333 67.7973333,6.81666667 67.676,6.77 C67.5453333,6.70466667 67.4006667,6.67666667 67.242,6.686 C66.878,6.62066667 66.5093333,6.58333333 66.136,6.574 C66.0333333,6.55533333 65.9726667,6.504 65.954,6.42 C65.9446667,6.31733333 65.9306667,6.224 65.912,6.14 C65.9026667,5.89733333 65.8933333,5.65 65.884,5.398 C65.968,5.26733333 66.0706667,5.146 66.192,5.034 C66.4813333,4.80066667 66.7613333,4.53933333 67.032,4.25 C67.0786667,4.20333333 67.1253333,4.14733333 67.172,4.082 C67.228,4.01666667 67.2233333,3.95133333 67.158,3.886 C67.242,3.83 67.2513333,3.78333333 67.186,3.746 C67.1206667,3.70866667 67.0693333,3.65266667 67.032,3.578 C66.8826667,3.47533333 66.7333333,3.40066667 66.584,3.354 C66.416,3.31666667 66.2526667,3.26533333 66.094,3.2 C66.066,3.13466667 66.0333333,3.13 65.996,3.186 C65.968,3.25133333 65.94,3.256 65.912,3.2 C65.856,3.15333333 65.828,3.08333333 65.828,2.99 C65.8373333,2.89666667 65.814,2.82666667 65.758,2.78 C65.646,2.39733333 65.506,2.038 65.338,1.702 C65.1793333,1.40333333 64.9786667,1.11866667 64.736,0.848 C64.6426667,0.810666667 64.5446667,0.787333333 64.442,0.778 C64.274,0.918 64.2133333,1.11866667 64.26,1.38 C64.344,1.51066667 64.3906667,1.66 64.4,1.828 C64.4093333,1.996 64.4793333,2.14533333 64.61,2.276 C64.5633333,2.36 64.5773333,2.444 64.652,2.528 L64.652,2.528 L64.764,2.99 C64.7173333,3.018 64.7266667,3.05066667 64.792,3.088 C64.8386667,3.12533333 64.8293333,3.16266667 64.764,3.2 L64.764,3.2 L64.764,3.886 C64.6893333,3.95133333 64.6333333,4.03533333 64.596,4.138 C64.568,4.24066667 64.5026667,4.31066667 64.4,4.348 C64.2413333,4.50666667 64.0686667,4.61866667 63.882,4.684 C63.826,4.684 63.77,4.70266667 63.714,4.74 C63.6766667,4.796 63.6346667,4.79133333 63.588,4.726 C63.3266667,4.838 63.0513333,4.908 62.762,4.936 C62.7806667,4.992 62.762,5.02466667 62.706,5.034 C62.6686667,5.04333333 62.678,5.06666667 62.734,5.104 C62.8366667,5.16933333 62.9393333,5.244 63.042,5.328 C63.1073333,5.328 63.1586667,5.35133333 63.196,5.398 C63.2426667,5.44466667 63.2986667,5.468 63.364,5.468 C63.4853333,5.552 63.6113333,5.608 63.742,5.636 C63.8726667,5.64533333 63.9893333,5.69666667 64.092,5.79 C64.232,5.818 64.2786667,5.87866667 64.232,5.972 C64.2133333,6.056 64.176,6.13533333 64.12,6.21 C64.0733333,6.294 64.05,6.38266667 64.05,6.476 C63.742,7.21333333 63.406,7.93666667 63.042,8.646 C62.9113333,8.90733333 62.7666667,9.164 62.608,9.416 C62.5613333,9.5 62.4913333,9.542 62.398,9.542 C62.3233333,9.542 62.2533333,9.57 62.188,9.626 C62.0946667,9.626 61.9966667,9.62133333 61.894,9.612 C61.8006667,9.612 61.754,9.556 61.754,9.444 C61.698,9.42533333 61.6886667,9.388 61.726,9.332 C61.7726667,9.28533333 61.768,9.23866667 61.712,9.192 C61.768,9.11733333 61.7773333,9.03333333 61.74,8.94 C61.712,8.86533333 61.7026667,8.78133333 61.712,8.688 C61.684,8.604 61.6653333,8.51533333 61.656,8.422 C61.6466667,8.32866667 61.5953333,8.24933333 61.502,8.184 C61.4366667,8.11866667 61.39,8.03466667 61.362,7.932 C61.2593333,7.85733333 61.152,7.76866667 61.04,7.666 C60.984,7.582 60.9046667,7.51666667 60.802,7.47 C60.7086667,7.43266667 60.6433333,7.372 60.606,7.288 C60.6713333,7.24133333 60.704,7.176 60.704,7.092 C60.7133333,7.01733333 60.7506667,6.966 60.816,6.938 C60.9653333,6.798 61.0773333,6.658 61.152,6.518 C61.2173333,6.462 61.25,6.38733333 61.25,6.294 C61.39,6.21933333 61.46,6.098 61.46,5.93 C61.5253333,5.77133333 61.6233333,5.65466667 61.754,5.58 C61.7446667,5.51466667 61.754,5.44933333 61.782,5.384 C61.8193333,5.31866667 61.796,5.25333333 61.712,5.188 C61.7026667,5.15066667 61.7213333,5.12266667 61.768,5.104 C61.8146667,5.104 61.81,5.09466667 61.754,5.076 C61.754,5.01066667 61.726,4.94533333 61.67,4.88 C61.6326667,4.81466667 61.6606667,4.76333333 61.754,4.726 C61.726,4.642 61.6746667,4.57666667 61.6,4.53 C61.5253333,4.46466667 61.4926667,4.39466667 61.502,4.32 C61.4273333,4.27333333 61.39,4.19866667 61.39,4.096 C61.3993333,4.00266667 61.3666667,3.928 61.292,3.872 C61.2266667,3.82533333 61.194,3.77866667 61.194,3.732 C61.1753333,3.676 61.1333333,3.62466667 61.068,3.578 C61.0213333,3.42866667 60.9046667,3.31666667 60.718,3.242 C60.634,3.16733333 60.5266667,3.06933333 60.396,2.948 C60.312,2.976 60.2186667,2.99 60.116,2.99 C60.032,2.99 59.9573333,3.02733333 59.892,3.102 C59.7986667,3.16733333 59.7753333,3.242 59.822,3.326 C59.7846667,3.42866667 59.7333333,3.53133333 59.668,3.634 C59.696,3.68066667 59.6726667,3.72733333 59.598,3.774 C59.5326667,3.82066667 59.514,3.88133333 59.542,3.956 C59.5606667,4.068 59.5373333,4.16133333 59.472,4.236 C59.4066667,4.31066667 59.402,4.39 59.458,4.474 C59.402,4.51133333 59.3366667,4.55333333 59.262,4.6 C59.1966667,4.656 59.2013333,4.698 59.276,4.726 C59.3413333,4.85666667 59.318,4.97333333 59.206,5.076 C59.1966667,5.12266667 59.1966667,5.17866667 59.206,5.244 C59.206,5.328 59.1733333,5.37 59.108,5.37 C59.0986667,5.40733333 59.08,5.44 59.052,5.468 C59.0146667,5.47733333 59.0053333,5.51466667 59.024,5.58 C58.9586667,5.776 58.842,5.944 58.674,6.084 C58.6926667,6.18666667 58.6646667,6.27066667 58.59,6.336 C58.5246667,6.40133333 58.4826667,6.48066667 58.464,6.574 C58.2866667,6.84466667 58.0906667,7.11066667 57.876,7.372 C57.876,7.4 57.8666667,7.43266667 57.848,7.47 C57.82,7.48866667 57.8293333,7.512 57.876,7.54 C57.792,7.60533333 57.722,7.68 57.666,7.764 C57.722,7.81066667 57.708,7.85733333 57.624,7.904 C57.5493333,7.96 57.5073333,8.02066667 57.498,8.086 C57.47,8.114 57.4466667,8.16066667 57.428,8.226 C57.4093333,8.30066667 57.372,8.31466667 57.316,8.268 C57.3066667,8.30533333 57.288,8.338 57.26,8.366 C57.2226667,8.37533333 57.218,8.41266667 57.246,8.478 C57.19,8.55266667 57.1293333,8.632 57.064,8.716 C56.9893333,8.78133333 56.9613333,8.87 56.98,8.982 C57.0266667,9.11266667 57.0406667,9.24333333 57.022,9.374 C57.0873333,9.42066667 57.1526667,9.48133333 57.218,9.556 C57.2833333,9.64 57.3626667,9.67733333 57.456,9.668 C57.5213333,9.73333333 57.5866667,9.77066667 57.652,9.78 C57.7266667,9.808 57.792,9.85466667 57.848,9.92 C57.9226667,9.92 57.974,9.95266667 58.002,10.018 C58.0393333,10.0926667 58.0813333,10.0926667 58.128,10.018 C58.2866667,9.934 58.4173333,9.81733333 58.52,9.668 C58.7066667,9.39733333 58.9353333,9.16866667 59.206,8.982 C59.2526667,8.94466667 59.3133333,8.89333333 59.388,8.828 C59.472,8.76266667 59.5326667,8.77666667 59.57,8.87 C59.5233333,8.898 59.5186667,8.93066667 59.556,8.968 C59.5933333,9.01466667 59.5886667,9.052 59.542,9.08 C59.5793333,9.11733333 59.584,9.15933333 59.556,9.206 C59.528,9.262 59.5233333,9.318 59.542,9.374 L59.542,9.374 L59.542,9.707375 C59.535,9.772125 59.507,9.829 59.458,9.878 C59.4206667,10.074 59.374,10.242 59.318,10.382 C59.374,10.4193333 59.3693333,10.4566667 59.304,10.494 C59.248,10.5406667 59.2526667,10.5733333 59.318,10.592 C59.3086667,10.7506667 59.3226667,10.8813333 59.36,10.984 C59.3226667,11.04 59.3273333,11.1006667 59.374,11.166 C59.4206667,11.2406667 59.4346667,11.3246667 59.416,11.418 C59.472,11.4646667 59.5046667,11.5206667 59.514,11.586 C59.5326667,11.6513333 59.5746667,11.7026667 59.64,11.74 C59.6213333,11.8053333 59.6353333,11.8566667 59.682,11.894 C59.738,11.9406667 59.7613333,11.9966667 59.752,12.062 C59.92,12.3046667 60.1206667,12.5426667 60.354,12.776 C60.4473333,12.7293333 60.5313333,12.7433333 60.606,12.818 C60.7646667,12.79 60.8953333,12.846 60.998,12.986 C60.998,12.9486667 61.0166667,12.916 61.054,12.888 C61.0913333,12.8693333 61.0866667,12.832 61.04,12.776 C61.0586667,12.636 61.11,12.5053333 61.194,12.384 C61.2406667,12.3 61.25,12.1973333 61.222,12.076 C61.2126667,11.9453333 61.2453333,11.8333333 61.32,11.74 C61.348,11.656 61.3713333,11.5626667 61.39,11.46 C61.39,11.3386667 61.4273333,11.2406667 61.502,11.166 C61.4926667,11.0446667 61.5066667,10.9326667 61.544,10.83 C61.5906667,10.7366667 61.614,10.634 61.614,10.522 C61.67,10.4193333 61.7166667,10.3073333 61.754,10.186 C61.7633333,10.1113333 61.782,10.0926667 61.81,10.13 C61.838,10.1673333 61.88,10.186 61.936,10.186 C62.048,10.3073333 62.188,10.3726667 62.356,10.382 C62.384,10.466 62.4306667,10.4986667 62.496,10.48 C62.5613333,10.4706667 62.6266667,10.4566667 62.692,10.438 C62.7573333,10.494 62.8226667,10.4893333 62.888,10.424 C62.9533333,10.368 63.0186667,10.3306667 63.084,10.312 C63.14,10.2186667 63.21,10.1206667 63.294,10.018 C63.4246667,9.88733333 63.5086667,9.72866667 63.546,9.542 C63.686,9.42066667 63.784,9.28066667 63.84,9.122 C63.9053333,9.094 63.938,9.06133333 63.938,9.024 C63.938,8.98666667 63.9613333,8.94933333 64.008,8.912 C63.9706667,8.84666667 63.9846667,8.78133333 64.05,8.716 C64.1246667,8.66 64.1713333,8.59466667 64.19,8.52 C64.218,8.464 64.2413333,8.422 64.26,8.394 C64.3066667,8.38466667 64.2973333,8.366 64.232,8.338 C64.2973333,8.30066667 64.33,8.24466667 64.33,8.17 C64.3393333,8.10466667 64.3766667,8.05333333 64.442,8.016 L64.442,8.016 L64.61,7.666 C64.7966667,7.57266667 64.9086667,7.414 64.946,7.19 C64.918,7.15266667 64.9226667,7.11066667 64.96,7.064 C65.016,7.008 65.058,6.952 65.086,6.896 C65.1606667,7.01733333 65.1933333,7.162 65.184,7.33 C65.156,7.498 65.1606667,7.652 65.198,7.792 C65.226,8.25866667 65.24,8.72533333 65.24,9.192 C65.2866667,9.388 65.3053333,9.60266667 65.296,9.836 C65.2586667,9.92 65.2306667,10.0133333 65.212,10.116 C65.1933333,10.2 65.1326667,10.2653333 65.03,10.312 C64.7126667,10.6106667 64.3486667,10.7646667 63.938,10.774 C63.7233333,10.83 63.5086667,10.844 63.294,10.816 C63.2286667,10.7973333 63.1773333,10.7646667 63.14,10.718 C63.1026667,10.6526667 63.07,10.6573333 63.042,10.732 C62.986,10.7506667 62.972,10.7926667 63,10.858 C63.0093333,10.914 62.9906667,10.956 62.944,10.984 C63.0466667,11.208 63.2006667,11.3666667 63.406,11.46 C63.49,11.4693333 63.56,11.4973333 63.616,11.544 C63.672,11.6 63.7466667,11.614 63.84,11.586 C64.008,11.6886667 64.1946667,11.7306667 64.4,11.712 C64.568,11.852 64.75,11.8846667 64.946,11.81 C65.058,11.782 65.114,11.81 65.114,11.894 C65.114,11.9873333 65.128,12.0666667 65.156,12.132 C65.1466667,12.328 65.1606667,12.5053333 65.198,12.664 C65.2353333,12.832 65.2493333,13.014 65.24,13.21 C65.3146667,13.378 65.3473333,13.56 65.338,13.756 C65.3473333,13.8306667 65.3473333,13.9333333 65.338,14.064 C65.3473333,14.1666667 65.338,14.2786667 65.31,14.4 C65.3006667,14.512 65.3333333,14.6053333 65.408,14.68 C65.3706667,14.7266667 65.366,14.7826667 65.394,14.848 C65.4313333,14.8946667 65.4266667,14.946 65.38,15.002 C65.3613333,15.086 65.3986667,15.1746667 65.492,15.268 C65.5853333,15.3426667 65.6553333,15.338 65.702,15.254 C65.8606667,15.2913333 65.9913333,15.2306667 66.094,15.072 C66.1313333,14.6333333 66.1453333,14.1806667 66.136,13.714 C66.1173333,13.6206667 66.1313333,13.5273333 66.178,13.434 C66.1966667,13.3593333 66.1826667,13.2846667 66.136,13.21 C66.08,12.8926667 66.08,12.58 66.136,12.272 C66.1733333,12.1413333 66.192,12.0106667 66.192,11.88 C66.304,11.768 66.388,11.628 66.444,11.46 C66.5373333,11.4133333 66.6213333,11.3386667 66.696,11.236 C66.7613333,11.2173333 66.822,11.1613333 66.878,11.068 C66.9526667,11.096 67.0366667,11.054 67.13,10.942 C67.1766667,10.9233333 67.1953333,10.8813333 67.186,10.816 C67.186,10.76 67.2186667,10.732 67.284,10.732 C67.3306667,10.6666667 67.3773333,10.6293333 67.424,10.62 C67.48,10.62 67.536,10.5873333 67.592,10.522 C67.6946667,10.4566667 67.8066667,10.3586667 67.928,10.228 C67.844,10.1533333 67.83,10.0693333 67.886,9.976 C67.7833333,9.91066667 67.7553333,9.822 67.802,9.71 C67.7646667,9.71 67.732,9.682 67.704,9.626 C67.6853333,9.57 67.648,9.57 67.592,9.626 C67.4333333,9.58866667 67.3026667,9.51866667 67.2,9.416 C67.088,9.5 66.9806667,9.486 66.878,9.374 C66.822,9.46733333 66.7426667,9.49066667 66.64,9.444 C66.5373333,9.39733333 66.4393333,9.39733333 66.346,9.444 C66.2713333,9.42533333 66.2433333,9.36466667 66.262,9.262 C66.29,9.14066667 66.2806667,9.04733333 66.234,8.982 L66.234,8.982 L66.192,8.044 C66.136,7.96933333 66.1126667,7.88533333 66.122,7.792 C66.1406667,7.708 66.1313333,7.624 66.094,7.54 L66.094,7.54 L66.094,7.316 C66.094,7.232 66.1266667,7.20866667 66.192,7.246 C66.2946667,7.29266667 66.4066667,7.32066667 66.528,7.33 C66.78,7.442 67.032,7.54 67.284,7.624 C67.4986667,7.72666667 67.7133333,7.81066667 67.928,7.876 C68.096,7.92266667 68.25,7.96933333 68.39,8.016 C68.4553333,8.016 68.5206667,8.02533333 68.586,8.044 C68.6513333,8.09066667 68.6466667,8.13733333 68.572,8.184 L68.572,8.184 L68.138,8.394 C68.11,8.34733333 68.0913333,8.34733333 68.082,8.394 C68.054,8.44066667 68.012,8.45466667 67.956,8.436 C67.8533333,8.47333333 67.7693333,8.534 67.704,8.618 L67.704,8.618 L67.701,8.615 Z" id="path-1"></path>
    </defs>
    <g id="页面-1" stroke="none" stroke-width="1" fill="none" fill-rule="evenodd">
        <g id="画板" transform="translate(-275.000000, -210.000000)">
            <g id="方正得年体" transform="translate(275.000000, 210.000000)">
                <rect id="矩形备份-4" stroke-opacity="0" stroke="#979797" x="0.5" y="0.5" width="79" height="23"></rect>
                <g transform="translate(5.000000, 4.000000)" fill-rule="nonzero">
                    <g>
                        <use fill="#000000" xlink:href="#path-1"></use>
                        <use fill="#333333" xlink:href="#path-1"></use>
                    </g>
                </g>
            </g>
        </g>
    </g>
</svg>