<?xml version="1.0" encoding="UTF-8"?>
<svg width="80px" height="24px" viewBox="0 0 80 24" version="1.1" xmlns="http://www.w3.org/2000/svg" xmlns:xlink="http://www.w3.org/1999/xlink">
    <title>方正雅珠体</title>
    <defs>
        <path d="M7.042,4.67 C8.12466667,4.57666667 8.72666667,4.05866667 8.848,3.116 C8.74533333,2.21066667 8.14333333,1.716 7.042,1.632 C5.95,1.716 5.35266667,2.21066667 5.25,3.116 C5.37133333,4.05866667 5.96866667,4.57666667 7.042,4.67 Z M2.954,14.19 L5.782,9.374 L5.782,10.648 L9.156,10.592 L9.184,11.992 L6.034,11.81 L5.894,14.036 L11.06,13.812 L11.816,8.38 L6.3,8.492 L6.72,7.778 L4.424,7.204 L13.006,7.022 L13.006,4.726 L1.106,4.978 L1.106,7.274 L3.906,7.218 L1.12,13.49 L2.954,14.19 Z M15.232,4.922 L26.894,4.684 L26.894,2.388 L15.232,2.626 L15.232,4.922 Z M14.938,14.036 L27.16,13.784 L27.16,11.768 L22.372,11.866 L22.484,9.612 L26.376,9.528 L26.376,7.456 L22.596,7.54 L22.722,5.188 L20.048,5.258 L20.384,11.908 L18.452,11.95 L18.802,7.176 L16.184,7.246 L16.52,11.992 L14.938,12.02 L14.938,14.036 Z M36.148,7.134 L41.118,7.022 L41.118,4.74 L36.666,4.838 L37.926,2.15 L35.378,1.59 L34.076,6.532 L35.616,7.078 L36.148,5.944 L36.148,7.134 Z M39.144,4.544 C39.9373333,4.47866667 40.3713333,4.09133333 40.446,3.382 C40.3713333,2.67266667 39.9373333,2.28533333 39.144,2.22 C38.36,2.28533333 37.926,2.67266667 37.842,3.382 C37.926,4.09133333 38.36,4.47866667 39.144,4.544 Z M30.688,13.532 L33.362,13.378 L33.558,9.122 L34.356,9.094 L34.356,7.204 L33.642,7.218 L33.74,5.09 L34.412,5.076 L34.412,2.962 L28.952,3.074 L28.952,5.188 L31.64,5.132 L31.724,7.274 L30.716,7.288 L31.374,5.636 L29.302,5.692 L28.966,7.428 L29.218,9.206 L31.808,9.15 L31.85,10.088 L30.128,9.416 L28.658,12.342 L29.722,12.972 L31.864,10.312 L31.934,11.824 L30.814,11.67 L30.688,13.532 Z M34.846,14.05 L41.16,13.924 L41.16,12.258 L39.872,12.286 L39.914,11.782 L40.908,11.754 L40.908,10.312 L39.998,10.34 L40.04,9.668 L40.908,9.654 L40.908,8.24 L40.138,8.268 L40.194,7.372 L37.884,7.428 L37.94,8.324 L37.268,8.338 L37.268,9.724 L38.024,9.71 L38.066,10.368 L37.268,10.382 L37.268,11.824 L38.164,11.81 L38.192,12.314 L36.82,12.342 L37.016,7.386 L34.594,7.442 L34.846,14.05 Z M50.54,14.176 L52.276,14.134 L52.374,10.592 L55.16,10.522 L55.16,8.506 L52.444,8.576 L52.486,7.204 L54.712,7.162 L54.712,4.726 L52.556,4.768 L52.654,1.66 L50.19,1.702 L50.274,4.824 L49.658,4.838 L49.994,3.34 L47.95,3.102 L47.432,7.974 L48.902,8.254 L49.112,7.274 L50.344,7.246 L50.386,8.618 L47.586,8.674 L47.586,10.69 L50.442,10.634 L50.54,14.176 Z M43.12,5.356 L47.264,5.258 L47.264,2.962 L43.12,3.06 L43.12,5.356 Z M43.456,13.546 L47.39,11.6 L47.012,10.018 L46.088,10.284 L46.158,9.29 L47.082,9.262 L47.082,7.372 L46.27,7.386 L46.382,5.678 L44.002,5.72 L44.1,7.442 L43.302,7.456 L43.302,9.346 L44.226,9.332 L44.31,10.802 L42.756,11.25 L43.456,13.546 Z M48.398,13.77 L50.134,12.062 L48.272,11.068 L47.082,13 L48.398,13.77 Z M54.054,13.588 C54.7633333,13.5226667 55.1506667,13.154 55.216,12.482 C55.1506667,11.8006667 54.7633333,11.4273333 54.054,11.362 C53.3446667,11.4273333 52.9573333,11.8006667 52.892,12.482 C52.9573333,13.154 53.3446667,13.5226667 54.054,13.588 Z M64.036,14.176 L65.856,14.106 L65.926,11.992 L66.808,11.964 L66.808,9.682 L65.996,9.696 L66.08,6.924 L69.16,6.868 L69.16,4.432 L66.15,4.488 L66.248,1.66 L63.658,1.716 L63.742,4.53 L60.718,4.586 L60.718,7.022 L63.812,6.966 L63.896,9.738 L62.986,9.752 L62.986,12.048 L63.966,12.034 L64.036,14.176 Z M57.918,8.296 L61.04,3.718 L58.758,2.374 L56.742,7.204 L57.918,8.296 Z M67.466,12.552 L69.37,11.572 L67.83,7.638 L66.612,8.156 L67.466,12.552 Z M62.02,12.51 L63.504,8.086 L61.446,7.666 L60.704,12.048 L62.02,12.51 Z M57.974,13.546 L60.466,13.49 L60.088,8.016 L58.38,8.072 L57.974,13.546 Z" id="path-1"></path>
    </defs>
    <g id="页面-1" stroke="none" stroke-width="1" fill="none" fill-rule="evenodd">
        <g id="画板" transform="translate(-169.000000, -210.000000)">
            <g id="方正雅珠体" transform="translate(169.000000, 210.000000)">
                <rect id="矩形备份-8" stroke-opacity="0" stroke="#979797" x="0.5" y="0.5" width="79" height="23"></rect>
                <g id="方正雅珠体备份-2" transform="translate(5.000000, 4.000000)" fill-rule="nonzero">
                    <g id="方正雅珠体">
                        <use fill="#000000" xlink:href="#path-1"></use>
                        <use fill="#333333" xlink:href="#path-1"></use>
                    </g>
                </g>
            </g>
        </g>
    </g>
</svg>