<?xml version="1.0" encoding="UTF-8"?>
<svg width="80px" height="24px" viewBox="0 0 80 24" version="1.1" xmlns="http://www.w3.org/2000/svg" xmlns:xlink="http://www.w3.org/1999/xlink">
    <title>方正粗谭体</title>
    <defs>
        <path d="M12.25,11.328125 C13.0520833,11.4375 13.3984375,11.0911458 13.2890625,10.2890625 L13.2890625,10.2890625 L13.2890625,3.453125 L4.2109375,3.453125 L4.3203125,2.4140625 L13.2890625,2.4140625 L13.2890625,1.375 L8.421875,1.375 L8.3125,0.828125 L5.4140625,0.828125 L5.5234375,1.375 L0.7109375,1.375 L0.7109375,2.4140625 L1.53125,2.4140625 L0.7109375,11.328125 L3.4453125,11.328125 L4.1015625,4.4921875 L10.6640625,4.4921875 L10.6640625,9.7421875 C10.7369792,10.1796875 10.5729167,10.3619792 10.171875,10.2890625 L10.171875,10.2890625 L8.5859375,10.2890625 L8.5859375,11.328125 L12.25,11.328125 Z M27.2890625,11.328125 L27.2890625,10.2890625 L22.859375,10.2890625 L22.859375,4.4921875 L27.2890625,4.4921875 L27.2890625,3.453125 L22.859375,3.453125 L22.859375,1.8671875 L27.2890625,1.8671875 L27.2890625,0.828125 L14.7109375,0.828125 L14.7109375,1.8671875 L19.9609375,1.8671875 L19.9609375,10.2890625 L17.609375,10.2890625 L17.609375,3.453125 L14.984375,3.453125 L14.984375,10.2890625 L14.7109375,10.2890625 L14.7109375,11.328125 L27.2890625,11.328125 Z M41.2890625,11.328125 L41.2890625,10.2890625 L40.8515625,10.2890625 L40.8515625,0.828125 L34.0703125,0.828125 L34.0703125,10.2890625 L33.7421875,10.2890625 L33.7421875,11.328125 L41.2890625,11.328125 Z M31.1171875,11.328125 C31.7734375,11.4010417 32.0651042,11.0546875 31.9921875,10.2890625 L31.9921875,10.2890625 L31.9921875,3.9453125 L33.5234375,3.9453125 L33.5234375,2.90625 L33.359375,2.90625 L33.5234375,0.828125 L32.375,0.828125 L32.15625,2.90625 L31.9921875,2.90625 L31.9921875,0.828125 L30.296875,0.828125 L30.296875,2.90625 L30.078125,2.90625 L29.859375,0.828125 L28.7109375,0.828125 L28.875,2.90625 L28.7109375,2.90625 L28.7109375,3.9453125 L30.296875,3.9453125 L30.296875,11.328125 L31.1171875,11.328125 Z M38.4453125,2.90625 L36.4765625,2.90625 L36.4765625,1.8671875 L38.4453125,1.8671875 L38.4453125,2.90625 Z M38.4453125,5.5859375 L36.4765625,5.5859375 L36.4765625,4 L38.4453125,4 L38.4453125,5.5859375 Z M29.859375,11.328125 L30.1875,4.1640625 L28.984375,4.1640625 L28.7109375,11.328125 L29.859375,11.328125 Z M33.5234375,11.328125 L33.359375,4.2734375 L32.2109375,4.2734375 L32.4296875,11.328125 L33.5234375,11.328125 Z M38.4453125,10.2890625 L36.4765625,10.2890625 L36.4765625,6.625 L38.4453125,6.625 L38.4453125,10.2890625 Z M54.140625,4.65625 C54.9791667,4.72916667 55.3619792,4.36458333 55.2890625,3.5625 L55.2890625,3.5625 L55.2890625,2.1953125 L52.6640625,2.1953125 L52.6640625,1.8671875 L55.2890625,1.8671875 L55.2890625,0.828125 L46.375,0.828125 L46.375,1.8671875 L48.890625,1.8671875 L48.890625,2.1953125 L46.375,2.1953125 L46.375,4.65625 L54.140625,4.65625 Z M45.5546875,1.8671875 L45.5546875,0.828125 L42.7109375,0.828125 L42.7109375,1.8671875 L45.5546875,1.8671875 Z M51.1328125,2.1953125 L50.421875,2.1953125 L50.421875,1.8671875 L51.1328125,1.8671875 L51.1328125,2.1953125 Z M44.0061806,11.3371181 L44.1328125,11.328125 L46.046875,11.328125 L46.046875,10.2890625 L45.9375,10.2890625 C45.609375,10.3619792 45.4817708,10.2161458 45.5546875,9.8515625 L45.5546875,9.8515625 L45.5546875,2.4140625 L42.7109375,2.4140625 L42.7109375,3.453125 L43.203125,3.453125 L43.203125,10.2890625 C43.1666667,11.0546875 43.4765625,11.4010417 44.1328125,11.328125 L44.0061806,11.3371181 Z M51.1328125,3.8359375 L50.421875,3.8359375 L50.421875,3.0703125 L51.1328125,3.0703125 L51.1328125,3.8359375 Z M53.0171682,3.84201389 L52.9375,3.8359375 L52.6640625,3.8359375 L52.6640625,3.0703125 L53.265625,3.0703125 L53.265625,3.453125 C53.3020833,3.74479167 53.1927083,3.87239583 52.9375,3.8359375 L53.0171682,3.84201389 Z M48.890625,3.8359375 L48.3984375,3.8359375 L48.3984375,3.0703125 L48.890625,3.0703125 L48.890625,3.8359375 Z M52.2265625,11.328125 L52.2265625,10.015625 L55.2890625,10.015625 L55.2890625,8.9765625 L52.2265625,8.9765625 L52.2265625,8.4296875 L54.140625,8.4296875 C54.9791667,8.50260417 55.3619792,8.15625 55.2890625,7.390625 L55.2890625,7.390625 L55.2890625,4.984375 L46.375,4.984375 L46.375,8.4296875 L49.4375,8.4296875 L49.4375,8.9765625 L46.375,8.9765625 L46.375,10.015625 L49.4375,10.015625 L49.4375,11.328125 L52.2265625,11.328125 Z M53.15625,6.2421875 L48.5078125,6.2421875 L48.5078125,5.8046875 L53.15625,5.8046875 L53.15625,6.2421875 Z M53.15625,7.171875 C53.2291667,7.53645833 53.0651042,7.68229167 52.6640625,7.609375 L52.6640625,7.609375 L48.5078125,7.609375 L48.5078125,7.0078125 L53.15625,7.0078125 L53.15625,7.171875 Z M64.5859375,11.328125 C65.5338542,11.4375 65.9713542,11.0364583 65.8984375,10.125 L65.8984375,10.125 L66.828125,10.125 L66.828125,9.0859375 L65.8984375,9.0859375 L65.8984375,2.4140625 L66.609375,2.4140625 L67.15625,11.328125 L69.2890625,11.328125 L68.7421875,2.4140625 L69.2890625,2.4140625 L69.2890625,1.375 L65.8984375,1.375 L65.8984375,0.828125 L63.2734375,0.828125 L63.2734375,1.375 L59.828125,1.375 L59.828125,2.4140625 L60.375,2.4140625 L59.828125,11.328125 L61.9609375,11.328125 L62.015625,10.125 L63.2734375,10.125 L63.2734375,11.328125 L64.5859375,11.328125 Z M59.5546875,11.328125 L59.5546875,0.828125 L56.7109375,1.15625 L56.7109375,2.1953125 L57.203125,2.140625 L57.203125,11.328125 L59.5546875,11.328125 Z M63.2734375,9.0859375 L62.125,9.0859375 L62.5078125,2.4140625 L63.2734375,2.4140625 L63.2734375,9.0859375 Z" id="path-1"></path>
    </defs>
    <g id="页面-1" stroke="none" stroke-width="1" fill="none" fill-rule="evenodd">
        <g id="画板" transform="translate(-269.000000, -52.000000)">
            <g id="方正粗谭体" transform="translate(269.000000, 52.000000)">
                <rect id="矩形备份-14" stroke-opacity="0" stroke="#979797" x="0.5" y="0.5" width="79" height="23"></rect>
                <g transform="translate(5.000000, 6.000000)" fill-rule="nonzero">
                    <g>
                        <use fill="#000000" xlink:href="#path-1"></use>
                        <use fill="#333333" xlink:href="#path-1"></use>
                    </g>
                </g>
            </g>
        </g>
    </g>
</svg>