<?xml version="1.0" encoding="UTF-8"?>
<svg width="80px" height="24px" viewBox="0 0 80 24" version="1.1" xmlns="http://www.w3.org/2000/svg" xmlns:xlink="http://www.w3.org/1999/xlink">
    <title>方正健力体</title>
    <defs>
        <path d="M3.234,14.428 C3.766,13.112 4.17666667,11.726 4.466,10.27 C4.68066667,9.25266667 4.914,7.71733333 5.166,5.664 C7.49933333,5.496 10.178,5.188 13.202,4.74 L13.202,4.74 L13.272,3.046 C11.536,3.23266667 9.79533333,3.34466667 8.05,3.382 C8.00333333,2.71 7.90533333,2.15 7.756,1.702 L7.756,1.702 L4.438,2.15 C4.82066667,2.41133333 5.24066667,2.82666667 5.698,3.396 C4.13,3.396 2.56666667,3.34466667 1.008,3.242 L1.008,3.242 L0.91,5.846 C1.68466667,5.846 2.45466667,5.82733333 3.22,5.79 C3.06133333,7.05 2.8,8.26333333 2.436,9.43 C1.99733333,10.83 1.36733333,12.188 0.546,13.504 L0.546,13.504 L3.234,14.428 Z M8.67308642,14.4285185 L9.016,14.414 C9.884,14.3766667 10.5,14.218 10.864,13.938 C11.228,13.686 11.4753333,13.2193333 11.606,12.538 C11.6993333,12.0526667 11.7693333,11.418 11.816,10.634 C11.8533333,9.962 11.8346667,9.402 11.76,8.954 C11.6293333,8.04866667 11.2746667,7.4 10.696,7.008 C10.3133333,6.73733333 9.702,6.59266667 8.862,6.574 C8.302,6.56466667 7.658,6.62533333 6.93,6.756 C6.24866667,6.87733333 5.66066667,7.036 5.166,7.232 L5.166,7.232 L5.39,9.696 C5.73533333,9.528 6.20666667,9.35066667 6.804,9.164 C7.45733333,8.97733333 7.938,8.87 8.246,8.842 C8.722,8.82333333 8.99733333,9.00066667 9.072,9.374 C9.13733333,9.626 9.19333333,10.102 9.24,10.802 C9.27733333,11.3993333 9.268,11.8846667 9.212,12.258 C9.17466667,12.6313333 9.002,12.7666667 8.694,12.664 C8.106,12.5333333 7.38266667,12.1973333 6.524,11.656 L6.524,11.656 L6.104,14.022 C7.00933333,14.3486667 7.98,14.4793333 9.016,14.414 L8.67308642,14.4285185 Z M15.12,4.544 C17.5653333,4.55333333 19.614,4.502 21.266,4.39 C22.974,4.28733333 24.8453333,4.082 26.88,3.774 L26.88,3.774 L26.964,2.094 C24.7333333,2.234 22.7313333,2.29466667 20.958,2.276 C19.1753333,2.25733333 17.2666667,2.15466667 15.232,1.968 L15.232,1.968 L15.12,4.544 Z M14.798,14.134 C19.138,14.2086667 23.282,13.9566667 27.23,13.378 L27.23,13.378 L27.3,11.698 C25.6013333,11.8566667 23.884,11.936 22.148,11.936 C22.2786667,11.04 22.3673333,10.242 22.414,9.542 C23.87,9.766 25.3633333,9.80333333 26.894,9.654 L26.894,9.654 L27.02,7.106 C25.8533333,7.50733333 24.3506667,7.74066667 22.512,7.806 C22.54,6.70466667 22.526,5.64533333 22.47,4.628 L22.47,4.628 L19.642,4.964 C19.9593333,7.08266667 20.1413333,9.402 20.188,11.922 C19.516,11.9126667 18.8486667,11.8846667 18.186,11.838 C18.2886667,9.89666667 18.4613333,8.17933333 18.704,6.686 L18.704,6.686 L15.932,6.966 C15.904,8.65533333 15.96,10.2326667 16.1,11.698 L16.1,11.698 L14.896,11.572 L14.798,14.134 Z M33.782,14.442 C34.0806667,13.994 34.3373333,13.532 34.552,13.056 C35.476,13.4293333 36.568,13.7093333 37.828,13.896 C38.8173333,14.0546667 39.788,14.1246667 40.74,14.106 L40.74,14.106 L41.51,12.062 C40.4926667,12.1553333 39.522,12.174 38.598,12.118 L38.598,12.118 L38.64,11.488 C39.1533333,11.516 39.8206667,11.5393333 40.642,11.558 L40.642,11.558 L40.936,11.558 L41.034,9.822 C40.2873333,9.906 39.5126667,9.962 38.71,9.99 C38.7193333,9.85933333 38.724,9.724 38.724,9.584 C39.6386667,9.528 40.3246667,9.48133333 40.782,9.444 L40.782,9.444 L40.838,8.282 C40.1753333,8.32866667 39.4846667,8.35666667 38.766,8.366 L38.766,8.366 L38.766,7.974 C39.3353333,7.88066667 39.788,7.694 40.124,7.414 C40.5066667,7.09666667 40.7633333,6.63933333 40.894,6.042 L40.894,6.042 L41.272,6 L41.328,4.32 L40.88,4.418 C40.7773333,3.97933333 40.586,3.61066667 40.306,3.312 C39.9233333,2.91066667 39.382,2.64933333 38.682,2.528 L38.682,2.528 L38.654,1.716 L36.372,1.968 L36.456,2.612 C35.756,2.73333333 35.2006667,2.906 34.79,3.13 L34.79,3.13 L35.546,4.88 C35.91,4.656 36.274,4.47866667 36.638,4.348 C36.666,4.572 36.6846667,4.80533333 36.694,5.048 C36.33,5.08533333 36.036,5.11333333 35.812,5.132 C35.7466667,5.14133333 35.6953333,5.146 35.658,5.146 L35.658,5.146 L35.644,6.252 C35.7933333,6.26133333 35.952,6.266 36.12,6.266 L36.12,6.266 L36.792,6.266 C36.8106667,6.434 36.82,6.61133333 36.82,6.798 C36.4,6.73266667 36.078,6.658 35.854,6.574 L35.854,6.574 L35.546,7.582 C35.9846667,7.75933333 36.428,7.89 36.876,7.974 C36.8853333,8.09533333 36.89,8.212 36.89,8.324 C36.4513333,8.31466667 36.0266667,8.28666667 35.616,8.24 L35.616,8.24 L35.518,9.668 L35.518,9.668 L36.33,9.668 C36.5446667,9.668 36.7453333,9.66333333 36.932,9.654 C36.932,9.70066667 36.9366667,9.766 36.946,9.85 L36.946,9.85 L36.946,10.018 C36.2833333,10.018 35.7933333,10.0086667 35.476,9.99 L35.476,9.99 L35.42,11.236 C35.8866667,11.3013333 36.4,11.3526667 36.96,11.39 L36.96,11.39 L36.96,11.908 C36.3253333,11.796 35.714,11.6326667 35.126,11.418 C35.2193333,11.0633333 35.2613333,10.7693333 35.252,10.536 C35.252,10.2186667 35.182,9.906 35.042,9.598 C34.818,9.13133333 34.5426667,8.77666667 34.216,8.534 C34.1693333,8.48733333 34.1646667,8.436 34.202,8.38 C34.6313333,7.932 34.9813333,7.386 35.252,6.742 C35.504,6.05133333 35.49,5.42133333 35.21,4.852 C34.8553333,4.24533333 34.2673333,4.00266667 33.446,4.124 C32.9046667,4.25466667 32.354,4.46933333 31.794,4.768 C31.99,4.02133333 32.13,3.26533333 32.214,2.5 L32.214,2.5 L30.66,1.94 C30.4546667,2.864 30.1746667,3.718 29.82,4.502 C29.4746667,5.258 29.0546667,5.92533333 28.56,6.504 L28.56,6.504 L30.464,8.212 C30.884,7.46533333 31.2293333,6.672 31.5,5.832 L31.5,5.832 L31.808,7.386 C32.1626667,7.00333333 32.718,6.616 33.474,6.224 C33.5486667,6.196 33.6,6.20533333 33.628,6.252 C33.656,6.28 33.6606667,6.322 33.642,6.378 C33.5113333,6.83533333 33.194,7.32533333 32.69,7.848 C32.4753333,8.08133333 32.368,8.31 32.368,8.534 C32.3586667,8.80466667 32.4566667,9.01 32.662,9.15 C32.9046667,9.38333333 33.1286667,9.68666667 33.334,10.06 C33.3806667,10.1533333 33.404,10.242 33.404,10.326 C33.404,10.438 33.39,10.5406667 33.362,10.634 C33.082,10.4846667 32.8113333,10.3166667 32.55,10.13 L32.55,10.13 L31.752,11.628 C32.032,11.8146667 32.312,11.9826667 32.592,12.132 C32.4333333,12.3653333 32.2,12.664 31.892,13.028 L31.892,13.028 L33.782,14.442 Z M38.752,4.768 C38.7426667,4.56266667 38.738,4.35733333 38.738,4.152 C38.9526667,4.208 39.1206667,4.29666667 39.242,4.418 C39.3166667,4.502 39.3726667,4.586 39.41,4.67 C39.186,4.70733333 38.99,4.73533333 38.822,4.754 C38.843,4.75166667 38.8610104,4.74969792 38.8760313,4.74809375 L38.9302812,4.74284375 C38.9455937,4.74211458 38.8861667,4.7505 38.752,4.768 Z M38.766,6.728 L38.766,6.196 L39.382,6.168 C39.3166667,6.308 39.228,6.42466667 39.116,6.518 C39.0226667,6.62066667 38.906,6.69066667 38.766,6.728 L38.766,6.728 Z M29.456,14.092 L31.906,13.77 C31.57,11.6886667 31.388,9.88266667 31.36,8.352 L31.36,8.352 L29.68,8.59 C29.5306667,10.7086667 29.456,12.5426667 29.456,14.092 L29.456,14.092 Z M51.993375,14.40525 L52.43,14.4 C53.2793333,14.3533333 53.872,14.148 54.208,13.784 C54.5253333,13.4666667 54.7306667,12.9113333 54.824,12.118 C55.048,10.41 55.146,8.67866667 55.118,6.924 C55.118,5.82266667 54.866,5.08533333 54.362,4.712 C53.9326667,4.348 53.1766667,4.15666667 52.094,4.138 C51.5246667,4.11933333 50.9506667,4.11466667 50.372,4.124 C50.456,3.41466667 50.5166667,2.70066667 50.554,1.982 L50.554,1.982 L47.81,1.73 C47.7726667,2.626 47.7073333,3.48933333 47.614,4.32 C46.0273333,4.488 44.464,4.77266667 42.924,5.174 L42.924,5.174 L43.512,7.89 C44.436,7.498 45.64,7.162 47.124,6.882 C47.04,7.218 46.9373333,7.54933333 46.816,7.876 C46.088,9.93866667 44.8,11.7306667 42.952,13.252 L42.952,13.252 L44.352,14.358 C46.536,13.0606667 48.1366667,11.2266667 49.154,8.856 C49.4713333,8.1 49.728,7.32066667 49.924,6.518 C50.4373333,6.48066667 50.9833333,6.462 51.562,6.462 C51.9726667,6.462 52.2386667,6.52733333 52.36,6.658 C52.5,6.77933333 52.5793333,7.04533333 52.598,7.456 C52.682,8.8 52.6306667,10.2606667 52.444,11.838 C52.4253333,12.3046667 52.1313333,12.454 51.562,12.286 C50.89,12.118 50.26,11.8566667 49.672,11.502 L49.672,11.502 L48.986,13.952 C50.1153333,14.288 51.2633333,14.4373333 52.43,14.4 L51.993375,14.40525 Z M64.12,14.4 L65.898,14.176 L65.982,13.042 C66.486,13.042 67.046,13.028 67.662,13 L67.662,13 L67.704,11.46 C68.1426667,12.16 68.516,12.6966667 68.824,13.07 L68.824,13.07 L69.524,10.536 C68.3666667,9.42533333 67.3493333,7.99733333 66.472,6.252 C67.6106667,6.09333333 68.516,5.93466667 69.188,5.776 L69.188,5.776 L69.272,4.054 C68.124,4.11933333 67.172,4.15666667 66.416,4.166 C66.4346667,3.354 66.444,2.53266667 66.444,1.702 L66.444,1.702 L63.7,2.038 L63.868,4.138 C62.9066667,4.09133333 61.992,4.03066667 61.124,3.956 L61.124,3.956 L60.984,6.672 C62.0106667,6.644 62.9206667,6.59733333 63.714,6.532 C62.6406667,8.44533333 61.46,9.92 60.172,10.956 L60.172,10.956 L61.53,13.028 C61.8846667,12.5893333 62.2533333,12.0713333 62.636,11.474 L62.636,11.474 L62.58,12.86 C62.6173333,12.86 62.6686667,12.8646667 62.734,12.874 C63.3593333,12.9393333 63.8166667,12.9813333 64.106,13 L64.106,13 L64.106,13.672 C64.1153333,13.9986667 64.12,14.2413333 64.12,14.4 L64.12,14.4 Z M58.674,8.212 C59.8873333,6.35466667 60.6993333,4.51133333 61.11,2.682 L61.11,2.682 L59.416,1.94 C58.7626667,3.75066667 57.8106667,5.36533333 56.56,6.784 L56.56,6.784 L58.674,8.212 Z M57.694,14.092 L60.438,13.742 C60.1766667,12.4353333 59.9993333,10.6433333 59.906,8.366 L59.906,8.366 L58.086,8.59 C57.8246667,10.8486667 57.694,12.6826667 57.694,14.092 L57.694,14.092 Z M62.9496,11.12344 L62.846,11.124 C63.2753333,10.4333333 63.6813333,9.71933333 64.064,8.982 L64.064,8.982 L64.106,11.11 L64.106,11.11 L63.532,11.11 C63.2333333,11.1193333 63.0046667,11.124 62.846,11.124 L62.9496,11.12344 Z M66.248,8.815 L66.4094286,9.14142857 C66.7271429,9.77914286 67.014,10.314 67.27,10.746 C66.878,10.8393333 66.4953333,10.914 66.122,10.97 C66.178,10.242 66.22,9.52333333 66.248,8.814 L66.248,8.815 Z" id="path-1"></path>
    </defs>
    <g id="页面-1" stroke="none" stroke-width="1" fill="none" fill-rule="evenodd">
        <g id="画板" transform="translate(-370.000000, -108.000000)">
            <g id="方正健力体" transform="translate(370.000000, 108.000000)">
                <rect id="矩形备份-2" stroke-opacity="0" stroke="#979797" x="0.5" y="0.5" width="79" height="23"></rect>
                <g id="方正健力体备份-2" transform="translate(5.000000, 4.000000)" fill-rule="nonzero">
                    <g id="方正健力体">
                        <use fill="#000000" xlink:href="#path-1"></use>
                        <use fill="#333333" xlink:href="#path-1"></use>
                    </g>
                </g>
            </g>
        </g>
    </g>
</svg>