<?xml version="1.0" encoding="UTF-8"?>
<svg width="80px" height="24px" viewBox="0 0 80 24" version="1.1" xmlns="http://www.w3.org/2000/svg" xmlns:xlink="http://www.w3.org/1999/xlink">
    <title>方正空心体</title>
    <defs>
        <path d="M5.418,13.86006 C6.006,13.8413933 6.45866667,13.60806 6.776,13.16006 L6.776,13.86006 L12.04,13.86006 C12.4133333,13.86006 12.726,13.73406 12.978,13.48206 C13.23,13.23006 13.356,12.92206 13.356,12.55806 L13.356,1.48406 L9.38,1.48406 L9.17,0.86806 L4.634,0.86806 L4.844,1.48406 L0.98,1.48406 L0.98,5.39006 L1.736,5.39006 L1.736,8.02206 C1.736,8.48872667 1.624,8.89939333 1.4,9.25406 C1.33466667,9.35672667 1.21333333,9.49672667 1.036,9.67406 L0.98,9.71606 L0.98,13.86006 L5.418,13.86006 Z M1.274,13.55206 L1.274,9.87006 C1.78733333,9.39406 2.044,8.77806 2.044,8.02206 L2.044,5.08206 L1.274,5.08206 L1.274,1.79206 L5.264,1.79206 L5.054,1.17606 L8.96,1.17606 L9.156,1.79206 L13.048,1.79206 L13.048,5.08206 L7.546,5.08206 L7.546,5.39006 L13.048,5.39006 L13.048,12.55806 C13.048,12.8287267 12.95,13.06206 12.754,13.25806 C12.558,13.45406 12.32,13.55206 12.04,13.55206 L7.084,13.55206 L7.084,10.23406 L7.7,10.23406 L7.7,8.28806 L7.392,8.28806 L7.392,9.92606 L6.776,9.92606 L6.776,12.19406 C6.776,12.5767267 6.64533333,12.8987267 6.384,13.16006 C6.12266667,13.4213933 5.80066667,13.55206 5.418,13.55206 L1.274,13.55206 Z M27.174,13.90206 L27.174,1.51206 L14.798,1.51206 L14.798,9.57606 L14.378,9.57606 L14.378,13.90206 L27.174,13.90206 Z M26.866,13.59406 L14.686,13.59406 L14.686,9.87006 L15.092,9.87006 L15.092,5.85206 L18.816,5.85206 L18.816,9.71606 L19.124,9.71606 L19.124,5.54406 L15.092,5.54406 L15.092,1.82006 L26.866,1.82006 L26.866,5.54406 L22.988,5.54406 L22.988,5.85206 L26.866,5.85206 L26.866,9.57606 L22.988,9.57606 L22.988,9.87006 L26.866,9.87006 L26.866,13.59406 Z M41.09,13.86006 L41.09,1.47006 L37.1,1.47006 L36.904,0.96606 L32.368,0.96606 L32.578,1.47006 L28.714,1.47006 L28.714,13.86006 L41.09,13.86006 Z M29.022,5.04006 L29.022,1.77806 L33.026,1.77806 L32.83,1.26006 L36.694,1.26006 L36.89,1.77806 L40.782,1.77806 L40.782,5.04006 L39.004,5.04006 C38.7146667,5.04006 38.4813333,4.95139333 38.304,4.77406 C38.1546667,4.63406 38.08,4.42406 38.08,4.14406 L38.08,3.99006 L31.724,3.99006 L31.724,4.14406 C31.724,4.42406 31.6493333,4.63406 31.5,4.77406 C31.3226667,4.95139333 31.0893333,5.04006 30.8,5.04006 L29.022,5.04006 Z M34.748,7.50406 L29.022,7.50406 L29.022,5.34806 L30.8,5.34806 C31.164,5.34806 31.4673333,5.23139333 31.71,4.99806 C31.8966667,4.81139333 32.004,4.57806 32.032,4.29806 L34.748,4.29806 L34.748,7.50406 Z M40.782,7.50406 L35.056,7.50406 L35.056,4.29806 L37.772,4.29806 C37.8,4.57806 37.9073333,4.81139333 38.094,4.99806 C38.3273333,5.23139333 38.626,5.34806 38.99,5.34806 L40.782,5.34806 L40.782,7.50406 Z M40.782,13.55206 L29.022,13.55206 L29.022,10.83606 L32.914,10.83606 L32.914,10.52806 L29.022,10.52806 L29.022,7.81206 L40.782,7.81206 L40.782,10.52806 L36.904,10.52806 L36.904,10.83606 L40.782,10.83606 L40.782,13.55206 Z M44.17,13.90206 C44.5713333,13.90206 44.9073333,13.7433933 45.178,13.42606 L45.178,13.45406 C45.178,13.5847267 45.22,13.69206 45.304,13.77606 C45.388,13.86006 45.4906667,13.90206 45.612,13.90206 L52.276,13.90206 C52.4066667,13.90206 52.514,13.86006 52.598,13.77606 C52.682,13.69206 52.724,13.5847267 52.724,13.45406 L52.724,13.42606 C52.9853333,13.7433933 53.3213333,13.90206 53.732,13.90206 L55.44,13.90206 L55.44,8.12006 L55.412,8.12006 C55.2626667,7.88672667 55.1693333,7.43872667 55.132,6.77606 L55.132,1.51206 L42.756,1.51206 L42.756,6.77606 C42.756,6.99072667 42.7373333,7.21472667 42.7,7.44806 C42.6533333,7.75606 42.5833333,7.98006 42.49,8.12006 L42.448,8.12006 L42.448,13.90206 L44.17,13.90206 Z M42.756,13.59406 L42.756,8.23206 C42.868,8.05472667 42.952,7.77472667 43.008,7.39206 C43.0453333,7.14006 43.064,6.93472667 43.064,6.77606 L43.064,1.82006 L45.178,1.82006 L45.178,12.58606 C45.178,12.86606 45.08,13.10406 44.884,13.30006 C44.688,13.49606 44.45,13.59406 44.17,13.59406 L42.756,13.59406 Z M55.132,13.59406 L53.732,13.59406 C53.452,13.59406 53.214,13.49606 53.018,13.30006 C52.822,13.10406 52.724,12.8707267 52.724,12.60006 L52.724,1.82006 L54.824,1.82006 L54.824,6.79006 C54.824,6.86472667 54.8426667,7.06539333 54.88,7.39206 C54.9173333,7.71872667 55.0013333,7.99872667 55.132,8.23206 L55.132,13.59406 Z M50.008,8.02206 L47.894,8.02206 L47.894,1.82006 L50.008,1.82006 L50.008,8.02206 Z M45.612,13.59406 C45.5373333,13.5847267 45.4953333,13.53806 45.486,13.45406 L45.486,1.82006 L47.586,1.82006 L47.586,8.33006 L50.302,8.33006 L50.302,1.82006 L52.416,1.82006 L52.416,13.45406 C52.4066667,13.53806 52.36,13.5847267 52.276,13.59406 L45.612,13.59406 Z M62.062,13.97206 C62.3793333,13.97206 62.6453333,13.8553933 62.86,13.62206 L62.86,13.97206 L66.192,13.97206 L66.192,13.62206 C66.4253333,13.8553933 66.696,13.97206 67.004,13.97206 L69.37,13.97206 L69.37,9.57606 C69.202,9.36139333 69.0993333,9.03939333 69.062,8.61006 C69.0526667,8.47006 69.0526667,8.39539333 69.062,8.38606 L69.062,5.33406 L69.202,5.33406 L69.202,1.58206 L66.192,1.58206 L66.192,1.07806 L62.86,1.07806 L62.86,1.58206 L60.438,1.58206 L60.536,1.07806 L57.582,1.07806 L57.582,1.19006 C57.5726667,1.19939333 57.554,1.24606 57.526,1.33006 C57.218,2.31006 56.8586667,3.10339333 56.448,3.71006 L56.448,8.97406 L56.826,8.77806 L56.826,13.97206 L62.062,13.97206 Z M59.57,13.66406 L57.134,13.66406 L57.134,8.28806 L56.728,8.48406 L56.728,3.85006 C57.204,3.14072667 57.568,2.31472667 57.82,1.37206 L60.172,1.37206 L60.13,1.58206 L59.71,1.58206 L59.71,5.33406 L59.85,5.33406 L59.85,8.38606 C59.85,8.91806 59.7566667,9.31472667 59.57,9.57606 L59.57,13.66406 Z M65.884,13.66406 L63.168,13.66406 L63.168,12.15206 L62.594,12.15206 L62.594,9.19806 L63.168,9.19806 L63.168,5.02606 L60.018,5.02606 L60.018,1.89006 L63.168,1.89006 L63.168,1.37206 L65.884,1.37206 L65.884,1.89006 L68.894,1.89006 L68.894,5.02606 L65.884,5.02606 L65.884,9.19806 L66.458,9.19806 L66.458,12.15206 L65.884,12.15206 L65.884,13.66406 Z M69.062,13.66406 L67.004,13.66406 C66.78,13.66406 66.5886667,13.5847267 66.43,13.42606 C66.2713333,13.2673933 66.192,13.07606 66.192,12.85206 L66.192,12.46006 L66.766,12.46006 L66.766,8.89006 L66.192,8.89006 L66.192,5.33406 L68.74,5.33406 L68.74,8.38606 C68.74,8.93672667 68.8473333,9.38006 69.062,9.71606 L69.062,13.66406 Z M59.85,13.66406 L59.85,9.71606 C60.0553333,9.39872667 60.158,8.95539333 60.158,8.38606 L60.158,5.33406 L62.86,5.33406 L62.86,8.89006 L62.286,8.89006 L62.286,12.46006 L62.86,12.46006 L62.86,12.85206 C62.86,13.07606 62.7806667,13.2673933 62.622,13.42606 C62.4633333,13.5847267 62.2766667,13.66406 62.062,13.66406 L59.85,13.66406 Z" id="path-1"></path>
    </defs>
    <g id="页面-1" stroke="none" stroke-width="1" fill="none" fill-rule="evenodd">
        <g id="画板" transform="translate(-370.000000, -154.000000)">
            <g id="方正空心体" transform="translate(370.000000, 154.000000)">
                <rect id="矩形备份-7" stroke-opacity="0" stroke="#979797" x="0.5" y="0.5" width="79" height="23"></rect>
                <g transform="translate(5.000000, 5.000000)" fill-rule="nonzero">
                    <g>
                        <use fill="#000000" xlink:href="#path-1"></use>
                        <use fill="#333333" xlink:href="#path-1"></use>
                    </g>
                </g>
            </g>
        </g>
    </g>
</svg>