<?xml version="1.0" encoding="UTF-8"?>
<svg width="80px" height="24px" viewBox="0 0 80 24" version="1.1" xmlns="http://www.w3.org/2000/svg" xmlns:xlink="http://www.w3.org/1999/xlink">
    <title>方正趣黑体</title>
    <defs>
        <path d="M3.234,13.896 L4.9,9.444 L8.036,9.444 L8.036,11.264 L5.698,11.264 L5.698,11.95 L6.244,12.048 L6.482,13.658 L11.256,13.658 L11.256,7.778 L11.536,7.4 L10.668,6.742 L10.416,7.05 L5.81,7.05 L6.174,6.084 L12.25,6.084 L12.712,3.382 L11.802,3.13 L11.746,3.368 L7.98,3.368 L7.574,1.996 L5.348,2.248 L5.95,3.368 L1.274,3.368 L1.764,6.084 L4.074,6.084 L2.114,13.588 L3.234,13.896 Z M26.39,13.518 L26.782,11.138 L25.914,10.9 L25.858,11.124 L23.128,11.124 L23.128,9.178 L25.676,9.178 L26.096,6.868 L25.186,6.63 L25.116,6.896 L23.128,6.896 L23.128,5.104 L25.858,5.104 L26.32,2.738 L25.452,2.472 L25.396,2.724 L15.764,2.724 L16.226,5.104 L19.964,5.104 L19.964,11.124 L18.956,11.124 L18.956,6.042 L16.59,6.042 L16.59,11.124 L15.302,11.124 L15.694,13.518 L26.39,13.518 Z M29.68,14.05 L29.96,11.726 L31.5,13.686 L40.502,13.686 L41.006,11.348 L32.76,11.348 L32.76,10.494 L33.264,10.494 L33.446,9.374 L33.558,11.026 L35.854,10.564 L35.854,11.11 L37.408,11.11 L37.408,10.256 L37.66,10.2 L37.674,9.486 L37.898,10.914 L38.948,10.928 L39.41,9.528 L40.236,11.138 L40.964,9.094 L39.984,7.75 L40.544,6.028 L40.544,3.13 L40.768,2.836 L40.04,2.29 L39.816,2.542 L37.702,2.542 L37.716,2.514 L36.918,2.332 L36.876,2.5 L33.334,2.5 L33.404,2.976 L32.816,2.752 L32.76,3.004 L32.55,3.004 L32.55,2.094 L30.198,2.094 L30.198,3.004 L29.386,3.004 L29.75,5.02 L30.198,5.02 L30.198,5.608 L29.036,5.608 L29.428,7.708 L30.618,7.708 L30.618,10.942 L30.114,10.382 L30.338,8.618 L29.442,8.534 L29.022,13.98 L29.68,14.05 Z M33.474,9.192 L33.586,8.464 L33.026,8.296 L32.97,8.478 L32.76,8.478 L32.76,7.708 L33.278,7.708 L33.656,5.622 L33.124,5.398 L33.054,5.608 L32.55,5.608 L32.55,5.02 L33.04,5.02 L33.432,3.144 L33.586,4.236 L33.712,4.236 L33.712,9.164 L33.474,9.192 Z M37.408,8.674 L37.408,4.236 L37.478,4.236 L37.604,3.354 L37.786,4.782 L37.478,5.748 L38.332,7.428 L37.94,8.52 L37.52,8.506 L37.534,8.66 L37.408,8.674 Z M35.854,4.908 L35.168,4.908 L35.168,4.236 L35.854,4.236 L35.854,4.908 Z M38.794,6.112 L37.814,4.754 L38.864,4.754 L38.864,5.944 L38.794,6.112 Z M35.854,6.91 L35.168,6.91 L35.168,6.308 L35.854,6.308 L35.854,6.91 Z M35.168,8.968 L35.168,8.31 L35.854,8.31 L35.854,8.884 L35.168,8.968 Z M44.618,14.19 L45.976,12.062 L45.178,11.67 L47.614,11.67 L46.354,12.174 L47.488,14.078 L48.916,13.448 L48.188,11.67 L50.358,11.67 L49.098,12.174 L50.232,14.078 L51.66,13.448 L50.932,11.67 L52.78,11.67 L51.94,12.244 L53.802,14.106 L55.034,13.28 L53.886,11.67 L54.628,11.67 L54.978,9.556 L54.194,9.346 L54.138,9.556 L50.526,9.556 L50.526,9.108 L54.138,9.108 L54.39,7.68 L53.662,7.498 L53.606,7.68 L50.526,7.68 L50.526,7.19 L54.25,7.19 L54.25,3.074 L54.474,2.738 L53.676,2.206 L53.438,2.486 L43.722,2.486 L43.722,7.19 L47.446,7.19 L47.446,7.68 L43.61,7.68 L43.876,9.108 L47.446,9.108 L47.446,9.556 L43.176,9.556 L43.54,11.67 L44.254,11.67 L42.966,13.28 L44.618,14.19 Z M50.806,5.496 L50.526,5.496 L50.526,4.264 L51.912,4.264 L51.912,5.496 L51.422,5.496 L51.744,4.712 L50.988,4.572 L50.806,5.496 Z M46.522,5.496 L45.976,5.496 L45.976,4.264 L47.446,4.264 L47.446,5.496 L47.166,5.496 L47.012,4.572 L46.228,4.726 L46.522,5.496 Z M66.164,13.84 L66.164,12.398 L67.088,12.398 L67.41,10.55 L68.096,12.58 L69.37,11.376 L66.976,6.504 L68.418,6.504 L68.894,3.97 L67.928,3.718 L67.858,3.998 L66.164,3.998 L66.164,2.402 L63.154,2.402 L63.154,3.998 L60.648,3.998 L61.376,2.64 L59.318,1.94 L56.56,9.15 L57.386,9.738 L57.848,8.926 L57.848,13.756 L60.382,13.756 L60.382,12.02 L60.984,12.258 L63.154,6.812 L63.154,10.06 L61.922,10.06 L62.202,12.398 L63.154,12.398 L63.154,13.84 L66.164,13.84 Z M60.382,11.964 L60.368,5.356 L59.85,5.356 L60.634,4.026 L61.096,6.504 L61.81,6.504 L60.382,11.964 Z M66.556,10.06 L66.164,10.06 L66.164,6.784 L67.242,10.032 L66.626,9.794 L66.556,10.06 Z" id="path-1"></path>
    </defs>
    <g id="页面-1" stroke="none" stroke-width="1" fill="none" fill-rule="evenodd">
        <g id="画板" transform="translate(-269.000000, -154.000000)">
            <g id="方正趣黑体" transform="translate(269.000000, 154.000000)">
                <rect id="矩形备份-6" stroke-opacity="0" stroke="#979797" x="0.5" y="0.5" width="79" height="23"></rect>
                <g transform="translate(5.000000, 4.000000)" fill-rule="nonzero">
                    <g>
                        <use fill="#000000" xlink:href="#path-1"></use>
                        <use fill="#333333" xlink:href="#path-1"></use>
                    </g>
                </g>
            </g>
        </g>
    </g>
</svg>