<?xml version="1.0" encoding="UTF-8"?>
<svg width="80px" height="24px" viewBox="0 0 80 24" version="1.1" xmlns="http://www.w3.org/2000/svg" xmlns:xlink="http://www.w3.org/1999/xlink">
    <title>方正汉真体</title>
    <defs>
        <path d="M11.9765625,14.9140625 C12.8515625,14.9140625 13.2890625,14.4765625 13.2890625,13.6015625 L13.2890625,13.6015625 L13.2890625,8.078125 C13.2890625,6.80208333 12.6875,6.1640625 11.484375,6.1640625 L11.484375,6.1640625 L4.265625,6.1640625 L4.484375,4.5234375 L13.78125,4.5234375 L13.78125,2.6640625 L8.3671875,2.6640625 L8.3671875,1.6796875 L5.9609375,1.6796875 L5.9609375,2.6640625 L0.546875,2.6640625 L0.546875,4.46875 L2.1328125,4.46875 L1.0390625,14.8046875 L3.4453125,14.8046875 L4.2109375,8.1328125 L9.8984375,8.1328125 C10.5546875,8.1328125 10.8828125,8.42447917 10.8828125,9.0078125 L10.8828125,9.0078125 L10.8828125,12.7265625 C10.8828125,12.9817708 10.7734375,13.109375 10.5546875,13.109375 L10.5546875,13.109375 L8.53125,13.109375 L8.53125,14.9140625 L11.9765625,14.9140625 Z M26.5234375,14.8046875 C27.1796875,14.8046875 27.5078125,14.4401042 27.5078125,13.7109375 L27.5078125,13.7109375 L27.5078125,12.890625 L22.5859375,12.890625 L22.5859375,9.0078125 L27.234375,9.0078125 L27.234375,6.9296875 L22.5859375,6.9296875 L22.5859375,3.8671875 L27.3984375,3.8671875 L27.3984375,1.953125 L14.65625,1.953125 L14.65625,3.8671875 L18.6484375,3.8671875 C19.6328125,3.8671875 20.125,4.34114583 20.125,5.2890625 L20.125,5.2890625 L20.125,12.890625 L17.828125,12.890625 C17.4270833,12.890625 17.2265625,12.7447917 17.2265625,12.453125 L17.2265625,12.453125 L17.2265625,5.5625 L14.875,5.5625 L14.875,12.5625 C14.875,14.0572917 15.6223958,14.8046875 17.1171875,14.8046875 L17.1171875,14.8046875 L26.5234375,14.8046875 Z M30.296875,4.4140625 C30.625,4.4140625 30.9348958,4.26822917 31.2265625,3.9765625 C31.5546875,3.68489583 31.7005208,3.375 31.6640625,3.046875 C31.7005208,2.64583333 31.5546875,2.31770833 31.2265625,2.0625 C30.9348958,1.80729167 30.625,1.6796875 30.296875,1.6796875 C29.9322917,1.6796875 29.6041667,1.80729167 29.3125,2.0625 C29.0208333,2.31770833 28.875,2.64583333 28.875,3.046875 C28.875,3.375 29.0208333,3.68489583 29.3125,3.9765625 C29.6041667,4.26822917 29.9322917,4.4140625 30.296875,4.4140625 Z M35.0546875,14.640625 C35.7473958,14.96875 36.4583333,14.9140625 37.1875,14.4765625 C37.6614583,14.1848958 38.1354167,13.6197917 38.609375,12.78125 L38.609375,12.78125 L39.4296875,14.75 L41.78125,14.75 L39.9765625,9.828125 L41.7265625,4.0859375 C41.9088542,2.6640625 41.3984375,1.93489583 40.1953125,1.8984375 L40.1953125,1.8984375 L33.03125,1.8984375 L33.03125,4.03125 L39.265625,4.03125 L38.390625,7.2578125 L37.84375,6.4921875 C37.5885417,6.12760417 37.2604167,5.8359375 36.859375,5.6171875 C36.1666667,5.2890625 35.5104167,5.2890625 34.890625,5.6171875 C34.2708333,5.9453125 33.7421875,6.56510417 33.3046875,7.4765625 C32.6119792,8.8984375 32.59375,10.59375 33.25,12.5625 C33.7604167,13.65625 34.3619792,14.3489583 35.0546875,14.640625 Z M30.84375,14.9140625 L31.71875,11.6328125 C32.375,8.53385417 31.3359375,6.21875 28.6015625,4.6875 L28.6015625,4.6875 L28.6015625,7.6953125 C29.6588542,8.38802083 29.96875,9.609375 29.53125,11.359375 L29.53125,11.359375 L28.546875,14.9140625 L30.84375,14.9140625 Z M36.3125,12.234375 C36.09375,12.4166667 35.875,12.3984375 35.65625,12.1796875 C35.4739583,11.9973958 35.3098958,11.7239583 35.1640625,11.359375 C35.0182292,10.9947917 34.9270833,10.59375 34.890625,10.15625 C34.890625,9.71875 34.9635417,9.2265625 35.109375,8.6796875 C35.4739583,8.0234375 35.8203125,7.82291667 36.1484375,8.078125 C36.4401042,8.296875 36.75,8.6796875 37.078125,9.2265625 L37.078125,9.2265625 L37.4609375,10.1015625 L37.078125,11.140625 C36.7864583,11.6875 36.53125,12.0520833 36.3125,12.234375 Z M55.78125,12.5625 L55.78125,11.1953125 L54.9609375,11.1953125 L54.9609375,5.890625 C54.9609375,4.796875 54.3229167,4.26822917 53.046875,4.3046875 L53.046875,4.3046875 L49.8203125,4.3046875 L49.9296875,3.8125 L55.7265625,3.8125 L55.7265625,2.171875 L50.3671875,2.171875 L50.53125,1.6796875 L48.0703125,1.6796875 L47.90625,2.171875 L42.65625,2.171875 L42.65625,3.8125 L47.46875,3.8125 L47.25,4.3046875 L45.3359375,4.3046875 C44.0598958,4.23177083 43.421875,4.77864583 43.421875,5.9453125 L43.421875,5.9453125 L43.421875,11.1953125 L42.546875,11.1953125 L42.546875,12.5625 L55.78125,12.5625 Z M52.4453125,6.328125 L45.8828125,6.328125 L45.8828125,5.8359375 L51.625,5.8359375 C52.171875,5.8359375 52.4453125,5.96354167 52.4453125,6.21875 L52.4453125,6.21875 L52.4453125,6.328125 Z M52.4453125,7.9140625 L45.8828125,7.9140625 L45.8828125,7.4765625 L51.625,7.4765625 C52.171875,7.4765625 52.4453125,7.5859375 52.4453125,7.8046875 L52.4453125,7.8046875 L52.4453125,7.9140625 Z M52.4453125,9.5546875 L45.8828125,9.5546875 L45.8828125,9.0625 L51.625,9.0625 C52.171875,9.0625 52.4453125,9.19010417 52.4453125,9.4453125 L52.4453125,9.4453125 L52.4453125,9.5546875 Z M52.4453125,11.1953125 L45.8828125,11.1953125 L45.8828125,10.703125 L51.625,10.703125 C52.171875,10.703125 52.4453125,10.8307292 52.4453125,11.0859375 L52.4453125,11.0859375 L52.4453125,11.1953125 Z M45.2265625,14.9140625 C45.6276042,14.9140625 46.0104167,14.8411458 46.375,14.6953125 L46.375,14.6953125 L50.859375,13.65625 C51.2239583,13.65625 51.4609375,13.7291667 51.5703125,13.875 L51.5703125,13.875 L52.5546875,14.859375 L55.7265625,14.859375 L54.03125,13.0546875 C53.921875,12.8723958 53.59375,12.7630208 53.046875,12.7265625 L53.046875,12.7265625 L51.7890625,12.7265625 C51.6796875,12.7265625 51.5338542,12.7447917 51.3515625,12.78125 C50.9869792,12.8177083 50.6953125,12.8541667 50.4765625,12.890625 L50.4765625,12.890625 L45.9921875,13.765625 L46.375,12.8359375 L43.8046875,12.8359375 L43.2578125,14.0390625 C43.2578125,14.6223958 43.5859375,14.9140625 44.2421875,14.9140625 L44.2421875,14.9140625 L45.2265625,14.9140625 Z M66.0625,14.9140625 L66.0625,12.7265625 L67.375,12.7265625 L67.59375,14.53125 L69.78125,14.53125 L68.796875,4.46875 L69.453125,4.46875 L69.453125,2.6640625 L66.0625,2.6640625 L66.0625,1.6796875 L63.8203125,1.6796875 L63.8203125,2.6640625 L60.6484375,2.6640625 L60.6484375,4.46875 L61.140625,4.46875 L60.1015625,14.53125 L62.2890625,14.53125 L62.5078125,12.7265625 L63.0546875,12.7265625 C63.5651042,12.7265625 63.8203125,13.0911458 63.8203125,13.8203125 L63.8203125,13.8203125 L63.8203125,14.9140625 L66.0625,14.9140625 Z M58.1875,14.9140625 C59.2083333,14.9140625 59.71875,14.4947917 59.71875,13.65625 L59.71875,13.65625 L59.71875,6.8203125 L58.296875,6.8203125 C59.390625,5.7265625 60.1015625,4.04947917 60.4296875,1.7890625 L60.4296875,1.7890625 L58.3515625,1.7890625 C58.0234375,3.5390625 57.421875,4.70572917 56.546875,5.2890625 L56.546875,5.2890625 L56.546875,7.96875 L57.421875,7.640625 L57.421875,14.9140625 L58.1875,14.9140625 Z M67.265625,10.921875 L66.0625,10.921875 L66.0625,4.46875 L66.609375,4.46875 L67.265625,10.921875 Z M63.8203125,10.921875 L62.671875,10.921875 L63.328125,4.46875 L63.8203125,4.46875 L63.8203125,10.921875 Z" id="path-1"></path>
    </defs>
    <g id="页面-1" stroke="none" stroke-width="1" fill="none" fill-rule="evenodd">
        <g id="画板" transform="translate(-269.000000, -103.000000)">
            <g id="方正汉真体" transform="translate(269.000000, 103.000000)">
                <rect id="矩形备份-10" stroke-opacity="0" stroke="#979797" x="0.5" y="0.5" width="79" height="23"></rect>
                <g transform="translate(5.000000, 4.000000)" fill-rule="nonzero">
                    <g>
                        <use fill="#000000" xlink:href="#path-1"></use>
                        <use fill="#333333" xlink:href="#path-1"></use>
                    </g>
                </g>
            </g>
        </g>
    </g>
</svg>