<?xml version="1.0" encoding="UTF-8"?>
<svg width="80px" height="24px" viewBox="0 0 80 24" version="1.1" xmlns="http://www.w3.org/2000/svg" xmlns:xlink="http://www.w3.org/1999/xlink">
    <title>方正胖娃体</title>
    <defs>
        <path d="M9.3515625,14.640625 C11.5026042,14.640625 12.578125,13.2005208 12.578125,10.3203125 C12.6145833,8.0234375 11.3567708,6.89322917 8.8046875,6.9296875 C8.07552083,6.9296875 7.3828125,7.00260417 6.7265625,7.1484375 C6.7265625,6.67447917 6.5625,6.30989583 6.234375,6.0546875 L6.234375,6.0546875 L6.2890625,6.0546875 C6.87239583,6.01822917 7.63802083,6 8.5859375,6 C8.9140625,6 9.40625,6.01822917 10.0625,6.0546875 L10.3000488,6.06750488 C10.8343913,6.09541829 11.2291667,6.109375 11.484375,6.109375 C12.8697917,6.14583333 13.5625,5.69010417 13.5625,4.7421875 C13.5989583,3.61197917 12.5052083,3.08333333 10.28125,3.15625 L10.28125,3.15625 L9.1328125,3.15625 C9.16927083,3.08333333 9.1875,2.9921875 9.1875,2.8828125 C9.1875,1.97135417 8.54947917,1.515625 7.2734375,1.515625 C7.01822917,1.515625 6.63541667,1.58854167 6.125,1.734375 C5.578125,1.88020833 5.15885417,1.953125 4.8671875,1.953125 L4.8671875,1.953125 L4.5390625,1.953125 L4.5390625,2.0625 C4.5390625,2.71875 4.6484375,3.2109375 4.8671875,3.5390625 C3.8828125,3.6484375 2.8984375,3.703125 1.9140625,3.703125 C1.44010417,3.703125 0.947916667,3.66666667 0.4375,3.59375 C0.510416667,5.34375 1.27604167,6.25520833 2.734375,6.328125 L2.734375,6.328125 L3.5546875,6.328125 L3.5546875,6.328125 L3.5546875,6.4921875 C3.29947917,9.0078125 2.26041667,11.25 0.4375,13.21875 C1.16666667,14.0208333 2.0234375,14.4401042 3.0078125,14.4765625 C4.28385417,14.5130208 5.23177083,13.5286458 5.8515625,11.5234375 L5.8515625,11.5234375 L5.90625,11.578125 C6.34375,11.90625 6.6171875,12.234375 6.7265625,12.5625 C7.12760417,13.984375 8.00260417,14.6770833 9.3515625,14.640625 Z M8.0371702,11.5253298 L7.875,11.5234375 C7.58333333,11.5234375 7.14583333,11.4869792 6.5625,11.4140625 C6.27083333,11.3776042 6.05208333,11.359375 5.90625,11.359375 C5.97916667,11.0677083 6.0703125,10.6484375 6.1796875,10.1015625 C6.21614583,9.91927083 6.25260417,9.79166667 6.2890625,9.71875 C6.5078125,9.71875 6.81770833,9.68229167 7.21875,9.609375 C7.61979167,9.57291667 7.91145833,9.5546875 8.09375,9.5546875 C8.859375,9.5546875 9.2421875,9.80989583 9.2421875,10.3203125 C9.27864583,11.1588542 8.82291667,11.5598958 7.875,11.5234375 L8.0371702,11.5253298 Z M16.3515625,14.3671875 C16.5703125,14.3671875 16.9348958,14.3489583 17.4453125,14.3125 C17.9557292,14.2395833 18.3385417,14.203125 18.59375,14.203125 C19.796875,14.09375 21,14.0390625 22.203125,14.0390625 C22.6041667,14.0390625 23.2057292,14.0755208 24.0078125,14.1484375 C24.8463542,14.2213542 25.484375,14.2578125 25.921875,14.2578125 C27.0520833,14.2942708 27.5989583,13.9114583 27.5625,13.109375 C27.5989583,11.796875 26.5234375,11.1953125 24.3359375,11.3046875 L24.3359375,11.3046875 L23.4609375,11.3046875 C23.4973958,10.6848958 23.515625,10.1015625 23.515625,9.5546875 L23.515625,9.5546875 L23.515625,9.4453125 L23.953125,9.4453125 C25.8489583,9.48177083 26.796875,9.02604167 26.796875,8.078125 C26.796875,7.16666667 26.2135417,6.7109375 25.046875,6.7109375 C24.828125,6.7109375 24.4817708,6.74739583 24.0078125,6.8203125 C23.7526042,6.85677083 23.5703125,6.875 23.4609375,6.875 L23.4609375,6.875 L23.4609375,5.7265625 C23.4609375,5.32552083 23.3515625,5.015625 23.1328125,4.796875 L23.1328125,4.796875 L25.5390625,4.796875 C26.6328125,4.83333333 27.1796875,4.48697917 27.1796875,3.7578125 C27.2161458,2.51822917 26.1588542,1.953125 24.0078125,2.0625 C23.1328125,2.0625 21.8203125,2.13541667 20.0703125,2.28125 C18.3567708,2.42708333 17.0807292,2.5 16.2421875,2.5 C15.6588542,2.5 15.2213542,2.42708333 14.9296875,2.28125 C14.8567708,4.140625 15.6223958,5.0703125 17.2265625,5.0703125 C17.6640625,5.0703125 18.3020833,5.03385417 19.140625,4.9609375 C19.578125,4.92447917 19.90625,4.90625 20.125,4.90625 C20.1979167,5.05208333 20.2526042,5.21614583 20.2890625,5.3984375 C20.3619792,5.7265625 20.3802083,6.25520833 20.34375,6.984375 L20.34375,6.984375 L20.3430748,7.60551698 C20.339474,7.9692001 20.3214699,8.49131944 20.2890625,9.171875 C20.2526042,9.90104167 20.234375,10.4661458 20.234375,10.8671875 C20.234375,10.9036458 20.2526042,10.9765625 20.2890625,11.0859375 L20.2890625,11.0859375 L20.2890625,11.359375 C20.1796875,11.359375 19.9973958,11.3776042 19.7421875,11.4140625 C19.4869792,11.4140625 19.2864583,11.4322917 19.140625,11.46875 L19.140625,11.46875 L19.140625,9.828125 C19.1041667,9.171875 19.0859375,8.66145833 19.0859375,8.296875 C19.0859375,8.1875 19.1041667,8.0234375 19.140625,7.8046875 C19.1770833,7.5859375 19.1953125,7.40364583 19.1953125,7.2578125 C19.1953125,6.1640625 18.1197917,5.6171875 15.96875,5.6171875 C15.859375,5.90885417 15.8046875,6.1640625 15.8046875,6.3828125 C15.8046875,6.67447917 15.9322917,7.02083333 16.1875,7.421875 C16.2604167,7.45833333 16.296875,7.49479167 16.296875,7.53125 C16.4427083,7.75 16.4791667,8.66145833 16.40625,10.265625 C16.3697917,10.703125 16.3515625,10.9947917 16.3515625,11.140625 C16.3515625,11.2135417 16.3697917,11.3229167 16.40625,11.46875 L16.40625,11.46875 L16.40625,11.6875 L16.40625,11.6875 L16.1875,11.6875 C15.53125,11.7239583 15.2213542,11.5052083 15.2578125,11.03125 C15.2578125,10.8489583 15.2942708,10.6666667 15.3671875,10.484375 C14.7838542,10.703125 14.4739583,11.2682292 14.4375,12.1796875 C14.4739583,13.6015625 15.1119792,14.3307292 16.3515625,14.3671875 Z M37.4609375,14.6953125 C38.3359375,14.6588542 38.7916667,14.1119792 38.828125,13.0546875 C38.828125,12.9088542 38.8098958,12.7083333 38.7734375,12.453125 L38.7734375,12.453125 L38.7734375,11.90625 C39.3932292,11.9791667 39.9947917,12.015625 40.578125,12.015625 C41.234375,12.015625 41.5625,11.6510417 41.5625,10.921875 C41.6354167,9.828125 40.8697917,9.35416667 39.265625,9.5 L39.265625,9.5 L38.5546875,9.5 L38.5546875,9.5 L38.5546875,9.0078125 L38.5546875,9.0078125 L39.9765625,9.0078125 C40.7057292,9.0078125 41.0703125,8.71614583 41.0703125,8.1328125 C41.1067708,7.1484375 40.5052083,6.69270833 39.265625,6.765625 C39.046875,6.765625 38.8098958,6.78385417 38.5546875,6.8203125 L38.5546875,6.8203125 L38.5546875,6.0546875 C38.9192708,6.20052083 39.265625,6.2734375 39.59375,6.2734375 C40.796875,6.20052083 41.4166667,5.7265625 41.453125,4.8515625 C41.3802083,3.5390625 40.7421875,2.86458333 39.5390625,2.828125 C39.3567708,2.828125 39.15625,2.84635417 38.9375,2.8828125 C38.8645833,2.04427083 38.2447917,1.60677083 37.078125,1.5703125 C36.2395833,1.5703125 35.5833333,1.8984375 35.109375,2.5546875 C35.21875,2.4453125 35.3645833,2.390625 35.546875,2.390625 C36.1666667,2.390625 36.4401042,3.59375 36.3671875,6 L36.3671875,6 L36.3671875,7.0390625 C36.2213542,7.0390625 36.0208333,7.05729167 35.765625,7.09375 C35.3645833,7.16666667 35.0729167,7.203125 34.890625,7.203125 C34.671875,7.16666667 34.4348958,7.09375 34.1796875,6.984375 C34.1432292,7.93229167 34.2708333,8.55208333 34.5625,8.84375 C33.90625,9.390625 33.5963542,9.9375 33.6328125,10.484375 C33.6692708,11.578125 34.125,12.1432292 35,12.1796875 C35.328125,12.1796875 35.65625,12.1614583 35.984375,12.125 L35.984375,12.125 L35.984375,12.8359375 C35.9479167,14.1119792 36.4401042,14.7317708 37.4609375,14.6953125 Z M32.3203125,14.640625 C33.2317708,14.640625 33.6692708,13.765625 33.6328125,12.015625 C33.6328125,11.5416667 33.6145833,10.8489583 33.578125,9.9375 L33.578125,9.9375 L33.5788002,7.81548997 C33.582401,7.38699203 33.6004051,6.80005787 33.6328125,6.0546875 C33.6692708,5.1796875 33.6875,4.54166667 33.6875,4.140625 C33.6875,2.57291667 33.0494792,1.7890625 31.7734375,1.7890625 C31.3359375,1.7890625 30.8072917,1.91666667 30.1875,2.171875 C30.1510417,2.20833333 30.1145833,2.2265625 30.078125,2.2265625 C29.8229167,2.1171875 29.53125,2.0625 29.203125,2.0625 L29.203125,2.0625 L28.8203125,2.0625 L28.8203125,2.0625 L28.8203125,2.8828125 C28.8203125,3.17447917 28.8932292,3.55729167 29.0390625,4.03125 C29.1484375,4.50520833 29.203125,4.86979167 29.203125,5.125 C29.203125,9.828125 28.9479167,12.7083333 28.4375,13.765625 C28.8385417,14.3125 29.2760417,14.5859375 29.75,14.5859375 C30.40625,14.5859375 30.7890625,14.0390625 30.8984375,12.9453125 L30.8984375,12.9453125 L30.953125,12.2890625 C30.953125,12.3255208 30.9713542,12.3802083 31.0078125,12.453125 L31.0078125,12.453125 L31.0078125,12.5625 C31.1171875,13.9479167 31.5546875,14.640625 32.3203125,14.640625 Z M38.6640625,4.7421875 C38.6640625,4.5234375 38.7005208,4.3046875 38.7734375,4.0859375 C38.8828125,3.68489583 38.9375,3.30208333 38.9375,2.9375 C39.4479167,2.9375 39.703125,3.1015625 39.703125,3.4296875 C39.703125,3.7578125 39.3567708,4.1953125 38.6640625,4.7421875 Z M35,6.7109375 C35.8385417,6.7109375 36.2578125,6.18229167 36.2578125,5.125 C36.2213542,3.99479167 35.6380208,3.41145833 34.5078125,3.375 L34.5078125,3.375 L34.015625,3.375 C34.0520833,3.59375 34.0703125,3.8125 34.0703125,4.03125 C34.0703125,4.17708333 34.0520833,4.37760417 34.015625,4.6328125 C33.9791667,4.92447917 33.9609375,5.14322917 33.9609375,5.2890625 C33.9973958,6.20052083 34.34375,6.67447917 35,6.7109375 Z M30.953125,5.5078125 C30.9895833,5.25260417 31.0078125,5.015625 31.0078125,4.796875 C31.0078125,4.72395833 31.0260417,4.6328125 31.0625,4.5234375 L31.0625,4.5234375 L31.0625,4.25 C31.171875,4.17708333 31.28125,4.140625 31.390625,4.140625 C31.609375,4.140625 31.71875,4.46875 31.71875,5.125 L31.71875,5.125 L31.71875,5.453125 C31.609375,5.41666667 31.5,5.3984375 31.390625,5.3984375 C31.2447917,5.3984375 31.1354167,5.41666667 31.0625,5.453125 C31.0260417,5.48958333 30.9895833,5.5078125 30.953125,5.5078125 Z M30.953125,8.5703125 L30.953125,7.53125 L31.0078125,7.53125 C31.2994792,7.53125 31.5182292,7.51302083 31.6640625,7.4765625 L31.6640625,7.4765625 L31.6640625,8.4609375 L31.6640625,8.4609375 L31.5,8.4609375 C31.28125,8.4609375 31.0989583,8.49739583 30.953125,8.5703125 L30.953125,8.5703125 Z M34.9453125,9.828125 C34.5807292,9.79166667 34.3984375,9.64583333 34.3984375,9.390625 C34.3984375,9.24479167 34.453125,9.0625 34.5625,8.84375 C34.7447917,9.13541667 35.0182292,9.28125 35.3828125,9.28125 C35.4921875,9.28125 35.6380208,9.26302083 35.8203125,9.2265625 L35.8203125,9.2265625 L36.203125,9.2265625 L36.203125,9.2265625 L36.203125,9.7734375 C35.765625,9.80989583 35.3463542,9.828125 34.9453125,9.828125 Z M31.6640625,11.140625 C31.6640625,11.5052083 31.4270833,11.6328125 30.953125,11.5234375 C30.9895833,11.1953125 31.0078125,10.8854167 31.0078125,10.59375 L31.0078125,10.59375 L31.0625,10.59375 C31.28125,10.59375 31.4817708,10.5755208 31.6640625,10.5390625 L31.6640625,10.5390625 L31.6640625,11.140625 Z M44.0234375,14.5859375 C44.6432292,14.5859375 45.1901042,14.2760417 45.6640625,13.65625 C45.9921875,13.9114583 46.3203125,14.0390625 46.6484375,14.0390625 C47.0494792,14.0390625 47.3776042,13.8385417 47.6328125,13.4375 C47.8151042,14.1666667 48.3255208,14.53125 49.1640625,14.53125 C49.4557292,14.53125 49.9296875,14.4947917 50.5859375,14.421875 C51.2421875,14.3125 51.7526042,14.2578125 52.1171875,14.2578125 C52.3723958,14.2578125 52.7552083,14.2760417 53.265625,14.3125 C53.8125,14.3854167 54.2317708,14.421875 54.5234375,14.421875 C55.2161458,14.421875 55.5625,14.0390625 55.5625,13.2734375 C55.6354167,12.1796875 55.0338542,11.6692708 53.7578125,11.7421875 L53.7578125,11.7421875 L53.046875,11.7421875 L53.046875,11.1953125 L53.046875,11.1953125 L54.4140625,11.1953125 C54.9609375,11.1588542 55.2526042,10.8489583 55.2890625,10.265625 C55.3619792,9.171875 54.6692708,8.69791667 53.2109375,8.84375 L53.2109375,8.84375 L52.9921875,8.84375 C52.9921875,8.66145833 52.8828125,8.4609375 52.6640625,8.2421875 C52.7734375,8.2421875 52.9375,8.26041667 53.15625,8.296875 C53.703125,8.36979167 54.1223958,8.40625 54.4140625,8.40625 C55.1067708,8.40625 55.453125,8.04166667 55.453125,7.3125 C55.5260417,6.21875 54.90625,5.70833333 53.59375,5.78125 L53.59375,5.78125 L52.9375,5.78125 L52.9375,5.234375 L54.3046875,5.234375 C54.8880208,5.19791667 55.1979167,4.8515625 55.234375,4.1953125 C55.2708333,3.28385417 54.6328125,2.86458333 53.3203125,2.9375 L53.3203125,2.9375 L53.2109375,2.9375 L53.2109375,2.7734375 C53.1744792,2.0078125 52.6640625,1.60677083 51.6796875,1.5703125 C51.4244792,1.5703125 51.078125,1.66145833 50.640625,1.84375 C50.1666667,2.02604167 49.8203125,2.09895833 49.6015625,2.0625 L49.6015625,2.0625 L49.6015625,2.2265625 C49.5286458,2.6640625 49.6744792,3.01041667 50.0390625,3.265625 C49.6015625,3.33854167 49.1640625,3.375 48.7265625,3.375 C48.4713542,3.375 48.1979167,3.33854167 47.90625,3.265625 C47.90625,4.140625 48.0703125,4.76041667 48.3984375,5.125 C48.1432292,5.34375 47.9244792,5.65364583 47.7421875,6.0546875 C47.6692708,4.9609375 47.25,4.32291667 46.484375,4.140625 C46.5572917,3.8125 46.59375,3.484375 46.59375,3.15625 C46.5208333,2.171875 46.0651042,1.64322917 45.2265625,1.5703125 C44.9713542,1.5703125 44.6432292,1.69791667 44.2421875,1.953125 C43.8776042,2.171875 43.5859375,2.26302083 43.3671875,2.2265625 C43.3307292,2.29947917 43.3125,2.390625 43.3125,2.5 C43.3125,2.86458333 43.4036458,3.19270833 43.5859375,3.484375 C43.7317708,3.703125 43.8046875,3.88541667 43.8046875,4.03125 L43.8046875,4.03125 L43.8046875,4.359375 C43.6223958,4.43229167 43.421875,4.46875 43.203125,4.46875 C43.0572917,4.46875 42.9661458,4.25 42.9296875,3.8125 C42.6015625,4.46875 42.4375,5.08854167 42.4375,5.671875 C42.4375,6.51041667 42.6927083,7.02083333 43.203125,7.203125 C43.0572917,7.78645833 42.984375,8.27864583 42.984375,8.6796875 C42.984375,9.4453125 43.1666667,10.1927083 43.53125,10.921875 C43.6041667,11.03125 43.7135417,11.2135417 43.859375,11.46875 C43.421875,12.34375 42.9479167,12.9270833 42.4375,13.21875 C42.765625,14.09375 43.2942708,14.5494792 44.0234375,14.5859375 Z M49.0546875,6.109375 C48.6171875,6.109375 48.3802083,5.90885417 48.34375,5.5078125 C48.34375,5.36197917 48.3802083,5.234375 48.453125,5.125 C48.671875,5.34375 49.0182292,5.47135417 49.4921875,5.5078125 C49.6015625,5.5078125 49.7473958,5.48958333 49.9296875,5.453125 L49.9296875,5.453125 L50.3671875,5.453125 C50.3671875,5.63541667 50.3489583,5.8359375 50.3125,6.0546875 C49.875,6.09114583 49.4557292,6.109375 49.0546875,6.109375 Z M45.28125,9.390625 C45.0989583,9.171875 45.0078125,8.93489583 45.0078125,8.6796875 C45.0078125,8.05989583 45.1171875,7.45833333 45.3359375,6.875 C45.4088542,6.80208333 45.5,6.765625 45.609375,6.765625 C45.828125,6.765625 45.9375,6.89322917 45.9375,7.1484375 C45.828125,8.20572917 45.609375,8.953125 45.28125,9.390625 Z M49,12.0703125 C48.4895833,12.0703125 48.234375,11.8515625 48.234375,11.4140625 C48.234375,11.2317708 48.2708333,11.0859375 48.34375,10.9765625 C48.125,11.1223958 47.90625,11.3958333 47.6875,11.796875 C47.578125,11.4322917 47.3776042,11.1223958 47.0859375,10.8671875 C47.4140625,9.8828125 47.6510417,8.7890625 47.796875,7.5859375 C47.9791667,8.20572917 48.3802083,8.515625 49,8.515625 C49.4010417,8.515625 49.8020833,8.47916667 50.203125,8.40625 C50.3125,8.625 50.3489583,8.88020833 50.3125,9.171875 C49.765625,9.24479167 49.2369792,9.28125 48.7265625,9.28125 C48.3619792,9.28125 48.0885417,9.24479167 47.90625,9.171875 C47.9427083,10.6302083 48.3984375,11.3776042 49.2734375,11.4140625 C49.6015625,11.4140625 49.9114583,11.3958333 50.203125,11.359375 L50.203125,11.359375 L50.203125,12.015625 C49.8020833,12.0520833 49.4010417,12.0703125 49,12.0703125 Z M58.5703125,14.640625 C59.2265625,14.640625 59.6276042,14.1119792 59.7734375,13.0546875 C59.9557292,13.2005208 60.1927083,13.2734375 60.484375,13.2734375 C60.8489583,13.2734375 61.1588542,13.1276042 61.4140625,12.8359375 C61.4869792,12.7630208 61.5598958,12.6354167 61.6328125,12.453125 C61.8880208,12.7083333 62.2526042,12.8359375 62.7265625,12.8359375 L62.7265625,12.8359375 L62.7265625,12.9453125 C62.7630208,14.0390625 63.2916667,14.6041667 64.3125,14.640625 C65.1875,14.6041667 65.6614583,14.0755208 65.734375,13.0546875 L65.734375,13.0546875 L65.734375,12.7265625 L66.0625,12.7265625 C66.390625,12.7265625 66.6640625,12.6354167 66.8828125,12.453125 C67.2109375,13.0364583 67.6484375,13.328125 68.1953125,13.328125 C69.1432292,13.3645833 69.5989583,12.78125 69.5625,11.578125 C69.5625,10.9583333 69.4348958,10.484375 69.1796875,10.15625 C68.5963542,9.31770833 67.9583333,7.96875 67.265625,6.109375 C67.1927083,5.890625 67.1380208,5.7265625 67.1015625,5.6171875 L67.1015625,5.6171875 L67.921875,5.6171875 C68.90625,5.65364583 69.3984375,5.2890625 69.3984375,4.5234375 C69.3984375,3.5390625 68.5963542,3.06510417 66.9921875,3.1015625 L66.9921875,3.1015625 L66.5,3.1015625 C66.2447917,3.13802083 66.0442708,3.15625 65.8984375,3.15625 L65.8984375,3.15625 L65.8984375,2.9921875 C65.8619792,2.08072917 65.3515625,1.60677083 64.3671875,1.5703125 C64.1484375,1.5703125 63.8385417,1.66145833 63.4375,1.84375 C63.0364583,2.02604167 62.7083333,2.08072917 62.453125,2.0078125 C62.4166667,2.1171875 62.3984375,2.2265625 62.3984375,2.3359375 C62.3984375,2.80989583 62.5625,3.15625 62.890625,3.375 C62.9270833,3.375 62.9453125,3.41145833 62.9453125,3.484375 C62.3255208,3.55729167 61.7057292,3.59375 61.0859375,3.59375 C60.8671875,3.59375 60.6302083,3.57552083 60.375,3.5390625 C60.4114583,3.39322917 60.4296875,3.2109375 60.4296875,2.9921875 C60.3932292,2.08072917 59.9192708,1.60677083 59.0078125,1.5703125 C58.6067708,1.5703125 58.2421875,1.6796875 57.9140625,1.8984375 C57.7317708,2.04427083 57.5677083,2.1171875 57.421875,2.1171875 C57.3125,2.1171875 57.203125,2.09895833 57.09375,2.0625 C57.0572917,2.20833333 57.0390625,2.37239583 57.0390625,2.5546875 C57.0390625,2.70052083 57.1119792,2.8828125 57.2578125,3.1015625 C57.4036458,3.3203125 57.4765625,3.52083333 57.4765625,3.703125 C57.4401042,5.08854167 57.0755208,6.45572917 56.3828125,7.8046875 C56.6744792,8.0234375 56.984375,8.1875 57.3125,8.296875 C57.3125,8.515625 57.2760417,8.82552083 57.203125,9.2265625 C57.09375,10.5026042 57.0390625,11.4505208 57.0390625,12.0703125 C56.9296875,13.8203125 57.4401042,14.6770833 58.5703125,14.640625 Z M59.7734375,9.7734375 C59.7734375,8.4609375 59.71875,7.44010417 59.609375,6.7109375 C59.7552083,6.20052083 59.8828125,5.70833333 59.9921875,5.234375 C60.2473958,5.59895833 60.6666667,5.81770833 61.25,5.890625 C61.03125,7.09375 60.5390625,8.38802083 59.7734375,9.7734375 Z M66.171875,10.4296875 C65.9895833,10.3932292 65.7890625,10.375 65.5703125,10.375 C65.4609375,9.390625 65.40625,8.44270833 65.40625,7.53125 L65.40625,7.53125 L65.40625,6.984375 C65.3697917,6.47395833 65.3697917,6.09114583 65.40625,5.8359375 C65.4427083,6.01822917 65.4973958,6.3828125 65.5703125,6.9296875 C65.6432292,7.29427083 65.6796875,7.51302083 65.6796875,7.5859375 C65.7526042,7.8046875 65.8255208,8.26041667 65.8984375,8.953125 C66.0078125,9.609375 66.0989583,10.1015625 66.171875,10.4296875 Z M62.2890625,10.59375 C62.6901042,8.98958333 63,7.44010417 63.21875,5.9453125 L63.21875,5.9453125 L63.21875,6.3828125 C63.21875,7.62239583 63.1640625,8.84375 63.0546875,10.046875 L63.0546875,10.046875 L63.0546875,10.265625 C63.0182292,10.375 63,10.4661458 63,10.5390625 C62.7447917,10.5755208 62.5078125,10.59375 62.2890625,10.59375 Z" id="path-1"></path>
    </defs>
    <g id="页面-1" stroke="none" stroke-width="1" fill="none" fill-rule="evenodd">
        <g id="画板" transform="translate(-169.000000, -154.000000)">
            <g id="方正胖娃体" transform="translate(169.000000, 154.000000)">
                <rect id="矩形备份-5" stroke-opacity="0" stroke="#979797" x="0.5" y="0.5" width="79" height="23"></rect>
                <g id="方正胖娃体备份" transform="translate(5.000000, 4.000000)" fill-rule="nonzero">
                    <g id="方正胖娃体">
                        <use fill="#000000" xlink:href="#path-1"></use>
                        <use fill="#333333" xlink:href="#path-1"></use>
                    </g>
                </g>
            </g>
        </g>
    </g>
</svg>