<?xml version="1.0" encoding="UTF-8"?>
<svg width="80px" height="24px" viewBox="0 0 80 24" version="1.1" xmlns="http://www.w3.org/2000/svg" xmlns:xlink="http://www.w3.org/1999/xlink">
    <title>方正非凡体</title>
    <defs>
        <path d="M5.208,13.358 C6.39333333,12.6953333 7.17266667,11.8833333 7.546,10.922 C7.84466667,10.2126667 7.98933333,9.29333333 7.98,8.164 L7.98,8.164 L7.98,5.266 L3.64,5.266 L3.64,3.586 L8.68,3.586 L8.68,2.648 L5.684,2.648 C5.488,2.34 5.376,2.05066667 5.348,1.78 C5.32,1.63066667 5.306,1.36933333 5.306,0.996 L5.306,0.996 L3.948,0.996 C3.96666667,1.304 4.02733333,1.556 4.13,1.752 C4.326,2.18133333 4.746,2.48 5.39,2.648 L5.39,2.648 L1.008,2.648 L1.008,3.586 L2.464,3.586 L2.464,7.506 C2.464,8.50466667 2.34266667,9.47066667 2.1,10.404 C1.82,11.4866667 1.386,12.4713333 0.798,13.358 C1.81533333,12.8446667 2.56666667,11.9533333 3.052,10.684 C3.43466667,9.66666667 3.63066667,8.598 3.64,7.478 L3.64,7.478 L3.64,6.204 L6.804,6.204 L6.804,8.304 C6.804,9.172 6.72933333,9.942 6.58,10.614 C6.34666667,11.6406667 5.88933333,12.5553333 5.208,13.358 Z M18.326,12.91 L18.326,12.028 L15.442,12.028 L15.442,6.68 L18.116,6.68 L18.116,5.742 L15.442,5.742 L15.442,2.256 L18.326,2.256 L18.326,1.318 L10.794,1.318 L10.794,2.256 L14.266,2.256 L14.266,12.028 L12.698,12.028 L12.698,4.384 L11.522,4.384 L11.522,12.028 L10.654,12.028 L10.654,12.91 L18.326,12.91 Z M23.618,13.12 L23.618,0.996 L22.456,0.996 L22.456,2.564 L20.412,2.564 L20.412,3.502 L22.456,3.502 L22.456,5.686 L20.692,5.686 L20.692,6.624 L22.456,6.624 L22.456,9.088 L20.314,9.088 L20.314,10.026 L22.456,10.026 L22.456,13.12 L23.618,13.12 Z M25.844,13.12 L25.844,10.026 L27.986,10.026 L27.986,9.088 L25.844,9.088 L25.844,6.624 L27.608,6.624 L27.608,5.686 L25.844,5.686 L25.844,3.502 L27.888,3.502 L27.888,2.564 L25.844,2.564 L25.844,0.996 L24.682,0.996 L24.682,13.12 L25.844,13.12 Z M29.792,13.33 C30.8186667,12.7326667 31.542,11.79 31.962,10.502 C32.3166667,9.45666667 32.4893333,8.08933333 32.48,6.4 L32.48,6.4 L32.48,2.228 L35.112,2.228 L35.112,10.124 C34.748,9.58266667 34.5193333,8.89666667 34.426,8.066 C34.37,7.68333333 34.342,7.22133333 34.342,6.68 L34.342,6.68 L34.342,3.166 L33.25,3.166 L33.25,6.764 C33.2593333,7.42666667 33.3993333,8.05666667 33.67,8.654 C33.978,9.326 34.4586667,9.83 35.112,10.166 L35.112,10.166 L35.112,12.028 C35.112,12.3453333 35.1913333,12.602 35.35,12.798 C35.5273333,13.0033333 35.7793333,13.106 36.106,13.106 L36.106,13.106 L36.806,13.106 C37.0953333,13.1153333 37.3286667,12.9986667 37.506,12.756 C37.702,12.5133333 37.8,12.112 37.8,11.552 C37.772,10.628 37.5713333,9.90466667 37.198,9.382 C37.2633333,9.93266667 37.2913333,10.404 37.282,10.796 C37.2633333,11.2813333 37.198,11.6453333 37.086,11.888 C36.9926667,12.1306667 36.8666667,12.2426667 36.708,12.224 L36.512,12.224 C36.3533333,12.2053333 36.2693333,12.1026667 36.26,11.916 L36.26,11.916 L36.26,1.318 L32.48,1.318 L32.48,0.996 L31.332,0.996 L31.332,6.708 C31.3413333,8.192 31.2433333,9.424 31.038,10.404 C30.786,11.636 30.3706667,12.6113333 29.792,13.33 Z M41.328,13.12 L41.328,4.958 L40.586,4.958 C40.922,4.54733333 41.1926667,4.09466667 41.398,3.6 C41.678,2.90933333 41.8413333,2.04133333 41.888,0.996 L41.888,0.996 L40.67,0.996 C40.67,1.77066667 40.614,2.49866667 40.502,3.18 C40.3433333,4.15066667 40.0026667,5.06066667 39.48,5.91 C39.7693333,5.73266667 40.0306667,5.532 40.264,5.308 L40.264,5.308 L40.264,13.12 L41.328,13.12 Z M45.136,13.12 L45.136,10.586 L45.864,10.586 L45.864,9.676 L45.136,9.676 L45.136,3.614 L47.32,3.614 L47.32,2.704 L45.136,2.704 L45.136,0.996 L44.016,0.996 L44.016,2.704 L41.832,2.704 L41.832,3.614 L44.016,3.614 L44.016,9.676 L43.288,9.676 L43.288,10.586 L44.016,10.586 L44.016,13.12 L45.136,13.12 Z M47.418,12.56 C47.2033333,11.72 47.068,10.8613333 47.012,9.984 C46.956,9.2 46.928,8.38333333 46.928,7.534 L46.928,7.534 L46.928,4.132 L45.892,4.132 L45.892,7.072 C45.892,8.08 46.004,9.05066667 46.228,9.984 C46.508,11.1226667 46.9046667,11.9813333 47.418,12.56 Z M41.748,12.56 C42.308,11.9346667 42.7186667,11.104 42.98,10.068 C43.1666667,9.284 43.26,8.28533333 43.26,7.072 L43.26,7.072 L43.26,4.132 L42.224,4.132 L42.224,8.402 C42.224,8.626 42.2193333,8.82666667 42.21,9.004 C42.2006667,9.37733333 42.1866667,9.71333333 42.168,10.012 C42.1213333,10.796 41.9813333,11.6453333 41.748,12.56 Z" id="path-1"></path>
    </defs>
    <g id="页面-1" stroke="none" stroke-width="1" fill="none" fill-rule="evenodd">
        <g id="画板" transform="translate(-370.000000, -52.000000)">
            <g id="方正非凡体" transform="translate(370.000000, 52.000000)">
                <rect id="矩形备份-13" stroke-opacity="0" stroke="#979797" x="0.5" y="0.5" width="79" height="23"></rect>
                <g id="方正非凡体备份-3" transform="translate(16.000000, 5.000000)" fill-rule="nonzero">
                    <g id="方正非凡体">
                        <use fill="#000000" xlink:href="#path-1"></use>
                        <use fill="#333333" xlink:href="#path-1"></use>
                    </g>
                </g>
            </g>
        </g>
    </g>
</svg>