<?xml version="1.0" encoding="UTF-8"?>
<svg width="80px" height="24px" viewBox="0 0 80 24" version="1.1" xmlns="http://www.w3.org/2000/svg" xmlns:xlink="http://www.w3.org/1999/xlink">
    <title>方正胖头体</title>
    <defs>
        <path d="M7.984375,13.421875 C9.80729167,14.0052083 11.2109375,13.6770833 12.1953125,12.4375 C12.8151042,11.453125 13.1067708,10.359375 13.0703125,9.15625 C12.9973958,7.11458333 11.4661458,6.2578125 8.4765625,6.5859375 C7.78385417,6.62239583 7.40104167,6.38541667 7.328125,5.875 C7.51041667,5.40104167 7.83854167,5.18229167 8.3125,5.21875 C9.625,5.328125 10.5911458,5.36458333 11.2109375,5.328125 C12.9609375,5.328125 13.78125,4.8359375 13.671875,3.8515625 C13.671875,2.79427083 12.7239583,2.30208333 10.828125,2.375 C9.953125,2.44791667 9.33333333,2.19270833 8.96875,1.609375 C8.49479167,0.953125 7.80208333,0.643229167 6.890625,0.6796875 C6.27083333,0.643229167 5.6875,0.971354167 5.140625,1.6640625 C4.703125,2.35677083 3.80989583,2.6484375 2.4609375,2.5390625 C1.1484375,2.50260417 0.473958333,2.95833333 0.4375,3.90625 C0.4375,4.70833333 0.802083333,5.21875 1.53125,5.4375 C2.625,5.94791667 2.88020833,6.84114583 2.296875,8.1171875 C1.96875,8.7734375 1.4765625,9.50260417 0.8203125,10.3046875 C0.2734375,11.3619792 0.419270833,12.2552083 1.2578125,12.984375 C2.7890625,13.9322917 4.046875,13.4583333 5.03125,11.5625 C5.39583333,10.6875 5.8515625,10.0130208 6.3984375,9.5390625 C7.3828125,8.84635417 8.13020833,8.75520833 8.640625,9.265625 C9.078125,9.84895833 8.82291667,10.4322917 7.875,11.015625 C6.85416667,11.8177083 6.890625,12.6197917 7.984375,13.421875 Z M19.140625,12.984375 C20.9635417,13.0208333 22.859375,12.9479167 24.828125,12.765625 C26.3958333,12.5833333 27.2161458,12.0182292 27.2890625,11.0703125 C27.2526042,9.8671875 26.578125,9.24739583 25.265625,9.2109375 C24.71875,9.13802083 24.3723958,8.90104167 24.2265625,8.5 C24.1901042,7.953125 24.6640625,7.71614583 25.6484375,7.7890625 C26.7421875,7.7890625 27.2890625,7.3515625 27.2890625,6.4765625 C27.1796875,5.8203125 26.7421875,5.47395833 25.9765625,5.4375 C25.2109375,5.47395833 24.6458333,5.47395833 24.28125,5.4375 C23.9895833,5.328125 23.8619792,5.109375 23.8984375,4.78125 C23.9713542,4.27083333 24.4635417,4.05208333 25.375,4.125 C26.5416667,4.16145833 27.1796875,3.77864583 27.2890625,2.9765625 C27.2526042,2.02864583 26.3776042,1.48177083 24.6640625,1.3359375 C20.9453125,1.08072917 18.3385417,1.08072917 16.84375,1.3359375 C15.6041667,1.59114583 15.0390625,2.19270833 15.1484375,3.140625 C15.3307292,4.08854167 15.8776042,4.59895833 16.7890625,4.671875 C17.5182292,4.70833333 18.0651042,4.8359375 18.4296875,5.0546875 C18.9036458,5.2734375 19.1041667,5.89322917 19.03125,6.9140625 C19.03125,7.75260417 18.7760417,8.1171875 18.265625,8.0078125 C17.9375,7.86197917 17.8098958,7.53385417 17.8828125,7.0234375 C17.9192708,6.29427083 17.7369792,5.78385417 17.3359375,5.4921875 C16.6796875,5.12760417 16.1692708,5.18229167 15.8046875,5.65625 C15.4765625,6.05729167 15.4583333,6.9140625 15.75,8.2265625 C15.8229167,8.70052083 15.6588542,9.1015625 15.2578125,9.4296875 C14.6015625,10.1588542 14.4921875,10.9427083 14.9296875,11.78125 C15.5130208,12.4739583 16.9166667,12.875 19.140625,12.984375 Z M29.6953125,13.3671875 C30.4244792,13.3671875 30.8255208,12.9296875 30.8984375,12.0546875 C30.9348958,11.7630208 30.9713542,11.4166667 31.0078125,11.015625 C31.0442708,10.796875 31.0625,10.6328125 31.0625,10.5234375 C31.171875,10.0130208 31.4088542,9.83072917 31.7734375,9.9765625 C32.0651042,10.1953125 32.1197917,10.578125 31.9375,11.125 C31.609375,12.4739583 31.9192708,13.1848958 32.8671875,13.2578125 C33.9609375,13.0390625 34.453125,11.7447917 34.34375,9.375 C34.3072917,8.9375 34.2708333,8.3359375 34.234375,7.5703125 C34.1979167,6.40364583 34.1432292,5.45572917 34.0703125,4.7265625 C33.9973958,3.55989583 33.8151042,2.68489583 33.5234375,2.1015625 C33.1223958,1.19010417 32.3932292,0.752604167 31.3359375,0.7890625 C30.3880208,0.6796875 29.7317708,1.0078125 29.3671875,1.7734375 C29.0755208,2.24739583 28.9114583,3.01302083 28.875,4.0703125 C28.875,4.69010417 28.8932292,5.3828125 28.9296875,6.1484375 C29.0390625,8.19010417 29.0026042,9.63020833 28.8203125,10.46875 C28.6380208,11.453125 28.6197917,12.1822917 28.765625,12.65625 C28.9114583,13.09375 29.2213542,13.3307292 29.6953125,13.3671875 Z M37.734375,13.4765625 C38.7916667,13.5130208 39.4661458,13.1119792 39.7578125,12.2734375 C40.0130208,11.5078125 40.2317708,11.0703125 40.4140625,10.9609375 C41.0703125,10.4505208 41.3984375,9.90364583 41.3984375,9.3203125 C41.3984375,8.59114583 41.015625,8.04427083 40.25,7.6796875 C39.9947917,7.5703125 39.8489583,7.38802083 39.8125,7.1328125 C39.8489583,6.9140625 39.9947917,6.78645833 40.25,6.75 C40.9427083,6.67708333 41.3255208,6.2578125 41.3984375,5.4921875 C41.3619792,4.76302083 40.9791667,4.27083333 40.25,4.015625 C39.59375,3.83333333 39.2473958,3.359375 39.2109375,2.59375 C39.0651042,1.42708333 38.6640625,0.84375 38.0078125,0.84375 C37.2786458,0.770833333 36.8776042,1.28125 36.8046875,2.375 C36.6953125,3.32291667 36.3125,3.94270833 35.65625,4.234375 C34.9635417,4.48958333 34.5989583,4.96354167 34.5625,5.65625 C34.5989583,6.3125 34.9635417,6.73177083 35.65625,6.9140625 C35.9479167,6.98697917 36.09375,7.1328125 36.09375,7.3515625 C36.0572917,7.64322917 35.8932292,7.84375 35.6015625,7.953125 C35.0182292,8.20833333 34.7265625,8.70052083 34.7265625,9.4296875 C34.7994792,9.94010417 35,10.3411458 35.328125,10.6328125 C35.6197917,10.7786458 35.8203125,11.1979167 35.9296875,11.890625 C36.0755208,12.984375 36.6770833,13.5130208 37.734375,13.4765625 Z M35.109375,3.46875 C35.765625,3.359375 36.1848958,2.88541667 36.3671875,2.046875 C36.3671875,1.28125 36.0026042,0.880208333 35.2734375,0.84375 C34.5442708,0.84375 34.125,1.29947917 34.015625,2.2109375 C34.125,2.9765625 34.4895833,3.39583333 35.109375,3.46875 Z M40.4140625,3.4140625 C41.0703125,3.37760417 41.4348958,2.921875 41.5078125,2.046875 C41.5442708,1.28125 41.2161458,0.880208333 40.5234375,0.84375 C39.8307292,0.84375 39.4479167,1.2265625 39.375,1.9921875 C39.375,2.8671875 39.7213542,3.34114583 40.4140625,3.4140625 Z M31.4453125,4.5625 C31.0807292,4.5625 30.8802083,4.2890625 30.84375,3.7421875 C30.8802083,3.15885417 31.0989583,2.88541667 31.5,2.921875 C31.7552083,2.921875 31.9192708,3.1953125 31.9921875,3.7421875 C31.9921875,4.2890625 31.8098958,4.5625 31.4453125,4.5625 Z M31.5,7.84375 C31.171875,7.84375 30.9895833,7.515625 30.953125,6.859375 C31.0625,6.34895833 31.28125,6.07552083 31.609375,6.0390625 C31.9375,6.11197917 32.1197917,6.40364583 32.15625,6.9140625 C32.1197917,7.53385417 31.9010417,7.84375 31.5,7.84375 Z M46.8125,3.4140625 C47.90625,3.4140625 48.5078125,2.99479167 48.6171875,2.15625 C48.5807292,1.24479167 47.796875,0.752604167 46.265625,0.6796875 C45.0625,0.6796875 44.40625,1.09895833 44.296875,1.9375 C44.2604167,2.8125 45.0989583,3.3046875 46.8125,3.4140625 Z M45.3359375,13.3671875 C47.2682292,13.4765625 48.7630208,12.4921875 49.8203125,10.4140625 C50.0755208,9.68489583 50.6588542,9.41145833 51.5703125,9.59375 C53.7578125,9.84895833 55.0520833,9.41145833 55.453125,8.28125 C55.7447917,7.1875 55.0703125,6.421875 53.4296875,5.984375 C52.4817708,5.765625 52.1536458,5.14583333 52.4453125,4.125 C52.9192708,2.33854167 52.5182292,1.3359375 51.2421875,1.1171875 C50.0755208,0.971354167 49.3098958,1.62760417 48.9453125,3.0859375 C48.6536458,4.32552083 48.1432292,5.34635417 47.4140625,6.1484375 C46.8307292,6.8046875 45.8463542,7.09635417 44.4609375,7.0234375 C43.2578125,6.95052083 42.6380208,7.31510417 42.6015625,8.1171875 C42.4557292,8.80989583 42.7291667,9.3203125 43.421875,9.6484375 C43.8958333,9.8671875 43.9505208,10.25 43.5859375,10.796875 C42.7109375,12.3645833 43.2942708,13.2213542 45.3359375,13.3671875 Z M44.734375,6.2578125 C46.265625,6.2578125 47.0677083,5.85677083 47.140625,5.0546875 C47.359375,4.25260417 46.4296875,3.7421875 44.3515625,3.5234375 C43.3307292,3.48697917 42.765625,3.86979167 42.65625,4.671875 C42.6927083,5.61979167 43.3854167,6.1484375 44.734375,6.2578125 Z M52.7734375,13.421875 C54.3411458,13.4947917 55.1614583,12.984375 55.234375,11.890625 C55.34375,10.6510417 54.4322917,10.0130208 52.5,9.9765625 C51.0416667,9.94010417 50.2395833,10.4869792 50.09375,11.6171875 C49.9479167,12.7473958 50.8411458,13.3489583 52.7734375,13.421875 Z M64.09375,13.0390625 C64.53125,13.3671875 65.0052083,13.4947917 65.515625,13.421875 C65.9895833,13.3125 66.2994792,12.9479167 66.4453125,12.328125 C66.5546875,11.7447917 66.6822917,11.4348958 66.828125,11.3984375 C67.046875,11.3619792 67.2109375,11.5078125 67.3203125,11.8359375 C67.5390625,12.3098958 67.9036458,12.5286458 68.4140625,12.4921875 C69.1067708,12.4921875 69.453125,11.9088542 69.453125,10.7421875 C69.4895833,9.5390625 69.3619792,8.609375 69.0703125,7.953125 C68.7057292,7.00520833 68.7057292,6.3125 69.0703125,5.875 C69.4348958,5.40104167 69.5989583,4.890625 69.5625,4.34375 C69.5625,3.50520833 69.1796875,3.01302083 68.4140625,2.8671875 C67.9036458,2.68489583 67.484375,2.35677083 67.15625,1.8828125 C66.5364583,1.1171875 65.8255208,0.716145833 65.0234375,0.6796875 C64.2942708,0.752604167 63.65625,1.19010417 63.109375,1.9921875 C62.9635417,2.2109375 62.6536458,2.44791667 62.1796875,2.703125 C61.6328125,2.95833333 61.2682292,3.3046875 61.0859375,3.7421875 C60.8671875,4.32552083 60.9036458,4.890625 61.1953125,5.4375 C61.5234375,5.984375 61.5598958,6.67708333 61.3046875,7.515625 C60.8671875,8.90104167 60.6119792,9.90364583 60.5390625,10.5234375 C60.4661458,11.3984375 60.6484375,11.9817708 61.0859375,12.2734375 C61.6328125,12.6744792 62.1067708,12.6744792 62.5078125,12.2734375 C62.6901042,12.0911458 62.8359375,11.9088542 62.9453125,11.7265625 L62.9453125,11.7265625 L63.0546875,11.6171875 C63.2369792,11.4713542 63.4010417,11.5260417 63.546875,11.78125 C63.65625,12.4375 63.8385417,12.8567708 64.09375,13.0390625 Z M58.515625,13.421875 C59.171875,13.3854167 59.6276042,12.9479167 59.8828125,12.109375 C60.1015625,11.453125 60.1197917,10.7239583 59.9375,9.921875 C59.828125,8.90104167 59.828125,7.77083333 59.9375,6.53125 C59.9739583,5.47395833 60.2109375,4.5078125 60.6484375,3.6328125 C61.4140625,1.80989583 61.0859375,0.861979167 59.6640625,0.7890625 C58.8619792,0.825520833 58.1692708,1.20833333 57.5859375,1.9375 C57.0026042,2.73958333 56.6927083,3.6328125 56.65625,4.6171875 L56.65625,4.6171875 L56.65625,5.65625 C56.6927083,7.26041667 56.6927083,8.37239583 56.65625,8.9921875 C56.546875,10.6328125 56.65625,11.8359375 56.984375,12.6015625 C57.2395833,13.1484375 57.75,13.421875 58.515625,13.421875 Z M64.1484375,7.953125 C64.0755208,8.828125 63.8203125,9.19270833 63.3828125,9.046875 C63.0911458,9.01041667 62.9635417,8.5546875 63,7.6796875 C63.0729167,7.05989583 63.2916667,6.71354167 63.65625,6.640625 C64.0572917,6.71354167 64.2213542,7.15104167 64.1484375,7.953125 Z M66.9375,8.9921875 C66.5729167,8.95572917 66.3541667,8.5546875 66.28125,7.7890625 C66.28125,7.09635417 66.4635417,6.71354167 66.828125,6.640625 C67.2291667,6.67708333 67.4479167,7.04166667 67.484375,7.734375 C67.484375,8.5 67.3020833,8.91927083 66.9375,8.9921875 Z" id="path-1"></path>
    </defs>
    <g id="页面-1" stroke="none" stroke-width="1" fill="none" fill-rule="evenodd">
        <g id="画板" transform="translate(-68.000000, -154.000000)">
            <g id="方正胖头体" transform="translate(68.000000, 154.000000)">
                <rect id="矩形备份-3" stroke-opacity="0" stroke="#979797" x="0.5" y="0.5" width="79" height="23"></rect>
                <g transform="translate(5.000000, 5.000000)" fill-rule="nonzero">
                    <g>
                        <use fill="#000000" xlink:href="#path-1"></use>
                        <use fill="#333333" xlink:href="#path-1"></use>
                    </g>
                </g>
            </g>
        </g>
    </g>
</svg>