<?xml version="1.0" encoding="UTF-8"?>
<svg width="146px" height="147px" viewBox="0 0 146 147" version="1.1" xmlns="http://www.w3.org/2000/svg" xmlns:xlink="http://www.w3.org/1999/xlink">
    <title>编组 5</title>
    <g id="页面-1" stroke="none" stroke-width="1" fill="none" fill-rule="evenodd">
        <g id="画板备份-14" transform="translate(-57.000000, -55.000000)">
            <g id="编组-5" transform="translate(57.000000, 55.000000)">
                <g id="编组-4">
                    <circle id="椭圆形" fill="#FF6C6C" cx="10" cy="13" r="10"></circle>
                    <text id="REC" font-family="FZHZGBJW--GB1-0, FZHanZhenGuangBiaoS-GB" font-size="24" font-weight="normal" letter-spacing="4.76" fill="#FFFFFF">
                        <tspan x="31.5" y="21">REC</tspan>
                    </text>
                </g>
                <rect id="矩形" fill="#2BEDFF" x="34" y="64" width="112" height="36"></rect>
                <g id="编组-2" opacity="0.347423735" transform="translate(1.000000, 87.000000)" fill="#FFFFFF">
                    <g id="编组">
                        <circle id="椭圆形" cx="3" cy="3" r="3"></circle>
                        <circle id="椭圆形备份" cx="13" cy="3" r="3"></circle>
                        <circle id="椭圆形备份-2" cx="23" cy="3" r="3"></circle>
                        <circle id="椭圆形备份-3" cx="33" cy="3" r="3"></circle>
                        <circle id="椭圆形备份-4" cx="43" cy="3" r="3"></circle>
                        <circle id="椭圆形备份-5" cx="53" cy="3" r="3"></circle>
                        <circle id="椭圆形备份-6" cx="63" cy="3" r="3"></circle>
                    </g>
                    <g id="编组备份" transform="translate(0.000000, 9.000000)">
                        <circle id="椭圆形" cx="3" cy="3" r="3"></circle>
                        <circle id="椭圆形备份" cx="13" cy="3" r="3"></circle>
                        <circle id="椭圆形备份-2" cx="23" cy="3" r="3"></circle>
                        <circle id="椭圆形备份-3" cx="33" cy="3" r="3"></circle>
                        <circle id="椭圆形备份-4" cx="43" cy="3" r="3"></circle>
                        <circle id="椭圆形备份-5" cx="53" cy="3" r="3"></circle>
                        <circle id="椭圆形备份-6" cx="63" cy="3" r="3"></circle>
                    </g>
                    <g id="编组备份-2" transform="translate(0.000000, 18.000000)">
                        <circle id="椭圆形" cx="3" cy="3" r="3"></circle>
                        <circle id="椭圆形备份" cx="13" cy="3" r="3"></circle>
                        <circle id="椭圆形备份-2" cx="23" cy="3" r="3"></circle>
                        <circle id="椭圆形备份-3" cx="33" cy="3" r="3"></circle>
                        <circle id="椭圆形备份-4" cx="43" cy="3" r="3"></circle>
                        <circle id="椭圆形备份-5" cx="53" cy="3" r="3"></circle>
                        <circle id="椭圆形备份-6" cx="63" cy="3" r="3"></circle>
                    </g>
                    <g id="编组备份-3" transform="translate(0.000000, 27.000000)">
                        <circle id="椭圆形" cx="3" cy="3" r="3"></circle>
                        <circle id="椭圆形备份" cx="13" cy="3" r="3"></circle>
                        <circle id="椭圆形备份-2" cx="23" cy="3" r="3"></circle>
                        <circle id="椭圆形备份-3" cx="33" cy="3" r="3"></circle>
                        <circle id="椭圆形备份-4" cx="43" cy="3" r="3"></circle>
                        <circle id="椭圆形备份-5" cx="53" cy="3" r="3"></circle>
                        <circle id="椭圆形备份-6" cx="63" cy="3" r="3"></circle>
                    </g>
                    <g id="编组备份-4" transform="translate(0.000000, 36.000000)">
                        <circle id="椭圆形" cx="3" cy="3" r="3"></circle>
                        <circle id="椭圆形备份" cx="13" cy="3" r="3"></circle>
                        <circle id="椭圆形备份-2" cx="23" cy="3" r="3"></circle>
                        <circle id="椭圆形备份-3" cx="33" cy="3" r="3"></circle>
                        <circle id="椭圆形备份-4" cx="43" cy="3" r="3"></circle>
                        <circle id="椭圆形备份-5" cx="53" cy="3" r="3"></circle>
                        <circle id="椭圆形备份-6" cx="63" cy="3" r="3"></circle>
                    </g>
                    <g id="编组备份-5" transform="translate(0.000000, 45.000000)">
                        <circle id="椭圆形" cx="3" cy="3" r="3"></circle>
                        <circle id="椭圆形备份" cx="13" cy="3" r="3"></circle>
                        <circle id="椭圆形备份-2" cx="23" cy="3" r="3"></circle>
                        <circle id="椭圆形备份-3" cx="33" cy="3" r="3"></circle>
                        <circle id="椭圆形备份-4" cx="43" cy="3" r="3"></circle>
                        <circle id="椭圆形备份-5" cx="53" cy="3" r="3"></circle>
                        <circle id="椭圆形备份-6" cx="63" cy="3" r="3"></circle>
                    </g>
                    <g id="编组备份-6" transform="translate(0.000000, 54.000000)">
                        <circle id="椭圆形" cx="3" cy="3" r="3"></circle>
                        <circle id="椭圆形备份" cx="13" cy="3" r="3"></circle>
                        <circle id="椭圆形备份-2" cx="23" cy="3" r="3"></circle>
                        <circle id="椭圆形备份-3" cx="33" cy="3" r="3"></circle>
                        <circle id="椭圆形备份-4" cx="43" cy="3" r="3"></circle>
                        <circle id="椭圆形备份-5" cx="53" cy="3" r="3"></circle>
                        <circle id="椭圆形备份-6" cx="63" cy="3" r="3"></circle>
                    </g>
                </g>
            </g>
        </g>
    </g>
</svg>