<?xml version="1.0" encoding="UTF-8"?>
<svg width="684px" height="371px" viewBox="0 0 684 371" version="1.1" xmlns="http://www.w3.org/2000/svg" xmlns:xlink="http://www.w3.org/1999/xlink">
    <title>编组 5</title>
    <g id="页面-1" stroke="none" stroke-width="1" fill="none" fill-rule="evenodd">
        <g id="画板备份-15" transform="translate(-285.000000, -175.000000)">
            <g id="编组-3" transform="translate(285.000000, 175.000000)">
                <g id="编组-5" transform="translate(-0.000000, 0.000000)">
                    <path d="M588.014226,342 L37.2,342 L37.2,87.1257799 M95.9423937,27.6 L646.8,27.6 L646.8,283.628427" id="形状" stroke="#FFFFFF" stroke-width="7.2"></path>
                    <path d="M73.543949,56.4 L73.543949,24.0808989 L62.2012739,24.0808989 L74.4,-1.0658141e-14 L55.3528662,-1.0658141e-14 L40.8,27.4606742 L40.8,56.4 L73.543949,56.4 Z M31.5692308,56.4 L31.5692308,24.0808989 L20.5615385,24.0808989 L32.4,-1.0658141e-14 L14.1230769,-1.0658141e-14 L-7.10542736e-14,27.4606742 L-7.10542736e-14,56.4 L31.5692308,56.4 Z" id="“" fill="#FFFFFF" fill-rule="nonzero" transform="translate(37.200000, 28.200000) scale(-1, 1) rotate(-360.000000) translate(-37.200000, -28.200000) "></path>
                    <path d="M683.143949,370.8 L683.143949,338.480899 L671.801274,338.480899 L684,314.4 L664.952866,314.4 L650.4,341.860674 L650.4,370.8 L683.143949,370.8 Z M641.169231,370.8 L641.169231,338.480899 L630.161538,338.480899 L642,314.4 L623.723077,314.4 L609.6,341.860674 L609.6,370.8 L641.169231,370.8 Z" id="“备份" fill="#FFFFFF" fill-rule="nonzero" transform="translate(646.800000, 342.600000) scale(-1, 1) rotate(-180.000000) translate(-646.800000, -342.600000) "></path>
                </g>
            </g>
        </g>
    </g>
</svg>